<svg xmlns="http://www.w3.org/2000/svg" viewBox="0 0 64 64"><path d="M44,58H19v1h1v1h24v-1h1v-1H44z" opacity=".25" enable-background="new"/><path d="M47 14v-2h-2v-2h-4V8h-4V6H27v2h-4v2h-4v2h-2v2h-2v41h4v-2h5v2h5v-2h6v2h5v-2h5v2h4V14z" fill="#64438e"/><path d="M45 14v-2h-4v-2h-4V8H27v2h-4v2h-4v2h-2v39h2v-2h5v2h5v-2h6v2h5v-2h5v2h2V14z" fill="#edd3fd"/><path d="M18,49h2v-1h2v1h2v2h5v-2h2v-1h2v1h2v2h5v-2h2v-1h2v1h1V14h-4v-2h-4v-2h-5V9h-5v2h-4v2h-4v2h-1V49z" fill="#fff"/><path d="M23 28v2h4v-2h2v-4h-2v-2h-4v2h-2v4h2zm12-4v4h2v2h4v-2h2v-4h-2v-2h-4v2h-2z" fill="#64438e"/><path d="M21 32v2h2v-2h-2zm20 0v2h2v-2h-2z" fill="#f696c6"/><g fill="#64438e"><path d="M29,32h-2v2h2V32z"/><path d="M29,34v2h6v-2H29z"/><path d="M35 32v2h2v-2h-2zm0-17v-1h-1v-1h-1v-1h-2v1h-1v1h-1v1h-1v4h1v1h1v1h1v1h2v-1h1v-1h1v-1h1v-4z"/></g><g fill="#dea8ff"><path d="M29,17v2h1v1h1v1h1v-4H29z"/><path d="M34,15v-1h-1v-1h-1v4h3v-2H34z"/></g><path d="M32,17v4h1v-1h1v-1h1v-2H32z" fill="#c260ff"/><path d="M31,13v1h-1v1h-1v2h3v-4H31z" fill="#edd3fd"/><path d="M8 38v-1h2v-1h2v-1h1v-1h1v-1h1v8h-1v1h-2v1H8v-1H7v-4z" fill="#64438e"/><path d="M10 38v-1h2v-1h1v-1h1v-1h1v6h-1v1h-2v1H8v-4z" fill="#edd3fd"/><path d="M8,38v3h4v-1h2v-1h1v-5h-1v1h-1v1h-1v1h-2v1H8z" fill="#fff"/><path d="M56 38v-1h-2v-1h-2v-1h-1v-1h-1v-1h-1v8h1v1h2v1h4v-1h1v-4z" fill="#64438e"/><path d="M54 38v-1h-2v-1h-1v-1h-1v-1h-1v6h1v1h2v1h4v-4z" fill="#edd3fd"/><path d="M54,38v-1h-2v-1h-1v-1h-1v-1h-1v5h1v1h2v1h4v-3H54z" fill="#fff"/><path d="M15,41v14h4v-2h5v2h5v-2h6v2h5v-2h5v2h4V41H15z" fill="#390601"/><g fill="#5e342f"><path d="M29 50h-1v1h-3v-1h-1v-5h-5v5h-1v1h-2v2h3v-2h5v2h5v-2h1v-6h-1v5zm-9-4h3v1h-3v-1zm0 2h3v1h-3v-1zm5-3h3v1h-3zm0 2h3v1h-3zm-9-2h2v2h-2z"/><path d="M25 49h3v1h-3zm-9-1h2v2h-2zm20-3h3v1h-3zm0 2h3v1h-3zm9-2h-5v5h-1v1h-3v-1h-1v-5h-1v6h1v2h5v-2h5v2h3v-2h-2v-1h-1v-5zm-4 1h3v1h-3v-1zm0 2h3v1h-3v-1z"/><path d="M46 48h2v2h-2zm0-3h2v2h-2zm-10 4h3v1h-3zm-5-4h2v6h-2z"/></g><g fill="#a97955"><path d="M30 42h1v2h-1zm-5 0h1v1h-1zm2 0h1v1h-1zm9 0h1v1h-1zm2 0h1v1h-1zm-19 0h1v1h-1zm2 0h1v1h-1zm2 0h1v1h-1zm-6 0h1v1h-1zm27 0h1v1h-1zm-2 0h1v1h-1zm-2 0h1v1h-1z"/><path d="M46 42h1v1h-1zm-13 0h1v2h-1zm-13 1h1v1h-1zm-2 0h1v1h-1zm4 0h1v1h-1zm2 0h1v1h-1zm4 0h1v1h-1zm15 0h1v1h-1z"/><path d="M41 43h1v1h-1zm-6 0h1v1h-1zm4 0h1v1h-1zm-23 0h1v1h-1zm31 0h1v1h-1zm-10 0h1v1h-1zm-11 0h1v1h-1zm19 0h1v1h-1z"/></g><path d="M46 24v-1h-1v-1h-1v-1h-1v-1h-6v1h-1v1h-1v1h-1v1h-4v-1h-1v-1h-1v-1h-1v-1h-6v1h-1v1h-1v1h-1v1h-3v4h3v1h1v1h1v1h1v1h5v5h1v1h1v1h8v-1h1v-1h1v-5h5v-1h1v-1h1v-1h1v-1h3v-4z" fill="#390601"/><g fill="#592f2a"><path d="M26 21h1v1h-1z"/><path d="M27 22h1v1h-1zm-6-1h1v1h-1z"/><path d="M20 22h1v1h-1z"/><path d="M19 23h1v1h-1z"/><path d="M18 24h1v1h-1zm8 6h1v1h-1z"/><path d="M27 29h1v1h-1zm-6 1h1v1h-1z"/><path d="M20 29h1v1h-1z"/><path d="M19 28h1v1h-1z"/><path d="M18 27h1v1h-1zm-2-1h1v1h-1z"/><path d="M17 25h1v1h-1zm-2 0h1v1h-1zm13-2h1v1h-1zm0 5h1v1h-1z"/><path d="M29 24h1v1h-1zm0 3h1v1h-1zm5-3h1v1h-1zm0 3h1v1h-1z"/><path d="M35 23h1v1h-1zm0 5h1v1h-1zm2-7h1v1h-1z"/><path d="M36 22h1v1h-1zm6-1h1v1h-1z"/><path d="M43 22h1v1h-1z"/><path d="M44 23h1v1h-1z"/><path d="M45 24h1v1h-1zm-8 6h1v1h-1z"/><path d="M36 29h1v1h-1zm6 1h1v1h-1z"/><path d="M43 29h1v1h-1z"/><path d="M44 28h1v1h-1z"/><path d="M45 27h1v1h-1zm2-1h1v1h-1z"/><path d="M46 25h1v1h-1zm2 0h1v1h-1z"/></g><g fill="#846460"><path d="M26 22h1v1h-1z"/><path d="M27 23h1v1h-1zm0 5h1v1h-1z"/><path d="M26 29h1v1h-1zm-5-7h1v1h-1z"/><path d="M20 23h1v1h-1zm0 5h1v1h-1z"/><path d="M21 29h1v1h-1zm2-8h2v1h-2zm-4 4h1v2h-1zm-2 1h1v1h-1zm-2 0h1v1h-1z"/><path d="M16 25h1v1h-1zm7 5h2v1h-2zm11-1h1v1h-1z"/><path d="M35 30h1v1h-1z"/><path d="M36 36h-1v1h-6v-1h-1v-5h-1v6h1v1h8v-1h1v-6h-1zm-6-8h4v1h-4zm3 2h1v1h-1z"/><path d="M34 31h1v1h-1zm-4-1h1v1h-1z"/><path d="M29 31h1v1h-1zm2 0h2v1h-2z"/><path d="M33 32h1v1h-1zm-3 0h1v1h-1z"/><path d="M31 33h2v1h-2z"/><path d="M33 34h1v1h-1zm-3 0h1v1h-1z"/><path d="M31 35h2v1h-2zm3-2h1v1h-1zm0 2h1v1h-1zm-5-2h1v1h-1zm0 2h1v1h-1zm0-6h1v1h-1z"/><path d="M28 30h1v1h-1zm0-5h1v2h-1zm2 0h1v2h-1zm3 0h1v2h-1zm2 0h1v2h-1zm2-3h1v1h-1z"/><path d="M36 23h1v1h-1zm0 5h1v1h-1z"/><path d="M37 29h1v1h-1zm5-7h1v1h-1z"/><path d="M43 23h1v1h-1zm0 5h1v1h-1z"/><path d="M42 29h1v1h-1zm-3-8h2v1h-2zm7 5h1v1h-1zm2 0h1v1h-1z"/><path d="M44 25h1v2h-1zm3 0h1v1h-1zm-8 5h2v1h-2z"/></g><path d="M26 23h-4v1h-1v4h1v1h4v-1h1v-4h-1zm16 1v-1h-4v1h-1v4h1v1h4v-1h1v-4z" fill="#0ff"/><g fill="#fff"><path d="M24 23h1v1h-1z"/><path d="M23 24h1v1h-1z"/><path d="M22 25h1v1h-1z"/><path d="M21 26h1v1h-1zm5-1h-1v1h-1v1h-1v1h-1v1h2v-1h1v-1h1v-1h1v-2h-1zm14-2h1v1h-1z"/><path d="M39 24h1v1h-1z"/><path d="M38 25h1v1h-1zm4-1v1h-1v1h-1v1h-1v1h-1v1h2v-1h1v-1h1v-1h1v-2z"/><path d="M37 26h1v1h-1z"/></g><path d="M14 33v1h-1v1h-1v1h-2v1H8v1H7v-1H6v-1H3v1H2v1H1v1h2v-1h3v1H5v2h1v1H3v-1H1v1h1v1h1v1h3v-1h1v-1h1v1h4v-1h2v-1h1v-8z" fill="#390601"/><path d="M6 39h2v2H6z" fill="#0ff"/><g fill="#4e2721"><path d="M2 38h1v1H2z"/><path d="M3 37h3v1H3zm0 5h3v1H3z"/><path d="M2 41h1v1H2zm12-5v1h-2v1h-2v1H9v2h1v-1h2v-1h2v-1h1v-2z"/></g><path d="M6 39h1v1H6z" fill="#fff"/></svg>