<?xml version="1.0" encoding="utf-8"?>
<!-- Generator: Adobe Illustrator 25.3.1, SVG Export Plug-In . SVG Version: 6.00 Build 0)  -->
<svg version="1.1" id="Layer_1" xmlns="http://www.w3.org/2000/svg" xmlns:xlink="http://www.w3.org/1999/xlink" x="0px" y="0px"
	 viewBox="0 0 64 64" style="enable-background:new 0 0 64 64;" xml:space="preserve">
<style type="text/css">
	.st0{fill:#26A17B;}
	.st1{fill:#AEDCCE;}
	.st2{fill:#FFFFFF;}
	.st3{fill:#F696C6;}
	.st4{opacity:0.25;enable-background:new    ;}
	.st5{fill:#EA8C27;}
	.st6{fill:#2A2A2A;}
	.st7{fill:#303030;}
	.st8{fill:#414040;}
	.st9{fill:#ECD3FC;}
	.st10{fill:#DE37E4;}
	.st11{display:none;}
	.st12{display:inline;}
	.st13{display:inline;fill:#FFFFFF;}
	.st14{fill:#FF0097;}
	.st15{fill:#FF14FF;}
	.st16{opacity:0.8;fill:#FFFFFF;enable-background:new    ;}
	.st17{fill:#002DE4;}
	.st18{fill:#1973FF;}
	.st19{fill:#9DC3FF;}
	.st20{display:inline;fill:#2A2A2A;}
	.st21{display:inline;fill:#DE37E4;}
	.st22{fill:#390601;}
	.st23{fill:#00FFFF;}
	.st24{fill:#4E2721;}
</style>
<g>
	<g>
		<path class="st0" d="M21,12h2v-2h-4v2h1H21z"/>
		<path class="st0" d="M19,14v-2h-2v2h1H19z M25,10h2V8h-4v2h1H25z"/>
		<path class="st0" d="M29,8h8V6H27v2h1H29z M45,14h2v-2h-2v1V14z"/>
		<path class="st0" d="M48,14h-1v39h-2v2h4V14H48z M37,10h4V8h-4v1V10z"/>
		<path class="st0" d="M41,12h4v-2h-4v1V12z M17,53V14h-2v41h4v-2h-1H17z"/>
		<path class="st0" d="M24,51h-5v2h5v-1V51z"/>
		<path class="st0" d="M27,53h-3v2h5v-2h-1H27z M45,51h-5v2h5v-1V51z"/>
		<path class="st0" d="M35,51h-6v2h6v-1V51z"/>
		<path class="st0" d="M38,53h-3v2h5v-2h-1H38z"/>
	</g>
	<g>
		<path class="st1" d="M18,43v6h2v-1h2v1h2v2h-5v2h-2V14h2v1h-1v26V43z"/>
		<path class="st1" d="M27,51h-3v2h5v-2h-1H27z M38,51h-3v2h5v-2h-1H38z"/>
		<path class="st1" d="M35,49h-2v-1h-2v1h-2v2h6v-1V49z M25,11h2v-1h-4v1h1H25z M21,13h2v-1h-4v1h1H21z M45,44v5h-1v-1h-2v1h-2v2h5
			v2h2V14h-2v29V44z"/>
		<path class="st1" d="M37,8H27v1h5v1h5V9V8z M45,12h-4v2h4v-1V12z"/>
		<path class="st1" d="M41,10h-4v2h4v-1V10z"/>
	</g>
	<path class="st2" d="M44,14h-3v-2h-4v-2h-5V9h-5v2h-4v2h-4v2h-1v34h2v-1h2v1h2v2h5v-2h2v-1h2v1h2v2h5v-2h2v-1h2v1h1V14H44z"/>
</g>
<path class="st3" d="M21,32v2h2v-2h-1H21z M42,32h-1v2h2v-2H42z"/>
<g>
	<path class="st0" d="M29,32h-2v2h2v-1V32z"/>
	<path class="st0" d="M33,34h-4v2h6v-2h-1H33z"/>
	<path class="st0" d="M36,32h-1v2h2v-2H36z"/>
</g>
<g>
	<path class="st4" d="M25,58h-6v1h1v1h24v-1h1v-1h-1H25z"/>
</g>
<g>
	<g>
		<path class="st5" d="M40,23v2h1v-2H40z"/>
		<path class="st5" d="M39,24v-1h-2v2h1v1h2v-1h-1V24z M26,24v1h1v-2h-1V24z"/>
		<path class="st5" d="M25,24v-1h-2v2h1v1h2v-1h-1V24z"/>
	</g>
	<g>
		<path class="st0" d="M35,23h-1v1h1V23z M35,25h-1v1h1V25z M44,23h-1v1h1V23z"/>
		<path class="st0" d="M45,24h-1v1h1V24z M37,23h6v-1h-8v1H37z"/>
		<path class="st0" d="M34,24h-1v1h1V24z M44,25h-1v1h1V25z"/>
		<path class="st0" d="M41,26h-6v1h8v-1H41z M21,23h-1v1h1V23z M21,25h-1v1h1V25z M30,23h-1v1h1V23z"/>
		<path class="st0" d="M31,24h-1v1h1V24z M23,23h6v-1h-8v1H23z"/>
		<path class="st0" d="M20,24h-1v1h1V24z M30,25h-1v1h1V25z"/>
		<path class="st0" d="M27,26h-6v1h8v-1H27z"/>
	</g>
</g>
<g>
	<path class="st0" d="M31,19h2v3h-2V19z M31,17v1h2v-1h3v-1h-3v-1h2v-2h-6v2h2v1h-3v1H31z"/>
	<path class="st0" d="M27,17h1v1h-1V17z"/>
	<path class="st0" d="M28,18h3v1h-3V18z M36,17h1v1h-1V17z"/>
	<path class="st0" d="M33,18h3v1h-3V18z"/>
</g>
<g>
	<path class="st6" d="M48,29v1h-1v1h-1v1h-1v1h-1v1h-1v1h-1v1h-2v1h-1v1h-1v1h-1v1h-1v1h-1v1h-6v-1h-1v-1h-1v-1h-1v-1h-1v-1h-1v-1
		h-2v-1h-1v-1h-1v-1h-1v-1h-1v-1h-1v-1h-1v-1h-1v26h4v-1h5v1h5v-1h6v1h5v-1h5v1h4V29H48z"/>
	<g>
		<path class="st7" d="M25,48h1v1h-1V48z M25,50h1v1h-1V50z M25,46h1v1h-1V46z M23,47h1v1h-1V47z M25,44h1v1h-1V44z M25,52h1v1h-1
			V52z M23,45h1v1h-1V45z M27,47h1v1h-1V47z M36,53h1v1h-1V53z M27,45h1v1h-1V45z M36,51h1v1h-1V51z M27,53h1v1h-1V53z M27,49h1v1
			h-1V49z M27,51h1v1h-1V51z M19,51h1v1h-1V51z M17,44h1v1h-1V44z M36,49h1v1h-1V49z M17,46h1v1h-1V46z M19,49h1v1h-1V49z M17,48h1
			v1h-1V48z M17,52h1v1h-1V52z M17,50h1v1h-1V50z M21,52h1v1h-1V52z M21,46h1v1h-1V46z M21,48h1v1h-1V48z M21,44h1v1h-1V44z M23,51
			h1v1h-1V51z M19,45h1v1h-1V45z M21,50h1v1h-1V50z M19,47h1v1h-1V47z M23,49h1v1h-1V49z M44,51h1v1h-1V51z M44,49h1v1h-1V49z
			 M42,50h1v1h-1V50z M42,48h1v1h-1V48z M42,46h1v1h-1V46z M44,47h1v1h-1V47z M42,44h1v1h-1V44z M44,45h1v1h-1V45z M46,48h1v1h-1V48
			z M46,44h1v1h-1V44z M36,47h1v1h-1V47z M46,52h1v1h-1V52z M46,50h1v1h-1V50z M46,46h1v1h-1V46z M36,45h1v1h-1V45z M38,46h1v1h-1
			V46z M38,44h1v1h-1V44z M38,52h1v1h-1V52z M38,48h1v1h-1V48z M38,50h1v1h-1V50z M40,51h1v1h-1V51z M40,46h1v2h-1V46z M42,52h1v1
			h-1V52z M40,49h1v1h-1V49z M17,40h1v1h-1V40z M47,32h1v1h-1V32z M17,42h1v1h-1V42z M46,42h1v1h-1V42z M46,40h1v1h-1V40z M29,44h1
			v2h-1v1h1v7h4v-7h1v-1h-1v-2h1v-2h-6V44z M19,43h1v1h-1V43z M42,42h1v1h-1V42z M21,42h1v1h-1V42z M40,43h1v2h-1V43z M44,41h1v1h-1
			V41z M23,43h1v1h-1V43z M19,41h1v1h-1V41z M44,43h1v1h-1V43z M16,32h1v1h-1V32z"/>
		<path class="st7" d="M48,31h1v1h-1V31z M15,31h1v1h-1V31z"/>
	</g>
	<g>
		<path class="st8" d="M31,52h1v1h-1V52z"/>
		<path class="st8" d="M32,51h1v1h-1V51z"/>
		<path class="st8" d="M31,50h1v1h-1V50z"/>
		<path class="st8" d="M32,49h1v1h-1V49z"/>
		<path class="st8" d="M31,48h1v1h-1V48z"/>
		<path class="st8" d="M32,47h1v1h-1V47z"/>
		<path class="st8" d="M31,46h1v1h-1V46z"/>
		<path class="st8" d="M32,45h1v1h-1V45z"/>
		<path class="st8" d="M31,44h1v1h-1V44z M33,43h1v1h-1V43z"/>
		<path class="st8" d="M30,43h1v1h-1V43z M35,41h1v1h-1V41z"/>
		<path class="st8" d="M28,41h1v1h-1V41z M36,40h1v1h-1V40z"/>
		<path class="st8" d="M27,40h1v1h-1V40z M37,39h1v1h-1V39z"/>
		<path class="st8" d="M26,39h1v1h-1V39z M38,38h1v1h-1V38z"/>
		<path class="st8" d="M25,38h1v1h-1V38z M39,37h1v1h-1V37z"/>
		<path class="st8" d="M24,37h1v1h-1V37z M40,36h2v1h-2V36z"/>
		<path class="st8" d="M22,36h2v1h-2V36z M42,35h1v1h-1V35z"/>
		<path class="st8" d="M21,35h1v1h-1V35z M43,34h1v1h-1V34z"/>
		<path class="st8" d="M20,34h1v1h-1V34z M44,33h1v1h-1V33z"/>
		<path class="st8" d="M19,33h1v1h-1V33z M45,32h1v1h-1V32z"/>
		<path class="st8" d="M18,32h1v1h-1V32z M46,31h1v1h-1V31z"/>
		<path class="st8" d="M17,31h1v1h-1V31z M47,30h1v1h-1V30z"/>
		<path class="st8" d="M16,30h1v1h-1V30z M48,29h1v1h-1V29z"/>
		<path class="st8" d="M15,29h1v1h-1V29z"/>
	</g>
	<path class="st9" d="M41,45h1v1h-1V45z"/>
	<g>
		<path class="st10" d="M41,46h1v1h-1V46z"/>
		<path class="st10" d="M42,45h1v1h-1V45z M40,45h1v1h-1V45z"/>
		<path class="st10" d="M41,44h1v1h-1V44z M31,43h2v1h-2V43z"/>
	</g>
</g>
<g class="st11">
	<g class="st12">
		<path class="st0" d="M19,42h1v1h-1V42z M20,36h1v1h-1V36z"/>
		<path class="st0" d="M21,37h1v1h-1V37z M26,40v4h1v-4H26z M21,43h-1v1h2v-1H21z"/>
		<path class="st0" d="M24,44h-2v1h4v-1h-1H24z M25,39h-1v1h2v-1H25z"/>
		<path class="st0" d="M23,38h-1v1h2v-1H23z"/>
	</g>
	<g class="st12">
		<path class="st1" d="M19,43h1v1h-1V43z M24,45h-2v1h4v-1h-1H24z"/>
		<path class="st1" d="M27,41v3h1v-3H27z M21,44h-1v1h2v-1H21z"/>
		<path class="st1" d="M26,44h1v1h-1V44z M19,41h-1v2h1v-1V41z"/>
	</g>
	<g class="st12">
		<path class="st0" d="M44,42h1v1h-1V42z M43,36h1v1h-1V36z"/>
		<path class="st0" d="M42,37h1v1h-1V37z"/>
		<path class="st0" d="M42,39v-1h-2v1h1H42z M42,43v1h2v-1h-1H42z"/>
		<path class="st0" d="M40,44h-2v1h4v-1h-1H40z"/>
		<path class="st0" d="M38,42v-2h-1v4h1v-1V42z"/>
		<path class="st0" d="M40,40v-1h-2v1h1H40z"/>
	</g>
	<g class="st12">
		<path class="st1" d="M42,44v1h2v-1h-1H42z M37,42v-1h-1v3h1v-1V42z"/>
		<path class="st1" d="M40,45h-2v1h4v-1h-1H40z"/>
		<path class="st1" d="M37,44h1v1h-1V44z M44,43h1v1h-1V43z"/>
	</g>
</g>
<g>
	<g>
		<path class="st0" d="M14,40h1v1h-1V40z M13,34h1v1h-1V34z"/>
		<path class="st0" d="M14,33h1v1h-1V33z M12,35h1v1h-1V35z M7,38h1v4H7V38z M12,41h2v1h-2V41z"/>
		<path class="st0" d="M8,42h4v1H8V42z M8,37h2v1H8V37z"/>
		<path class="st0" d="M10,36h2v1h-2V36z"/>
	</g>
	<g>
		<path class="st1" d="M14,39h1v1h-1V39z"/>
		<path class="st1" d="M12,40h2v1h-2V40z"/>
		<path class="st1" d="M8,41h4v1H8V41z"/>
	</g>
	<path class="st2" d="M8,38v3h4v-1h2v-1h1v-5h-1v1h-1v1h-1v1h-2v1H8z"/>
	<g>
		<path class="st0" d="M49,40h1v1h-1V40z M50,34h1v1h-1V34z"/>
		<path class="st0" d="M49,33h1v1h-1V33z M51,35h1v1h-1V35z M56,38h1v4h-1V38z M50,41h2v1h-2V41z"/>
		<path class="st0" d="M52,42h4v1h-4V42z M54,37h2v1h-2V37z"/>
		<path class="st0" d="M52,36h2v1h-2V36z"/>
	</g>
	<g>
		<path class="st1" d="M49,39h1v1h-1V39z"/>
		<path class="st1" d="M50,40h2v1h-2V40z"/>
		<path class="st1" d="M52,41h4v1h-4V41z"/>
	</g>
	<path class="st2" d="M54,38v-1h-2v-1h-1v-1h-1v-1h-1v5h1v1h2v1h4v-3H54z"/>
</g>
<g class="st11">
	<g class="st12">
		<path class="st1" d="M50,38h1v1h-1V38z"/>
		<path class="st1" d="M49,39h1v1h-1V39z M51,37h1v1h-1V37z"/>
		<path class="st1" d="M52,36h2v1h-2V36z"/>
		<path class="st1" d="M54,35h2v1h-2V35z"/>
	</g>
	<path class="st13" d="M52,32v1h-2v1h-1v5h1v-1h1v-1h1v-1h2v-1h2v-3H52z"/>
	<g class="st12">
		<path class="st0" d="M49,33h1v1h-1V33z"/>
		<path class="st0" d="M50,32h2v1h-2V32z M50,39h1v1h-1V39z"/>
		<path class="st0" d="M49,40h1v1h-1V40z M51,38h1v1h-1V38z"/>
		<path class="st0" d="M52,37h2v1h-2V37z M52,31h4v1h-4V31z"/>
		<path class="st0" d="M56,32h1v4h-1V32z"/>
		<path class="st0" d="M54,36h2v1h-2V36z"/>
	</g>
	<g class="st12">
		<path class="st1" d="M13,38h1v1h-1V38z"/>
		<path class="st1" d="M14,39h1v1h-1V39z M12,37h1v1h-1V37z"/>
		<path class="st1" d="M10,36h2v1h-2V36z"/>
		<path class="st1" d="M8,35h2v1H8V35z"/>
	</g>
	<path class="st13" d="M8,32v3h2v1h2v1h1v1h1v1h1v-5h-1v-1h-2v-1H8z"/>
	<g class="st12">
		<path class="st0" d="M14,33h1v1h-1V33z"/>
		<path class="st0" d="M12,32h2v1h-2V32z M13,39h1v1h-1V39z"/>
		<path class="st0" d="M14,40h1v1h-1V40z M12,38h1v1h-1V38z"/>
		<path class="st0" d="M10,37h2v1h-2V37z M8,31h4v1H8V31z"/>
		<path class="st0" d="M7,32h1v4H7V32z"/>
		<path class="st0" d="M8,36h2v1H8V36z"/>
	</g>
</g>
<g>
	<path d="M29,37v1h1v1h1v1h2v-1h1v-1h1v-1H29z"/>
</g>
<g>
	<path d="M49,18v-2h-2v-2H35V5h-6v9H17v2h-2v2h-1v7h1v2h2v2h2v2h10v-2h6v2h10v-2h2v-2h2v-2h1v-7H49z"/>
	<path class="st14" d="M17,16v11h2v2h10v-2h6v2h10v-2h2V16H17z"/>
	<path class="st15" d="M19,18v9h10v-2h6v2h10v-9H19z"/>
	<path class="st16" d="M21,16h2v13h-2V16z M41,16h2v13h-2V16z M39,16h1v13h-1V16z M24,16h1v13h-1V16z"/>
</g>
<g>
	<path class="st17" d="M44,4v1h-1v2h-1v1h-1v2h-1v1h-1v2h-1v4h2v1h4v-6h1V4H44z"/>
	<path class="st18" d="M43,7v1h-1v3h2V7H43z M41,12v-1h-1v2h-1v3h2v1h2v-5h-1H41z"/>
	<path class="st19" d="M43,7v1h-1v3h1V9h1V7H43z M41,11h-1v2h-1v3h1v-1h1v-2h1v-1h-1V11z"/>
	<path class="st17" d="M20,4v1h1v2h1v1h1v2h1v1h1v2h1v4h-2v1h-4v-6h-1V4H20z"/>
	<path class="st18" d="M21,7v1h1v3h-2V7H21z M23,12v-1h1v2h1v3h-2v1h-2v-5h1H23z"/>
	<path class="st19" d="M21,7v1h1v3h-1V9h-1V7H21z M23,11h1v2h1v3h-1v-1h-1v-2h-1v-1h1V11z"/>
</g>
<g>
	<g class="st11">
		<path class="st20" d="M56,32v-1h-4v-1h-1v-1h-2v12h1v-1h1v-1h1v-1h2v-1h2v-1h1v-4H56z"/>
		<path class="st21" d="M55,34h1v1h-1V34z M49,31h1v1h-1V31z"/>
		<g class="st12">
			<path class="st8" d="M54,32v1h1v1h-6v-1h4v-1H54z"/>
			<path class="st8" d="M52,31h1v1h-1V31z"/>
			<path class="st8" d="M51,30h1v1h-1V30z"/>
			<path class="st8" d="M49,29h2v1h-2V29z"/>
		</g>
		<g class="st12">
			<path class="st7" d="M53,34h1v1h-1V34z"/>
			<path class="st7" d="M52,35h1v1h-1V35z M49,32h1v1h-1V32z"/>
			<path class="st7" d="M50,31h1v1h-1V31z"/>
			<path class="st7" d="M49,30h1v1h-1V30z M51,32h1v1h-1V32z"/>
		</g>
	</g>
	<g>
		<path class="st6" d="M51,29v1h1v1h1v1h1v1h1v1h-4v1h1v1h2v1h2v1h1v4h-1v1h-4v-1h-2v-1h-1V29H51z"/>
		<g>
			<path class="st10" d="M54,42h-1v-1h1V42z"/>
			<path class="st10" d="M55,41h-1v-1h1V41z"/>
			<path class="st10" d="M56,40h-1v-1h1V40z M50,32h-1v-1h1V32z"/>
		</g>
		<g>
			<path class="st7" d="M53,41h-1v-1h1V41z"/>
			<path class="st7" d="M54,40h-1v-1h1V40z"/>
			<path class="st7" d="M53,39h-1v-1h1V39z M50,33h-1v-1h1V33z M52,33h-1v-1h1V33z"/>
			<path class="st7" d="M51,32h-1v-1h1V32z"/>
			<path class="st7" d="M50,31h-1v-1h1V31z"/>
		</g>
		<g>
			<path class="st8" d="M53,32v1h-4v1h6v-1h-1v-1H53z"/>
			<path class="st8" d="M53,32h-1v-1h1V32z"/>
			<path class="st8" d="M52,31h-1v-1h1V31z"/>
			<path class="st8" d="M51,30h-2v-1h2V30z"/>
		</g>
	</g>
	<g class="st11">
		<path class="st20" d="M8,32v-1h4v-1h1v-1h2v12h-1v-1h-1v-1h-1v-1h-2v-1H8v-1H7v-4H8z"/>
		<path class="st21" d="M9,35H8v-1h1V35z M15,32h-1v-1h1V32z"/>
		<g class="st12">
			<path class="st8" d="M11,32v1h4v1H9v-1h1v-1H11z"/>
			<path class="st8" d="M12,32h-1v-1h1V32z"/>
			<path class="st8" d="M13,31h-1v-1h1V31z"/>
			<path class="st8" d="M15,30h-2v-1h2V30z"/>
		</g>
		<g class="st12">
			<path class="st7" d="M11,35h-1v-1h1V35z"/>
			<path class="st7" d="M12,36h-1v-1h1V36z M15,33h-1v-1h1V33z"/>
			<path class="st7" d="M14,32h-1v-1h1V32z"/>
			<path class="st7" d="M15,31h-1v-1h1V31z M13,33h-1v-1h1V33z"/>
		</g>
	</g>
	<g>
		<path class="st6" d="M13,29v1h-1v1h-1v1h-1v1H9v1h4v1h-1v1h-2v1H8v1H7v4h1v1h4v-1h2v-1h1V29H13z"/>
		<g>
			<path class="st10" d="M10,41h1v1h-1V41z"/>
			<path class="st10" d="M9,40h1v1H9V40z"/>
			<path class="st10" d="M8,39h1v1H8V39z M14,31h1v1h-1V31z"/>
		</g>
		<g>
			<path class="st7" d="M11,40h1v1h-1V40z"/>
			<path class="st7" d="M10,39h1v1h-1V39z"/>
			<path class="st7" d="M11,38h1v1h-1V38z M14,32h1v1h-1V32z M12,32h1v1h-1V32z"/>
			<path class="st7" d="M13,31h1v1h-1V31z"/>
			<path class="st7" d="M14,30h1v1h-1V30z"/>
		</g>
		<g>
			<path class="st8" d="M10,32v1H9v1h6v-1h-4v-1H10z"/>
			<path class="st8" d="M11,31h1v1h-1V31z"/>
			<path class="st8" d="M12,30h1v1h-1V30z"/>
			<path class="st8" d="M13,29h2v1h-2V29z"/>
		</g>
	</g>
</g>
<g>
	<path class="st22" d="M14,33v1h-1v1h-1v1h-2v1H8v1H7v-1H6v-1H3v1H2v1H1v1h2v-1h3v1H5v2h1v1H3v-1H1v1h1v1h1v1h3v-1h1v-1h1v1h4v-1h2
		v-1h1v-8H14z"/>
	<path class="st23" d="M6,39h2v2H6V39z"/>
	<g>
		<path class="st24" d="M2,38h1v1H2V38z"/>
		<path class="st24" d="M3,37h3v1H3V37z M3,42h3v1H3V42z"/>
		<path class="st24" d="M2,41h1v1H2V41z M14,36v1h-2v1h-2v1H9v2h1v-1h2v-1h2v-1h1v-2H14z"/>
	</g>
	<path class="st2" d="M6,39h1v1H6V39z"/>
</g>
<g>
	<g transform="scale(-1, 1) translate(-62, 0)">
		<path class="st22" d="M12,33v1h-1v1h-1v1H8v1H6v1H5v-1H4v-1H1v1H0v1h-1v1h2v-1h3v1H3v2h1v1H1v-1h-2v1h1v1h1v1h3v-1h1v-1h1v1h4v-1
			h2v-1h1v-8H12z"/>
		<path class="st23" d="M4,39h2v2H4V39z"/>
		<g>
			<path class="st24" d="M0,38h1v1H0V38z"/>
			<path class="st24" d="M1,37h3v1H1V37z M1,42h3v1H1V42z"/>
			<path class="st24" d="M0,41h1v1H0V41z M12,36v1h-2v1H8v1H7v2h1v-1h2v-1h2v-1h1v-2H12z"/>
		</g>
		<path class="st2" d="M4,39h1v1H4V39z"/>
	</g>
</g>
</svg>
