<?xml version="1.0" encoding="utf-8"?>
<!-- Generator: Adobe Illustrator 25.3.1, SVG Export Plug-In . SVG Version: 6.00 Build 0)  -->
<svg version="1.1" id="Layer_1" xmlns="http://www.w3.org/2000/svg" xmlns:xlink="http://www.w3.org/1999/xlink" x="0px" y="0px"
	 viewBox="0 0 64 64" style="enable-background:new 0 0 64 64;" xml:space="preserve">
<style type="text/css">
	.st0{fill:#64438E;}
	.st1{fill:#EDD3FD;}
	.st2{fill:#FFFFFF;}
	.st3{fill:#F696C6;}
	.st4{opacity:0.25;enable-background:new    ;}
	.st5{fill:#C260FF;}
	.st6{fill:#DEA8FF;}
	.st7{fill:#0E0C15;}
	.st8{fill:#F27322;}
	.st9{display:none;}
	.st10{display:inline;}
	.st11{display:inline;fill:#FFFFFF;}
	.st12{fill:#303030;}
	.st13{fill:#232323;}
	.st14{fill:#281D0A;}
	.st15{fill:#876526;}
	.st16{fill:#868686;}
	.st17{fill:#483514;}
	.st18{fill:#644C1E;}
	.st19{fill:#C8C8C8;}
	.st20{fill:#3C3C3C;}
	.st21{fill:#EAEAEA;}
	.st22{fill:#33691E;}
	.st23{fill:#558B2F;}
	.st24{fill:#689F38;}
	.st25{fill:#B8D2A2;}
	.st26{fill:#CACACA;}
	.st27{fill:#9E9E9E;}
</style>
<g>
	<g>
		<path class="st0" d="M21,12h2v-2h-4v2h1H21z"/>
		<path class="st0" d="M19,14v-2h-2v2h1H19z M25,10h2V8h-4v2h1H25z"/>
		<path class="st0" d="M29,8h8V6H27v2h1H29z M45,14h2v-2h-2v1V14z"/>
		<path class="st0" d="M48,14h-1v39h-2v2h4V14H48z M37,10h4V8h-4v1V10z"/>
		<path class="st0" d="M41,12h4v-2h-4v1V12z M17,53V14h-2v41h4v-2h-1H17z"/>
		<path class="st0" d="M24,51h-5v2h5v-1V51z"/>
		<path class="st0" d="M27,53h-3v2h5v-2h-1H27z M45,51h-5v2h5v-1V51z"/>
		<path class="st0" d="M35,51h-6v2h6v-1V51z"/>
		<path class="st0" d="M38,53h-3v2h5v-2h-1H38z"/>
	</g>
	<g>
		<path class="st1" d="M18,43v6h2v-1h2v1h2v2h-5v2h-2V14h2v1h-1v26V43z"/>
		<path class="st1" d="M27,51h-3v2h5v-2h-1H27z M38,51h-3v2h5v-2h-1H38z"/>
		<path class="st1" d="M35,49h-2v-1h-2v1h-2v2h6v-1V49z M25,11h2v-1h-4v1h1H25z M21,13h2v-1h-4v1h1H21z M45,44v5h-1v-1h-2v1h-2v2h5
			v2h2V14h-2v29V44z"/>
		<path class="st1" d="M37,8H27v1h5v1h5V9V8z M45,12h-4v2h4v-1V12z"/>
		<path class="st1" d="M41,10h-4v2h4v-1V10z"/>
	</g>
	<path class="st2" d="M44,14h-3v-2h-4v-2h-5V9h-5v2h-4v2h-4v2h-1v34h2v-1h2v1h2v2h5v-2h2v-1h2v1h2v2h5v-2h2v-1h2v1h1V14H44z"/>
</g>
<path class="st3" d="M21,32v2h2v-2h-1H21z M42,32h-1v2h2v-2H42z"/>
<g>
	<path class="st0" d="M29,32h-2v2h2v-1V32z"/>
	<path class="st0" d="M33,34h-4v2h6v-2h-1H33z"/>
	<path class="st0" d="M36,32h-1v2h2v-2H36z"/>
</g>
<g>
	<path class="st4" d="M25,58h-6v1h1v1h24v-1h1v-1h-1H25z"/>
</g>
<g>
	<path class="st0" d="M25,22h2v-1h-4v1H25z"/>
	<path class="st0" d="M27,25h-6v1h8v-1H27z M27,23h-6v1h8v-1H27z"/>
	<path class="st0" d="M26,27h-4v1h6v-1H26z"/>
	<path class="st0" d="M41,25h-6v1h8v-1H41z M42,23h-7v1h8v-1H42z"/>
	<path class="st0" d="M39,22h2v-1h-4v1H39z M40,27h-4v1h6v-1H40z"/>
</g>
<g>
	<g>
		<path class="st0" d="M29,17v-2h-1v4h1v-1V17z"/>
		<path class="st0" d="M29,14h1v1h-1V14z M29,19h1v1h-1V19z"/>
		<path class="st0" d="M30,20h1v1h-1V20z"/>
		<path class="st0" d="M31,21v1h2v-1h-1H31z M30,13h1v1h-1V13z M34,19h1v1h-1V19z M34,14h1v1h-1V14z"/>
		<path class="st0" d="M33,13v-1h-2v1h1H33z M33,20h1v1h-1V20z"/>
		<path class="st0" d="M33,13h1v1h-1V13z M35,15v4h1v-4H35z"/>
	</g>
	<path class="st5" d="M34,17h-2v4h1v-1h1v-1h1v-2H34z"/>
	<g>
		<path class="st6" d="M30,17h-1v2h1v1h1v1h1v-4h-1H30z"/>
		<path class="st6" d="M34,15v-1h-1v-1h-1v4h3v-2H34z"/>
	</g>
	<path class="st1" d="M31,17h1v-4h-1v1h-1v1h-1v2h1H31z"/>
</g>
<g>
	<path d="M49,46v-5H15v14h4v-2h5v2h5v-2h6v2h5v-2h5v2h4v-7h1v-2H49z"/>
	<path d="M50,48h1v1h-1V48z M50,45h1v1h-1V45z"/>
	<path class="st7" d="M50,48h1v1h-1V48z M50,45h1v1h-1V45z"/>
	<g>
		<path class="st8" d="M19,45v1h6v-1H19z M27,43v6h1v-5h8v5h1v-6H27z M39,45v1h6v-1H39z M39,47v1h6v-1H39z"/>
		<path class="st8" d="M28,49v1h8v-1H28z M19,47v1h6v-1H19z"/>
	</g>
</g>
<g class="st9">
	<g class="st10">
		<path class="st0" d="M19,42h1v1h-1V42z M20,36h1v1h-1V36z"/>
		<path class="st0" d="M21,37h1v1h-1V37z M26,40v4h1v-4H26z M21,43h-1v1h2v-1H21z"/>
		<path class="st0" d="M24,44h-2v1h4v-1h-1H24z M25,39h-1v1h2v-1H25z"/>
		<path class="st0" d="M23,38h-1v1h2v-1H23z"/>
	</g>
	<g class="st10">
		<path class="st1" d="M19,43h1v1h-1V43z M24,45h-2v1h4v-1h-1H24z"/>
		<path class="st1" d="M27,41v3h1v-3H27z M21,44h-1v1h2v-1H21z"/>
		<path class="st1" d="M26,44h1v1h-1V44z M19,41h-1v2h1v-1V41z"/>
	</g>
	<g class="st10">
		<path class="st0" d="M44,42h1v1h-1V42z M43,36h1v1h-1V36z"/>
		<path class="st0" d="M42,37h1v1h-1V37z"/>
		<path class="st0" d="M42,39v-1h-2v1h1H42z M42,43v1h2v-1h-1H42z"/>
		<path class="st0" d="M40,44h-2v1h4v-1h-1H40z"/>
		<path class="st0" d="M38,42v-2h-1v4h1v-1V42z"/>
		<path class="st0" d="M40,40v-1h-2v1h1H40z"/>
	</g>
	<g class="st10">
		<path class="st1" d="M42,44v1h2v-1h-1H42z M37,42v-1h-1v3h1v-1V42z"/>
		<path class="st1" d="M40,45h-2v1h4v-1h-1H40z"/>
		<path class="st1" d="M37,44h1v1h-1V44z M44,43h1v1h-1V43z"/>
	</g>
</g>
<g>
	<g>
		<path class="st0" d="M14,40h1v1h-1V40z M13,34h1v1h-1V34z"/>
		<path class="st0" d="M14,33h1v1h-1V33z M12,35h1v1h-1V35z M7,38h1v4H7V38z M12,41h2v1h-2V41z"/>
		<path class="st0" d="M8,42h4v1H8V42z M8,37h2v1H8V37z"/>
		<path class="st0" d="M10,36h2v1h-2V36z"/>
	</g>
	<g>
		<path class="st1" d="M14,39h1v1h-1V39z"/>
		<path class="st1" d="M12,40h2v1h-2V40z"/>
		<path class="st1" d="M8,41h4v1H8V41z"/>
	</g>
	<path class="st2" d="M8,38v3h4v-1h2v-1h1v-5h-1v1h-1v1h-1v1h-2v1H8z"/>
	<g>
		<path class="st0" d="M49,40h1v1h-1V40z M50,34h1v1h-1V34z"/>
		<path class="st0" d="M49,33h1v1h-1V33z M51,35h1v1h-1V35z M56,38h1v4h-1V38z M50,41h2v1h-2V41z"/>
		<path class="st0" d="M52,42h4v1h-4V42z M54,37h2v1h-2V37z"/>
		<path class="st0" d="M52,36h2v1h-2V36z"/>
	</g>
	<g>
		<path class="st1" d="M49,39h1v1h-1V39z"/>
		<path class="st1" d="M50,40h2v1h-2V40z"/>
		<path class="st1" d="M52,41h4v1h-4V41z"/>
	</g>
	<path class="st2" d="M54,38v-1h-2v-1h-1v-1h-1v-1h-1v5h1v1h2v1h4v-3H54z"/>
</g>
<g class="st9">
	<g class="st10">
		<path class="st1" d="M50,38h1v1h-1V38z"/>
		<path class="st1" d="M49,39h1v1h-1V39z M51,37h1v1h-1V37z"/>
		<path class="st1" d="M52,36h2v1h-2V36z"/>
		<path class="st1" d="M54,35h2v1h-2V35z"/>
	</g>
	<path class="st11" d="M52,32v1h-2v1h-1v5h1v-1h1v-1h1v-1h2v-1h2v-3H52z"/>
	<g class="st10">
		<path class="st0" d="M49,33h1v1h-1V33z"/>
		<path class="st0" d="M50,32h2v1h-2V32z M50,39h1v1h-1V39z"/>
		<path class="st0" d="M49,40h1v1h-1V40z M51,38h1v1h-1V38z"/>
		<path class="st0" d="M52,37h2v1h-2V37z M52,31h4v1h-4V31z"/>
		<path class="st0" d="M56,32h1v4h-1V32z"/>
		<path class="st0" d="M54,36h2v1h-2V36z"/>
	</g>
	<g class="st10">
		<path class="st1" d="M13,38h1v1h-1V38z"/>
		<path class="st1" d="M14,39h1v1h-1V39z M12,37h1v1h-1V37z"/>
		<path class="st1" d="M10,36h2v1h-2V36z"/>
		<path class="st1" d="M8,35h2v1H8V35z"/>
	</g>
	<path class="st11" d="M8,32v3h2v1h2v1h1v1h1v1h1v-5h-1v-1h-2v-1H8z"/>
	<g class="st10">
		<path class="st0" d="M14,33h1v1h-1V33z"/>
		<path class="st0" d="M12,32h2v1h-2V32z M13,39h1v1h-1V39z"/>
		<path class="st0" d="M14,40h1v1h-1V40z M12,38h1v1h-1V38z"/>
		<path class="st0" d="M10,37h2v1h-2V37z M8,31h4v1H8V31z"/>
		<path class="st0" d="M7,32h1v4H7V32z"/>
		<path class="st0" d="M8,36h2v1H8V36z"/>
	</g>
</g>
<g>
	<path d="M44,33v-1h-3v1h2v2h-2v-1h-2v-1h-2v-1h-4v1h-2v-1h-4v1h-2v1h-2v1h-2v-2h2v-1h-3v1h-1v3h1v1h1v1h2v1h4v-1h2v-1h2v-1h2v1h2v1
		h2v1h4v-1h2v-1h1v-1h1v-3H44z"/>
	<g>
		<path class="st12" d="M38,35h1v1h-1V35z M36,33h-1v1h2v-1H36z"/>
		<path class="st12" d="M37,34h1v1h-1V34z M25,35h1v1h-1V35z M27,33v1h2v-1h-1H27z"/>
		<path class="st12" d="M26,34h1v1h-1V34z"/>
	</g>
</g>
<g>
	<path d="M49,19V9h-2V7h-2V5h-2V4h-9v1h-1v1h-2V5h-1V4h-9v1h-2v2h-2v2h-2v10h-4v2h42v-2H49z"/>
	<path class="st13" d="M15,16h34v3H15V16z"/>
</g>
<g>
	<path class="st14" d="M13,42v-1h-1v-1h-1v-1h-1v-1H9v-1H8v-1H7v-1H6v-1h1v-1h3v-1h1v-1h-1v-1H5v1H4v1H2v2H1v1H0v5h1v1h1v-1h1v-3h1
		v-1h1v1h1v1h1v1h1v1h1v1h1v1h1v1h1v1h2v-2H13z"/>
	<path class="st15" d="M12,42h1v1h-1V42z M10,40h1v1h-1V40z M8,38h1v1H8V38z M6,36h1v1H6V36z"/>
	<path class="st16" d="M4,34h1v1H4V34z"/>
	<g>
		<path class="st17" d="M13,42h1v1h-1V42z"/>
		<path class="st17" d="M12,41h1v1h-1V41z M10,39h1v1h-1V39z M8,37h1v1H8V37z M6,35h1v1H6V35z"/>
		<path class="st17" d="M11,40h1v1h-1V40z M9,38h1v1H9V38z M7,36h1v1H7V36z M5,34h1v1H5V34z"/>
	</g>
	<g>
		<path class="st14" d="M12,43h1v1h-1V43z"/>
		<path class="st14" d="M11,42h1v1h-1V42z M9,40h1v1H9V40z M7,38h1v1H7V38z M5,36h1v1H5V36z"/>
		<path class="st14" d="M10,41h1v1h-1V41z M8,39h1v1H8V39z M6,37h1v1H6V37z M4,35h1v1H4V35z"/>
	</g>
	<path class="st18" d="M13,43h1v1h-1V43z M11,41h1v1h-1V41z M9,39h1v1H9V39z M7,37h1v1H7V37z M5,35h1v1H5V35z"/>
	<g>
		<path class="st19" d="M5,32v1H4v1h2v-1h1v-1H5z"/>
		<path class="st19" d="M3,35H2v2h1v-1h1v-2H3V35z"/>
	</g>
	<g>
		<path class="st20" d="M3,32h1v1H3V32z"/>
		<path class="st20" d="M2,33h1v1H2V33z M4,31h1v1H4V31z"/>
		<path class="st20" d="M1,34h1v1H1V34z"/>
		<path class="st20" d="M0,40h1v-5H0V40z"/>
		<path class="st20" d="M1,40h1v1H1V40z"/>
		<path class="st20" d="M3,37H2v3h1V37z"/>
		<path class="st20" d="M3,36h1v1H3V36z M5,30v1h5v-1H5z"/>
		<path class="st20" d="M10,31h1v1h-1V31z"/>
		<path class="st20" d="M7,32v1h3v-1H7z"/>
		<path class="st20" d="M6,33h1v1H6V33z"/>
	</g>
	<g>
		<path class="st21" d="M3,33h1v1H3V33z"/>
		<path class="st21" d="M4,32h1v1H4V32z M2,34h1v1H2V34z"/>
		<path class="st21" d="M1,40h1v-5H1V40z M5,31v1h5v-1H5z"/>
	</g>
	<path class="st16" d="M2,32h1v1H2V32z"/>
</g>
<g>
	<g transform="scale(-1, 1) translate(-56, 0)">
		<path class="st22" d="M3,36v-1H2v-1h-4v1h-1v1h-1v4h1v1h1v1h4v-1h1v-1h1v-4H3z"/>
		<path class="st23" d="M2,36v-1h-4v1h-1v4h1v1h4v-1h1v-4H2z"/>
		<path class="st24" d="M2,36v-1h-4v1h-1v1h2v1h1v1h1v1h2v-4H2z"/>
		<g>
			<path class="st25" d="M2,36h1v1H2V36z"/>
			<path class="st25" d="M1,35h1v1H1V35z"/>
		</g>
		<path d="M4,33v-1H3v-1h-4v1h-1v1h1v1h2v-1h2v1h1v1h1v-2H4z"/>
		<path class="st26" d="M0,32h1v1H0V32z"/>
		<path class="st27" d="M-1,32h1v1h-1V32z"/>
	</g>
</g>
</svg>
