<?xml version="1.0" encoding="utf-8"?>
<!-- Generator: Adobe Illustrator 25.3.1, SVG Export Plug-In . SVG Version: 6.00 Build 0)  -->
<svg version="1.1" id="Layer_1" xmlns="http://www.w3.org/2000/svg" xmlns:xlink="http://www.w3.org/1999/xlink" x="0px" y="0px"
	 viewBox="0 0 64 64" style="enable-background:new 0 0 64 64;" xml:space="preserve">
<style type="text/css">
	.st0{fill:#FF7D00;}
	.st1{fill:#F9D792;}
	.st2{fill:#FFFFFF;}
	.st3{fill:#F4AF24;}
	.st4{opacity:0.25;enable-background:new    ;}
	.st5{fill:#EA8C27;}
	.st6{fill:#FF64FF;}
	.st7{fill:#FFB9FF;}
	.st8{display:none;}
	.st9{display:inline;}
	.st10{display:inline;fill:#FFFFFF;}
	.st11{fill:#64438E;}
	.st12{fill:#B464ED;}
	.st13{fill:#EDD3FD;}
	.st14{fill:#390601;}
	.st15{fill:#592F2A;}
	.st16{fill:#846460;}
	.st17{fill:#00FFFF;}
	.st18{fill:#008000;}
	.st19{fill:#2D5016;}
	.st20{fill:#FFB81C;}
	.st21{fill:#D4AA00;}
	.st22{fill:#808080;}
	.st23{fill:#4D4D4D;}
	.st24{fill:#33BACC;}
	.st25{fill:#EF1E26;}
</style>
<g>
	<g>
		<path class="st0" d="M21,12h2v-2h-4v2h1H21z"/>
		<path class="st0" d="M19,14v-2h-2v2h1H19z M25,10h2V8h-4v2h1H25z"/>
		<path class="st0" d="M29,8h8V6H27v2h1H29z M45,14h2v-2h-2v1V14z"/>
		<path class="st0" d="M48,14h-1v39h-2v2h4V14H48z M37,10h4V8h-4v1V10z"/>
		<path class="st0" d="M41,12h4v-2h-4v1V12z M17,53V14h-2v41h4v-2h-1H17z"/>
		<path class="st0" d="M24,51h-5v2h5v-1V51z"/>
		<path class="st0" d="M27,53h-3v2h5v-2h-1H27z M45,51h-5v2h5v-1V51z"/>
		<path class="st0" d="M35,51h-6v2h6v-1V51z"/>
		<path class="st0" d="M38,53h-3v2h5v-2h-1H38z"/>
	</g>
	<g>
		<path class="st1" d="M18,43v6h2v-1h2v1h2v2h-5v2h-2V14h2v1h-1v26V43z"/>
		<path class="st1" d="M27,51h-3v2h5v-2h-1H27z M38,51h-3v2h5v-2h-1H38z"/>
		<path class="st1" d="M35,49h-2v-1h-2v1h-2v2h6v-1V49z M25,11h2v-1h-4v1h1H25z M21,13h2v-1h-4v1h1H21z M45,44v5h-1v-1h-2v1h-2v2h5
			v2h2V14h-2v29V44z"/>
		<path class="st1" d="M37,8H27v1h5v1h5V9V8z M45,12h-4v2h4v-1V12z"/>
		<path class="st1" d="M41,10h-4v2h4v-1V10z"/>
	</g>
	<path class="st2" d="M44,14h-3v-2h-4v-2h-5V9h-5v2h-4v2h-4v2h-1v34h2v-1h2v1h2v2h5v-2h2v-1h2v1h2v2h5v-2h2v-1h2v1h1V14H44z"/>
</g>
<path class="st3" d="M21,32v2h2v-2h-1H21z M42,32h-1v2h2v-2H42z"/>
<g>
	<path class="st0" d="M29,32h-2v2h2v-1V32z"/>
	<path class="st0" d="M33,34h-4v2h6v-2h-1H33z"/>
	<path class="st0" d="M36,32h-1v2h2v-2H36z"/>
</g>
<g>
	<path class="st4" d="M25,58h-6v1h1v1h24v-1h1v-1h-1H25z"/>
</g>
<g>
	<path class="st5" d="M23,28v1v1h1h1h1h1v-1v-1h1h1v-1v-1v-1v-1h-1h-1v-1v-1h-1h-1h-1h-1v1v1h-1h-1v1v1v1v1h1H23z"/>
	<path class="st5" d="M35,24v1v1v1v1h1h1v1v1h1h1h1h1v-1v-1h1h1v-1v-1v-1v-1h-1h-1v-1v-1h-1h-1h-1h-1v1v1h-1H35z"/>
</g>
<g>
	<path class="st0" d="M37,16v-1h-1v-1h-1v1h-6v-2h5v-1h-6v3h-1v1h1v1h-1v1h1v3h6v-1h-5v-2h6v1h1v-1h1v-1h-1v-1H37z M35,17h-6v-1h6
		V17z"/>
	<path class="st0" d="M34,19h1v1h-1V19z M34,13h1v1h-1V13z"/>
</g>
<g>
	<path class="st6" d="M15,40v15h4v-2h5v2h5v-2h6v2h5v-2h5v2h4V40H15z"/>
	<path class="st7" d="M25,41h2v1h-2V41z M28,41h2v1h-2V41z M34,41h2v1h-2V41z M37,41h2v1h-2V41z M19,41h2v1h-2V41z M22,41h2v1h-2V41
		z M16,41h2v1h-2V41z M43,41h2v1h-2V41z M40,41h2v1h-2V41z M46,41h2v1h-2V41z M31,41h2v1h-2V41z M28,53h1v-2h1v-8h-2V53z M25,43h2
		v10h-2V43z M22,43h2v8h-2V43z M16,43h2v10h-2V43z M43,43h2v8h-2V43z M40,43h2v8h-2V43z M37,43h2v10h-2V43z M34,51h1v2h1V43h-2V51z
		 M46,43h2v10h-2V43z M19,43h2v8h-2V43z M31,43h2v8h-2V43z"/>
</g>
<g class="st8">
	<g class="st9">
		<path class="st0" d="M19,42h1v1h-1V42z M20,36h1v1h-1V36z"/>
		<path class="st0" d="M21,37h1v1h-1V37z M26,40v4h1v-4H26z M21,43h-1v1h2v-1H21z"/>
		<path class="st0" d="M24,44h-2v1h4v-1h-1H24z M25,39h-1v1h2v-1H25z"/>
		<path class="st0" d="M23,38h-1v1h2v-1H23z"/>
	</g>
	<g class="st9">
		<path class="st1" d="M19,43h1v1h-1V43z M24,45h-2v1h4v-1h-1H24z"/>
		<path class="st1" d="M27,41v3h1v-3H27z M21,44h-1v1h2v-1H21z"/>
		<path class="st1" d="M26,44h1v1h-1V44z M19,41h-1v2h1v-1V41z"/>
	</g>
	<g class="st9">
		<path class="st0" d="M44,42h1v1h-1V42z M43,36h1v1h-1V36z"/>
		<path class="st0" d="M42,37h1v1h-1V37z"/>
		<path class="st0" d="M42,39v-1h-2v1h1H42z M42,43v1h2v-1h-1H42z"/>
		<path class="st0" d="M40,44h-2v1h4v-1h-1H40z"/>
		<path class="st0" d="M38,42v-2h-1v4h1v-1V42z"/>
		<path class="st0" d="M40,40v-1h-2v1h1H40z"/>
	</g>
	<g class="st9">
		<path class="st1" d="M42,44v1h2v-1h-1H42z M37,42v-1h-1v3h1v-1V42z"/>
		<path class="st1" d="M40,45h-2v1h4v-1h-1H40z"/>
		<path class="st1" d="M37,44h1v1h-1V44z M44,43h1v1h-1V43z"/>
	</g>
</g>
<g>
	<g>
		<path class="st0" d="M14,40h1v1h-1V40z M13,34h1v1h-1V34z"/>
		<path class="st0" d="M14,33h1v1h-1V33z M12,35h1v1h-1V35z M7,38h1v4H7V38z M12,41h2v1h-2V41z"/>
		<path class="st0" d="M8,42h4v1H8V42z M8,37h2v1H8V37z"/>
		<path class="st0" d="M10,36h2v1h-2V36z"/>
	</g>
	<g>
		<path class="st1" d="M14,39h1v1h-1V39z"/>
		<path class="st1" d="M12,40h2v1h-2V40z"/>
		<path class="st1" d="M8,41h4v1H8V41z"/>
	</g>
	<path class="st2" d="M8,38v3h4v-1h2v-1h1v-5h-1v1h-1v1h-1v1h-2v1H8z"/>
	<g>
		<path class="st0" d="M49,40h1v1h-1V40z M50,34h1v1h-1V34z"/>
		<path class="st0" d="M49,33h1v1h-1V33z M51,35h1v1h-1V35z M56,38h1v4h-1V38z M50,41h2v1h-2V41z"/>
		<path class="st0" d="M52,42h4v1h-4V42z M54,37h2v1h-2V37z"/>
		<path class="st0" d="M52,36h2v1h-2V36z"/>
	</g>
	<g>
		<path class="st1" d="M49,39h1v1h-1V39z"/>
		<path class="st1" d="M50,40h2v1h-2V40z"/>
		<path class="st1" d="M52,41h4v1h-4V41z"/>
	</g>
	<path class="st2" d="M54,38v-1h-2v-1h-1v-1h-1v-1h-1v5h1v1h2v1h4v-3H54z"/>
</g>
<g class="st8">
	<g class="st9">
		<path class="st1" d="M50,38h1v1h-1V38z"/>
		<path class="st1" d="M49,39h1v1h-1V39z M51,37h1v1h-1V37z"/>
		<path class="st1" d="M52,36h2v1h-2V36z"/>
		<path class="st1" d="M54,35h2v1h-2V35z"/>
	</g>
	<path class="st10" d="M52,32v1h-2v1h-1v5h1v-1h1v-1h1v-1h2v-1h2v-3H52z"/>
	<g class="st9">
		<path class="st0" d="M49,33h1v1h-1V33z"/>
		<path class="st0" d="M50,32h2v1h-2V32z M50,39h1v1h-1V39z"/>
		<path class="st0" d="M49,40h1v1h-1V40z M51,38h1v1h-1V38z"/>
		<path class="st0" d="M52,37h2v1h-2V37z M52,31h4v1h-4V31z"/>
		<path class="st0" d="M56,32h1v4h-1V32z"/>
		<path class="st0" d="M54,36h2v1h-2V36z"/>
	</g>
	<g class="st9">
		<path class="st1" d="M13,38h1v1h-1V38z"/>
		<path class="st1" d="M14,39h1v1h-1V39z M12,37h1v1h-1V37z"/>
		<path class="st1" d="M10,36h2v1h-2V36z"/>
		<path class="st1" d="M8,35h2v1H8V35z"/>
	</g>
	<path class="st10" d="M8,32v3h2v1h2v1h1v1h1v1h1v-5h-1v-1h-2v-1H8z"/>
	<g class="st9">
		<path class="st0" d="M14,33h1v1h-1V33z"/>
		<path class="st0" d="M12,32h2v1h-2V32z M13,39h1v1h-1V39z"/>
		<path class="st0" d="M14,40h1v1h-1V40z M12,38h1v1h-1V38z"/>
		<path class="st0" d="M10,37h2v1h-2V37z M8,31h4v1H8V31z"/>
		<path class="st0" d="M7,32h1v4H7V32z"/>
		<path class="st0" d="M8,36h2v1H8V36z"/>
	</g>
</g>
<g>
	<path class="st11" d="M14,20h-1v-2H9v6h2v4h2v2h2V20H14z"/>
	<path class="st12" d="M14,22h-1v-2h-2v4h2v4h2v-6H14z"/>
	<g>
		<path class="st13" d="M13,22h-2v2h2v-1V22z"/>
		<path class="st13" d="M14,24h-1v4h2v-4H14z"/>
	</g>
	<path class="st11" d="M50,20h1v-2h4v6h-2v4h-2v2h-2V20H50z"/>
	<path class="st12" d="M50,22h1v-2h2v4h-2v4h-2v-6H50z"/>
	<g>
		<path class="st13" d="M51,22h2v2h-2v-1V22z"/>
		<path class="st13" d="M50,24h1v4h-2v-4H50z"/>
	</g>
</g>
<g>
	<path class="st14" d="M46,24v-1h-1v-1h-1v-1h-1v-1h-6v1h-1v1h-1v1h-1v1h-4v-1h-1v-1h-1v-1h-1v-1h-6v1h-1v1h-1v1h-1v1h-3v4h3v1h1v1
		h1v1h1v1h5v5h1v1h1v1h8v-1h1v-1h1v-5h5v-1h1v-1h1v-1h1v-1h3v-4H46z"/>
	<g>
		<path class="st15" d="M26,21h1v1h-1V21z"/>
		<path class="st15" d="M27,22h1v1h-1V22z M21,21h1v1h-1V21z"/>
		<path class="st15" d="M20,22h1v1h-1V22z"/>
		<path class="st15" d="M19,23h1v1h-1V23z"/>
		<path class="st15" d="M18,24h1v1h-1V24z M26,30h1v1h-1V30z"/>
		<path class="st15" d="M27,29h1v1h-1V29z M21,30h1v1h-1V30z"/>
		<path class="st15" d="M20,29h1v1h-1V29z"/>
		<path class="st15" d="M19,28h1v1h-1V28z"/>
		<path class="st15" d="M18,27h1v1h-1V27z M16,26h1v1h-1V26z"/>
		<path class="st15" d="M17,25h1v1h-1V25z M15,25h1v1h-1V25z M28,23h1v1h-1V23z M28,28h1v1h-1V28z"/>
		<path class="st15" d="M29,24h1v1h-1V24z M29,27h1v1h-1V27z M34,24h1v1h-1V24z M34,27h1v1h-1V27z"/>
		<path class="st15" d="M35,23h1v1h-1V23z M35,28h1v1h-1V28z M37,21h1v1h-1V21z"/>
		<path class="st15" d="M36,22h1v1h-1V22z M42,21h1v1h-1V21z"/>
		<path class="st15" d="M43,22h1v1h-1V22z"/>
		<path class="st15" d="M44,23h1v1h-1V23z"/>
		<path class="st15" d="M45,24h1v1h-1V24z M37,30h1v1h-1V30z"/>
		<path class="st15" d="M36,29h1v1h-1V29z M42,30h1v1h-1V30z"/>
		<path class="st15" d="M43,29h1v1h-1V29z"/>
		<path class="st15" d="M44,28h1v1h-1V28z"/>
		<path class="st15" d="M45,27h1v1h-1V27z M47,26h1v1h-1V26z"/>
		<path class="st15" d="M46,25h1v1h-1V25z M48,25h1v1h-1V25z"/>
	</g>
	<g>
		<path class="st16" d="M26,22h1v1h-1V22z"/>
		<path class="st16" d="M27,23h1v1h-1V23z M27,28h1v1h-1V28z"/>
		<path class="st16" d="M26,29h1v1h-1V29z M21,22h1v1h-1V22z"/>
		<path class="st16" d="M20,23h1v1h-1V23z M20,28h1v1h-1V28z"/>
		<path class="st16" d="M21,29h1v1h-1V29z M23,21h2v1h-2V21z M19,25h1v2h-1V25z M17,26h1v1h-1V26z M15,26h1v1h-1V26z"/>
		<path class="st16" d="M16,25h1v1h-1V25z M23,30h2v1h-2V30z M34,29h1v1h-1V29z"/>
		<path class="st16" d="M35,30h1v1h-1V30z"/>
		<path class="st16" d="M36,36h-1v1h-6v-1h-1v-5h-1v6h1v1h8v-1h1v-6h-1V36z M30,28h4v1h-4V28z M33,30h1v1h-1V30z"/>
		<path class="st16" d="M34,31h1v1h-1V31z M30,30h1v1h-1V30z"/>
		<path class="st16" d="M29,31h1v1h-1V31z M31,31h2v1h-2V31z"/>
		<path class="st16" d="M33,32h1v1h-1V32z M30,32h1v1h-1V32z"/>
		<path class="st16" d="M31,33h2v1h-2V33z"/>
		<path class="st16" d="M33,34h1v1h-1V34z M30,34h1v1h-1V34z"/>
		<path class="st16" d="M31,35h2v1h-2V35z M34,33h1v1h-1V33z M34,35h1v1h-1V35z M29,33h1v1h-1V33z M29,35h1v1h-1V35z M29,29h1v1h-1
			V29z"/>
		<path class="st16" d="M28,30h1v1h-1V30z M28,25h1v2h-1V25z M30,25h1v2h-1V25z M33,25h1v2h-1V25z M35,25h1v2h-1V25z M37,22h1v1h-1
			V22z"/>
		<path class="st16" d="M36,23h1v1h-1V23z M36,28h1v1h-1V28z"/>
		<path class="st16" d="M37,29h1v1h-1V29z M42,22h1v1h-1V22z"/>
		<path class="st16" d="M43,23h1v1h-1V23z M43,28h1v1h-1V28z"/>
		<path class="st16" d="M42,29h1v1h-1V29z M39,21h2v1h-2V21z M46,26h1v1h-1V26z M48,26h1v1h-1V26z"/>
		<path class="st16" d="M44,25h1v2h-1V25z M47,25h1v1h-1V25z M39,30h2v1h-2V30z"/>
	</g>
	<path class="st17" d="M26,23h-4v1h-1v4h1v1h4v-1h1v-4h-1V23z M42,24v-1h-4v1h-1v4h1v1h4v-1h1v-4H42z"/>
	<g>
		<path class="st2" d="M24,23h1v1h-1V23z"/>
		<path class="st2" d="M23,24h1v1h-1V24z"/>
		<path class="st2" d="M22,25h1v1h-1V25z"/>
		<path class="st2" d="M21,26h1v1h-1V26z M26,25h-1v1h-1v1h-1v1h-1v1h2v-1h1v-1h1v-1h1v-2h-1V25z M40,23h1v1h-1V23z"/>
		<path class="st2" d="M39,24h1v1h-1V24z"/>
		<path class="st2" d="M38,25h1v1h-1V25z M42,24v1h-1v1h-1v1h-1v1h-1v1h2v-1h1v-1h1v-1h1v-2H42z"/>
		<path class="st2" d="M37,26h1v1h-1V26z"/>
	</g>
</g>
<g>
	<path class="st6" d="M49,19v-7h-2V9h-2V5h-2V3H21v2h-2v4h-2v3h-2v7h-4v2h42v-2H49z"/>
	<path class="st7" d="M49,19v-3H15v3H49z"/>
</g>
<g>
	<g>
		<path class="st6" d="M7,37h3v1H7V37z"/>
		<path class="st6" d="M6,38h1v1H6V38z"/>
		<path class="st6" d="M12,44v-5h-1v4H6v-4H5v5H4v6h1v1h7v-1h1v-6H12z"/>
		<path class="st6" d="M10,38h1v1h-1V38z"/>
	</g>
	<g>
		<path class="st7" d="M11,45h1v1h-1V45z M11,47h1v1h-1V47z"/>
		<path class="st7" d="M11,49h1v1h-1V49z M10,44h1v1h-1V44z"/>
		<path class="st7" d="M10,46h1v1h-1V46z M10,48h1v1h-1V48z"/>
		<path class="st7" d="M9,45h1v1H9V45z M9,47h1v1H9V47z"/>
		<path class="st7" d="M9,49h1v1H9V49z M8,44h1v1H8V44z"/>
		<path class="st7" d="M8,46h1v1H8V46z M8,48h1v1H8V48z"/>
		<path class="st7" d="M7,45h1v1H7V45z M7,47h1v1H7V47z"/>
		<path class="st7" d="M7,49h1v1H7V49z M6,44h1v1H6V44z"/>
		<path class="st7" d="M6,46h1v1H6V46z M6,48h1v1H6V48z"/>
		<path class="st7" d="M5,45h1v1H5V45z M5,47h1v1H5V47z M5,49h1v1H5V49z"/>
	</g>
</g>
<g>
	<g transform="scale(-1, 1) translate(-60, 0)">
		<path class="st18" d="M3,25v1h-5v9h5v-1h4.5v-9H3z"/>
		<path class="st19" d="M3,25h1v9H3V25z"/>
		<g>
			<path class="st20" d="M4,30h1v1H4V30z"/>
			<path class="st20" d="M5,31h1v1H5V31z"/>
			<path class="st20" d="M6,32h1v1H6V32z M2,30h1v1H2V30z"/>
			<path class="st20" d="M1,31h1v1H1V31z"/>
			<path class="st20" d="M0,32h1v1H0V32z"/>
			<path class="st20" d="M-1,33h1v1h-1V33z"/>
			<path class="st20" d="M-2,34h1v1h-1V34z M4,28h1v1H4V28z"/>
			<path class="st20" d="M5,27h1v1H5V27z"/>
			<path class="st20" d="M6,26h1v1H6V26z M-2,26h1v1h-1V26z M1,29h1v1H1V29z"/>
			<path class="st20" d="M0,28h1v1H0V28z"/>
			<path class="st20" d="M-1,27h1v1h-1V27z"/>
		</g>
		<path d="M6,27v1H5v1H4v1h1v1h1v1h1v-5H6z M1,29H0v-1h-1v-1h-1v7h1v-1h1v-1h1v-1h1v-1H1V29z"/>
		<path class="st21" d="M3,29h1v1H3V29z"/>
		<path class="st22" d="M7,24h1v28H7V24z"/>
		<path class="st23" d="M7,24h1v1H7V24z"/>
	</g>
</g>
<g>
	<path d="M61,45v-1h-1v-1h-5v1h-1v1h-4v-1h-1v-1h-5v1h-1v1h-1v2h1v1h1v1h-1v3h1v1h1v1h-1v1h-1v2h1v1h-1v2h4v1h3v-1h1v-1h2v1h1v1h3
		v-1h4v-2h-1v-1h1v-2h-1v-1h-1v-1h1v-1h1v-3h-1v-1h1v-1h1v-2H61z"/>
	<path class="st2" d="M60,46h-1v1h-3v-1h-2v1h1v1h5v-1h1v-1H60z M48,46v1h-3v-1h-2v1h1v1h5v-1h1v-1H48z"/>
	<g>
		<path class="st24" d="M59,44h-4v1h5v-1H59z M52,48h2v-1h-1v-1h-2v1h-1v1H52z M46,45h3v-1h-5v1H46z M51,56v2h2v-2H51z"/>
		<path class="st24" d="M58,55v-2H46v2h-2v2h2v1h-2v1h3v-3h1v3h-1v1h3v-4h1v-1h2v1h1v4h3v-1h-1v-3h1v3h3v-1h-2v-1h2v-2H58z"/>
	</g>
	<path class="st25" d="M59,49H44v3h16v-3H59z M59,51H45v-1h14V51z"/>
</g>
</svg>
