<svg xmlns="http://www.w3.org/2000/svg" viewBox="0 0 64 64"><path d="M47 14v-2h-2v-2h-4V8h-4V6H27v2h-4v2h-4v2h-2v2h-2v41h4v-2h5v2h5v-2h6v2h5v-2h5v2h4V14z"/><path d="M45 14v-2h-4v-2h-4V8H27v2h-4v2h-4v2h-2v39h2v-2h5v2h5v-2h6v2h5v-2h5v2h2V14z" fill="#fbdfeb"/><path d="M18,49h2v-1h2v1h2v2h5v-2h2v-1h2v1h2v2h5v-2h2v-1h2v1h1V14h-4v-2h-4v-2h-5V9h-5v2h-4v2h-4v2h-1V49z" fill="#fff"/><path d="M44,58H19v1h1v1h24v-1h1v-1H44z" opacity=".25" enable-background="new"/><path d="M21 32v2h2v-2h-2zm20 0v2h2v-2h-2z" fill="#f696c6"/><path d="M29,32h-2v2h2V32z"/><path d="M29,34v2h6v-2H29z"/><path d="M35 32v2h2v-2h-2zm21 6v-1h-2v-1h-2v-1h-1v-1h-1v-1h-1v8h1v1h2v1h4v-1h1v-4z"/><path d="M54 38v-1h-2v-1h-1v-1h-1v-1h-1v6h1v1h2v1h4v-4z" fill="#fbdfeb"/><path d="M54,38v-1h-2v-1h-1v-1h-1v-1h-1v5h1v1h2v1h4v-3H54z" fill="#fff"/><path d="M8 38v-1h2v-1h2v-1h1v-1h1v-1h1v8h-1v1h-2v1H8v-1H7v-4z"/><path d="M10 38v-1h2v-1h1v-1h1v-1h1v6h-1v1h-2v1H8v-4z" fill="#fbdfeb"/><path d="M8,38v3h4v-1h2v-1h1v-5h-1v1h-1v1h-1v1h-2v1H8z" fill="#fff"/><path d="M42,24v-1h-1v-1h-4v1h-1v1h-1v4h1v1h1v1h4v-1h1v-1h1v-4H42z"/><path d="M41 25v2h1v-2h-1zm-3-2v1h2v-1h-2zm-2 3v1h1v-2h-1v1zm2-1v2h2v-2h-2zm0 3v1h2v-1h-2z" fill="#fff"/><path d="M28,23h-1v-1h-4v1h-1v1h-1v4h1v1h1v1h4v-1h1v-1h1v-4h-1V23z"/><path d="M27 26v1h1v-2h-1v1zm-3-3v1h2v-1h-2zm-2 3v1h1v-2h-1v1zm2-1v2h2v-2h-2zm0 3v1h2v-1h-2z" fill="#fff"/><path d="M35.5 20h1v-1h1v-5h-1v-1h-1v-1h-1v-1h-5v1h-1v1h-1v1h-1v5h1v1h1v1h1v1h5v-1h1v-1zm0-2h-1v1h-4v-1h-1v-3h1v-1h4v1h1v3z"/><path d="M28.5,15h1v-1h1v-1h3v-1h-4v1h-1v1h-1v5h1v1h1v1h4v-1h-3v-1h-1v-1h-1V15z" fill="#e51b6d"/><path d="M48 33h-2v1h-1v1h-1v1h-1v1h-1v1h-1v1h-2v1h-3v1h-8v-1h-3v-1h-2v-1h-1v-1h-1v-1h-1v-1h-1v-1h-1v-1h-3v2h1v1h1v1h1v6h-1v1h-1v1h-1v8h34v-8h-1v-1h-1v-1h-1v-6h1v-1h1v-1h1v-2h-1z"/><g fill="#7e18f8"><path d="M31 42.3v.7h-.7v1.4h-.7v1.4h-.7v.7H31v1.4h-.7v1.4h-.7v1.4h.7V50h.7v-.7h.7v-.7h.7v-.7h.7v-.7h.7v-.7h.7v-.7h-2.1v-.7h.7v-.7h.7v-.7h.7V43h.7v-.7H31z"/><path d="M28.9 50.6v.7h.7v-.7h-.7z"/></g><path d="M31 42.3v.7h-.7v1.4h3.5v-.7h.7V43h.7v-.7H31z" fill="#fa34f3"/><path d="M32.3 45.8v-.7h.7v-.7h-3.5v1.4h-.7v.7h5.5v-.7c.1 0-1.4 0-2 0z" fill="#cf15f9"/><path d="M31 46.5v1.4h2.1v-.7h.7v-.7H31z" fill="#ac15f9"/><path d="M30.3 47.9v1.4h1.4v-.7h.7v-.7h-2.1z" fill="#8f17f9"/><path d="M14 38h-1v-1h-1v-1h-2v1H9v2h1v1h1v1h1v1h2v-1h1v-2h-1z"/><g fill="#fa34f3"><path d="M10 37h1v1h-1z"/><path d="M11 38h1v1h-1z"/></g><path d="M12 39h1v1h-1z" fill="#ac15f9"/><path d="M13 40h1v1h-1z" fill="#7e18f8"/><path d="M54 37v-1h-2v1h-1v1h-1v1h-1v2h1v1h2v-1h1v-1h1v-1h1v-2z"/><g fill="#fa34f3"><path d="M53 37h1v1h-1z"/><path d="M52 38h1v1h-1z"/></g><path d="M51 39h1v1h-1z" fill="#ac15f9"/><path d="M50 40h1v1h-1z" fill="#7e18f8"/><path d="M26 35h-1v-1h-1v-1h-1v-1h-2v-1h-1v-1h-1v-1h-1v-8h-3v12h2v1h1v1h1v1h2v1h2v1h4v-2h-1v-1zm7 2h-4v1h1v1h1v1h2v-1h1v-1h1v-1h-2zm13-16v8h-1v1h-1v1h-1v1h-2v1h-1v1h-1v1h-1v1h-1v2h4v-1h2v-1h2v-1h1v-1h1v-1h2V21h-3z" fill="#773e1d"/><path d="M35 6V3h-2V0h-2v3h-2v3h-2v13h2v2h2v1h2v-1h2v-2h2V6h-2z"/><path d="M31 22h1V0h-1v22zm2-1h1V3h-1v18zm-4 0h1V3h-1v18zm-2-2h1V6h-1v13zm8-13v13h1V6h-1z" fill="#191919"/></svg>