<?xml version="1.0" encoding="utf-8"?>
<!-- Generator: Adobe Illustrator 25.3.1, SVG Export Plug-In . SVG Version: 6.00 Build 0)  -->
<svg version="1.1" id="Layer_1" xmlns="http://www.w3.org/2000/svg" xmlns:xlink="http://www.w3.org/1999/xlink" x="0px" y="0px"
	 viewBox="0 0 64 64" style="enable-background:new 0 0 64 64;" xml:space="preserve">
<style type="text/css">
	.st0{fill:#FF2A7A;}
	.st1{fill:#FFC3DF;}
	.st2{fill:#FFFFFF;}
	.st3{fill:#F696C6;}
	.st4{opacity:0.25;enable-background:new    ;}
	.st5{fill:#EA8C27;}
	.st6{fill:#FFC2DB;}
	.st7{fill:#FFDEEC;}
	.st8{fill:#FF88B8;}
	.st9{fill:#FF3085;}
	.st10{fill:#009696;}
	.st11{fill:#00FFE1;}
	.st12{fill:#323232;}
	.st13{display:none;}
	.st14{display:inline;}
	.st15{display:inline;fill:#FFFFFF;}
	.st16{fill:#FF6E00;}
	.st17{display:inline;fill:#323232;}
	.st18{fill:#E1E1E1;}
	.st19{fill:#9B00DC;}
	.st20{fill:#FAAFF3;}
</style>
<g>
	<g>
		<path class="st0" d="M21,12h2v-2h-4v2h1H21z"/>
		<path class="st0" d="M19,14v-2h-2v2h1H19z M25,10h2V8h-4v2h1H25z"/>
		<path class="st0" d="M29,8h8V6H27v2h1H29z M45,14h2v-2h-2v1V14z"/>
		<path class="st0" d="M48,14h-1v39h-2v2h4V14H48z M37,10h4V8h-4v1V10z"/>
		<path class="st0" d="M41,12h4v-2h-4v1V12z M17,53V14h-2v41h4v-2h-1H17z"/>
		<path class="st0" d="M24,51h-5v2h5v-1V51z"/>
		<path class="st0" d="M27,53h-3v2h5v-2h-1H27z M45,51h-5v2h5v-1V51z"/>
		<path class="st0" d="M35,51h-6v2h6v-1V51z"/>
		<path class="st0" d="M38,53h-3v2h5v-2h-1H38z"/>
	</g>
	<g>
		<path class="st1" d="M18,43v6h2v-1h2v1h2v2h-5v2h-2V14h2v1h-1v26V43z"/>
		<path class="st1" d="M27,51h-3v2h5v-2h-1H27z M38,51h-3v2h5v-2h-1H38z"/>
		<path class="st1" d="M35,49h-2v-1h-2v1h-2v2h6v-1V49z M25,11h2v-1h-4v1h1H25z M21,13h2v-1h-4v1h1H21z M45,44v5h-1v-1h-2v1h-2v2h5
			v2h2V14h-2v29V44z"/>
		<path class="st1" d="M37,8H27v1h5v1h5V9V8z M45,12h-4v2h4v-1V12z"/>
		<path class="st1" d="M41,10h-4v2h4v-1V10z"/>
	</g>
	<path class="st2" d="M44,14h-3v-2h-4v-2h-5V9h-5v2h-4v2h-4v2h-1v34h2v-1h2v1h2v2h5v-2h2v-1h2v1h2v2h5v-2h2v-1h2v1h1V14H44z"/>
</g>
<path class="st3" d="M21,32v2h2v-2h-1H21z M42,32h-1v2h2v-2H42z"/>
<g>
	<path class="st0" d="M29,32h-2v2h2v-1V32z"/>
	<path class="st0" d="M33,34h-4v2h6v-2h-1H33z"/>
	<path class="st0" d="M36,32h-1v2h2v-2H36z"/>
</g>
<g>
	<path class="st4" d="M25,58h-6v1h1v1h24v-1h1v-1h-1H25z"/>
</g>
<g>
	<rect x="21" y="23" class="st0" width="8" height="2"/>
	<rect x="35" y="23" class="st0" width="8" height="2"/>
	<rect x="38" y="25" class="st5" width="2" height="2"/>
	<rect x="24" y="25" class="st5" width="2" height="2"/>
</g>
<g>
	<path class="st6" d="M30,9V8h-1v1h-1v2h1v1h2V9H30z"/>
	<path class="st7" d="M28,7V6h-1v2h2V7H28z"/>
	<path class="st2" d="M26,5h1v1h-1V5z"/>
	<path class="st8" d="M33,13v-2h-1v1h-1v1h-2v1h1v1h4v-2H33z"/>
	<g>
		<path class="st9" d="M27,5V4h-1V3h-1v3h1V5H27z"/>
		<path class="st9" d="M27,5h1v1h-1V5z"/>
		<path class="st9" d="M28,6h1v1h-1V6z"/>
		<path class="st9" d="M29,7h1v1h-1V7z"/>
		<path class="st9" d="M30,8h1v1h-1V8z M28,9h1V8h-2v3h1V9z"/>
		<path class="st9" d="M31,13v-1h-2v-1h-1v3h1v-1H31z"/>
		<path class="st9" d="M31,12h1v-1h1v-1h-1V9h-1V12z"/>
		<path class="st9" d="M34,12v-1h-1v2h1v2h1v-3H34z"/>
		<path class="st9" d="M30,15v-1h-1v2h5v-1H30z M26,6h1v2h-1V6z"/>
	</g>
</g>
<g>
	<path class="st10" d="M49,33h-3v1h-1v1h-1v1h-1v1h-1v1h-1v1h-2v1h-2v1h-3v1h-4v-1h-3v-1h-2v-1h-2v-1h-1v-1h-1v-1h-1v-1h-1v-1h-1v-1
		h-3v20h34V33z"/>
	<g>
		<path class="st11" d="M46,34v1h-1v1h-1v1h-1v1h-1v1h-1v1h-2v1h-2v1h-3v1h-4v-1h-3v-1h-2v-1h-2v-1h-1v-1h-1v-1h-1v-1h-1v-1h-1v-1
			h-2v18h32V34H46z M36,51h-2v-1h-1v1h-2v-1h-1v1h-2v-5h1v-1h1v-1h4v1h1v1h1V51z"/>
		<path class="st11" d="M35,46h-1v-1h-4v1h-1v4h1v-1h1v1h2v-1h1v1h1V46z M32.5,49h-1v-3h1V49z"/>
	</g>
	<path class="st12" d="M49,33h-3v1h-1v1h-2v1h-2v1h-2v1h-2v15h12V33z M15,53h12V38h-2v-1h-2v-1h-2v-1h-2v-1h-1v-1h-3V53z"/>
	<path d="M46,34v1h-1v1h-2v1h1v1h1v1h-1v1h-1v1h-1v1h-1v1h-1v1h-1v1h-1v7h10V34H46z M46,48h-4v-1h4V48z"/>
	<path d="M40,43v-1h1v-1h1v-1h1v-1h1v-1h-1v-1h-2v1h-2v1h-1v5h1v-1H40z M25,38h-2v-1h-2v1h-1v1h1v1h1v1h1v1h1v1h1v1h1v-5h-1V38z"/>
	<path d="M24,43h-1v-1h-1v-1h-1v-1h-1v-1h-1v-1h1v-1h1v-1h-2v-1h-1v-1h-2v18h10v-7h-1v-1h-1V43z M22,48h-4v-1h4V48z"/>
</g>
<g class="st13">
	<g class="st14">
		<path class="st0" d="M19,42h1v1h-1V42z M20,36h1v1h-1V36z"/>
		<path class="st0" d="M21,37h1v1h-1V37z M26,40v4h1v-4H26z M21,43h-1v1h2v-1H21z"/>
		<path class="st0" d="M24,44h-2v1h4v-1h-1H24z M25,39h-1v1h2v-1H25z"/>
		<path class="st0" d="M23,38h-1v1h2v-1H23z"/>
	</g>
	<g class="st14">
		<path class="st1" d="M19,43h1v1h-1V43z M24,45h-2v1h4v-1h-1H24z"/>
		<path class="st1" d="M27,41v3h1v-3H27z M21,44h-1v1h2v-1H21z"/>
		<path class="st1" d="M26,44h1v1h-1V44z M19,41h-1v2h1v-1V41z"/>
	</g>
	<g class="st14">
		<path class="st0" d="M44,42h1v1h-1V42z M43,36h1v1h-1V36z"/>
		<path class="st0" d="M42,37h1v1h-1V37z"/>
		<path class="st0" d="M42,39v-1h-2v1h1H42z M42,43v1h2v-1h-1H42z"/>
		<path class="st0" d="M40,44h-2v1h4v-1h-1H40z"/>
		<path class="st0" d="M38,42v-2h-1v4h1v-1V42z"/>
		<path class="st0" d="M40,40v-1h-2v1h1H40z"/>
	</g>
	<g class="st14">
		<path class="st1" d="M42,44v1h2v-1h-1H42z M37,42v-1h-1v3h1v-1V42z"/>
		<path class="st1" d="M40,45h-2v1h4v-1h-1H40z"/>
		<path class="st1" d="M37,44h1v1h-1V44z M44,43h1v1h-1V43z"/>
	</g>
</g>
<g>
	<g>
		<path class="st0" d="M14,40h1v1h-1V40z M13,34h1v1h-1V34z"/>
		<path class="st0" d="M14,33h1v1h-1V33z M12,35h1v1h-1V35z M7,38h1v4H7V38z M12,41h2v1h-2V41z"/>
		<path class="st0" d="M8,42h4v1H8V42z M8,37h2v1H8V37z"/>
		<path class="st0" d="M10,36h2v1h-2V36z"/>
	</g>
	<g>
		<path class="st1" d="M14,39h1v1h-1V39z"/>
		<path class="st1" d="M12,40h2v1h-2V40z"/>
		<path class="st1" d="M8,41h4v1H8V41z"/>
	</g>
	<path class="st2" d="M8,38v3h4v-1h2v-1h1v-5h-1v1h-1v1h-1v1h-2v1H8z"/>
	<g>
		<path class="st0" d="M49,40h1v1h-1V40z M50,34h1v1h-1V34z"/>
		<path class="st0" d="M49,33h1v1h-1V33z M51,35h1v1h-1V35z M56,38h1v4h-1V38z M50,41h2v1h-2V41z"/>
		<path class="st0" d="M52,42h4v1h-4V42z M54,37h2v1h-2V37z"/>
		<path class="st0" d="M52,36h2v1h-2V36z"/>
	</g>
	<g>
		<path class="st1" d="M49,39h1v1h-1V39z"/>
		<path class="st1" d="M50,40h2v1h-2V40z"/>
		<path class="st1" d="M52,41h4v1h-4V41z"/>
	</g>
	<path class="st2" d="M54,38v-1h-2v-1h-1v-1h-1v-1h-1v5h1v1h2v1h4v-3H54z"/>
</g>
<g class="st13">
	<g class="st14">
		<path class="st1" d="M50,38h1v1h-1V38z"/>
		<path class="st1" d="M49,39h1v1h-1V39z M51,37h1v1h-1V37z"/>
		<path class="st1" d="M52,36h2v1h-2V36z"/>
		<path class="st1" d="M54,35h2v1h-2V35z"/>
	</g>
	<path class="st15" d="M52,32v1h-2v1h-1v5h1v-1h1v-1h1v-1h2v-1h2v-3H52z"/>
	<g class="st14">
		<path class="st0" d="M49,33h1v1h-1V33z"/>
		<path class="st0" d="M50,32h2v1h-2V32z M50,39h1v1h-1V39z"/>
		<path class="st0" d="M49,40h1v1h-1V40z M51,38h1v1h-1V38z"/>
		<path class="st0" d="M52,37h2v1h-2V37z M52,31h4v1h-4V31z"/>
		<path class="st0" d="M56,32h1v4h-1V32z"/>
		<path class="st0" d="M54,36h2v1h-2V36z"/>
	</g>
	<g class="st14">
		<path class="st1" d="M13,38h1v1h-1V38z"/>
		<path class="st1" d="M14,39h1v1h-1V39z M12,37h1v1h-1V37z"/>
		<path class="st1" d="M10,36h2v1h-2V36z"/>
		<path class="st1" d="M8,35h2v1H8V35z"/>
	</g>
	<path class="st15" d="M8,32v3h2v1h2v1h1v1h1v1h1v-5h-1v-1h-2v-1H8z"/>
	<g class="st14">
		<path class="st0" d="M14,33h1v1h-1V33z"/>
		<path class="st0" d="M12,32h2v1h-2V32z M13,39h1v1h-1V39z"/>
		<path class="st0" d="M14,40h1v1h-1V40z M12,38h1v1h-1V38z"/>
		<path class="st0" d="M10,37h2v1h-2V37z M8,31h4v1H8V31z"/>
		<path class="st0" d="M7,32h1v4H7V32z"/>
		<path class="st0" d="M8,36h2v1H8V36z"/>
	</g>
</g>
<g>
	<path d="M15,22v2h3v2h1v2h1v1h1v1h7v-1h1v-1h1v-2h1v-2h2v2h1v2h1v1h1v1h7v-1h1v-1h1v-2h1v-2h3v-2H15z"/>
	<path class="st2" d="M44,23v2h-1v-1h-1v-1H44z M29,23v2h-1v-1h-1v-1H29z"/>
</g>
<g>
	<path d="M51,20v-6h-2v-4h-2V8h-2V6h-2V4h-2V2H23v2h-2v2h-2v2h-2v2h-2v4h-2v6H51z"/>
	<path class="st16" d="M36,10V9h-1V8h-1V7h-4v1h-1v1h-1v1h-1v4h1v1h1v1h1v1h4v-1h1v-1h1v-1h1v-4H36z"/>
	<g>
		<path class="st2" d="M31.5,11.5v-1h2v-1h-1v-1h-1v1h-2v1h1v3h-1v1h2v1h1v-1h1v-1h-2v-1h2v-1H31.5z"/>
		<path class="st2" d="M33.5,12.5h1v1h-1V12.5z M33.5,10.5h1v1h-1V10.5z"/>
	</g>
</g>
<g>
	<g class="st13">
		<path class="st17" d="M48.7,41v-8H50v-1h2v7h-1v1h-1v1H48.7z"/>
		<path class="st14" d="M49,40v-6h1v-1h1v6h-1v1H49z"/>
	</g>
	<g>
		<path class="st12" d="M50,33v1h1v1h1v7h-2v-1h-1.3v-8H50z"/>
		<path d="M50,34v1h1v6h-1v-1h-1v-6H50z"/>
	</g>
	<g class="st13">
		<path class="st17" d="M14,41v-1h-1v-1h-1v-7h2v1h1.3v8H14z"/>
		<path class="st14" d="M14,40v-1h-1v-6h1v1h1v6H14z"/>
	</g>
	<g>
		<path class="st12" d="M14,33v1h-1v1h-1v7h2v-1h1.3v-8H14z"/>
		<path d="M14,34v1h-1v6h1v-1h1v-6H14z"/>
	</g>
</g>
<g>
	<path d="M12,27v-1h-1v-1H7v1H6v1H5v22h1v1h1v1h4v-1h1v-1h1V27H12z"/>
	<path class="st18" d="M7,32v1h4v-1H7z M7,43v1h4v-1H7z"/>
	<path class="st16" d="M11,31v3h1v-3H11z M6,34h1v-3H6V34z M11,45h1v-3h-1V45z M6,45h1v-3H6V45z"/>
</g>
<g>
	<g transform="scale(-1, 1) translate(-54, 0)">
		<path d="M2,27v-1H1v-1h-4v1h-1v1h-1v22h1v1h1v1h4v-1h1v-1h1V27H2z"/>
		<path class="st18" d="M-3,32v1h4v-1H-3z M-3,43v1h4v-1H-3z"/>
		<path class="st16" d="M1,31v3h1v-3H1z M-4,34h1v-3h-1V34z M1,45h1v-3H1V45z M-4,45h1v-3h-1V45z"/>
	</g>
</g>
<g>
	<path d="M61,45v-1h-1v-1h-5v1h-1v1h-4v-1h-1v-1h-5v1h-1v1h-1v2h1v1h1v1h-1v3h1v1h1v1h-1v1h-1v2h1v1h-1v2h4v1h3v-1h1v-1h2v1h1v1h3
		v-1h4v-2h-1v-1h1v-2h-1v-1h-1v-1h1v-1h1v-3h-1v-1h1v-1h1v-2H61z"/>
	<path class="st2" d="M60,46h-1v1h-3v-1h-2v1h1v1h5v-1h1v-1H60z M48,46v1h-3v-1h-2v1h1v1h5v-1h1v-1h-1H48z"/>
	<g>
		<path class="st19" d="M59,44h-4v1h5v-1H59z M52,48h2v-1h-1v-1h-2v1h-1v1h1H52z M46,45h3v-1h-5v1h1H46z M51,56v2h2v-2h-1H51z"/>
		<path class="st19" d="M58,55v-2H46v2h-2v2h2v1h-2v1h3v-3h1v3h-1v1h3v-4h1v-1h2v1h1v4h3v-1h-1v-3h1v3h3v-1h-2v-1h2v-2h-1H58z"/>
	</g>
	<path class="st20" d="M59,49H44v3h16v-3H59z M59,51H45v-1h14V51z"/>
</g>
</svg>
