<svg xmlns="http://www.w3.org/2000/svg" viewBox="0 0 64 64"><path d="M47 14v-2h-2v-2h-4V8h-4V6H27v2h-4v2h-4v2h-2v2h-2v41h4v-2h5v2h5v-2h6v2h5v-2h5v2h4V14z" fill="#2664ba"/><path d="M45 14v-2h-4v-2h-4V8H27v2h-4v2h-4v2h-2v39h2v-2h5v2h5v-2h6v2h5v-2h5v2h2V14z" fill="#d4e0f1"/><path d="M18,49h2v-1h2v1h2v2h5v-2h2v-1h2v1h2v2h5v-2h2v-1h2v1h1V14h-4v-2h-4v-2h-5V9h-5v2h-4v2h-4v2h-1V49z" fill="#fff"/><path d="M44,58H19v1h1v1h24v-1h1v-1H44z" opacity=".25" enable-background="new"/><path d="M21 32v2h2v-2h-2zm20 0v2h2v-2h-2z" fill="#f696c6"/><g fill="#2664ba"><path d="M29,32h-2v2h2V32z"/><path d="M29,34v2h6v-2H29z"/><path d="M35 32v2h2v-2h-2zm21 6v-1h-2v-1h-2v-1h-1v-1h-1v-1h-1v8h1v1h2v1h4v-1h1v-4z"/></g><path d="M54 38v-1h-2v-1h-1v-1h-1v-1h-1v6h1v1h2v1h4v-4z" fill="#d4e0f1"/><path d="M54,38v-1h-2v-1h-1v-1h-1v-1h-1v5h1v1h2v1h4v-3H54z" fill="#fff"/><path d="M8 38v-1h2v-1h2v-1h1v-1h1v-1h1v8h-1v1h-2v1H8v-1H7v-4z" fill="#2664ba"/><path d="M10 38v-1h2v-1h1v-1h1v-1h1v6h-1v1h-2v1H8v-4z" fill="#d4e0f1"/><path d="M8,38v3h4v-1h2v-1h1v-5h-1v1h-1v1h-1v1h-2v1H8z" fill="#fff"/><g fill="#2664ba"><path d="M30 17h3v1h-3v1h1.5v1h1v-1H34v-3h-3v-1h3v-1h-1.5v-1h-1v1H30v3zm4 3h1v1h-1v-1z"/><path d="M35,19h1v1h-1V19z"/><path d="M36 19h1v-5h-1v5zm-2-7h1v1h-1v-1z"/><path d="M35 13h1v1h-1v-1zm-7 1h-1v5h1v-5zm1 6h1v1h-1v-1z"/><path d="M28 19h1v1h-1v-1zm1-7h1v1h-1v-1z"/><path d="M28 13h1v1h-1v-1zm14 11v-1h-1v-1h-4v1h-1v1h-1v4h1v1h1v1h4v-1h1v-1h1v-4h-1z"/></g><path d="M41 25v2h1v-2h-1zm-5 2h1v-2h-1v2zm2-2v2h2v-2h-2z" fill="#fff"/><path d="M28,23h-1v-1h-4v1h-1v1h-1v4h1v1h1v1h4v-1h1v-1h1v-4h-1V23z" fill="#2664ba"/><path d="M27 27h1v-2h-1v2zm-5 0h1v-2h-1v2zm2-2v2h2v-2h-2z" fill="#fff"/><path d="M41 38v1h-2v1h-2 0-1v1h-2v1h-4v-1h-2v-1h-1 0-2v-1h-2v-1h-1v-1h-1v-1h-1v-1h-1v-1h-1v-1h-3v22h4v-2h5v2h5v-2h6v2h5v-2h5v2h4V33h-3v1h-1v1h-1v1h-1v1h-1v1h-1z"/><path d="M47 34v19h1V34h-1zm-3 3h-1v1h-1v1h-1v1h-2v1h-2 0-1v1h-2v1h-4v-1h-2v-1h-1 0-2v-1h-2v-1h-1v-1h-1v-1h-1v-1h-1v16h6v1h3v-1h8v1h3v-1h6v-2h-5v-1h5V36h-1v1zM16 53h1V34h-1v19z" fill="red"/><path d="M33 48.5v1h2v-1h-2zm-3-2h-1v1h2v-2h-1v1zm5-1h1v1h-1z"/><path d="M33 44.5v1h2v-1h-2zm0 2v1h2v-1h-2zm-5-2v1h2v-1h-2zm0 5h3v-1h-2v-1h-1v2z"/><path d="M35 47.5h1v1h-1z"/><path d="M47 53h1v1h-1zm-2 0h1V35h-1v18zm-9 0v1h3v-1h-3zm-20 0h1v1h-1zm2 0h1V35h-1v18zm7 0v1h3v-1h-3z" fill="#fff"/><path d="M15 14v6h34v-6H15z" fill="red"/><path d="M15 16v2h34v-2H15z"/><path d="M13 31v-1h-1v-1h-1v-1H4v1H3v1H2v1H1v7h1v1h1v1h1v1h7v-1h1v-1h1v-1h1v-7h-1z" fill="#ff6e00"/><path d="M12 30h1v1h-1z"/><path d="M11 31h1v1h-1zm-8 0h1v1H3zm0 6h1v1H3zm8 0h1v1h-1z"/><path d="M12 38h1v1h-1zm-1-4v-2h-1v2H8v-6H7v6H5v-2H4v2H1v1h3v2h1v-2h2v6h1v-6h2v2h1v-2h3v-1h-3zm-9-4h1v1H2zm0 8h1v1H2z"/></svg>