<svg xmlns="http://www.w3.org/2000/svg" viewBox="0 0 64 64"><path d="M44,58H19v1h1v1h24v-1h1v-1H44z" opacity=".25" enable-background="new"/><path d="M47 14v-2h-2v-2h-4V8h-4V6H27v2h-4v2h-4v2h-2v2h-2v41h4v-2h5v2h5v-2h6v2h5v-2h5v2h4V14z" fill="#64438e"/><path d="M45 14v-2h-4v-2h-4V8H27v2h-4v2h-4v2h-2v39h2v-2h5v2h5v-2h6v2h5v-2h5v2h2V14z" fill="#edd3fd"/><path d="M18,49h2v-1h2v1h2v2h5v-2h2v-1h2v1h2v2h5v-2h2v-1h2v1h1V14h-4v-2h-4v-2h-5V9h-5v2h-4v2h-4v2h-1V49z" fill="#fff"/><path d="M23 28v2h4v-2h2v-4h-2v-2h-4v2h-2v4h2zm12-4v4h2v2h4v-2h2v-4h-2v-2h-4v2h-2z" fill="#64438e"/><path d="M21 32v2h2v-2h-2zm20 0v2h2v-2h-2z" fill="#f696c6"/><g fill="#64438e"><path d="M29,32h-2v2h2V32z"/><path d="M29,34v2h6v-2H29z"/><path d="M35 32v2h2v-2h-2zm0-17v-1h-1v-1h-1v-1h-2v1h-1v1h-1v1h-1v4h1v1h1v1h1v1h2v-1h1v-1h1v-1h1v-4z"/></g><g fill="#dea8ff"><path d="M29,17v2h1v1h1v1h1v-4H29z"/><path d="M34,15v-1h-1v-1h-1v4h3v-2H34z"/></g><path d="M32,17v4h1v-1h1v-1h1v-2H32z" fill="#c260ff"/><g fill="#edd3fd"><path d="M31 13v1h-1v1h-1v2h3v-4h-1zm13 29h1v2h-1v-2zm-6 2v2h4v-2h-4z"/><path d="M36 41v3h2v-3h-2zm6 2v2h2v-2h-2z"/><path d="M37,41h1v4h-1V41z"/></g><path d="M43 36v1h-1v1h-2v1h-2v1h-1v4h1v1h4v-1h2v-1h1v-1h-1v-5-1z" fill="#64438e"/><path d="M38,40v4h4v-1h2v-1h1v-6h-1v1h-1v1h-1v1h-2v1H38z" fill="#fff"/><g fill="#edd3fd"><path d="M20 44h-1v-2h1v2zm2 0v2h4v-2h-4z"/><path d="M26 41v3h2v-3h-2zm-6 2v2h2v-2h-2z"/><path d="M27 45h-1v-4h1v4z"/></g><path d="M21 36v1h1v1h2v1h2v1h1v4h-1v1h-4v-1h-2v-1h-1v-1h1v-5-1z" fill="#64438e"/><path d="M24,40v-1h-2v-1h-1v-1h-1v-1h-1v6h1v1h2v1h4v-4H24z" fill="#fff"/></svg>