<svg xmlns="http://www.w3.org/2000/svg" viewBox="0 0 64 64"><path d="M44,58H19v1h1v1h24v-1h1v-1H44z" opacity=".25" enable-background="new"/><path d="M47 14v-2h-2v-2h-4V8h-4V6H27v2h-4v2h-4v2h-2v2h-2v41h4v-2h5v2h5v-2h6v2h5v-2h5v2h4V14z" fill="#64438e"/><path d="M45 14v-2h-4v-2h-4V8H27v2h-4v2h-4v2h-2v39h2v-2h5v2h5v-2h6v2h5v-2h5v2h2V14z" fill="#edd3fd"/><path d="M18,49h2v-1h2v1h2v2h5v-2h2v-1h2v1h2v2h5v-2h2v-1h2v1h1V14h-4v-2h-4v-2h-5V9h-5v2h-4v2h-4v2h-1V49z" fill="#fff"/><path d="M23 28v2h4v-2h2v-4h-2v-2h-4v2h-2v4h2zm12-4v4h2v2h4v-2h2v-4h-2v-2h-4v2h-2z" fill="#64438e"/><path d="M21 32v2h2v-2h-2zm20 0v2h2v-2h-2z" fill="#f696c6"/><g fill="#64438e"><path d="M29,32h-2v2h2V32z"/><path d="M29,34v2h6v-2H29z"/><path d="M35 32v2h2v-2h-2zm0-17v-1h-1v-1h-1v-1h-2v1h-1v1h-1v1h-1v4h1v1h1v1h1v1h2v-1h1v-1h1v-1h1v-4z"/></g><g fill="#dea8ff"><path d="M29,17v2h1v1h1v1h1v-4H29z"/><path d="M34,15v-1h-1v-1h-1v4h3v-2H34z"/></g><path d="M32,17v4h1v-1h1v-1h1v-2H32z" fill="#c260ff"/><path d="M31,13v1h-1v1h-1v2h3v-4H31z" fill="#edd3fd"/><path d="M8 38v-1h2v-1h2v-1h1v-1h1v-1h1v8h-1v1h-2v1H8v-1H7v-4z" fill="#64438e"/><path d="M10 38v-1h2v-1h1v-1h1v-1h1v6h-1v1h-2v1H8v-4z" fill="#edd3fd"/><path d="M8,38v3h4v-1h2v-1h1v-5h-1v1h-1v1h-1v1h-2v1H8z" fill="#fff"/><path d="M56 38v-1h-2v-1h-2v-1h-1v-1h-1v-1h-1v8h1v1h2v1h4v-1h1v-4z" fill="#64438e"/><path d="M54 38v-1h-2v-1h-1v-1h-1v-1h-1v6h1v1h2v1h4v-4z" fill="#edd3fd"/><path d="M54,38v-1h-2v-1h-1v-1h-1v-1h-1v5h1v1h2v1h4v-3H54z" fill="#fff"/><path d="M15 41v14h4v-2h5v2h5v-2h6v2h5v-2h5v2h4V41z"/><path d="M32,42h1v1h-1V42z" fill="#878787"/><path d="M25 42v1h6v-1h-6zm9 0v1h5v-1h-5zm-18 0v1h8v-1h-8zm24 0v1h8v-1h-8z" fill="#282828"/><g fill="#0a0a0a"><path d="M19,44v3h-1v1h-2v5h3v-2h5v2h5v-2h2v-7H19z"/><path d="M18 44h-2v3h2v-3zm15 0h-1v4h1v-4zm13 0v3h2v-3h-2z"/><path d="M45,44H34v4h-1v1h-1v2h3v2h5v-2h5v2h3v-5h-2v-1h-1V44z"/></g><g fill="#d2d2d2"><path d="M48 48h1v1h-1v-1zm-6-2h-1v2h1v-2z"/><path d="M41 44h-1v2h1v-2zm-1-2h1v1h-1v-1zm3 7v1h5v-1h-5z"/><path d="M42,48h1v1h-1V48z"/></g><path d="M51,20v-6h-2v-4h-2V8h-2V6h-2V4h-2V2H23v2h-2v2h-2v2h-2v2h-2v4h-2v6H51z"/><path d="M36,10V9h-1V8h-1V7h-4v1h-1v1h-1v1h-1v4h1v1h1v1h1v1h4v-1h1v-1h1v-1h1v-4H36z" fill="#ff6e00"/><g fill="#fff"><path d="M31.5 11.5v-1h2v-1h-1v-1h-1v1h-2v1h1v3h-1v1h2v1h1v-1h1v-1h-2v-1h2v-1h-2z"/><path d="M33.5 12.5h1v1h-1v-1zm0-2h1v1h-1v-1z"/></g><path d="M12,27v-1h-1v-1H7v1H6v1H5v22h1v1h1v1h4v-1h1v-1h1V27H12z"/><path d="M7 32v1h4v-1H7zm0 11v1h4v-1H7z" fill="#e1e1e1"/><path d="M11 31v3h1v-3h-1zm-5 3h1v-3H6v3zm5 11h1v-3h-1v3zm-5 0h1v-3H6v3z" fill="#ff6e00"/><path d="M15,22v2h3v2h1v2h1v1h1v1h7v-1h1v-1h1v-2h1v-2h2v2h1v2h1v1h1v1h7v-1h1v-1h1v-2h1v-2h3v-2H15z"/><path d="M44 23v2h-1v-1h-1v-1zm-15 0v2h-1v-1h-1v-1z" fill="#fff"/></svg>