<?xml version="1.0" encoding="utf-8"?>
<!-- Generator: Adobe Illustrator 25.3.1, SVG Export Plug-In . SVG Version: 6.00 Build 0)  -->
<svg version="1.1" id="Layer_1" xmlns="http://www.w3.org/2000/svg" xmlns:xlink="http://www.w3.org/1999/xlink" x="0px" y="0px"
	 viewBox="0 0 64 64" style="enable-background:new 0 0 64 64;" xml:space="preserve">
<style type="text/css">
	.st0{fill:#282473;}
	.st1{fill:#489FF8;}
	.st2{fill:#FFFFFF;}
	.st3{fill:#F696C6;}
	.st4{opacity:0.25;enable-background:new    ;}
	.st5{fill:#36818E;}
	.st6{fill:#A000DC;}
	.st7{fill:#D778F5;}
	.st8{fill:#232323;}
	.st9{fill:#646464;}
	.st10{display:none;}
	.st11{display:inline;}
	.st12{display:inline;fill:#FFFFFF;}
	.st13{opacity:0.75;fill:#A000DC;enable-background:new    ;}
	.st14{fill:#C02DF0;}
	.st15{fill:#4B4B4B;}
	.st16{fill:#969696;}
	.st17{fill:#FF14FF;}
	.st18{fill:#00FFE1;}
	.st19{fill:#281D0A;}
	.st20{fill:#876526;}
	.st21{fill:#868686;}
	.st22{fill:#483514;}
	.st23{fill:#644C1E;}
	.st24{fill:#C8C8C8;}
	.st25{fill:#3C3C3C;}
	.st26{fill:#EAEAEA;}
	.st27{fill:#9B00DC;}
	.st28{fill:#FAAFF3;}
</style>
<g>
	<g>
		<path class="st0" d="M21,12h2v-2h-4v2h1H21z"/>
		<path class="st0" d="M19,14v-2h-2v2h1H19z M25,10h2V8h-4v2h1H25z"/>
		<path class="st0" d="M29,8h8V6H27v2h1H29z M45,14h2v-2h-2v1V14z"/>
		<path class="st0" d="M48,14h-1v39h-2v2h4V14H48z M37,10h4V8h-4v1V10z"/>
		<path class="st0" d="M41,12h4v-2h-4v1V12z M17,53V14h-2v41h4v-2h-1H17z"/>
		<path class="st0" d="M24,51h-5v2h5v-1V51z"/>
		<path class="st0" d="M27,53h-3v2h5v-2h-1H27z M45,51h-5v2h5v-1V51z"/>
		<path class="st0" d="M35,51h-6v2h6v-1V51z"/>
		<path class="st0" d="M38,53h-3v2h5v-2h-1H38z"/>
	</g>
	<g>
		<path class="st1" d="M18,43v6h2v-1h2v1h2v2h-5v2h-2V14h2v1h-1v26V43z"/>
		<path class="st1" d="M27,51h-3v2h5v-2h-1H27z M38,51h-3v2h5v-2h-1H38z"/>
		<path class="st1" d="M35,49h-2v-1h-2v1h-2v2h6v-1V49z M25,11h2v-1h-4v1h1H25z M21,13h2v-1h-4v1h1H21z M45,44v5h-1v-1h-2v1h-2v2h5
			v2h2V14h-2v29V44z"/>
		<path class="st1" d="M37,8H27v1h5v1h5V9V8z M45,12h-4v2h4v-1V12z"/>
		<path class="st1" d="M41,10h-4v2h4v-1V10z"/>
	</g>
	<path class="st2" d="M44,14h-3v-2h-4v-2h-5V9h-5v2h-4v2h-4v2h-1v34h2v-1h2v1h2v2h5v-2h2v-1h2v1h2v2h5v-2h2v-1h2v1h1V14H44z"/>
</g>
<path class="st3" d="M21,32v2h2v-2h-1H21z M42,32h-1v2h2v-2H42z"/>
<g>
	<path class="st0" d="M29,32h-2v2h2v-1V32z"/>
	<path class="st0" d="M33,34h-4v2h6v-2h-1H33z"/>
	<path class="st0" d="M36,32h-1v2h2v-2H36z"/>
</g>
<g>
	<path class="st4" d="M25,58h-6v1h1v1h24v-1h1v-1h-1H25z"/>
</g>
<g>
	<rect x="21" y="23" class="st0" width="8" height="2"/>
	<rect x="35" y="23" class="st0" width="8" height="2"/>
	<rect x="38" y="25" class="st5" width="2" height="2"/>
	<rect x="24" y="25" class="st5" width="2" height="2"/>
</g>
<g>
	<g>
		<path class="st0" d="M37,15h-1v4h1V15z M34,20h1v1h-1V20z"/>
		<path class="st0" d="M35,19h1v1h-1V19z M29,20h1v1h-1V20z"/>
		<path class="st0" d="M34,22v-1h-4v1H34z"/>
	</g>
	<g>
		<path class="st1" d="M30.5,15v1h1v3h1v-3h1v-1H30.5z M30,12v1h4v-1H30z"/>
		<path class="st1" d="M34,13h1v1h-1V13z M27,19h1v-4h-1V19z M29,13h1v1h-1V13z"/>
		<path class="st1" d="M28,14h1v1h-1V14z"/>
	</g>
</g>
<g>
	<path class="st6" d="M46,33v1h-1v1h-1v1h-1v1h-1v1h-1v1h-2v1h-2v1h-3v1h-4v-1h-3v-1h-2v-1h-2v-1h-1v-1h-1v-1h-1v-1h-1v-1h-1v-1h-3
		v20h34V33H46z"/>
	<path class="st7" d="M46,34v1h-1v1h-1v1h-1v1h-1v1h-1v1h-2v1h-2v1h-3v1h-4v-1h-3v-1h-2v-1h-2v-1h-1v-1h-1v-1h-1v-1h-1v-1h-1v-1h-2
		v18h32V34H46z M37.2,44h-0.5v0.6h-0.5v0.5h-0.5v0.5h-0.5v0.5h1.7v0.5h-0.5v0.6h-0.5v0.5h-0.5v0.5h-0.5v0.6H34v0.5h-0.5V50h-0.5v0.5
		h-1.7V50h-0.5v-0.6h-0.6v-0.5h-0.6v-0.5H29v-0.5h-0.5v-0.5h-0.6v-0.6h-0.6v-0.5H29v-0.5h-0.5v-0.6h-0.6v-0.5h-0.6V44h-0.6v-0.5H29
		V44h0.5v0.5h0.5v0.5h0.6v0.6h0.5v0.5h0.5v0.5H30v0.6h0.6v0.5h0.5v0.5h0.5v0.5h0.5v-0.5h0.5v-0.5h0.5v-0.5h0.5v-0.6h-1.7v-0.5h0.5
		v-0.5h0.5v-0.6h0.5v-0.5h0.5V44H35v-0.5h2.2L37.2,44L37.2,44L37.2,44L37.2,44z"/>
	<path class="st8" d="M28,40h-1v-1h-1v-1h-1v-1h-2v-1h-2v-1h-2v-1h-1v-1h-3v20h14V41h-1V40z M46,33v1h-1v1h-2v1h-2v1h-2v1h-1v1h-1v1
		h-1v1h-1v12h14V33H46z"/>
	<path d="M27,40h-1v-1h-1v-1h-2v-1h-2v-1h-2v-1h-1v-1h-2v18h12V41h-1V40z M46,34v1h-1v1h-2v1h-2v1h-2v1h-1v1h-1v1h-1v11h12V34H46z"
		/>
	<path class="st8" d="M19,41v1h1v1h2v-1h1v-1H19z"/>
	<path class="st9" d="M20,41h2v1h-2V41z"/>
	<path class="st8" d="M41,41v1h1v1h2v-1h1v-1H41z"/>
	<path class="st9" d="M42,41h2v1h-2V41z"/>
	<path class="st8" d="M19,47v1h4v-1H19z M41,47v1h4v-1H41z"/>
	<path class="st9" d="M19,47h1v1h-1V47z M22,47h1v1h-1V47z M44,47h1v1h-1V47z M41,47h1v1h-1V47z M26,47h1v1h-1V47z M26,45h1v1h-1V45
		z M26,49h1v1h-1V49z M26,43h1v1h-1V43z M37,47h1v1h-1V47z M37,45h1v1h-1V45z M37,49h1v1h-1V49z M37,43h1v1h-1V43z"/>
</g>
<g class="st10">
	<g class="st11">
		<path class="st0" d="M19,42h1v1h-1V42z M20,36h1v1h-1V36z"/>
		<path class="st0" d="M21,37h1v1h-1V37z M26,40v4h1v-4H26z M21,43h-1v1h2v-1H21z"/>
		<path class="st0" d="M24,44h-2v1h4v-1h-1H24z M25,39h-1v1h2v-1H25z"/>
		<path class="st0" d="M23,38h-1v1h2v-1H23z"/>
	</g>
	<g class="st11">
		<path class="st1" d="M19,43h1v1h-1V43z M24,45h-2v1h4v-1h-1H24z"/>
		<path class="st1" d="M27,41v3h1v-3H27z M21,44h-1v1h2v-1H21z"/>
		<path class="st1" d="M26,44h1v1h-1V44z M19,41h-1v2h1v-1V41z"/>
	</g>
	<g class="st11">
		<path class="st0" d="M44,42h1v1h-1V42z M43,36h1v1h-1V36z"/>
		<path class="st0" d="M42,37h1v1h-1V37z"/>
		<path class="st0" d="M42,39v-1h-2v1h1H42z M42,43v1h2v-1h-1H42z"/>
		<path class="st0" d="M40,44h-2v1h4v-1h-1H40z"/>
		<path class="st0" d="M38,42v-2h-1v4h1v-1V42z"/>
		<path class="st0" d="M40,40v-1h-2v1h1H40z"/>
	</g>
	<g class="st11">
		<path class="st1" d="M42,44v1h2v-1h-1H42z M37,42v-1h-1v3h1v-1V42z"/>
		<path class="st1" d="M40,45h-2v1h4v-1h-1H40z"/>
		<path class="st1" d="M37,44h1v1h-1V44z M44,43h1v1h-1V43z"/>
	</g>
</g>
<g>
	<g>
		<path class="st0" d="M14,40h1v1h-1V40z M13,34h1v1h-1V34z"/>
		<path class="st0" d="M14,33h1v1h-1V33z M12,35h1v1h-1V35z M7,38h1v4H7V38z M12,41h2v1h-2V41z"/>
		<path class="st0" d="M8,42h4v1H8V42z M8,37h2v1H8V37z"/>
		<path class="st0" d="M10,36h2v1h-2V36z"/>
	</g>
	<g>
		<path class="st1" d="M14,39h1v1h-1V39z"/>
		<path class="st1" d="M12,40h2v1h-2V40z"/>
		<path class="st1" d="M8,41h4v1H8V41z"/>
	</g>
	<path class="st2" d="M8,38v3h4v-1h2v-1h1v-5h-1v1h-1v1h-1v1h-2v1H8z"/>
	<g>
		<path class="st0" d="M49,40h1v1h-1V40z M50,34h1v1h-1V34z"/>
		<path class="st0" d="M49,33h1v1h-1V33z M51,35h1v1h-1V35z M56,38h1v4h-1V38z M50,41h2v1h-2V41z"/>
		<path class="st0" d="M52,42h4v1h-4V42z M54,37h2v1h-2V37z"/>
		<path class="st0" d="M52,36h2v1h-2V36z"/>
	</g>
	<g>
		<path class="st1" d="M49,39h1v1h-1V39z"/>
		<path class="st1" d="M50,40h2v1h-2V40z"/>
		<path class="st1" d="M52,41h4v1h-4V41z"/>
	</g>
	<path class="st2" d="M54,38v-1h-2v-1h-1v-1h-1v-1h-1v5h1v1h2v1h4v-3H54z"/>
</g>
<g class="st10">
	<g class="st11">
		<path class="st1" d="M50,38h1v1h-1V38z"/>
		<path class="st1" d="M49,39h1v1h-1V39z M51,37h1v1h-1V37z"/>
		<path class="st1" d="M52,36h2v1h-2V36z"/>
		<path class="st1" d="M54,35h2v1h-2V35z"/>
	</g>
	<path class="st12" d="M52,32v1h-2v1h-1v5h1v-1h1v-1h1v-1h2v-1h2v-3H52z"/>
	<g class="st11">
		<path class="st0" d="M49,33h1v1h-1V33z"/>
		<path class="st0" d="M50,32h2v1h-2V32z M50,39h1v1h-1V39z"/>
		<path class="st0" d="M49,40h1v1h-1V40z M51,38h1v1h-1V38z"/>
		<path class="st0" d="M52,37h2v1h-2V37z M52,31h4v1h-4V31z"/>
		<path class="st0" d="M56,32h1v4h-1V32z"/>
		<path class="st0" d="M54,36h2v1h-2V36z"/>
	</g>
	<g class="st11">
		<path class="st1" d="M13,38h1v1h-1V38z"/>
		<path class="st1" d="M14,39h1v1h-1V39z M12,37h1v1h-1V37z"/>
		<path class="st1" d="M10,36h2v1h-2V36z"/>
		<path class="st1" d="M8,35h2v1H8V35z"/>
	</g>
	<path class="st12" d="M8,32v3h2v1h2v1h1v1h1v1h1v-5h-1v-1h-2v-1H8z"/>
	<g class="st11">
		<path class="st0" d="M14,33h1v1h-1V33z"/>
		<path class="st0" d="M12,32h2v1h-2V32z M13,39h1v1h-1V39z"/>
		<path class="st0" d="M14,40h1v1h-1V40z M12,38h1v1h-1V38z"/>
		<path class="st0" d="M10,37h2v1h-2V37z M8,31h4v1H8V31z"/>
		<path class="st0" d="M7,32h1v4H7V32z"/>
		<path class="st0" d="M8,36h2v1H8V36z"/>
	</g>
</g>
<g>
	<path d="M21,30h1v1h-1V30z"/>
	<path d="M20,29h1v1h-1V29z"/>
	<path d="M20,27v-4h-1v2h-2v1h2v3h1V27z"/>
	<path d="M20,22h1v1h-1V22z M15,24v1h2v-1H15z M24,31h-2v1h4v-1H24z"/>
	<path d="M26,30v1h2v-1H26z"/>
	<path d="M28,29h1v1h-1V29z"/>
	<path d="M29,28h1v1h-1V28z M29,22h1v1h-1V22z"/>
	<path d="M23,22h6v-1h-8v1H23z M42,30h1v1h-1V30z"/>
	<path d="M43,29h1v1h-1V29z M43,22h1v1h-1V22z"/>
	<path d="M45,25v-2h-1v6h1v-3h2v-1H45z"/>
	<path d="M47,24v1h2v-1H47z M40,31h-2v1h4v-1H40z"/>
	<path d="M37,30h-1v1h2v-1H37z"/>
	<path d="M35,29h1v1h-1V29z"/>
	<path d="M34,28h1v1h-1V28z"/>
	<path d="M34,26v-3h-1v2h-2v-2h-1v5h1v-2h2v2h1V26z"/>
	<path d="M34,22h1v1h-1V22z"/>
	<path d="M37,22h6v-1h-8v1H37z"/>
	<path class="st13" d="M29,22h-8v1h-1v6h1v1h1v1h4v-1h2v-1h1v-1h1v-5h-1V22z M43,23v-1h-8v1h-1v5h1v1h1v1h2v1h4v-1h1v-1h1v-6H43z"/>
	<g>
		<path class="st7" d="M26,22h1v1h-1V22z M23,22h1v1h-1V22z"/>
		<path class="st7" d="M25,23h1v1h-1V23z M22,23h1v1h-1V23z"/>
		<path class="st7" d="M24,24h1v1h-1V24z M21,24h1v1h-1V24z"/>
		<path class="st7" d="M23,25h1v1h-1V25z"/>
		<path class="st7" d="M22,26h1v1h-1V26z"/>
		<path class="st7" d="M21,27h1v1h-1V27z M20,25h1v1h-1V25z M37,22h1v1h-1V22z M40,22h1v1h-1V22z"/>
		<path class="st7" d="M36,23h1v1h-1V23z M39,23h1v1h-1V23z"/>
		<path class="st7" d="M35,24h1v1h-1V24z M38,24h1v1h-1V24z"/>
		<path class="st7" d="M37,25h1v1h-1V25z"/>
		<path class="st7" d="M36,26h1v1h-1V26z"/>
		<path class="st7" d="M35,27h1v1h-1V27z M34,25h1v1h-1V25z"/>
	</g>
</g>
<g>
	<path d="M15,31h1v-1h1v-9h30v9h1v1h1v1h3v-6h-1v-7h-1v-6h-1V9h-2V7h-2V5h-2V4h-4V3h-4V2h-6v1h-4v1h-4v1h-2v2h-2v2h-2v4h-1v6h-1v7
		h-1v6h3V31L15,31z"/>
	<g>
		<path class="st8" d="M17,20v1h30v-1H17z"/>
		<path class="st8" d="M16,29h-1v2h1v-1h1v-9h-1V29z"/>
		<path class="st8" d="M14,31h-1v1h2v-2h-1V31z M50,31v-1h-1v-1h-1v-8h-1v9h1v1h1v1h2v-1H50z"/>
	</g>
	<g>
		<path class="st9" d="M17,19v1h30v-1H17z"/>
		<path class="st9" d="M47,20h1v1h-1V20z M16,20h1v1h-1V20z"/>
		<path class="st9" d="M15,29h1v-8h-1V29z M49,29v-8h-1v8H49v1h1v-1H49z"/>
		<path class="st9" d="M14,29h1v1h-1V29z M50,30h1v1h-1V30z"/>
		<path class="st9" d="M13,30h1v1h-1V30z M51,31h1v1h-1V31z"/>
		<path class="st9" d="M12,31h1v1h-1V31z"/>
	</g>
	<path class="st6" d="M37.5,5v1h-1v1h-1v1h-1v1h-1v1h-1v1h3v1h-1v1h-1v1h-1v1h-1v-1h-1v-1h-1v-1h-1v-1h3v-1h-1V9h-1V8h-1V7h-1V6h-1
		V5h-4v1h1v1h1v1h1v1h1v1h-3v1h1v1h1v1h1v1h1v1h1v1h1v1h1v1h3v-1h1v-1h1v-1h1v-1h1v-1h1v-1h1v-1h1v-1h-3V9h1V8h1V7h1V6h1V5H37.5z"/>
	<path class="st14" d="M37.5,5v1h-1v1h-1v1h-1v1h-1v1h-1v1h3v1h-1v1h-1v1h-1v1h-1v-1h-1v-1h-1v-1h-1v-1h3v-1h-1V9h-1V8h-1V7h-1V6h-1
		V5h-3v1h1v1h1v1h1v1h1v1h-3v1h1v1h1v1h1v1h1v1h1v1h1v1h1v1h1v-1h1v-1h1v-1h1v-1h1v-1h1v-1h1v-1h1v-1h-3V9h1V8h1V7h1V6h1V5H37.5z"/>
	<g>
		<path class="st7" d="M31.5,15h1v1h-1V15z"/>
		<path class="st7" d="M30.5,14h1v1h-1V14z"/>
		<path class="st7" d="M29.5,13h1v1h-1V13z"/>
		<path class="st7" d="M28.5,12h1v1h-1V12z M25.5,5h1v1h-1V5z"/>
		<path class="st7" d="M26.5,6h1v1h-1V6z"/>
		<path class="st7" d="M27.5,7h1v1h-1V7z"/>
		<path class="st7" d="M28.5,8h1v1h-1V8z"/>
		<path class="st7" d="M29.5,9h1v1h-1V9z M27.5,11h1v1h-1V11z"/>
		<path class="st7" d="M30.5,10h1v1h-1V10z M32.5,14h1v1h-1V14z"/>
		<path class="st7" d="M33.5,13h1v1h-1V13z"/>
		<path class="st7" d="M34.5,12h1v1h-1V12z M37.5,5h1v1h-1V5z"/>
		<path class="st7" d="M36.5,6h1v1h-1V6z"/>
		<path class="st7" d="M35.5,7h1v1h-1V7z"/>
		<path class="st7" d="M34.5,8h1v1h-1V8z"/>
		<path class="st7" d="M33.5,9h1v1h-1V9z M35.5,11h1v1h-1V11z"/>
		<path class="st7" d="M32.5,10h1v1h-1V10z"/>
	</g>
</g>
<g>
	<path d="M15,38v-1h-1v-1h-1v-1h-2v1h-1v1H6v-1H5v-1H3v1H2v1H1v1H0v3h1v6h1v1h3v-1h1v-3h1v-1h2v1h1v3h1v1h3v-1h1v-6h1v-3H15z"/>
	<path class="st15" d="M7,38h2v1H7V38z M11,46h3v1h-3V46z M2,46h3v1H2V46z"/>
	<path class="st16" d="M14,38v-1h-1v-1h-2v1h-1v2H9v1H7v-1H6v-2H5v-1H3v1H2v1H1v3h1v4h3v-1h1v-1H5v-2h2v1h2v-1h2v2h-1v1h1v1h3v-4h1
		v-3H14z M13,40h-1v-1h1V40z"/>
	<path class="st17" d="M6,42h1v1H6V42z M9,42h1v1H9V42z M11,39h1v1h-1V39z M13,39h1v1h-1V39z"/>
	<path class="st18" d="M12,38h1v1h-1V38z M12,40h1v1h-1V40z M3,39h1v1H3V39z"/>
	<path d="M12,39h1v1h-1V39z"/>
	<path d="M13,38h1v1h-1V38z M13,40h1v1h-1V40z M11,40h1v1h-1V40z M11,38h1v1h-1V38z M3,38h1v1H3V38z"/>
	<path d="M2,39h1v1H2V39z M4,39h1v1H4V39z"/>
	<path d="M3,40h1v1H3V40z"/>
</g>
<g>
	<g transform="scale(-1, 1) translate(-64, 0)">
		<path class="st19" d="M13,42v-1h-1v-1h-1v-1h-1v-1H9v-1H8v-1H7v-1H6v-1h1v-1h3v-1h1v-1h-1v-1H5v1H4v1H2v2H1v1H0v5h1v1h1v-1h1v-3h1
			v-1h1v1h1v1h1v1h1v1h1v1h1v1h1v1h1v1h2v-2H13z"/>
		<path class="st20" d="M12,42h1v1h-1V42z M10,40h1v1h-1V40z M8,38h1v1H8V38z M6,36h1v1H6V36z"/>
		<path class="st21" d="M4,34h1v1H4V34z"/>
		<g>
			<path class="st22" d="M13,42h1v1h-1V42z"/>
			<path class="st22" d="M12,41h1v1h-1V41z M10,39h1v1h-1V39z M8,37h1v1H8V37z M6,35h1v1H6V35z"/>
			<path class="st22" d="M11,40h1v1h-1V40z M9,38h1v1H9V38z M7,36h1v1H7V36z M5,34h1v1H5V34z"/>
		</g>
		<g>
			<path class="st19" d="M12,43h1v1h-1V43z"/>
			<path class="st19" d="M11,42h1v1h-1V42z M9,40h1v1H9V40z M7,38h1v1H7V38z M5,36h1v1H5V36z"/>
			<path class="st19" d="M10,41h1v1h-1V41z M8,39h1v1H8V39z M6,37h1v1H6V37z M4,35h1v1H4V35z"/>
		</g>
		<path class="st23" d="M13,43h1v1h-1V43z M11,41h1v1h-1V41z M9,39h1v1H9V39z M7,37h1v1H7V37z M5,35h1v1H5V35z"/>
		<g>
			<path class="st24" d="M5,32v1H4v1h2v-1h1v-1H5z"/>
			<path class="st24" d="M3,35H2v2h1v-1h1v-2H3V35z"/>
		</g>
		<g>
			<path class="st25" d="M3,32h1v1H3V32z"/>
			<path class="st25" d="M2,33h1v1H2V33z M4,31h1v1H4V31z"/>
			<path class="st25" d="M1,34h1v1H1V34z"/>
			<path class="st25" d="M0,40h1v-5H0V40z"/>
			<path class="st25" d="M1,40h1v1H1V40z"/>
			<path class="st25" d="M3,37H2v3h1V37z"/>
			<path class="st25" d="M3,36h1v1H3V36z M5,30v1h5v-1H5z"/>
			<path class="st25" d="M10,31h1v1h-1V31z"/>
			<path class="st25" d="M7,32v1h3v-1H7z"/>
			<path class="st25" d="M6,33h1v1H6V33z"/>
		</g>
		<g>
			<path class="st26" d="M3,33h1v1H3V33z"/>
			<path class="st26" d="M4,32h1v1H4V32z M2,34h1v1H2V34z"/>
			<path class="st26" d="M1,40h1v-5H1V40z M5,31v1h5v-1H5z"/>
		</g>
		<path class="st21" d="M2,32h1v1H2V32z"/>
	</g>
</g>
<g>
	<path d="M61,45v-1h-1v-1h-5v1h-1v1h-4v-1h-1v-1h-5v1h-1v1h-1v2h1v1h1v1h-1v3h1v1h1v1h-1v1h-1v2h1v1h-1v2h4v1h3v-1h1v-1h2v1h1v1h3
		v-1h4v-2h-1v-1h1v-2h-1v-1h-1v-1h1v-1h1v-3h-1v-1h1v-1h1v-2H61z"/>
	<path class="st2" d="M60,46h-1v1h-3v-1h-2v1h1v1h5v-1h1v-1H60z M48,46v1h-3v-1h-2v1h1v1h5v-1h1v-1h-1H48z"/>
	<g>
		<path class="st27" d="M59,44h-4v1h5v-1H59z M52,48h2v-1h-1v-1h-2v1h-1v1h1H52z M46,45h3v-1h-5v1h1H46z M51,56v2h2v-2h-1H51z"/>
		<path class="st27" d="M58,55v-2H46v2h-2v2h2v1h-2v1h3v-3h1v3h-1v1h3v-4h1v-1h2v1h1v4h3v-1h-1v-3h1v3h3v-1h-2v-1h2v-2h-1H58z"/>
	</g>
	<path class="st28" d="M59,49H44v3h16v-3H59z M59,51H45v-1h14V51z"/>
</g>
</svg>
