<?xml version="1.0" encoding="utf-8"?>
<!-- Generator: Adobe Illustrator 25.3.1, SVG Export Plug-In . SVG Version: 6.00 Build 0)  -->
<svg version="1.1" id="Layer_1" xmlns="http://www.w3.org/2000/svg" xmlns:xlink="http://www.w3.org/1999/xlink" x="0px" y="0px"
	 viewBox="0 0 64 64" style="enable-background:new 0 0 64 64;" xml:space="preserve">
<style type="text/css">
	.st0{fill:#FF7D00;}
	.st1{fill:#F9D792;}
	.st2{fill:#FFFFFF;}
	.st3{fill:#F4AF24;}
	.st4{opacity:0.25;enable-background:new    ;}
	.st5{fill:#EA8C27;}
	.st6{fill:#51774E;}
	.st7{fill:#CAB983;}
	.st8{fill:#66553B;}
	.st9{display:none;}
	.st10{display:inline;}
	.st11{display:inline;fill:#FFFFFF;}
	.st12{fill:#0050AA;}
	.st13{fill:#00A0E6;}
	.st14{fill:#00BEFF;}
	.st15{fill:#B132FF;}
	.st16{fill:#C260FF;}
	.st17{fill:#EDD3FD;}
	.st18{fill:#D596FB;}
	.st19{fill:#FFE600;}
	.st20{fill:#FFC03C;}
	.st21{fill:#511F17;}
	.st22{fill:#7A500C;}
	.st23{fill:#955C4B;}
	.st24{fill:#FF89FF;}
</style>
<g>
	<g>
		<path class="st0" d="M21,12h2v-2h-4v2h1H21z"/>
		<path class="st0" d="M19,14v-2h-2v2h1H19z M25,10h2V8h-4v2h1H25z"/>
		<path class="st0" d="M29,8h8V6H27v2h1H29z M45,14h2v-2h-2v1V14z"/>
		<path class="st0" d="M48,14h-1v39h-2v2h4V14H48z M37,10h4V8h-4v1V10z"/>
		<path class="st0" d="M41,12h4v-2h-4v1V12z M17,53V14h-2v41h4v-2h-1H17z"/>
		<path class="st0" d="M24,51h-5v2h5v-1V51z"/>
		<path class="st0" d="M27,53h-3v2h5v-2h-1H27z M45,51h-5v2h5v-1V51z"/>
		<path class="st0" d="M35,51h-6v2h6v-1V51z"/>
		<path class="st0" d="M38,53h-3v2h5v-2h-1H38z"/>
	</g>
	<g>
		<path class="st1" d="M18,43v6h2v-1h2v1h2v2h-5v2h-2V14h2v1h-1v26V43z"/>
		<path class="st1" d="M27,51h-3v2h5v-2h-1H27z M38,51h-3v2h5v-2h-1H38z"/>
		<path class="st1" d="M35,49h-2v-1h-2v1h-2v2h6v-1V49z M25,11h2v-1h-4v1h1H25z M21,13h2v-1h-4v1h1H21z M45,44v5h-1v-1h-2v1h-2v2h5
			v2h2V14h-2v29V44z"/>
		<path class="st1" d="M37,8H27v1h5v1h5V9V8z M45,12h-4v2h4v-1V12z"/>
		<path class="st1" d="M41,10h-4v2h4v-1V10z"/>
	</g>
	<path class="st2" d="M44,14h-3v-2h-4v-2h-5V9h-5v2h-4v2h-4v2h-1v34h2v-1h2v1h2v2h5v-2h2v-1h2v1h2v2h5v-2h2v-1h2v1h1V14H44z"/>
</g>
<path class="st3" d="M21,32v2h2v-2h-1H21z M42,32h-1v2h2v-2H42z"/>
<g>
	<path class="st0" d="M29,32h-2v2h2v-1V32z"/>
	<path class="st0" d="M33,34h-4v2h6v-2h-1H33z"/>
	<path class="st0" d="M36,32h-1v2h2v-2H36z"/>
</g>
<g>
	<path class="st4" d="M25,58h-6v1h1v1h24v-1h1v-1h-1H25z"/>
</g>
<g>
	<path class="st5" d="M28,22h-1v-1h-1h-1h-1h-1v1h-1v1h-1v1v1v1v1h1v1h1v1h1h1h1h1v-1h1v-1h1v-1v-1v-1v-1h-1V22z"/>
	<path class="st5" d="M42,23v-1h-1v-1h-1h-1h-1h-1v1h-1v1h-1v1v1v1v1h1v1h1v1h1h1h1h1v-1h1v-1h1v-1v-1v-1v-1H42z"/>
</g>
<g>
	<path class="st0" d="M37,16v-1h-1v-1h-1v1h-6v-2h5v-1h-6v3h-1v1h1v1h-1v1h1v3h6v-1h-5v-2h6v1h1v-1h1v-1h-1v-1H37z M35,17h-6v-1h6
		V17z"/>
	<path class="st0" d="M34,19h1v1h-1V19z M34,13h1v1h-1V13z"/>
</g>
<g>
	<path d="M15,41v14h4v-2h5v2h5v-2h6v2h5v-2h5v2h4V41H15z"/>
	<g>
		<path class="st6" d="M45,44H34v4h-1v1h-1v2h3v2h5v-2h5v2h3v-5h-2v-1h-1V44z M19,44v3h-1v1h-2v5h3v-2h5v2h5v-2h2v-7H19z"/>
		<path class="st6" d="M16,44h2v3h-2V44z M32,44h1v4h-1V44z M46,44h2v3h-2V44z"/>
	</g>
	<g>
		<path class="st7" d="M32,47h1v1h-1V47z M26,51v-3h-3v-1h-1v-1h-1v-1h-1v1h-1v1h1v1h-1v1h3v2h1v-1h2v1H26z M17,50h-1v3h2v-2h-1V50z
			 M29,50h-1v2h-2v1h3v-2h2v-2h-2V50z M34,47h1v1h-1V47z M45,51h2v2h-2V51z M27,46h2v1h-2V46z M47,46h1v1h-1V46z"/>
		<path class="st7" d="M33,49h-1v2h2v-3h-1V49z M44,47h2v1h-2V47z M38,46h-1v1h2v-2h3v-1h-4V46z M41,47h-1v1h-3v1h2v2h2v-3h1v-2h-1
			V47z"/>
	</g>
	<g>
		<path class="st8" d="M17,48h-1v2h1v1h1v-2h-1V48z M30,45h-2v1h1v1h-2v-1h-1v-1h-2v1h-1v2h3v1h2v-1h1v1h2v-2h-1V45z M16,46h2v1h-2
			V46z M23,50h2v1h-2V50z M44,47h1v-1h-1v-1h1v-1h-2v2h-1v2h2V47z M41,50h4v1h-4V50z M41,46h-1v-1h-1v2h-2v-1h1v-2h-3v1h-1v1h2v3h1
			v-1h3v-1h1V46z M19,44h1v1h-1V44z"/>
		<path class="st8" d="M41,48h1v1h-1V48z M38,51v1h1v-3h-2v2H38z M34,49h1v2h-1V49z M46,48v1h-1v1h2v-1h1v-1H46z M35,52h2v1h-2V52z
			 M31,43v-1h-6v1H31z M39,43v-1h-5v1H39z M24,43v-1h-8v1H24z M48,43v-1h-8v1H48z"/>
	</g>
	<path class="st7" d="M32,42h1v1h-1V42z"/>
</g>
<g class="st9">
	<g class="st10">
		<path class="st0" d="M19,42h1v1h-1V42z M20,36h1v1h-1V36z"/>
		<path class="st0" d="M21,37h1v1h-1V37z M26,40v4h1v-4H26z M21,43h-1v1h2v-1H21z"/>
		<path class="st0" d="M24,44h-2v1h4v-1h-1H24z M25,39h-1v1h2v-1H25z"/>
		<path class="st0" d="M23,38h-1v1h2v-1H23z"/>
	</g>
	<g class="st10">
		<path class="st1" d="M19,43h1v1h-1V43z M24,45h-2v1h4v-1h-1H24z"/>
		<path class="st1" d="M27,41v3h1v-3H27z M21,44h-1v1h2v-1H21z"/>
		<path class="st1" d="M26,44h1v1h-1V44z M19,41h-1v2h1v-1V41z"/>
	</g>
	<g class="st10">
		<path class="st0" d="M44,42h1v1h-1V42z M43,36h1v1h-1V36z"/>
		<path class="st0" d="M42,37h1v1h-1V37z"/>
		<path class="st0" d="M42,39v-1h-2v1h1H42z M42,43v1h2v-1h-1H42z"/>
		<path class="st0" d="M40,44h-2v1h4v-1h-1H40z"/>
		<path class="st0" d="M38,42v-2h-1v4h1v-1V42z"/>
		<path class="st0" d="M40,40v-1h-2v1h1H40z"/>
	</g>
	<g class="st10">
		<path class="st1" d="M42,44v1h2v-1h-1H42z M37,42v-1h-1v3h1v-1V42z"/>
		<path class="st1" d="M40,45h-2v1h4v-1h-1H40z"/>
		<path class="st1" d="M37,44h1v1h-1V44z M44,43h1v1h-1V43z"/>
	</g>
</g>
<g>
	<g>
		<path class="st0" d="M14,40h1v1h-1V40z M13,34h1v1h-1V34z"/>
		<path class="st0" d="M14,33h1v1h-1V33z M12,35h1v1h-1V35z M7,38h1v4H7V38z M12,41h2v1h-2V41z"/>
		<path class="st0" d="M8,42h4v1H8V42z M8,37h2v1H8V37z"/>
		<path class="st0" d="M10,36h2v1h-2V36z"/>
	</g>
	<g>
		<path class="st1" d="M14,39h1v1h-1V39z"/>
		<path class="st1" d="M12,40h2v1h-2V40z"/>
		<path class="st1" d="M8,41h4v1H8V41z"/>
	</g>
	<path class="st2" d="M8,38v3h4v-1h2v-1h1v-5h-1v1h-1v1h-1v1h-2v1H8z"/>
	<g>
		<path class="st0" d="M49,40h1v1h-1V40z M50,34h1v1h-1V34z"/>
		<path class="st0" d="M49,33h1v1h-1V33z M51,35h1v1h-1V35z M56,38h1v4h-1V38z M50,41h2v1h-2V41z"/>
		<path class="st0" d="M52,42h4v1h-4V42z M54,37h2v1h-2V37z"/>
		<path class="st0" d="M52,36h2v1h-2V36z"/>
	</g>
	<g>
		<path class="st1" d="M49,39h1v1h-1V39z"/>
		<path class="st1" d="M50,40h2v1h-2V40z"/>
		<path class="st1" d="M52,41h4v1h-4V41z"/>
	</g>
	<path class="st2" d="M54,38v-1h-2v-1h-1v-1h-1v-1h-1v5h1v1h2v1h4v-3H54z"/>
</g>
<g class="st9">
	<g class="st10">
		<path class="st1" d="M50,38h1v1h-1V38z"/>
		<path class="st1" d="M49,39h1v1h-1V39z M51,37h1v1h-1V37z"/>
		<path class="st1" d="M52,36h2v1h-2V36z"/>
		<path class="st1" d="M54,35h2v1h-2V35z"/>
	</g>
	<path class="st11" d="M52,32v1h-2v1h-1v5h1v-1h1v-1h1v-1h2v-1h2v-3H52z"/>
	<g class="st10">
		<path class="st0" d="M49,33h1v1h-1V33z"/>
		<path class="st0" d="M50,32h2v1h-2V32z M50,39h1v1h-1V39z"/>
		<path class="st0" d="M49,40h1v1h-1V40z M51,38h1v1h-1V38z"/>
		<path class="st0" d="M52,37h2v1h-2V37z M52,31h4v1h-4V31z"/>
		<path class="st0" d="M56,32h1v4h-1V32z"/>
		<path class="st0" d="M54,36h2v1h-2V36z"/>
	</g>
	<g class="st10">
		<path class="st1" d="M13,38h1v1h-1V38z"/>
		<path class="st1" d="M14,39h1v1h-1V39z M12,37h1v1h-1V37z"/>
		<path class="st1" d="M10,36h2v1h-2V36z"/>
		<path class="st1" d="M8,35h2v1H8V35z"/>
	</g>
	<path class="st11" d="M8,32v3h2v1h2v1h1v1h1v1h1v-5h-1v-1h-2v-1H8z"/>
	<g class="st10">
		<path class="st0" d="M14,33h1v1h-1V33z"/>
		<path class="st0" d="M12,32h2v1h-2V32z M13,39h1v1h-1V39z"/>
		<path class="st0" d="M14,40h1v1h-1V40z M12,38h1v1h-1V38z"/>
		<path class="st0" d="M10,37h2v1h-2V37z M8,31h4v1H8V31z"/>
		<path class="st0" d="M7,32h1v4H7V32z"/>
		<path class="st0" d="M8,36h2v1H8V36z"/>
	</g>
</g>
<g>
	<path class="st12" d="M49,18v-4h-2v-4h-2V8h-2V6h-2V4h-2V2h-4V0H23v2h-4v2h-2v2h-2v2h-2v2h-2v2H9v1H8v3h1v1h3v-1h1v-3h-1v-1h3v-2h4
		v2h-2v2h-2v4h-2v4h38v-4H49z"/>
	<path class="st2" d="M9,13v3h3v-3H9z"/>
	<path class="st13" d="M47,16v-2h-2v-4h-2V8h-2V6h-2V4h-4V2H23v2h-4v2h-2v2h4v2h2v2h-2v2h-4v2H47z M15,18h34v2H15V18z"/>
	<g>
		<path class="st14" d="M31,6h2V4h-2V6z M35,6h2V4h-2V6z M27,6h2V4h-2V6z M25,6V4h-2v2H25z"/>
		<path class="st14" d="M35,4V2h-2v2H35z M27,4V2h-2v2H27z M31,4V2h-2v2H31z M21,4h-2v2h2V4z M29,8h2V6h-2V8z M33,8h2V6h-2V8z M37,8
			h2V6h-2V8z M25,8h2V6h-2V8z"/>
		<path class="st14" d="M23,8V6h-2v2H23z M31,10h2V8h-2V10z M35,10h2V8h-2V10z M39,10h2V8h-2V10z"/>
		<path class="st14" d="M27,10h2V8h-2V10z M25,10V8h-2v2H25z M33,12h2v-2h-2V12z M37,12h2v-2h-2V12z"/>
		<path class="st14" d="M41,12h2v-2h-2V12z M29,12h2v-2h-2V12z M27,12v-2h-2v2H27z M35,14h2v-2h-2V14z"/>
		<path class="st14" d="M39,14h2v-2h-2V14z M43,14h2v-2h-2V14z M31,14h2v-2h-2V14z M29,14v-2h-2v2H29z"/>
		<path class="st14" d="M37,16h2v-2h-2V16z M41,16h2v-2h-2V16z M45,16h2v-2h-2V16z M33,16h2v-2h-2V16z M31,16v-2h-2v2H31z M23,14h2
			v-2h-2V14z"/>
		<path class="st14" d="M25,16h2v-2h-2V16z M23,16v-2h-2v2H23z M19,16v-2h-2v2H19z M37,20h2v-2h-2V20z M41,20h2v-2h-2V20z M45,20h2
			v-2h-2V20z M33,20h2v-2h-2V20z M31,20v-2h-2v2H31z M25,20h2v-2h-2V20z M23,20v-2h-2v2H23z M19,20v-2h-2v2H19z M19,6h-2v2h2V6z"/>
	</g>
</g>
<g>
	<path d="M11,35v-1h1v-1h1v-1h-1v-1h-1v-1h-1v-1H8v1H7v1H6v1H5v1h1v1h1v1h1v1H7v1H6v1H5v3h1v1h1v1h4v-1h1v-1h1v-3h-1v-1h-1v-1h-1v-1
		H11z M11,42H7v-1H6v-3h1v-1h4v1h1v3h-1V42z"/>
	<path class="st15" d="M11,32v-1h-1v-1H8v1H7v1H6v1h1v1h1v1h2v-1h1v-1h1v-1H11z"/>
	<path class="st16" d="M8,30v1H7v1H6v1h3v-3H8z"/>
	<path class="st17" d="M11,32v-1h-1v-1H9v3h3v-1H11z"/>
	<path class="st18" d="M10,33H9v2h1v-1h1v-1H10z"/>
	<g>
		<path class="st19" d="M7,39v-1H6v3h1v-1V39z"/>
		<path class="st19" d="M9,38h2v-1H7v1h1H9z"/>
		<path class="st19" d="M11,38v3h1v-3H11z"/>
		<path class="st19" d="M9,41H7v1h4v-1h-1H9z"/>
	</g>
	<g>
		<path class="st20" d="M7,39v-1H6v3h1v-1V39z"/>
		<path class="st20" d="M9,38v-1H7v1h1H9z M8,42h1v-1H7v1H8z"/>
	</g>
</g>
<g>
	<g transform="scale(-1, 1) translate(-62, 0)">
		<path class="st21" d="M10,34v-1H9v-1H2v1H1v1H0v7h1v2h1v1h2v1h3v-1h2v-1h1v-2h1v-7H10z"/>
		<path class="st22" d="M8,36h1v1H8V36z M1,40h1v-3H1V40z M3,39h1v-2H3V39z M5,41h1v-3H5V41z M7,38h1v1H7V38z M9,38v2h1v-2H9z M3,43
			h1v-3H3V43z M7,42h1v-2H7V42z M5,44h1v-2H5V44z"/>
		<path class="st23" d="M9,34v-1H2v1H1v1h1v1h7v-1h1v-1H9z"/>
		<path class="st2" d="M2,34h7v1H2V34z"/>
		<g>
			<path class="st24" d="M1,27h1v1H1V27z"/>
			<path class="st24" d="M0,28h1v1H0V28z M2,28h1v2H2V28z"/>
			<path class="st24" d="M-1,29h1v1h-1V29z M3,30h1v2H3V30z"/>
			<path class="st24" d="M4,32h1v2H4V32z"/>
			<path class="st24" d="M5,34h1v1H5V34z"/>
		</g>
	</g>
</g>
</svg>
