<svg xmlns="http://www.w3.org/2000/svg" viewBox="0 0 64 64"><path d="M44,58H19v1h1v1h24v-1h1v-1H44z" opacity=".25" enable-background="new"/><path d="M47 14v-2h-2v-2h-4V8h-4V6H27v2h-4v2h-4v2h-2v2h-2v41h4v-2h5v2h5v-2h6v2h5v-2h5v2h4V14z" fill="#64438e"/><path d="M45 14v-2h-4v-2h-4V8H27v2h-4v2h-4v2h-2v39h2v-2h5v2h5v-2h6v2h5v-2h5v2h2V14z" fill="#edd3fd"/><path d="M18,49h2v-1h2v1h2v2h5v-2h2v-1h2v1h2v2h5v-2h2v-1h2v1h1V14h-4v-2h-4v-2h-5V9h-5v2h-4v2h-4v2h-1V49z" fill="#fff"/><path d="M23 28v2h4v-2h2v-4h-2v-2h-4v2h-2v4h2zm12-4v4h2v2h4v-2h2v-4h-2v-2h-4v2h-2z" fill="#64438e"/><path d="M21 32v2h2v-2h-2zm20 0v2h2v-2h-2z" fill="#f696c6"/><g fill="#64438e"><path d="M29,32h-2v2h2V32z"/><path d="M29,34v2h6v-2H29z"/><path d="M35 32v2h2v-2h-2zm0-17v-1h-1v-1h-1v-1h-2v1h-1v1h-1v1h-1v4h1v1h1v1h1v1h2v-1h1v-1h1v-1h1v-4z"/></g><g fill="#dea8ff"><path d="M29,17v2h1v1h1v1h1v-4H29z"/><path d="M34,15v-1h-1v-1h-1v4h3v-2H34z"/></g><path d="M32,17v4h1v-1h1v-1h1v-2H32z" fill="#c260ff"/><path d="M31,13v1h-1v1h-1v2h3v-4H31z" fill="#edd3fd"/><path d="M61 38v-1-1-1h-1v-1-1h-1v-1-1h-1v-1-1h-1v-1-1h-1v-1-1h-1v-1-1h-1v-1-1h-1v-1h-1v-1h-1v1h-1v1 1h-1v1 1 1 1 1 1 1 1 1 1 1 1 1 1 1 1 1 1 1 1 1 1 1 1 1 1 1h1v1h1v-1h1v-1-1-1h1v-1h1v-1h1 1 1v1h1v1h1v1 1 1h1v1h1v-1h1v-1-1-1-1-1-1-1-1-1-1-1zM14 21v-1h-1v-1h-1v1h-1v1h-1v1 1H9v1 1H8v1 1H7v1 1H6v1 1H5v1 1H4v1 1H3v1 1 1H2v1 1 1 1 1 1 1 1 1 1 1h1v1h1v-1h1v-1-1-1h1v-1h1v-1h1 1 1v1h1v1h1v1 1 1h1v1h1v-1h1v-1-1-1-1-1-1-1-1-1-1-1-1-1-1-1-1-1-1-1-1-1-1-1-1-1-1-1h-1z" fill="#002de4"/><g fill="#1973ff"><path d="M60 38v1 1 1 1 1 1 1 1 1 1 1h1v-1-1-1-1-1-1-1-1-1-1-1zm-2-1v-1h-1v-1-1h-1v-1-1h-1v-1-1h-1v-1-1h-1v-1-1h-1v1 1 1 1 1 1 1 1 1h1v1 1 1 1 1 1 1 1 1h1v-1h1 1 1v1h1v1h1v-1-1-1-1-1-1-1h-1z"/><path d="M60 36h-1v1 1h1v-1z"/><path d="M58 36h1v-1-1h-1v1z"/><path d="M57 34h1v-1-1h-1v1z"/><path d="M56 32h1v-1-1h-1v1z"/><path d="M55 30h1v-1-1h-1v1z"/><path d="M54 28h1v-1-1h-1v1z"/><path d="M51 33v-1-1-1-1-1-1-1-1-1h1v1h1v1h1v-1-1h-1v-1-1h-1v-1-1h-1v1 1h-1v1 1h-1v1 1h1v1 1 1 1 1 1 1 1h-1v1 1 1 1 1 1 1 1 1h1v-1-1-1-1-1-1-1-1h1v-1zm-2 13h1v1h-1z"/><path d="M50 49h1v-1-1h-1v1zm1-13v1 1 1 1 1 1 1 1h-1v1 1h1 1v-1-1-1-1-1-1-1-1-1-1-1h-1zM3 39v1 1 1 1 1 1 1 1 1 1h1v-1-1-1-1-1-1-1-1-1-1-1H3zm9-6v-1-1-1-1-1-1-1h-1v1 1h-1v1 1H9v1 1H8v1 1H7v1 1H6v1 1H5v1 1 1 1 1 1 1h1v-1h1v-1h1 1 1v1h1v-1-1-1-1-1-1-1-1-1h1v-1z"/><path d="M5 36H4v1 1h1v-1z"/><path d="M6 35v-1H5v1 1h1z"/><path d="M7 33v-1H6v1 1h1z"/><path d="M8 31v-1H7v1 1h1z"/><path d="M9 29v-1H8v1 1h1z"/><path d="M10 27v-1H9v1 1h1z"/><path d="M14 23v-1h-1v-1-1h-1v1 1h-1v1 1h-1v1 1h1v-1h1v-1h1v1 1 1 1 1 1 1 1 1 1 1h1v1 1 1 1 1 1 1 1h1v-1-1-1-1-1-1-1-1-1h-1v-1-1-1-1-1-1-1-1h1v-1-1h-1zm0 23h1v1h-1z"/><path d="M13 48v1h1v-1-1h-1zm-1-12v1 1 1 1 1 1 1 1 1 1h1 1v-1-1h-1v-1-1-1-1-1-1-1-1-1h-1z"/></g><g fill="#9dc3ff"><path d="M60 38v1 1 1 1 1 1 1h1v-1-1-1-1-1-1-1zm-7-2v1 1 1 1 1 1 1h1v-1h1 1 1v1h1v-1-1-1-1-1h-1v-1-1h-1v-1-1h-1v-1-1h-1v-1-1h-1v-1-1-1h-1v1 1 1 1 1 1 1 1h1z"/><path d="M60 36h-1v1 1h1v-1z"/><path d="M59 34h-1v1 1h1v-1z"/><path d="M58 32h-1v1 1h1v-1z"/><path d="M57 30h-1v1 1h1v-1z"/><path d="M56 28h-1v1 1h1v-1z"/><path d="M55 26h-1v1 1h1v-1z"/><path d="M54 24h-1v-1-1h-1v-1h-1v1 1 1h1v1h1v1h1v-1zm-3 13v1 1 1 1 1 1 1h-1v1 1h1v-1h1v-1-1-1-1-1-1-1-1-1-1h-1v1z"/><path d="M50 25v1 1 1 1 1 1 1 1 1 1h1v-1-1-1-1-1-1-1-1-1-1-1h-1zM3 39v1 1 1 1 1 1h1v-1-1-1-1-1-1-1H3z"/><path d="M12 33v-1-1-1-1-1-1h-1v1 1 1h-1v1 1H9v1 1H8v1 1H7v1 1H6v1 1 1 1 1h1v-1h1 1 1v1h1v-1-1-1-1-1-1-1-1h1v-1zm-8 4v1h1v-1-1H4z"/><path d="M5 35v1h1v-1-1H5z"/><path d="M6 33v1h1v-1-1H6z"/><path d="M7 31v1h1v-1-1H7z"/><path d="M8 29v1h1v-1-1H8z"/><path d="M9 27v1h1v-1-1H9z"/><path d="M13 22v-1h-1v1h-1v1 1h-1v1 1h1v-1h1v-1h1v-1zm-1 14v1 1 1 1 1 1 1 1 1h1v1h1v-1-1h-1v-1-1-1-1-1-1-1-1-1h-1z"/><path d="M13 25v1 1 1 1 1 1 1 1 1 1h1v-1-1-1-1-1-1-1-1-1-1-1h-1z"/></g><path d="M51 20h1v1h-1zm-1 28h1v1h-1zm10-1v1 1h1v-1-1zM12 20h1v1h-1zm1 28h1v1h-1zM3 48v1h1v-1-1H3z" fill="#fff"/><path d="M8 38v-1h2v-1h2v-1h1v-1h1v-1h1v8h-1v1h-2v1H8v-1H7v-4z" fill="#64438e"/><path d="M10 38v-1h2v-1h1v-1h1v-1h1v6h-1v1h-2v1H8v-4z" fill="#edd3fd"/><path d="M8,38v3h4v-1h2v-1h1v-5h-1v1h-1v1h-1v1h-2v1H8z" fill="#fff"/><path d="M56 38v-1h-2v-1h-2v-1h-1v-1h-1v-1h-1v8h1v1h2v1h4v-1h1v-4z" fill="#64438e"/><path d="M54 38v-1h-2v-1h-1v-1h-1v-1h-1v6h1v1h2v1h4v-4z" fill="#edd3fd"/><path d="M54,38v-1h-2v-1h-1v-1h-1v-1h-1v5h1v1h2v1h4v-3H54z" fill="#fff"/><path d="M60 36v-1-1h-1v-1h-1v-1h-1v-1h-1-1v1h-1v1h-1v1h-1v1 1h-1v1 1 1 1h1v1h1v1h1v1h1 1 1 1v-1h1v-1h1v-1h1v-1-1-1-1z" fill="red"/><path d="M59 37v-1-1h-1v-1h-1v-1h-1v-1h-1v1 1h-1v1h-1v1 1h-1v1 1 1h1v1h1v1h1 1 1 1v-1h1v-1h1v-1-1-1z" fill="#ff6f00"/><path d="M58 37v-1-1h-1v-1h-1v1h-1v1h-1v-1h-1v1 1 1 1 1 1h1v1h1 1 1 1v-1-1h1v-1-1-1z" fill="#fa0"/><g fill="#ff0"><path d="M57 37v-1h-1-1v1h-1v1 1h-1v1 1h1v1h1 1 1v-1-1h1v-1-1h-1z"/><path d="M58 37h1v1h-1zm-1-2h1v1h-1zm-4 1h1v1h-1z"/></g><path d="M44 4v1h-1v1 1h-1v1h-1v1 1h-1v1h-1v1 1h-1v1 1 1 1h1 1v1h1 1 1 1v-1-1-1-1-1-1h1v-1-1-1-1-1-1-1-1z" fill="#002de4"/><path d="M43 7v1h-1v1 1 1h1 1v-1-1-1-1zm-2 5v-1h-1v1 1h-1v1 1 1h1 1v1h1 1v-1-1-1-1-1h-1z" fill="#1973ff"/><path d="M43 7v1h-1v1 1 1h1v-1-1h1V8 7zm-2 4h-1v1 1h-1v1 1 1h1v-1h1v-1-1h1v-1h-1z" fill="#9dc3ff"/><path d="M20 4v1h1v1 1h1v1h1v1 1h1v1h1v1 1h1v1 1 1 1h-1-1v1h-1-1-1-1v-1-1-1-1-1-1h-1v-1-1-1-1-1-1-1-1z" fill="#002de4"/><path d="M21 7v1h1v1 1 1h-1-1v-1-1-1-1zm2 5v-1h1v1 1h1v1 1 1h-1-1v1h-1-1v-1-1-1-1-1h1z" fill="#1973ff"/><path d="M21 7v1h1v1 1 1h-1v-1-1h-1V8 7zm2 4h1v1 1h1v1 1 1h-1v-1h-1v-1-1h-1v-1h1z" fill="#9dc3ff"/></svg>