<?xml version="1.0" encoding="utf-8"?>
<!-- Generator: Adobe Illustrator 25.3.1, SVG Export Plug-In . SVG Version: 6.00 Build 0)  -->
<svg version="1.1" id="Layer_1" xmlns="http://www.w3.org/2000/svg" xmlns:xlink="http://www.w3.org/1999/xlink" x="0px" y="0px"
	 viewBox="0 0 64 64" style="enable-background:new 0 0 64 64;" xml:space="preserve">
<style type="text/css">
	.st0{fill:#B6509E;}
	.st1{fill:#CFEEF4;}
	.st2{fill:#FFFFFF;}
	.st3{fill:#F696C6;}
	.st4{opacity:0.25;enable-background:new    ;}
	.st5{fill:#0064FF;}
	.st6{fill:#A73796;}
	.st7{fill:#FFFF00;}
	.st8{fill:#FF6600;}
	.st9{fill:#D8D800;}
	.st10{fill:#252525;}
	.st11{display:none;}
	.st12{display:inline;}
	.st13{display:inline;fill:#FFFFFF;}
	.st14{fill:#7D0064;}
	.st15{fill:#390601;}
	.st16{fill:#592F2A;}
	.st17{fill:#846460;}
	.st18{fill:#00FFFF;}
	.st19{fill:url(#SVGID_1_);}
	.st20{display:inline;fill:#FFFF00;}
	.st21{display:inline;fill:#D8D800;}
	.st22{display:inline;fill:#666666;}
	.st23{fill:#666666;}
	.st24{fill:#DECD87;}
	.st25{fill:#782121;}
	.st26{fill:#008000;}
	.st27{fill:#00AA00;}
	.st28{fill:#9B00DC;}
	.st29{fill:#FAAFF3;}
</style>
<g>
	<g>
		<path class="st0" d="M21,12h2v-2h-4v2h1H21z"/>
		<path class="st0" d="M19,14v-2h-2v2h1H19z M25,10h2V8h-4v2h1H25z"/>
		<path class="st0" d="M29,8h8V6H27v2h1H29z M45,14h2v-2h-2v1V14z"/>
		<path class="st0" d="M48,14h-1v39h-2v2h4V14H48z M37,10h4V8h-4v1V10z"/>
		<path class="st0" d="M41,12h4v-2h-4v1V12z M17,53V14h-2v41h4v-2h-1H17z"/>
		<path class="st0" d="M24,51h-5v2h5v-1V51z"/>
		<path class="st0" d="M27,53h-3v2h5v-2h-1H27z M45,51h-5v2h5v-1V51z"/>
		<path class="st0" d="M35,51h-6v2h6v-1V51z"/>
		<path class="st0" d="M38,53h-3v2h5v-2h-1H38z"/>
	</g>
	<g>
		<path class="st1" d="M18,43v6h2v-1h2v1h2v2h-5v2h-2V14h2v1h-1v26V43z"/>
		<path class="st1" d="M27,51h-3v2h5v-2h-1H27z M38,51h-3v2h5v-2h-1H38z"/>
		<path class="st1" d="M35,49h-2v-1h-2v1h-2v2h6v-1V49z M25,11h2v-1h-4v1h1H25z M21,13h2v-1h-4v1h1H21z M45,44v5h-1v-1h-2v1h-2v2h5
			v2h2V14h-2v29V44z"/>
		<path class="st1" d="M37,8H27v1h5v1h5V9V8z M45,12h-4v2h4v-1V12z"/>
		<path class="st1" d="M41,10h-4v2h4v-1V10z"/>
	</g>
	<path class="st2" d="M44,14h-3v-2h-4v-2h-5V9h-5v2h-4v2h-4v2h-1v34h2v-1h2v1h2v2h5v-2h2v-1h2v1h2v2h5v-2h2v-1h2v1h1V14H44z"/>
</g>
<path class="st3" d="M21,32v2h2v-2h-1H21z M42,32h-1v2h2v-2H42z"/>
<g>
	<path class="st0" d="M29,32h-2v2h2v-1V32z"/>
	<path class="st0" d="M33,34h-4v2h6v-2h-1H33z"/>
	<path class="st0" d="M36,32h-1v2h2v-2H36z"/>
</g>
<g>
	<path class="st4" d="M25,58h-6v1h1v1h24v-1h1v-1h-1H25z"/>
</g>
<g>
	<path class="st5" d="M23,28v1v1h1h1h1h1v-1v-1h1h1v-1v-1v-1v-1h-1h-1v-1v-1h-1h-1h-1h-1v1v1h-1h-1v1v1v1v1h1H23z"/>
	<path class="st5" d="M35,24v1v1v1v1h1h1v1v1h1h1h1h1v-1v-1h1h1v-1v-1v-1v-1h-1h-1v-1v-1h-1h-1h-1h-1v1v1h-1H35z"/>
</g>
<g>
	<path class="st6" d="M30.5,15h1v-2h-1V15z"/>
	<path class="st6" d="M31.5,12h1v1h-1V12z"/>
	<path class="st6" d="M33.5,13h-1v2h1V13z M29.5,16h-2v1h1v2h1v-2h2v-1h-1v-1h-1V16z"/>
	<path class="st6" d="M34.5,15h-1v2h1V15z"/>
	<path class="st6" d="M35.5,17h-1v2h1V17z M27.5,21h1v-2h-1V21z"/>
	<path class="st6" d="M35.5,19v2h1v-2H35.5z"/>
</g>
<g>
	<path class="st7" d="M45,33v4h-1v1h-4v1H24v-1h-4v-1h-1v-4h-4v22h4v-2h5v2h5v-2h6v2h5v-2h5v2h4V33H45z"/>
	<path class="st8" d="M38,40h5v5h-5V40z"/>
	<path class="st2" d="M39,41v1h1v-1H39z M40,42v1h1v-1H40z M41,42h1v-1h-1V42z M41,43v1h1v-1H41z M40,43h-1v1h1V43z"/>
	<path d="M19,51v2h5v-2H19z M24,53v2h5v-2H24z M29,53h6v-2h-6V53z M35,53v2h5v-2H35z M40,53h5v-2h-5V53z M15,54v1h4v-1H15z M45,54v1
		h4v-1H45z"/>
	<path class="st9" d="M15,33v1h3v4h1v1h5v-1h-4v-1h-1v-4H15z M24,39v1h16v-1H24z M40,39h5v-1h1v-4h3v-1h-4v4h-1v1h-4V39z M15,40v14
		h4v-1h-3V40H15z M48,40v13h-3v1h4V40H48z"/>
	<path d="M31,40h2v9h-2V40z"/>
	<g>
		<path class="st10" d="M31,40h1v1h-1V40z"/>
		<path class="st10" d="M32,41h1v1h-1V41z"/>
		<path class="st10" d="M31,42h1v1h-1V42z"/>
		<path class="st10" d="M32,43h1v1h-1V43z"/>
		<path class="st10" d="M31,44h1v1h-1V44z"/>
		<path class="st10" d="M32,45h1v1h-1V45z"/>
		<path class="st10" d="M31,46h1v1h-1V46z"/>
		<path class="st10" d="M32,47h1v1h-1V47z"/>
		<path class="st10" d="M31,48h1v1h-1V48z"/>
	</g>
</g>
<g class="st11">
	<g class="st12">
		<path class="st0" d="M19,42h1v1h-1V42z M20,36h1v1h-1V36z"/>
		<path class="st0" d="M21,37h1v1h-1V37z M26,40v4h1v-4H26z M21,43h-1v1h2v-1H21z"/>
		<path class="st0" d="M24,44h-2v1h4v-1h-1H24z M25,39h-1v1h2v-1H25z"/>
		<path class="st0" d="M23,38h-1v1h2v-1H23z"/>
	</g>
	<g class="st12">
		<path class="st1" d="M19,43h1v1h-1V43z M24,45h-2v1h4v-1h-1H24z"/>
		<path class="st1" d="M27,41v3h1v-3H27z M21,44h-1v1h2v-1H21z"/>
		<path class="st1" d="M26,44h1v1h-1V44z M19,41h-1v2h1v-1V41z"/>
	</g>
	<g class="st12">
		<path class="st0" d="M44,42h1v1h-1V42z M43,36h1v1h-1V36z"/>
		<path class="st0" d="M42,37h1v1h-1V37z"/>
		<path class="st0" d="M42,39v-1h-2v1h1H42z M42,43v1h2v-1h-1H42z"/>
		<path class="st0" d="M40,44h-2v1h4v-1h-1H40z"/>
		<path class="st0" d="M38,42v-2h-1v4h1v-1V42z"/>
		<path class="st0" d="M40,40v-1h-2v1h1H40z"/>
	</g>
	<g class="st12">
		<path class="st1" d="M42,44v1h2v-1h-1H42z M37,42v-1h-1v3h1v-1V42z"/>
		<path class="st1" d="M40,45h-2v1h4v-1h-1H40z"/>
		<path class="st1" d="M37,44h1v1h-1V44z M44,43h1v1h-1V43z"/>
	</g>
</g>
<g>
	<g>
		<path class="st0" d="M14,40h1v1h-1V40z M13,34h1v1h-1V34z"/>
		<path class="st0" d="M14,33h1v1h-1V33z M12,35h1v1h-1V35z M7,38h1v4H7V38z M12,41h2v1h-2V41z"/>
		<path class="st0" d="M8,42h4v1H8V42z M8,37h2v1H8V37z"/>
		<path class="st0" d="M10,36h2v1h-2V36z"/>
	</g>
	<g>
		<path class="st1" d="M14,39h1v1h-1V39z"/>
		<path class="st1" d="M12,40h2v1h-2V40z"/>
		<path class="st1" d="M8,41h4v1H8V41z"/>
	</g>
	<path class="st2" d="M8,38v3h4v-1h2v-1h1v-5h-1v1h-1v1h-1v1h-2v1H8z"/>
	<g>
		<path class="st0" d="M49,40h1v1h-1V40z M50,34h1v1h-1V34z"/>
		<path class="st0" d="M49,33h1v1h-1V33z M51,35h1v1h-1V35z M56,38h1v4h-1V38z M50,41h2v1h-2V41z"/>
		<path class="st0" d="M52,42h4v1h-4V42z M54,37h2v1h-2V37z"/>
		<path class="st0" d="M52,36h2v1h-2V36z"/>
	</g>
	<g>
		<path class="st1" d="M49,39h1v1h-1V39z"/>
		<path class="st1" d="M50,40h2v1h-2V40z"/>
		<path class="st1" d="M52,41h4v1h-4V41z"/>
	</g>
	<path class="st2" d="M54,38v-1h-2v-1h-1v-1h-1v-1h-1v5h1v1h2v1h4v-3H54z"/>
</g>
<g class="st11">
	<g class="st12">
		<path class="st1" d="M50,38h1v1h-1V38z"/>
		<path class="st1" d="M49,39h1v1h-1V39z M51,37h1v1h-1V37z"/>
		<path class="st1" d="M52,36h2v1h-2V36z"/>
		<path class="st1" d="M54,35h2v1h-2V35z"/>
	</g>
	<path class="st13" d="M52,32v1h-2v1h-1v5h1v-1h1v-1h1v-1h2v-1h2v-3H52z"/>
	<g class="st12">
		<path class="st0" d="M49,33h1v1h-1V33z"/>
		<path class="st0" d="M50,32h2v1h-2V32z M50,39h1v1h-1V39z"/>
		<path class="st0" d="M49,40h1v1h-1V40z M51,38h1v1h-1V38z"/>
		<path class="st0" d="M52,37h2v1h-2V37z M52,31h4v1h-4V31z"/>
		<path class="st0" d="M56,32h1v4h-1V32z"/>
		<path class="st0" d="M54,36h2v1h-2V36z"/>
	</g>
	<g class="st12">
		<path class="st1" d="M13,38h1v1h-1V38z"/>
		<path class="st1" d="M14,39h1v1h-1V39z M12,37h1v1h-1V37z"/>
		<path class="st1" d="M10,36h2v1h-2V36z"/>
		<path class="st1" d="M8,35h2v1H8V35z"/>
	</g>
	<path class="st13" d="M8,32v3h2v1h2v1h1v1h1v1h1v-5h-1v-1h-2v-1H8z"/>
	<g class="st12">
		<path class="st0" d="M14,33h1v1h-1V33z"/>
		<path class="st0" d="M12,32h2v1h-2V32z M13,39h1v1h-1V39z"/>
		<path class="st0" d="M14,40h1v1h-1V40z M12,38h1v1h-1V38z"/>
		<path class="st0" d="M10,37h2v1h-2V37z M8,31h4v1H8V31z"/>
		<path class="st0" d="M7,32h1v4H7V32z"/>
		<path class="st0" d="M8,36h2v1H8V36z"/>
	</g>
</g>
<g>
	<g>
		<path class="st14" d="M51,25h2v2h-2V25z"/>
		<path class="st14" d="M53,23v-4h-2v2h-2v2h-4v-1h-2v-1h-2v-1h-4v1h-2v1h-2v1h-2v-1h-2v-1h-2v-1h-4v1h-2v1h-2v1h-4v6h4v1h2v1h2v1h4
			v-1h2v-1h2v-1h2v1h2v1h2v1h4v-1h2v-1h2v-1h4v-4h2v-2H53z"/>
	</g>
	<path class="st6" d="M45,24v-1h-2v-1h-2v-1h-4v1h-2v1h-2v1h-2v-1h-2v-1h-2v-1h-4v1h-2v1h-2v1h-4v4h4v1h2v1h2v1h4v-1h2v-1h2v-1h2v1
		h2v1h2v1h4v-1h2v-1h2v-1h4v-4H45z"/>
	<g>
		<path class="st14" d="M41,21v1h2v-1H41z"/>
		<path class="st14" d="M43,22v1h2v-1H43z M37,20v1h4v-1H37z"/>
		<path class="st14" d="M35,21v1h2v-1H35z M27,21v1h2v-1H27z"/>
		<path class="st14" d="M23,20v1h4v-1H23z"/>
		<path class="st14" d="M21,21v1h2v-1H21z"/>
		<path class="st14" d="M19,22v1h2v-1H19z"/>
		<path class="st14" d="M15,23v1h4v-1H15z M31,23v1h2v-1H31z"/>
		<path class="st14" d="M29,22v1h2v-1H29z M33,22v1h2v-1H33z M23,31v1h4v-1H23z"/>
		<path class="st14" d="M21,30v1h2v-1H21z"/>
		<path class="st14" d="M19,29v1h2v-1H19z"/>
		<path class="st14" d="M15,28v1h4v-1H15z M27,30v1h2v-1H27z M35,30v1h2v-1H35z"/>
		<path class="st14" d="M37,31v1h4v-1H37z"/>
		<path class="st14" d="M41,30v1h2v-1H41z"/>
		<path class="st14" d="M43,29v1h2v-1H43z"/>
		<path class="st14" d="M45,28v1h4v-1H45z M29,29v1h2v-1H29z"/>
		<path class="st14" d="M31,28v1h2v-1H31z"/>
		<path class="st14" d="M33,29v1h2v-1H33z M51,27h2v-2h-2V27z"/>
		<path class="st14" d="M51,19v2h-2v2h-4v1h4v1h2v-2h2v-4H51z"/>
	</g>
	<path class="st2" d="M41,25v-1h-1v-1h-2v1h-1v1h-1v2h1v1h1v1h2v-1h1v-1h1v-2H41z"/>
	<path class="st14" d="M38,25h2v2h-2V25z"/>
	<path class="st2" d="M27,24h-1v-1h-2v1h-1v1h-1v2h1v1h1v1h2v-1h1v-1h1v-2h-1V24z"/>
	<path class="st14" d="M24,25h2v2h-2V25z"/>
</g>
<g>
	<path class="st15" d="M46,24v-1h-1v-1h-1v-1h-1v-1h-6v1h-1v1h-1v1h-1v1h-4v-1h-1v-1h-1v-1h-1v-1h-6v1h-1v1h-1v1h-1v1h-3v4h3v1h1v1
		h1v1h1v1h5v5h1v1h1v1h8v-1h1v-1h1v-5h5v-1h1v-1h1v-1h1v-1h3v-4H46z"/>
	<g>
		<path class="st16" d="M26,21h1v1h-1V21z"/>
		<path class="st16" d="M27,22h1v1h-1V22z M21,21h1v1h-1V21z"/>
		<path class="st16" d="M20,22h1v1h-1V22z"/>
		<path class="st16" d="M19,23h1v1h-1V23z"/>
		<path class="st16" d="M18,24h1v1h-1V24z M26,30h1v1h-1V30z"/>
		<path class="st16" d="M27,29h1v1h-1V29z M21,30h1v1h-1V30z"/>
		<path class="st16" d="M20,29h1v1h-1V29z"/>
		<path class="st16" d="M19,28h1v1h-1V28z"/>
		<path class="st16" d="M18,27h1v1h-1V27z M16,26h1v1h-1V26z"/>
		<path class="st16" d="M17,25h1v1h-1V25z M15,25h1v1h-1V25z M28,23h1v1h-1V23z M28,28h1v1h-1V28z"/>
		<path class="st16" d="M29,24h1v1h-1V24z M29,27h1v1h-1V27z M34,24h1v1h-1V24z M34,27h1v1h-1V27z"/>
		<path class="st16" d="M35,23h1v1h-1V23z M35,28h1v1h-1V28z M37,21h1v1h-1V21z"/>
		<path class="st16" d="M36,22h1v1h-1V22z M42,21h1v1h-1V21z"/>
		<path class="st16" d="M43,22h1v1h-1V22z"/>
		<path class="st16" d="M44,23h1v1h-1V23z"/>
		<path class="st16" d="M45,24h1v1h-1V24z M37,30h1v1h-1V30z"/>
		<path class="st16" d="M36,29h1v1h-1V29z M42,30h1v1h-1V30z"/>
		<path class="st16" d="M43,29h1v1h-1V29z"/>
		<path class="st16" d="M44,28h1v1h-1V28z"/>
		<path class="st16" d="M45,27h1v1h-1V27z M47,26h1v1h-1V26z"/>
		<path class="st16" d="M46,25h1v1h-1V25z M48,25h1v1h-1V25z"/>
	</g>
	<g>
		<path class="st17" d="M26,22h1v1h-1V22z"/>
		<path class="st17" d="M27,23h1v1h-1V23z M27,28h1v1h-1V28z"/>
		<path class="st17" d="M26,29h1v1h-1V29z M21,22h1v1h-1V22z"/>
		<path class="st17" d="M20,23h1v1h-1V23z M20,28h1v1h-1V28z"/>
		<path class="st17" d="M21,29h1v1h-1V29z M23,21h2v1h-2V21z M19,25h1v2h-1V25z M17,26h1v1h-1V26z M15,26h1v1h-1V26z"/>
		<path class="st17" d="M16,25h1v1h-1V25z M23,30h2v1h-2V30z M34,29h1v1h-1V29z"/>
		<path class="st17" d="M35,30h1v1h-1V30z"/>
		<path class="st17" d="M36,36h-1v1h-6v-1h-1v-5h-1v6h1v1h8v-1h1v-6h-1V36z M30,28h4v1h-4V28z M33,30h1v1h-1V30z"/>
		<path class="st17" d="M34,31h1v1h-1V31z M30,30h1v1h-1V30z"/>
		<path class="st17" d="M29,31h1v1h-1V31z M31,31h2v1h-2V31z"/>
		<path class="st17" d="M33,32h1v1h-1V32z M30,32h1v1h-1V32z"/>
		<path class="st17" d="M31,33h2v1h-2V33z"/>
		<path class="st17" d="M33,34h1v1h-1V34z M30,34h1v1h-1V34z"/>
		<path class="st17" d="M31,35h2v1h-2V35z M34,33h1v1h-1V33z M34,35h1v1h-1V35z M29,33h1v1h-1V33z M29,35h1v1h-1V35z M29,29h1v1h-1
			V29z"/>
		<path class="st17" d="M28,30h1v1h-1V30z M28,25h1v2h-1V25z M30,25h1v2h-1V25z M33,25h1v2h-1V25z M35,25h1v2h-1V25z M37,22h1v1h-1
			V22z"/>
		<path class="st17" d="M36,23h1v1h-1V23z M36,28h1v1h-1V28z"/>
		<path class="st17" d="M37,29h1v1h-1V29z M42,22h1v1h-1V22z"/>
		<path class="st17" d="M43,23h1v1h-1V23z M43,28h1v1h-1V28z"/>
		<path class="st17" d="M42,29h1v1h-1V29z M39,21h2v1h-2V21z M46,26h1v1h-1V26z M48,26h1v1h-1V26z"/>
		<path class="st17" d="M44,25h1v2h-1V25z M47,25h1v1h-1V25z M39,30h2v1h-2V30z"/>
	</g>
	<path class="st18" d="M26,23h-4v1h-1v4h1v1h4v-1h1v-4h-1V23z M42,24v-1h-4v1h-1v4h1v1h4v-1h1v-4H42z"/>
	<g>
		<path class="st2" d="M24,23h1v1h-1V23z"/>
		<path class="st2" d="M23,24h1v1h-1V24z"/>
		<path class="st2" d="M22,25h1v1h-1V25z"/>
		<path class="st2" d="M21,26h1v1h-1V26z M26,25h-1v1h-1v1h-1v1h-1v1h2v-1h1v-1h1v-1h1v-2h-1V25z M40,23h1v1h-1V23z"/>
		<path class="st2" d="M39,24h1v1h-1V24z"/>
		<path class="st2" d="M38,25h1v1h-1V25z M42,24v1h-1v1h-1v1h-1v1h-1v1h2v-1h1v-1h1v-1h1v-2H42z"/>
		<path class="st2" d="M37,26h1v1h-1V26z"/>
	</g>
</g>
<g>
	<path class="st9" d="M47,14v-2h-2v-2h-4V8h-4V6H27v2h-4v2h-4v2h-2v2h-2v20h3v4h1v1h5v1h16v-1h5v-1h1v-4h3V14H47z M38,35v2H26v-2h-2
		v-1h-2v-1h-2V19h2v-1h2v-1h2v-2h12v2h2v1h2v1h2v14h-2v1h-2v1H38z"/>
	<path class="st7" d="M28,7v1h-1v1h-3v1h-1v1h-3v1h-1v1h-1v1h-1v1h-1v17h1v1h2v4h1v1h4v1h16v-1h4v-1h1v-4h2v-1h1V15h-1v-1h-1v-1h-1
		v-1h-1v-1h-3v-1h-1V9h-3V8h-1V7H28z M36,16v1h1v1h3v1h2v1h1v12h-1v1h-2v1h-2v1h-2v1h-8v-1h-2v-1h-2v-1h-2v-1h-1V20h1v-1h2v-1h3v-1
		h1v-1H36z"/>
	<g>
		<path class="st2" d="M39,10h1v1h-1V10z M41,11h1v1h-1V11z M43,12h1v1h-1V12z"/>
		<path class="st2" d="M43,14v-1h-2v-1h-2v-1h-2v-1h-3v1h2v1h1v1h2v1h2v1h4v-1H43z"/>
	</g>
	<path d="M27,17h1v-1h8v1h1v1h3v-1h-2v-2H26v2h-2v1h3V17z M22,33h2v1h-2V33z"/>
	<path d="M40,18h2v1h-2V18z M40,33h2v1h-2V33z M21,32V20h1v-1h-2v14h2v-1H21z"/>
	<path d="M22,18h2v1h-2V18z M24,34h2v1h-2V34z"/>
	<path d="M42,19v1h1v12h-1v1h2V19H42z M36,36h-8v-1h-2v2h12v-2h-2V36z"/>
	<path d="M38,34h2v1h-2V34z"/>
	
		<linearGradient id="SVGID_1_" gradientUnits="userSpaceOnUse" x1="17" y1="33.433" x2="17" y2="54.185" gradientTransform="matrix(1 0 0 -1 15 70)">
		<stop  offset="0" style="stop-color:#E1E1E1"/>
		<stop  offset="1" style="stop-color:#FFFFFF;stop-opacity:0"/>
	</linearGradient>
	<path class="st19" d="M28,17v-1h8v1h1v1h3v1h2v1h1v12h-1v1h-2v1h-2v1h-2v1h-8v-1h-2v-1h-2v-1h-2v-1h-1V20h1v-1h2v-1h3v-1H28z"/>
</g>
<g>
	<g class="st11">
		<path class="st20" d="M56,32v-1h-4v1h-2v1h-1v8h1v-1h1v-1h1v-1h2v-1h2v-1h1v-4H56z"/>
		<path class="st21" d="M50,41v-1h-1v1H50z M50,40h1v-1h-1V40z M51,39h1v-1h-1V39z M50,34v-1h-1v1H50z M50,33h1v-1h-1V33z"/>
		<path class="st12" d="M56,32v-1h-4v1h-1v5h1v1h2v-1h2v-1h1v-4H56z"/>
		<path class="st22" d="M52,32h4v1h-4V32z"/>
	</g>
	<g>
		<path class="st7" d="M56,38v-1h-2v-1h-2v-1h-1v-1h-1v-1h-1v8h1v1h2v1h4v-1h1v-4H56z"/>
		<path class="st9" d="M49,33v1h1v-1H49z M50,35h1v-1h-1V35z M51,36h1v-1h-1V36z M49,40v1h1v-1H49z M50,42h1v-1h-1V42z"/>
		<path d="M56,38v-1h-2v-1h-2v1h-1v5h1v1h4v-1h1v-4H56z"/>
		<path class="st23" d="M52,41h4v1h-4V41z"/>
	</g>
	<g class="st11">
		<path class="st20" d="M14,33v-1h-2v-1H8v1H7v4h1v1h2v1h2v1h1v1h1v1h1v-8H14z"/>
		<path class="st21" d="M15,41v-1h-1v1H15z M14,39h-1v1h1V39z M13,38h-1v1h1V38z M15,34v-1h-1v1H15z M14,32h-1v1h1V32z"/>
		<path class="st12" d="M12,32v-1H8v1H7v4h1v1h2v1h2v-1h1v-5H12z"/>
		<path class="st22" d="M8,32h4v1H8V32z"/>
	</g>
	<g>
		<path class="st7" d="M14,33v1h-1v1h-1v1h-2v1H8v1H7v4h1v1h4v-1h2v-1h1v-8H14z"/>
		<path class="st9" d="M14,33v1h1v-1H14z M14,34h-1v1h1V34z M13,35h-1v1h1V35z M14,40v1h1v-1H14z M14,41h-1v1h1V41z"/>
		<path d="M12,37v-1h-2v1H8v1H7v4h1v1h4v-1h1v-5H12z"/>
		<path class="st23" d="M8,41h4v1H8V41z"/>
	</g>
</g>
<g>
	<path d="M16,25v-1H1v1H0v7h1v1h7v14h1V33h7v-1h1v-7H16z"/>
	<path class="st2" d="M1,25v7h15v-7H1z"/>
	<path d="M12,26v1h1v4h1v-4h1v-1H12z M10,29h1v2h-1V29z M10,27h1v1h-1V27z M5,31h2v-1H6v-1h1v-1H6v-1h1v-1H5V31z"/>
	<path d="M2,31h1v-4h1v-1H2V31z M9,26H8v5h1v-2h1v-1H9V26z"/>
</g>
<g>
	<g transform="scale(-1, 1) translate(-52, 0)">
		<path d="M0,30v-1h-1v-6h-3v6h-1v1h-1v14h1v1h5v-1h1V30H0z"/>
		<path class="st24" d="M-5,34h2v7h-2V34z"/>
		<path class="st25" d="M-3,26h1v2h-1V26z"/>
		<path class="st26" d="M-3,24h1v1h-1V24z M-1,30v-1h-3v1h-1v3h3v9h-3v2h5V30H-1z"/>
		<path class="st27" d="M-5,30h1v3h-1V30z M-5,42h1v2h-1V42z"/>
	</g>
</g>
<g>
	<path d="M61,45v-1h-1v-1h-5v1h-1v1h-4v-1h-1v-1h-5v1h-1v1h-1v2h1v1h1v1h-1v3h1v1h1v1h-1v1h-1v2h1v1h-1v2h4v1h3v-1h1v-1h2v1h1v1h3
		v-1h4v-2h-1v-1h1v-2h-1v-1h-1v-1h1v-1h1v-3h-1v-1h1v-1h1v-2H61z"/>
	<path class="st2" d="M60,46h-1v1h-3v-1h-2v1h1v1h5v-1h1v-1H60z M48,46v1h-3v-1h-2v1h1v1h5v-1h1v-1h-1H48z"/>
	<g>
		<path class="st28" d="M59,44h-4v1h5v-1H59z M52,48h2v-1h-1v-1h-2v1h-1v1h1H52z M46,45h3v-1h-5v1h1H46z M51,56v2h2v-2h-1H51z"/>
		<path class="st28" d="M58,55v-2H46v2h-2v2h2v1h-2v1h3v-3h1v3h-1v1h3v-4h1v-1h2v1h1v4h3v-1h-1v-3h1v3h3v-1h-2v-1h2v-2h-1H58z"/>
	</g>
	<path class="st29" d="M59,49H44v3h16v-3H59z M59,51H45v-1h14V51z"/>
</g>
</svg>
