<svg xmlns="http://www.w3.org/2000/svg" viewBox="0 0 64 64"><path d="M50 18V8h-2V6h-2V4h-2V2h-4V0H24v2h-4v2h-2v2h-2v2h-2v10h-2v10h2v32h-2v4h8V42h4v18h-2v4h8V42h4v22h8v-4h-2V42h4v22h8v-4h-2V28h2V18h-2z"/><path d="M20 18h28v-2H16v2h4zm28 40V28H16v32h-2v2h4V42h2v-2h4v2h2v18h-2v2h4V42h2v-2h4v2h2v20h4v-2h-2V42h2v-2h4v2h2v20h4v-2h-2v-2zM28 30v2h8v-2h2v2h-2v2h-8v-2h-2v-2h2zm21-10H14v6h36v-6h-1zm-29-6h28V8h-2V6h-2V4h-4V2H24v2h-4v2h-2v2h-2v6h4z" fill="#a0ffff"/><path d="M46 44h2v2h-2zm-10 0h2v2h-2zm-10 0h2v2h-2zm-10 0h2v2h-2zm30 4h2v2h-2zm-10 0h2v2h-2zm-10 0h2v2h-2zm-10 0h2v2h-2zm30 4h2v2h-2zm-10 0h2v2h-2zm-10 0h2v2h-2zm-10 0h2v2h-2zm30 4h2v2h-2zm-10 0h2v2h-2zm-10 0h2v2h-2zm-10 0h2v2h-2z" fill="#00afaf"/><path d="M16 16h2v2h-2zm30 0h2v2h-2zM16 30v14h2V28h-2v2zm32 12V28h-2v16h2v-2zm-12 0h2v2h-2zm-10 0h2v2h-2zm20 4h2v2h-2zm-10 0h2v2h-2zm-10 0h2v2h-2zm-10 0h2v2h-2zm30 4h2v2h-2zm-10 0h2v2h-2zm-10 0h2v2h-2zm-10 0h2v2h-2zm30 4h2v2h-2zm-10 0h2v2h-2zm-10 0h2v2h-2zm-10 0h2v2h-2zm22 4h-2v4h4v-2h-2v-2zm-12 2h-2v2h4v-4h-2v2zm-10 0h-2v2h4v-4h-2v2zm32 0v-2h-2v4h4v-2h-2z" fill="#d2ffff"/><path d="M14 20v6h36v-6H14z" fill="#005f5f"/><path d="M44 8V6h-2V4h-4V2H26v2h-4v2h-2v2h-2v6h28V8h-2z" fill="#fff"/><g fill="#e1e1e1"><path d="M16 10v4h2V8h-2v2z"/><path d="M18 6h2v2h-2z"/><path d="M20 4h2v2h-2zm4-2h2v2h-2zm14 0h2v2h-2zm4 2h2v2h-2z"/><path d="M44 6h2v2h-2z"/><path d="M46 8v6h2V8h-2z"/></g><path d="M19 20h-2v6h6v-6h-4zm2 4h-2v-2h2v2zm10-4h-2v6h6v-6h-4zm2 4h-2v-2h2v2zm12-4h-4v6h6v-6h-2zm0 4h-2v-2h2v2z" fill="#d2ffff"/><path d="M25 22v4h2v-6h-2v2zm12 0v4h2v-6h-2v2zm12-2v6h1v-6h-1zm-35 2v4h1v-6h-1v2z" fill="#0ff"/><path d="M24 12h2v2h-2zm4 0h2v2h-2zm6 0h2v2h-2zm4 0h2v2h-2zm-18 0h2v2h-2zm22 0h2v2h-2z" fill="#ff216e"/><path d="M24 10h2v2h-2zm4 0h2v2h-2zm6 0h2v2h-2zm4 0h2v2h-2zm-18 0h2v2h-2zm22 0h2v2h-2z" fill="#ff4988"/><path d="M24 8h2v2h-2zm-6 0h2v2h-2zm10 0h2v2h-2zm6 0h2v2h-2zm4 0h2v2h-2zm6 0h2v2h-2z" fill="#ff74a4"/><path d="M26 4h2v2h-2zm10 0h2v2h-2z" fill="#ffd9e6"/><path d="M22 6h2v2h-2zm6 0h2v2h-2zm6 0h2v2h-2zm6 0h2v2h-2z" fill="#ffbdd4"/></svg>