<svg xmlns="http://www.w3.org/2000/svg" viewBox="0 0 64 64"><path d="M44,58H19v1h1v1h24v-1h1v-1H44z" opacity=".25" enable-background="new"/><path d="M47 14v-2h-2v-2h-4V8h-4V6H27v2h-4v2h-4v2h-2v2h-2v41h4v-2h5v2h5v-2h6v2h5v-2h5v2h4V14z"/><path d="M45 14v-2h-4v-2h-4V8H27v2h-4v2h-4v2h-2v39h2v-2h5v2h5v-2h6v2h5v-2h5v2h2V14z" fill="#fbdfeb"/><path d="M18,49h2v-1h2v1h2v2h5v-2h2v-1h2v1h2v2h5v-2h2v-1h2v1h1V14h-4v-2h-4v-2h-5V9h-5v2h-4v2h-4v2h-1V49z" fill="#fff"/><path d="M29,32h-2v2h2V32z"/><path d="M29,34v2h6v-2H29z"/><path d="M35,32v2h2v-2H35z"/><path d="M21 32v2h2v-2h-2zm20 0v2h2v-2h-2z" fill="#f696c6"/><path d="M56 38v-1h-2v-1h-2v-1h-1v-1h-1v-1h-1v8h1v1h2v1h4v-1h1v-4z"/><path d="M54 38v-1h-2v-1h-1v-1h-1v-1h-1v6h1v1h2v1h4v-4z" fill="#fbdfeb"/><path d="M54,38v-1h-2v-1h-1v-1h-1v-1h-1v5h1v1h2v1h4v-3H54z" fill="#fff"/><path d="M8 38v-1h2v-1h2v-1h1v-1h1v-1h1v8h-1v1h-2v1H8v-1H7v-4z"/><path d="M10 38v-1h2v-1h1v-1h1v-1h1v6h-1v1h-2v1H8v-4z" fill="#fbdfeb"/><path d="M8,38v3h4v-1h2v-1h1v-5h-1v1h-1v1h-1v1h-2v1H8z" fill="#fff"/><path d="M43 22h-1v-1h-5v1h-1v1h-1v5h1v1h1v1h5v-1h1v-1h1v-5h-1v-1zm-1 5h-4v-3h4v3z"/><path d="M36,24h1v-1h1v-1h3v-1h-4v1h-1v1h-1v5h1v1h1v1h4v-1h-3v-1h-1v-1h-1V24z" fill="#e51b6d"/><path d="M28 22h-1v-1h-5v1h-1v1h-1v5h1v1h1v1h5v-1h1v-1h1v-5h-1v-1zm-1 5h-4v-3h4v3z"/><path d="M22,21v1h-1v1h-1v5h1v1h1v1h4v-1h-3v-1h-1v-1h-1v-3h1v-1h1v-1h3v-1H22z" fill="#e51b6d"/><path d="M35.5 20h1v-1h1v-5h-1v-1h-1v-1h-1v-1h-5v1h-1v1h-1v1h-1v5h1v1h1v1h1v1h5v-1h1v-1zm0-2h-1v1h-4v-1h-1v-3h1v-1h4v1h1v3z"/><path d="M28.5,15h1v-1h1v-1h3v-1h-4v1h-1v1h-1v5h1v1h1v1h4v-1h-3v-1h-1v-1h-1V15z" fill="#e51b6d"/><path d="M46 33v1h-1v1h-1v1h-1v1h-1v1h-1v1h-2v1h-3v1h-8v-1h-3v-1h-2v-1h-1v-1h-1v-1h-1v-1h-1v-1h-1v-1h-3v20h34V33h-3z" fill="#960000"/><path d="M46 34v1h-1v1h-1v1h-1v1h-1v1h-1v1h-2v1h-3v1h-8v-1h-3v-1h-2v-1h-1v-1h-1v-1h-1v-1h-1v-1h-1v-1h-2v18h32V34h-2z" fill="red"/><g fill="#ffc900"><path d="M24.5 46v-2h-1v4h1v-2z"/><path d="M24.5 48h1v1h-1z"/><path d="M26.5 46v-2h-1v4h1v-2zm1-1v3h1v-4h-1v1z"/><path d="M26.5 48h1v1h-1zm11-2v3h1v-4h-1v1zm-2 0v3h1v-4h-1v1z"/><path d="M36.5 44h1v1h-1zm3 0v5h1v-5h-1zm-6 2v3h1v-4h-1v1z"/><path d="M34.5 44h1v1h-1zm-4 0v1h2v-1h-2zm2 3v-1h-1v2h1v-1z"/><path d="M30.5 48h1v1h-1z"/><path d="M29.5 46v2h1v-3h-1v1z"/></g><path d="M14 33v1h-1v1h-1v7h2v-1h1.5v-8H14z" fill="#960000"/><path d="M14 34v1h-1v6h1v-1h1v-6h-1z" fill="red"/><path d="M50 33v1h1v1h1v7h-2v-1h-1.5v-8H50z" fill="#960000"/><path d="M50 34v1h1v6h-1v-1h-1v-6h1z" fill="red"/><path d="M48 12v-1h-1v-1h-1V9h-1V8h-1V7h-1V6h-3V5h-7V4h-2v1h-7v1h-3v1h-1v1h-1v1h-1v1h-1v1h-1v1h-1v9h3v1h1v1h26v-1h1v-1h3v-9h-1z" fill="#960000"/><g fill="red"><path d="M47 12v-1h-1v-1h-1V9h-1V8h-1V7h-3V6h-6v1h1v1h1v1h1v1h1v1h1v1h1v8h8v-8h-1zm-21-1v-1h1V9h1V8h1V7h1V6h-6v1h-3v1h-1v1h-1v1h-1v1h-1v1h-1v8h8v-8h1v-1h1z"/><path d="M38 11h-1v-1h-1V9h-1V8h-1V7h-1V6h-2v1h-1v1h-1v1h-1v1h-1v1h-1v1h-1v8h14v-8h-1v-1zM19 21v1h26v-1H19z"/></g><g fill="#ffc900"><path d="M37 17.5v-6h-2v6h2zm-4 0v-6h-2v6h2z"/><path d="M29 19.5h2v-2h-2v2zm4 0h2v-2h-2v2z"/><path d="M29 17.5v-6h-2v6h2z"/></g><path d="M49 8h-2v2h2V8zM15 8v2h2V8h-2z"/><path d="M17 6v2h2V6h-2z"/><path d="M19 4v2h4V4h-4zm28 2h-2v2h2V6z"/><path d="M45 4h-4v2h4V4z"/><path d="M41 2H23v2h18V2zm-28 8v9h-2v10h2v2h2V10h-2zm38 9v-9h-2v21h2v-2h2V19h-2z"/><path d="M51 21v-4h-2v14h2v-4h2v-6h-2z" fill="#323232"/><path d="M49 19v10h2V19h-2z" fill="#828282"/><path d="M49 21v6h2v-6h-2z" fill="#afafaf"/><path d="M13 21v-4h2v14h-2v-4h-2v-6h2z" fill="#323232"/><path d="M15 19v10h-2V19h2z" fill="#828282"/><path d="M15 21v6h-2v-6h2z" fill="#afafaf"/></svg>