<?xml version="1.0" encoding="utf-8"?>
<!-- Generator: Adobe Illustrator 25.3.1, SVG Export Plug-In . SVG Version: 6.00 Build 0)  -->
<svg version="1.1" id="Layer_1" xmlns="http://www.w3.org/2000/svg" xmlns:xlink="http://www.w3.org/1999/xlink" x="0px" y="0px"
	 viewBox="0 0 64 64" style="enable-background:new 0 0 64 64;" xml:space="preserve">
<style type="text/css">
	.st0{fill:#0074F9;}
	.st1{fill:#C8E1FD;}
	.st2{fill:#FFFFFF;}
	.st3{fill:#F696C6;}
	.st4{opacity:0.25;enable-background:new    ;}
	.st5{fill:#EA8C27;}
	.st6{fill:#D4AA00;}
	.st7{fill:#FFFF00;}
	.st8{fill:#008000;}
	.st9{fill:#2D5016;}
	.st10{fill:#AA0000;}
	.st11{fill:#FF0000;}
	.st12{display:none;}
	.st13{display:inline;}
	.st14{display:inline;fill:#FFFFFF;}
	.st15{fill:#502D16;}
	.st16{fill:#A05A2C;}
	.st17{fill:#800000;}
	.st18{fill:#00AA00;}
	.st19{display:inline;fill:#AA0000;}
	.st20{display:inline;fill:#FF0000;}
	.st21{display:inline;fill:#2D5016;}
	.st22{display:inline;fill:#008000;}
	.st23{fill:#FA34F3;}
	.st24{fill:#AC15F9;}
	.st25{fill:#CF15F9;}
	.st26{fill:#8F17F9;}
	.st27{fill:#7E18F8;}
</style>
<g>
	<g>
		<path class="st0" d="M21,12h2v-2h-4v2h1H21z"/>
		<path class="st0" d="M19,14v-2h-2v2h1H19z M25,10h2V8h-4v2h1H25z"/>
		<path class="st0" d="M29,8h8V6H27v2h1H29z M45,14h2v-2h-2v1V14z"/>
		<path class="st0" d="M48,14h-1v39h-2v2h4V14H48z M37,10h4V8h-4v1V10z"/>
		<path class="st0" d="M41,12h4v-2h-4v1V12z M17,53V14h-2v41h4v-2h-1H17z"/>
		<path class="st0" d="M24,51h-5v2h5v-1V51z"/>
		<path class="st0" d="M27,53h-3v2h5v-2h-1H27z M45,51h-5v2h5v-1V51z"/>
		<path class="st0" d="M35,51h-6v2h6v-1V51z"/>
		<path class="st0" d="M38,53h-3v2h5v-2h-1H38z"/>
	</g>
	<g>
		<path class="st1" d="M18,43v6h2v-1h2v1h2v2h-5v2h-2V14h2v1h-1v26V43z"/>
		<path class="st1" d="M27,51h-3v2h5v-2h-1H27z M38,51h-3v2h5v-2h-1H38z"/>
		<path class="st1" d="M35,49h-2v-1h-2v1h-2v2h6v-1V49z M25,11h2v-1h-4v1h1H25z M21,13h2v-1h-4v1h1H21z M45,44v5h-1v-1h-2v1h-2v2h5
			v2h2V14h-2v29V44z"/>
		<path class="st1" d="M37,8H27v1h5v1h5V9V8z M45,12h-4v2h4v-1V12z"/>
		<path class="st1" d="M41,10h-4v2h4v-1V10z"/>
	</g>
	<path class="st2" d="M44,14h-3v-2h-4v-2h-5V9h-5v2h-4v2h-4v2h-1v34h2v-1h2v1h2v2h5v-2h2v-1h2v1h2v2h5v-2h2v-1h2v1h1V14H44z"/>
</g>
<path class="st3" d="M21,32v2h2v-2h-1H21z M42,32h-1v2h2v-2H42z"/>
<g>
	<path class="st0" d="M29,32h-2v2h2v-1V32z"/>
	<path class="st0" d="M33,34h-4v2h6v-2h-1H33z"/>
	<path class="st0" d="M36,32h-1v2h2v-2H36z"/>
</g>
<g>
	<path class="st4" d="M25,58h-6v1h1v1h24v-1h1v-1h-1H25z"/>
</g>
<g>
	<path class="st5" d="M28,22h-1v-1h-1h-1h-1h-1v1h-1v1h-1v1v1v1v1h1v1h1v1h1h1h1h1v-1h1v-1h1v-1v-1v-1v-1h-1V22z"/>
	<path class="st5" d="M42,23v-1h-1v-1h-1h-1h-1h-1v1h-1v1h-1v1v1v1v1h1v1h1v1h1h1h1h1v-1h1v-1h1v-1v-1v-1v-1H42z"/>
</g>
<g>
	<path class="st0" d="M30,16h1v1h-1V16z M34,17h1v1h-1V17z"/>
	<path class="st0" d="M33,16h1v1h-1V16z M34,18h1v1h-1V18z"/>
	<path class="st0" d="M34,19h1v1h-1V19z"/>
	<path class="st0" d="M34,20h1v1h-1V20z M32,21h1v1h-1V21z"/>
	<path class="st0" d="M33,21h1v1h-1V21z M31,21h1v1h-1V21z"/>
	<path class="st0" d="M30,21h1v1h-1V21z"/>
	<path class="st0" d="M29,20h1v1h-1V20z"/>
	<path class="st0" d="M30,19h1v1h-1V19z"/>
	<path class="st0" d="M30,18h1v1h-1V18z"/>
	<path class="st0" d="M29,18h1v1h-1V18z M33,11h1v1h-1V11z M31,11h1v1h-1V11z"/>
	<path class="st0" d="M30,11h1v1h-1V11z M32,11h1v1h-1V11z M29,15h1v1h-1V15z M29,13h1v1h-1V13z"/>
	<path class="st0" d="M29,12h1v1h-1V12z M29,14h1v1h-1V14z M34,12h1v1h-1V12z M33,14h1v1h-1V14z"/>
	<path class="st0" d="M34,14h1v1h-1V14z"/>
	<path class="st0" d="M33,13h1v1h-1V13z M31.5,15h1v1h-1V15z"/>
	<path class="st0" d="M31.5,14h1v1h-1V14z"/>
	<path class="st0" d="M31.5,13h1v1h-1V13z M31.5,16h1v1h-1V16z M31.5,18h1v1h-1V18z"/>
	<path class="st0" d="M31.5,19h1v1h-1V19z M31.5,17h1v1h-1V17z"/>
</g>
<g>
	<path class="st6" d="M45,33v1h-2v1h-3v1h-3v1H27v-1h-3v-1h-3v-1h-2v-1h-4v19h34V33H45z"/>
	<g>
		<path class="st7" d="M33,42h1v1h-1V42z M31,45h2v1h-2V45z"/>
		<path class="st7" d="M33,44h1v1h-1V44z M30,44h1v1h-1V44z M30,42h1v1h-1V42z M37,37v1H27v-1h-3v14h16V37H37z M35,41v1h1v6h-1v-1
			h-1v1h-1v-1h-2v1h-1v-1h-1v1h-1v-6h1v-1h1v-1h4v1H35z"/>
	</g>
	<path class="st8" d="M35,42v-1h-1v-1h-4v1h-1v1h-1v6h1v-1h1v1h1v-1h2v1h1v-1h1v1h1v-6H35z M30,42h1v1h-1V42z M34,45h-1v1h-2v-1h-1
		v-1h1v1h2v-1h1V45z M34,43h-1v-1h1V43z"/>
	<path class="st9" d="M21,35v-1h-2v-1h-4v19h9V35H21z"/>
	<path class="st8" d="M21,36v-1h-2v-1h-4v6h1v11h8V36H21z"/>
	<path class="st10" d="M45,33v1h-2v1h-3v17h9V33H45z"/>
	<path class="st11" d="M45,34v1h-2v1h-3v15h8V40h1v-6H45z"/>
</g>
<g class="st12">
	<g class="st13">
		<path class="st0" d="M19,42h1v1h-1V42z M20,36h1v1h-1V36z"/>
		<path class="st0" d="M21,37h1v1h-1V37z M26,40v4h1v-4H26z M21,43h-1v1h2v-1H21z"/>
		<path class="st0" d="M24,44h-2v1h4v-1h-1H24z M25,39h-1v1h2v-1H25z"/>
		<path class="st0" d="M23,38h-1v1h2v-1H23z"/>
	</g>
	<g class="st13">
		<path class="st1" d="M19,43h1v1h-1V43z M24,45h-2v1h4v-1h-1H24z"/>
		<path class="st1" d="M27,41v3h1v-3H27z M21,44h-1v1h2v-1H21z"/>
		<path class="st1" d="M26,44h1v1h-1V44z M19,41h-1v2h1v-1V41z"/>
	</g>
	<g class="st13">
		<path class="st0" d="M44,42h1v1h-1V42z M43,36h1v1h-1V36z"/>
		<path class="st0" d="M42,37h1v1h-1V37z"/>
		<path class="st0" d="M42,39v-1h-2v1h1H42z M42,43v1h2v-1h-1H42z"/>
		<path class="st0" d="M40,44h-2v1h4v-1h-1H40z"/>
		<path class="st0" d="M38,42v-2h-1v4h1v-1V42z"/>
		<path class="st0" d="M40,40v-1h-2v1h1H40z"/>
	</g>
	<g class="st13">
		<path class="st1" d="M42,44v1h2v-1h-1H42z M37,42v-1h-1v3h1v-1V42z"/>
		<path class="st1" d="M40,45h-2v1h4v-1h-1H40z"/>
		<path class="st1" d="M37,44h1v1h-1V44z M44,43h1v1h-1V43z"/>
	</g>
</g>
<g>
	<g>
		<path class="st0" d="M14,40h1v1h-1V40z M13,34h1v1h-1V34z"/>
		<path class="st0" d="M14,33h1v1h-1V33z M12,35h1v1h-1V35z M7,38h1v4H7V38z M12,41h2v1h-2V41z"/>
		<path class="st0" d="M8,42h4v1H8V42z M8,37h2v1H8V37z"/>
		<path class="st0" d="M10,36h2v1h-2V36z"/>
	</g>
	<g>
		<path class="st1" d="M14,39h1v1h-1V39z"/>
		<path class="st1" d="M12,40h2v1h-2V40z"/>
		<path class="st1" d="M8,41h4v1H8V41z"/>
	</g>
	<path class="st2" d="M8,38v3h4v-1h2v-1h1v-5h-1v1h-1v1h-1v1h-2v1H8z"/>
	<g>
		<path class="st0" d="M49,40h1v1h-1V40z M50,34h1v1h-1V34z"/>
		<path class="st0" d="M49,33h1v1h-1V33z M51,35h1v1h-1V35z M56,38h1v4h-1V38z M50,41h2v1h-2V41z"/>
		<path class="st0" d="M52,42h4v1h-4V42z M54,37h2v1h-2V37z"/>
		<path class="st0" d="M52,36h2v1h-2V36z"/>
	</g>
	<g>
		<path class="st1" d="M49,39h1v1h-1V39z"/>
		<path class="st1" d="M50,40h2v1h-2V40z"/>
		<path class="st1" d="M52,41h4v1h-4V41z"/>
	</g>
	<path class="st2" d="M54,38v-1h-2v-1h-1v-1h-1v-1h-1v5h1v1h2v1h4v-3H54z"/>
</g>
<g class="st12">
	<g class="st13">
		<path class="st1" d="M50,38h1v1h-1V38z"/>
		<path class="st1" d="M49,39h1v1h-1V39z M51,37h1v1h-1V37z"/>
		<path class="st1" d="M52,36h2v1h-2V36z"/>
		<path class="st1" d="M54,35h2v1h-2V35z"/>
	</g>
	<path class="st14" d="M52,32v1h-2v1h-1v5h1v-1h1v-1h1v-1h2v-1h2v-3H52z"/>
	<g class="st13">
		<path class="st0" d="M49,33h1v1h-1V33z"/>
		<path class="st0" d="M50,32h2v1h-2V32z M50,39h1v1h-1V39z"/>
		<path class="st0" d="M49,40h1v1h-1V40z M51,38h1v1h-1V38z"/>
		<path class="st0" d="M52,37h2v1h-2V37z M52,31h4v1h-4V31z"/>
		<path class="st0" d="M56,32h1v4h-1V32z"/>
		<path class="st0" d="M54,36h2v1h-2V36z"/>
	</g>
	<g class="st13">
		<path class="st1" d="M13,38h1v1h-1V38z"/>
		<path class="st1" d="M14,39h1v1h-1V39z M12,37h1v1h-1V37z"/>
		<path class="st1" d="M10,36h2v1h-2V36z"/>
		<path class="st1" d="M8,35h2v1H8V35z"/>
	</g>
	<path class="st14" d="M8,32v3h2v1h2v1h1v1h1v1h1v-5h-1v-1h-2v-1H8z"/>
	<g class="st13">
		<path class="st0" d="M14,33h1v1h-1V33z"/>
		<path class="st0" d="M12,32h2v1h-2V32z M13,39h1v1h-1V39z"/>
		<path class="st0" d="M14,40h1v1h-1V40z M12,38h1v1h-1V38z"/>
		<path class="st0" d="M10,37h2v1h-2V37z M8,31h4v1H8V31z"/>
		<path class="st0" d="M7,32h1v4H7V32z"/>
		<path class="st0" d="M8,36h2v1H8V36z"/>
	</g>
</g>
<g>
	<path class="st15" d="M13,20h2v12h-2V20z M49,20h2v12h-2V20z M16,20h2v8h-2V20z M46,20h2v8h-2V20z"/>
	<path class="st16" d="M13,22h2v2h-2V22z M13,26h2v2h-2V26z M13,30h2v2h-2V30z M16,24h2v2h-2V24z M49,22h2v2h-2V22z M49,26h2v2h-2
		V26z M49,30h2v2h-2V30z M46,24h2v2h-2V24z"/>
	<path class="st17" d="M51,9V7h-2V5h-4V3H19v2h-4v2h-2v2h-2v11h2v2h38v-2h2V9H51z"/>
	<path class="st11" d="M49,9V7h-4V5H19v2h-4v2h-2v11h38V9H49z"/>
	<path class="st7" d="M11,9v11h2v2h38v-2h2V9H11z"/>
	<path class="st18" d="M11,15v5h2v2h38v-2h2v-5H11z"/>
	<path class="st6" d="M51,9h2v6h-2V9z M11,9h2v6h-2V9z"/>
	<g>
		<path class="st8" d="M13,20h38v2H13V20z"/>
		<path class="st8" d="M51,15h2v5h-2V15z M11,15h2v5h-2V15z"/>
	</g>
</g>
<g>
	<g class="st12">
		<path class="st19" d="M50,33v1h-1v8h1v-1h1v-1h1v-7H50z"/>
		<path class="st20" d="M50,41v-1h1v-6h-1v1h-1v6H50z"/>
	</g>
	<g>
		<path class="st10" d="M50,43v-1h-1v-8h1v1h1v1h1v7H50z"/>
		<path class="st11" d="M49,35v6h1v1h1v-6h-1v-1H49z"/>
	</g>
	<g class="st12">
		<path class="st21" d="M14,33v1h1v8h-1v-1h-1v-1h-1v-7H14z"/>
		<path class="st22" d="M15,41v-6h-1v-1h-1v6h1v1H15z"/>
	</g>
	<g>
		<path class="st9" d="M14,43v-1h1v-8h-1v1h-1v1h-1v7H14z"/>
		<path class="st8" d="M14,35v1h-1v6h1v-1h1v-6H14z"/>
	</g>
</g>
<g>
	<path class="st23" d="M12,36v-1h-1v-1h-1v-1H4v1H3v1H2v1H1v6h1v1h1v1h1v1h6v-1h1v-1h1v-1h1v-6H12z"/>
	<path class="st24" d="M1,39v2h12v-2H1z"/>
	<path class="st25" d="M1,37v2h12v-2H1z"/>
	<path class="st26" d="M1,41v1h1v1h10v-1h1v-1H1z"/>
	<path class="st27" d="M3,43v1h1v1h6v-1h1v-1H3z"/>
	<g>
		<path class="st2" d="M8.9,39.8h0.4v-0.6H8.9V39.8z"/>
		<path class="st2" d="M7.4,39.8v0.5h0.9v0.4h0.4v-0.4h0.2v-0.5H7.4z M7.8,39.2h1.1v-0.4H7.8V39.2z"/>
		<path class="st2" d="M7.4,38.2v0.6h0.4v-0.6H7.4z"/>
		<path class="st2" d="M8.7,37.7v-0.4H8.3v0.4H7.8v0.5h1.5v-0.5C9.3,37.7,8.7,37.7,8.7,37.7z M10.6,40.3H11v-2.1h0.9v-0.5H9.8v0.5
			h0.8C10.6,38.2,10.6,40.3,10.6,40.3z M6.6,37.7v1.1H5.5v-1.1H5.1v2.6h0.4v-1.1h1.1v1.1H7v-2.6C7,37.7,6.6,37.7,6.6,37.7z M3,37.7
			v0.5h1.7v-0.5H3z M4.7,39.8v-1H3.4v0.4h0.8v0.6H4.7z"/>
		<path class="st2" d="M3,40.3h1.2v-0.5H3V40.3z"/>
		<path class="st2" d="M2.6,38.2v1.6H3v-1.6H2.6z"/>
	</g>
</g>
</svg>
