<?xml version="1.0" encoding="utf-8"?>
<!-- Generator: Adobe Illustrator 25.3.1, SVG Export Plug-In . SVG Version: 6.00 Build 0)  -->
<svg version="1.1" id="Layer_1" xmlns="http://www.w3.org/2000/svg" xmlns:xlink="http://www.w3.org/1999/xlink" x="0px" y="0px"
	 viewBox="0 0 64 64" style="enable-background:new 0 0 64 64;" xml:space="preserve">
<style type="text/css">
	.st0{fill:#2664BA;}
	.st1{fill:#D4E0F1;}
	.st2{fill:#FFFFFF;}
	.st3{fill:#F696C6;}
	.st4{opacity:0.25;enable-background:new    ;}
	.st5{fill:#5D24BF;}
	.st6{fill:#4E4066;}
	.st7{fill:#EDEFF2;}
	.st8{fill:#A8AAAE;}
	.st9{display:none;}
	.st10{display:inline;}
	.st11{display:inline;fill:#FFFFFF;}
	.st12{fill:#C8C8C8;}
	.st13{fill:#C260FF;}
	.st14{fill:#757575;}
	.st15{fill:#33691E;}
	.st16{fill:#689F38;}
	.st17{fill:#558B2F;}
</style>
<g>
	<g>
		<path class="st0" d="M21,12h2v-2h-4v2h1H21z"/>
		<path class="st0" d="M19,14v-2h-2v2h1H19z M25,10h2V8h-4v2h1H25z"/>
		<path class="st0" d="M29,8h8V6H27v2h1H29z M45,14h2v-2h-2v1V14z"/>
		<path class="st0" d="M48,14h-1v39h-2v2h4V14H48z M37,10h4V8h-4v1V10z"/>
		<path class="st0" d="M41,12h4v-2h-4v1V12z M17,53V14h-2v41h4v-2h-1H17z"/>
		<path class="st0" d="M24,51h-5v2h5v-1V51z"/>
		<path class="st0" d="M27,53h-3v2h5v-2h-1H27z M45,51h-5v2h5v-1V51z"/>
		<path class="st0" d="M35,51h-6v2h6v-1V51z"/>
		<path class="st0" d="M38,53h-3v2h5v-2h-1H38z"/>
	</g>
	<g>
		<path class="st1" d="M18,43v6h2v-1h2v1h2v2h-5v2h-2V14h2v1h-1v26V43z"/>
		<path class="st1" d="M27,51h-3v2h5v-2h-1H27z M38,51h-3v2h5v-2h-1H38z"/>
		<path class="st1" d="M35,49h-2v-1h-2v1h-2v2h6v-1V49z M25,11h2v-1h-4v1h1H25z M21,13h2v-1h-4v1h1H21z M45,44v5h-1v-1h-2v1h-2v2h5
			v2h2V14h-2v29V44z"/>
		<path class="st1" d="M37,8H27v1h5v1h5V9V8z M45,12h-4v2h4v-1V12z"/>
		<path class="st1" d="M41,10h-4v2h4v-1V10z"/>
	</g>
	<path class="st2" d="M44,14h-3v-2h-4v-2h-5V9h-5v2h-4v2h-4v2h-1v34h2v-1h2v1h2v2h5v-2h2v-1h2v1h2v2h5v-2h2v-1h2v1h1V14H44z"/>
</g>
<path class="st3" d="M21,32v2h2v-2h-1H21z M42,32h-1v2h2v-2H42z"/>
<g>
	<path class="st0" d="M29,32h-2v2h2v-1V32z"/>
	<path class="st0" d="M33,34h-4v2h6v-2h-1H33z"/>
	<path class="st0" d="M36,32h-1v2h2v-2H36z"/>
</g>
<g>
	<path class="st4" d="M25,58h-6v1h1v1h24v-1h1v-1h-1H25z"/>
</g>
<g>
	<rect x="21" y="23" class="st0" width="8" height="1"/>
	<rect x="24" y="24" class="st5" width="2" height="2"/>
	<rect x="35" y="23" class="st0" width="8" height="1"/>
	<rect x="38" y="24" class="st5" width="2" height="2"/>
	<rect x="37" y="24" class="st5" width="4" height="1"/>
	<rect x="23" y="24" class="st5" width="4" height="1"/>
</g>
<g>
	<path class="st0" d="M30,15v2h3v1h-3v1h1.5v1h1v-1H34v-3h-3v-1h3v-1h-1.5v-1h-1v1H30V15z M34,20h1v1h-1V20z"/>
	<path class="st0" d="M35,19h1v1h-1V19z"/>
	<path class="st0" d="M36,16v3h1v-5h-1v1V16z M34,12h1v1h-1V12z"/>
	<path class="st0" d="M35,13h1v1h-1V13z M28,18v-4h-1v5h1V18z M29,20h1v1h-1V20z"/>
	<path class="st0" d="M28,19h1v1h-1V19z M29,12h1v1h-1V12z"/>
	<path class="st0" d="M28,13h1v1h-1V13z"/>
</g>
<g>
	<path d="M15,41v14h4v-2h5v2h5v-2h6v2h5v-2h5v2h4V41H15z"/>
	<g>
		<path class="st6" d="M45,44H34v4h-1v1h-1v2h3v2h5v-2h5v2h3v-5h-2v-1h-1V44z M19,44v3h-1v1h-2v5h3v-2h5v2h5v-2h2v-7H19z"/>
		<path class="st6" d="M16,44h2v3h-2V44z M32,44h1v4h-1V44z M46,44h2v3h-2V44z"/>
	</g>
	<g>
		<path class="st7" d="M32,47h1v1h-1V47z M26,51v-3h-3v-1h-1v-1h-1v-1h-1v1h-1v1h1v1h-1v1h3v2h1v-1h2v1H26z M17,50h-1v3h2v-2h-1V50z
			 M29,50h-1v2h-2v1h3v-2h2v-2h-2V50z M34,47h1v1h-1V47z M45,51h2v2h-2V51z M27,46h2v1h-2V46z M47,46h1v1h-1V46z"/>
		<path class="st7" d="M33,49h-1v2h2v-3h-1V49z M44,47h2v1h-2V47z M38,46h-1v1h2v-2h3v-1h-4V46z M41,47h-1v1h-3v1h2v2h2v-3h1v-2h-1
			V47z"/>
	</g>
	<g>
		<path class="st8" d="M17,48h-1v2h1v1h1v-2h-1V48z M30,45h-2v1h1v1h-2v-1h-1v-1h-2v1h-1v2h3v1h2v-1h1v1h2v-2h-1V45z M16,46h2v1h-2
			V46z M23,50h2v1h-2V50z M44,47h1v-1h-1v-1h1v-1h-2v2h-1v2h2V47z M41,50h4v1h-4V50z M41,46h-1v-1h-1v2h-2v-1h1v-2h-3v1h-1v1h2v3h1
			v-1h3v-1h1V46z M19,44h1v1h-1V44z"/>
		<path class="st8" d="M41,48h1v1h-1V48z M38,51v1h1v-3h-2v2H38z M34,49h1v2h-1V49z M46,48v1h-1v1h2v-1h1v-1H46z M35,52h2v1h-2V52z"
			/>
	</g>
	<path class="st7" d="M31,43v-1h-6v1H31z M39,43v-1h-5v1H39z M24,43v-1h-8v1H24z M48,43v-1h-8v1H48z"/>
	<path class="st8" d="M32,42h1v1h-1V42z"/>
</g>
<g class="st9">
	<g class="st10">
		<path class="st0" d="M19,42h1v1h-1V42z M20,36h1v1h-1V36z"/>
		<path class="st0" d="M21,37h1v1h-1V37z M26,40v4h1v-4H26z M21,43h-1v1h2v-1H21z"/>
		<path class="st0" d="M24,44h-2v1h4v-1h-1H24z M25,39h-1v1h2v-1H25z"/>
		<path class="st0" d="M23,38h-1v1h2v-1H23z"/>
	</g>
	<g class="st10">
		<path class="st1" d="M19,43h1v1h-1V43z M24,45h-2v1h4v-1h-1H24z"/>
		<path class="st1" d="M27,41v3h1v-3H27z M21,44h-1v1h2v-1H21z"/>
		<path class="st1" d="M26,44h1v1h-1V44z M19,41h-1v2h1v-1V41z"/>
	</g>
	<g class="st10">
		<path class="st0" d="M44,42h1v1h-1V42z M43,36h1v1h-1V36z"/>
		<path class="st0" d="M42,37h1v1h-1V37z"/>
		<path class="st0" d="M42,39v-1h-2v1h1H42z M42,43v1h2v-1h-1H42z"/>
		<path class="st0" d="M40,44h-2v1h4v-1h-1H40z"/>
		<path class="st0" d="M38,42v-2h-1v4h1v-1V42z"/>
		<path class="st0" d="M40,40v-1h-2v1h1H40z"/>
	</g>
	<g class="st10">
		<path class="st1" d="M42,44v1h2v-1h-1H42z M37,42v-1h-1v3h1v-1V42z"/>
		<path class="st1" d="M40,45h-2v1h4v-1h-1H40z"/>
		<path class="st1" d="M37,44h1v1h-1V44z M44,43h1v1h-1V43z"/>
	</g>
</g>
<g>
	<g>
		<path class="st0" d="M14,40h1v1h-1V40z M13,34h1v1h-1V34z"/>
		<path class="st0" d="M14,33h1v1h-1V33z M12,35h1v1h-1V35z M7,38h1v4H7V38z M12,41h2v1h-2V41z"/>
		<path class="st0" d="M8,42h4v1H8V42z M8,37h2v1H8V37z"/>
		<path class="st0" d="M10,36h2v1h-2V36z"/>
	</g>
	<g>
		<path class="st1" d="M14,39h1v1h-1V39z"/>
		<path class="st1" d="M12,40h2v1h-2V40z"/>
		<path class="st1" d="M8,41h4v1H8V41z"/>
	</g>
	<path class="st2" d="M8,38v3h4v-1h2v-1h1v-5h-1v1h-1v1h-1v1h-2v1H8z"/>
	<g>
		<path class="st0" d="M49,40h1v1h-1V40z M50,34h1v1h-1V34z"/>
		<path class="st0" d="M49,33h1v1h-1V33z M51,35h1v1h-1V35z M56,38h1v4h-1V38z M50,41h2v1h-2V41z"/>
		<path class="st0" d="M52,42h4v1h-4V42z M54,37h2v1h-2V37z"/>
		<path class="st0" d="M52,36h2v1h-2V36z"/>
	</g>
	<g>
		<path class="st1" d="M49,39h1v1h-1V39z"/>
		<path class="st1" d="M50,40h2v1h-2V40z"/>
		<path class="st1" d="M52,41h4v1h-4V41z"/>
	</g>
	<path class="st2" d="M54,38v-1h-2v-1h-1v-1h-1v-1h-1v5h1v1h2v1h4v-3H54z"/>
</g>
<g class="st9">
	<g class="st10">
		<path class="st1" d="M50,38h1v1h-1V38z"/>
		<path class="st1" d="M49,39h1v1h-1V39z M51,37h1v1h-1V37z"/>
		<path class="st1" d="M52,36h2v1h-2V36z"/>
		<path class="st1" d="M54,35h2v1h-2V35z"/>
	</g>
	<path class="st11" d="M52,32v1h-2v1h-1v5h1v-1h1v-1h1v-1h2v-1h2v-3H52z"/>
	<g class="st10">
		<path class="st0" d="M49,33h1v1h-1V33z"/>
		<path class="st0" d="M50,32h2v1h-2V32z M50,39h1v1h-1V39z"/>
		<path class="st0" d="M49,40h1v1h-1V40z M51,38h1v1h-1V38z"/>
		<path class="st0" d="M52,37h2v1h-2V37z M52,31h4v1h-4V31z"/>
		<path class="st0" d="M56,32h1v4h-1V32z"/>
		<path class="st0" d="M54,36h2v1h-2V36z"/>
	</g>
	<g class="st10">
		<path class="st1" d="M13,38h1v1h-1V38z"/>
		<path class="st1" d="M14,39h1v1h-1V39z M12,37h1v1h-1V37z"/>
		<path class="st1" d="M10,36h2v1h-2V36z"/>
		<path class="st1" d="M8,35h2v1H8V35z"/>
	</g>
	<path class="st11" d="M8,32v3h2v1h2v1h1v1h1v1h1v-5h-1v-1h-2v-1H8z"/>
	<g class="st10">
		<path class="st0" d="M14,33h1v1h-1V33z"/>
		<path class="st0" d="M12,32h2v1h-2V32z M13,39h1v1h-1V39z"/>
		<path class="st0" d="M14,40h1v1h-1V40z M12,38h1v1h-1V38z"/>
		<path class="st0" d="M10,37h2v1h-2V37z M8,31h4v1H8V31z"/>
		<path class="st0" d="M7,32h1v4H7V32z"/>
		<path class="st0" d="M8,36h2v1H8V36z"/>
	</g>
</g>
<g>
	<path d="M17.1,29.9v-2h-2v-3.8h2v-2h29.8v2h2v3.8h-2v2H17.1z"/>
	<path class="st12" d="M46.8,22.2v2h2v3.5h-2v2.1H17.2v-2h-2v-3.6h2v-2H46.8 M47,22H17v2h-2v4h2v2h30v-2h2v-4h-2V22z"/>
	<path d="M17,24h30v4H17V24z"/>
	<path class="st13" d="M41,24v4h2v-4H41z"/>
	<g>
		<path class="st12" d="M17,22h30v2H17V22z"/>
		<path class="st12" d="M15,24h2v4h-2V24z M47,24h2v4h-2V24z"/>
		<path class="st12" d="M17,28h30v2H17V28z"/>
	</g>
</g>
<g>
	<path d="M47,7V5h-2V4h-2V2H21v2h-2v1h-2v2h-2v9h1v1h1v1h1v1h1v1h1v1h3v1h18v-1h3v-1h1v-1h1v-1h1v-1h1v-1h1V7H47z"/>
	<path class="st6" d="M16,16h1v1h1v1h1v1h1v1h3v1h18v-1h3v-1h1v-1h1v-1h1v-1h1v-2H16V16z M47,8V7h-1V6h-1V5h-2V4h-1V3H22v1h-1v1h-2
		v1h-1v1h-1v1h-1v5h32V8H47z"/>
	<g>
		<path class="st8" d="M17,7h2v1h-2V7z M33,10V8h-2V6h-2v1h1v1h-2V7h-1V6h-1V4h-2v1h1v2h-1v2h3v1h2V9h1v1H33z"/>
		<path class="st8" d="M25,12h1v-1h-2v2h1V12z M18,11v1h1v-2h-1V9h-1V8h-1v2h1v1H18z M43,9h2V8h1V7h-1V5h-1v2h-1V9z M42,7h-1V6h-1v2
			h-2V7h1V5h1V3h-2v2h-2v1h-2v1h3v3h1V9h3V8h1V7z M42,11h4v1h-4V11z"/>
		<path class="st8" d="M47,8v2h-1v1h2V8H47z M42,9h1v1h-1V9z M39,12v1h1v-3h-2v2H39z M35,10h1v2h-1V10z M19,5h2v1h-2V5z M42,4h1v1
			h-1V4z M35,3h1v2h-1V3z M36,15h-2v-1h-1v1h-2v2h3v-1h1v1h2v-1h3v-2h-4V15z M45,14h2v1h-2V14z M38,19h1v2h1v-3h-2V19z M45,17h1v1
			h-1V17z"/>
		<path class="st8" d="M46,16h1v1h-1V16z M18,14v1h1v1h2v-2H18z M16,15h1v1h-1V15z M19,18h3v1h-3V18z"/>
		<path class="st8" d="M21,16h1v1h-1V16z M26,17h-2v4h1v-2h1V17z"/>
		<path class="st8" d="M27,14h-1v1h-2v-1h-2v1h1v1h3v1h1V14z M26,20h2v1h-2V20z M28,17h1v2h-1V17z M47,15h1v1h-1V15z"/>
	</g>
	<path class="st7" d="M28,7h2v1h-2V7z M24,8h-1V7h-1V6h-1v1h-2v1h2v1h-1v1h3v3h1v-2h2v1h1V9h-3V8z M18,11h-1v2h2v-1h-1V11z M40,6h3
		V5h-1V3h-2v2h-1v2h-1v1h2V6z M46,12h2v1h-2V12z M40,12h2V9h1V7h-1v1h-1v1h-3v1h2V12z M35,10h-5v1h-1v2h3v-1h3V10z M45,8h2v1h-2V8z
		 M33,7h1V5h1V3h-5v1h-1v1h4V7z M23,5h1V4h2v1h1V3h-4V5z M34,14h2v1h-2V14z M35,18h-1v-1h-5v2h3v2h5v-1h-2V18z M24,14h2v1h-2V14z
		 M23,15h-1v-1h-1v2h1v3h2v-2h2v-1h-3V15z M41,15h-1v1h-3v3h1v-1h2v3h1v-4h3v-1h-1v-1h2v-1h-4V15z M17,15h2v1h-2V15z M47,14h1v1h-1
		V14z"/>
</g>
<g>
	<path d="M12,34v-1h-1v-1h-1v-1H6v1h1v1h3v1h1v1h1v3h1v-4H12z"/>
	<path class="st14" d="M8,32h1v1H8V32z"/>
	<path class="st15" d="M10,36v-2H9v-1H7v1H6v2H5v3h1v2h1v1h2v-1h1v-2h1v-3H10z"/>
	<path class="st16" d="M9,36v-2H7v2H6v3h1v2h2v-2h1v-3H9z"/>
	<path class="st17" d="M10,37v-1H9v-2H8v2H6v1h2v1H6v1h2v1h1v-1h1v-1H9v-1H10z"/>
</g>
<g>
	<g transform="scale(-1, 1) translate(-54, 0)">
		<path d="M2,34v-1H1v-1H0v-1h-4v1h1v1h3v1h1v1h1v3h1v-4H2z"/>
		<path class="st14" d="M-2,32h1v1h-1V32z"/>
		<path class="st15" d="M0,36v-2h-1v-1h-2v1h-1v2h-1v3h1v2h1v1h2v-1h1v-2h1v-3H0z"/>
		<path class="st16" d="M-1,36v-2h-2v2h-1v3h1v2h2v-2h1v-3H-1z"/>
		<path class="st17" d="M0,37v-1h-1v-2h-1v2h-2v1h2v1h-2v1h2v1h1v-1h1v-1h-1v-1H0z"/>
	</g>
</g>
</svg>
