<?xml version="1.0" encoding="utf-8"?>
<!-- Generator: Adobe Illustrator 25.3.1, SVG Export Plug-In . SVG Version: 6.00 Build 0)  -->
<svg version="1.1" id="Layer_1" xmlns="http://www.w3.org/2000/svg" xmlns:xlink="http://www.w3.org/1999/xlink" x="0px" y="0px"
	 viewBox="0 0 64 64" style="enable-background:new 0 0 64 64;" xml:space="preserve">
<style type="text/css">
	.st0{fill:#64438E;}
	.st1{fill:#EDD3FD;}
	.st2{fill:#FFFFFF;}
	.st3{fill:#F696C6;}
	.st4{opacity:0.25;enable-background:new    ;}
	.st5{fill:#0064FF;}
	.st6{fill:#C260FF;}
	.st7{fill:#DEA8FF;}
	.st8{fill:#006400;}
	.st9{fill:#00AF00;}
	.st10{display:none;}
	.st11{display:inline;}
	.st12{display:inline;fill:#FFFFFF;}
	.st13{fill:#B464ED;}
	.st14{fill:#947DB0;}
	.st15{fill:#B132FF;}
	.st16{fill:#D596FB;}
	.st17{fill:#FFE600;}
	.st18{fill:#FFC03C;}
	.st19{fill:#007300;}
	.st20{fill:#00FF50;}
	.st21{fill:#FF0000;}
</style>
<g>
	<g>
		<path class="st0" d="M21,12h2v-2h-4v2h1H21z"/>
		<path class="st0" d="M19,14v-2h-2v2h1H19z M25,10h2V8h-4v2h1H25z"/>
		<path class="st0" d="M29,8h8V6H27v2h1H29z M45,14h2v-2h-2v1V14z"/>
		<path class="st0" d="M48,14h-1v39h-2v2h4V14H48z M37,10h4V8h-4v1V10z"/>
		<path class="st0" d="M41,12h4v-2h-4v1V12z M17,53V14h-2v41h4v-2h-1H17z"/>
		<path class="st0" d="M24,51h-5v2h5v-1V51z"/>
		<path class="st0" d="M27,53h-3v2h5v-2h-1H27z M45,51h-5v2h5v-1V51z"/>
		<path class="st0" d="M35,51h-6v2h6v-1V51z"/>
		<path class="st0" d="M38,53h-3v2h5v-2h-1H38z"/>
	</g>
	<g>
		<path class="st1" d="M18,43v6h2v-1h2v1h2v2h-5v2h-2V14h2v1h-1v26V43z"/>
		<path class="st1" d="M27,51h-3v2h5v-2h-1H27z M38,51h-3v2h5v-2h-1H38z"/>
		<path class="st1" d="M35,49h-2v-1h-2v1h-2v2h6v-1V49z M25,11h2v-1h-4v1h1H25z M21,13h2v-1h-4v1h1H21z M45,44v5h-1v-1h-2v1h-2v2h5
			v2h2V14h-2v29V44z"/>
		<path class="st1" d="M37,8H27v1h5v1h5V9V8z M45,12h-4v2h4v-1V12z"/>
		<path class="st1" d="M41,10h-4v2h4v-1V10z"/>
	</g>
	<path class="st2" d="M44,14h-3v-2h-4v-2h-5V9h-5v2h-4v2h-4v2h-1v34h2v-1h2v1h2v2h5v-2h2v-1h2v1h2v2h5v-2h2v-1h2v1h1V14H44z"/>
</g>
<path class="st3" d="M21,32v2h2v-2h-1H21z M42,32h-1v2h2v-2H42z"/>
<g>
	<path class="st0" d="M29,32h-2v2h2v-1V32z"/>
	<path class="st0" d="M33,34h-4v2h6v-2h-1H33z"/>
	<path class="st0" d="M36,32h-1v2h2v-2H36z"/>
</g>
<g>
	<path class="st4" d="M25,58h-6v1h1v1h24v-1h1v-1h-1H25z"/>
</g>
<g>
	<path class="st0" d="M27,23h-1h-1h-1h-1h-1h-1v1v1v1h1h1h1h1h1h1h1h1v-1v-1v-1h-1H27z M23,25h-1v-1h1h1v1H23z M28,25h-1h-1v-1h1h1
		V25z"/>
	<rect x="24" y="24" class="st5" width="2" height="1"/>
	<path class="st0" d="M42,23h-1h-1h-1h-1h-1h-1h-1v1v1v1h1h1h1h1h1h1h1h1v-1v-1v-1H42z M37,25h-1v-1h1h1v1H37z M42,25h-1h-1v-1h1h1
		V25z"/>
	<rect x="38" y="24" class="st5" width="2" height="1"/>
</g>
<g>
	<g>
		<path class="st0" d="M29,17v-2h-1v4h1v-1V17z"/>
		<path class="st0" d="M29,14h1v1h-1V14z M29,19h1v1h-1V19z"/>
		<path class="st0" d="M30,20h1v1h-1V20z"/>
		<path class="st0" d="M31,21v1h2v-1h-1H31z M30,13h1v1h-1V13z M34,19h1v1h-1V19z M34,14h1v1h-1V14z"/>
		<path class="st0" d="M33,13v-1h-2v1h1H33z M33,20h1v1h-1V20z"/>
		<path class="st0" d="M33,13h1v1h-1V13z M35,15v4h1v-4H35z"/>
	</g>
	<path class="st6" d="M34,17h-2v4h1v-1h1v-1h1v-2H34z"/>
	<g>
		<path class="st7" d="M30,17h-1v2h1v1h1v1h1v-4h-1H30z"/>
		<path class="st7" d="M34,15v-1h-1v-1h-1v4h3v-2H34z"/>
	</g>
	<path class="st1" d="M31,17h1v-4h-1v1h-1v1h-1v2h1H31z"/>
</g>
<g>
	<path class="st8" d="M15,41v14h4v-2h5v2h5v-2h6v2h5v-2h5v2h4V41H15z"/>
	<path class="st9" d="M33,42h1v1h-1V42z M24,42h1v1h-1V42z M39,42h1v1h-1V42z M16,44v9h3v-2h5v2h5v-2h6v2h5v-2h5v2h3v-9H16z M30,42
		h1v1h-1V42z M28,42h1v1h-1V42z M35,42h1v1h-1V42z M37,42h1v1h-1V42z M26,42h1v1h-1V42z M20,42h1v1h-1V42z M18,42h1v1h-1V42z M22,42
		h1v1h-1V42z M16,42h1v1h-1V42z M43,42h1v1h-1V42z M41,42h1v1h-1V42z M47,42h1v1h-1V42z M45,42h1v1h-1V42z"/>
	<g>
		<path class="st2" d="M30,43h1v1h-1V43z M33,43h1v1h-1V43z"/>
		<path class="st2" d="M29,44h1v1h-1V44z M34,44h1v1h-1V44z M31,42v1h2v-1H31z"/>
	</g>
</g>
<g class="st10">
	<g class="st11">
		<path class="st0" d="M19,42h1v1h-1V42z M20,36h1v1h-1V36z"/>
		<path class="st0" d="M21,37h1v1h-1V37z M26,40v4h1v-4H26z M21,43h-1v1h2v-1H21z"/>
		<path class="st0" d="M24,44h-2v1h4v-1h-1H24z M25,39h-1v1h2v-1H25z"/>
		<path class="st0" d="M23,38h-1v1h2v-1H23z"/>
	</g>
	<g class="st11">
		<path class="st1" d="M19,43h1v1h-1V43z M24,45h-2v1h4v-1h-1H24z"/>
		<path class="st1" d="M27,41v3h1v-3H27z M21,44h-1v1h2v-1H21z"/>
		<path class="st1" d="M26,44h1v1h-1V44z M19,41h-1v2h1v-1V41z"/>
	</g>
	<g class="st11">
		<path class="st0" d="M44,42h1v1h-1V42z M43,36h1v1h-1V36z"/>
		<path class="st0" d="M42,37h1v1h-1V37z"/>
		<path class="st0" d="M42,39v-1h-2v1h1H42z M42,43v1h2v-1h-1H42z"/>
		<path class="st0" d="M40,44h-2v1h4v-1h-1H40z"/>
		<path class="st0" d="M38,42v-2h-1v4h1v-1V42z"/>
		<path class="st0" d="M40,40v-1h-2v1h1H40z"/>
	</g>
	<g class="st11">
		<path class="st1" d="M42,44v1h2v-1h-1H42z M37,42v-1h-1v3h1v-1V42z"/>
		<path class="st1" d="M40,45h-2v1h4v-1h-1H40z"/>
		<path class="st1" d="M37,44h1v1h-1V44z M44,43h1v1h-1V43z"/>
	</g>
</g>
<g>
	<g>
		<path class="st0" d="M14,40h1v1h-1V40z M13,34h1v1h-1V34z"/>
		<path class="st0" d="M14,33h1v1h-1V33z M12,35h1v1h-1V35z M7,38h1v4H7V38z M12,41h2v1h-2V41z"/>
		<path class="st0" d="M8,42h4v1H8V42z M8,37h2v1H8V37z"/>
		<path class="st0" d="M10,36h2v1h-2V36z"/>
	</g>
	<g>
		<path class="st1" d="M14,39h1v1h-1V39z"/>
		<path class="st1" d="M12,40h2v1h-2V40z"/>
		<path class="st1" d="M8,41h4v1H8V41z"/>
	</g>
	<path class="st2" d="M8,38v3h4v-1h2v-1h1v-5h-1v1h-1v1h-1v1h-2v1H8z"/>
	<g>
		<path class="st0" d="M49,40h1v1h-1V40z M50,34h1v1h-1V34z"/>
		<path class="st0" d="M49,33h1v1h-1V33z M51,35h1v1h-1V35z M56,38h1v4h-1V38z M50,41h2v1h-2V41z"/>
		<path class="st0" d="M52,42h4v1h-4V42z M54,37h2v1h-2V37z"/>
		<path class="st0" d="M52,36h2v1h-2V36z"/>
	</g>
	<g>
		<path class="st1" d="M49,39h1v1h-1V39z"/>
		<path class="st1" d="M50,40h2v1h-2V40z"/>
		<path class="st1" d="M52,41h4v1h-4V41z"/>
	</g>
	<path class="st2" d="M54,38v-1h-2v-1h-1v-1h-1v-1h-1v5h1v1h2v1h4v-3H54z"/>
</g>
<g class="st10">
	<g class="st11">
		<path class="st1" d="M50,38h1v1h-1V38z"/>
		<path class="st1" d="M49,39h1v1h-1V39z M51,37h1v1h-1V37z"/>
		<path class="st1" d="M52,36h2v1h-2V36z"/>
		<path class="st1" d="M54,35h2v1h-2V35z"/>
	</g>
	<path class="st12" d="M52,32v1h-2v1h-1v5h1v-1h1v-1h1v-1h2v-1h2v-3H52z"/>
	<g class="st11">
		<path class="st0" d="M49,33h1v1h-1V33z"/>
		<path class="st0" d="M50,32h2v1h-2V32z M50,39h1v1h-1V39z"/>
		<path class="st0" d="M49,40h1v1h-1V40z M51,38h1v1h-1V38z"/>
		<path class="st0" d="M52,37h2v1h-2V37z M52,31h4v1h-4V31z"/>
		<path class="st0" d="M56,32h1v4h-1V32z"/>
		<path class="st0" d="M54,36h2v1h-2V36z"/>
	</g>
	<g class="st11">
		<path class="st1" d="M13,38h1v1h-1V38z"/>
		<path class="st1" d="M14,39h1v1h-1V39z M12,37h1v1h-1V37z"/>
		<path class="st1" d="M10,36h2v1h-2V36z"/>
		<path class="st1" d="M8,35h2v1H8V35z"/>
	</g>
	<path class="st12" d="M8,32v3h2v1h2v1h1v1h1v1h1v-5h-1v-1h-2v-1H8z"/>
	<g class="st11">
		<path class="st0" d="M14,33h1v1h-1V33z"/>
		<path class="st0" d="M12,32h2v1h-2V32z M13,39h1v1h-1V39z"/>
		<path class="st0" d="M14,40h1v1h-1V40z M12,38h1v1h-1V38z"/>
		<path class="st0" d="M10,37h2v1h-2V37z M8,31h4v1H8V31z"/>
		<path class="st0" d="M7,32h1v4H7V32z"/>
		<path class="st0" d="M8,36h2v1H8V36z"/>
	</g>
</g>
<g>
	<path class="st0" d="M14,20h-1v-2H9v6h2v4h2v2h2V20H14z"/>
	<path class="st13" d="M14,22h-1v-2h-2v4h2v4h2v-6H14z"/>
	<g>
		<path class="st1" d="M13,22h-2v2h2v-1V22z"/>
		<path class="st1" d="M14,24h-1v4h2v-4H14z"/>
	</g>
	<path class="st0" d="M50,20h1v-2h4v6h-2v4h-2v2h-2V20H50z"/>
	<path class="st13" d="M50,22h1v-2h2v4h-2v4h-2v-6H50z"/>
	<g>
		<path class="st1" d="M51,22h2v2h-2v-1V22z"/>
		<path class="st1" d="M50,24h1v4h-2v-4H50z"/>
	</g>
</g>
<g>
	<path class="st0" d="M53,14v-4h-2V8h-2V6h-2V4h-2V2h-4V0H29v2h-4v2h-2v2h-2v2h-2v2h-2v4h-2v4h-2v2h-2v2h42v-2h-2v-2h-2v-4h-2v-2h-2
		v-2h4v2h2v2H53z"/>
	<path class="st14" d="M15,18v2h34v-2H15z M47,16v-2h-4v-2h-2v-2h2V8h4V6h-2V4h-4V2H29v2h-4v2h-2v2h-2v2h-2v4h-2v2H47z"/>
	<path class="st1" d="M31,16h2v2h-2V16z"/>
	<g>
		<path class="st7" d="M31,17h1v1h-1V17z"/>
		<path class="st7" d="M32,16h1v1h-1V16z"/>
	</g>
	<path class="st6" d="M32,17h1v1h-1V17z"/>
	<path class="st0" d="M35,8V7h-1V6h-1V5h-2v1h-1v1h-1v1h-1v4h1v1h1v1h1v1h2v-1h1v-1h1v-1h1V8H35z"/>
	<g>
		<path class="st7" d="M29,10v2h1v1h1v1h1v-4H29z"/>
		<path class="st7" d="M34,8V7h-1V6h-1v4h3V8H34z"/>
	</g>
	<path class="st6" d="M32,10v4h1v-1h1v-1h1v-2H32z"/>
	<path class="st1" d="M31,6v1h-1v1h-1v2h3V6H31z"/>
</g>
<g>
	<path d="M11,35v-1h1v-1h1v-1h-1v-1h-1v-1h-1v-1H8v1H7v1H6v1H5v1h1v1h1v1h1v1H7v1H6v1H5v3h1v1h1v1h4v-1h1v-1h1v-3h-1v-1h-1v-1h-1v-1
		H11z M11,42H7v-1H6v-3h1v-1h4v1h1v3h-1V42z"/>
	<path class="st15" d="M11,32v-1h-1v-1H8v1H7v1H6v1h1v1h1v1h2v-1h1v-1h1v-1H11z"/>
	<path class="st6" d="M8,30v1H7v1H6v1h3v-3H8z"/>
	<path class="st1" d="M11,32v-1h-1v-1H9v3h3v-1H11z"/>
	<path class="st16" d="M10,33H9v2h1v-1h1v-1H10z"/>
	<g>
		<path class="st17" d="M7,39v-1H6v3h1v-1V39z"/>
		<path class="st17" d="M9,38h2v-1H7v1h1H9z"/>
		<path class="st17" d="M11,38v3h1v-3H11z"/>
		<path class="st17" d="M9,41H7v1h4v-1h-1H9z"/>
	</g>
	<g>
		<path class="st18" d="M7,39v-1H6v3h1v-1V39z"/>
		<path class="st18" d="M9,38v-1H7v1h1H9z M8,42h1v-1H7v1H8z"/>
	</g>
</g>
<g>
	<g transform="scale(-1, 1) translate(-58, 0)">
		<g>
			<path class="st19" d="M1,31v3h-4v10h7V34H2v-3H1z"/>
			<path class="st19" d="M2,30h3v1H2V30z"/>
		</g>
		<path class="st20" d="M-2,35v8h5v-8H-2z"/>
		<path class="st21" d="M-1,37v3h3v-3H-1z"/>
	</g>
</g>
</svg>
