<svg xmlns="http://www.w3.org/2000/svg" viewBox="0 0 64 64"><path d="M44,58H19v1h1v1h24v-1h1v-1H44z" opacity=".25" enable-background="new"/><path d="M47 14v-2h-2v-2h-4V8h-4V6H27v2h-4v2h-4v2h-2v2h-2v41h4v-2h5v2h5v-2h6v2h5v-2h5v2h4V14z" fill="#64438e"/><path d="M45 14v-2h-4v-2h-4V8H27v2h-4v2h-4v2h-2v39h2v-2h5v2h5v-2h6v2h5v-2h5v2h2V14z" fill="#edd3fd"/><path d="M18,49h2v-1h2v1h2v2h5v-2h2v-1h2v1h2v2h5v-2h2v-1h2v1h1V14h-4v-2h-4v-2h-5V9h-5v2h-4v2h-4v2h-1V49z" fill="#fff"/><path d="M23 28v2h4v-2h2v-4h-2v-2h-4v2h-2v4h2zm12-4v4h2v2h4v-2h2v-4h-2v-2h-4v2h-2z" fill="#64438e"/><path d="M21 32v2h2v-2h-2zm20 0v2h2v-2h-2z" fill="#f696c6"/><g fill="#64438e"><path d="M29,32h-2v2h2V32z"/><path d="M29,34v2h6v-2H29z"/><path d="M35 32v2h2v-2h-2zm0-17v-1h-1v-1h-1v-1h-2v1h-1v1h-1v1h-1v4h1v1h1v1h1v1h2v-1h1v-1h1v-1h1v-4z"/></g><g fill="#dea8ff"><path d="M29,17v2h1v1h1v1h1v-4H29z"/><path d="M34,15v-1h-1v-1h-1v4h3v-2H34z"/></g><path d="M32,17v4h1v-1h1v-1h1v-2H32z" fill="#c260ff"/><path d="M31,13v1h-1v1h-1v2h3v-4H31z" fill="#edd3fd"/><path d="M8 38v-1h2v-1h2v-1h1v-1h1v-1h1v8h-1v1h-2v1H8v-1H7v-4z" fill="#64438e"/><path d="M10 38v-1h2v-1h1v-1h1v-1h1v6h-1v1h-2v1H8v-4z" fill="#edd3fd"/><path d="M8,38v3h4v-1h2v-1h1v-5h-1v1h-1v1h-1v1h-2v1H8z" fill="#fff"/><path d="M56 38v-1h-2v-1h-2v-1h-1v-1h-1v-1h-1v8h1v1h2v1h4v-1h1v-4z" fill="#64438e"/><path d="M54 38v-1h-2v-1h-1v-1h-1v-1h-1v6h1v1h2v1h4v-4z" fill="#edd3fd"/><path d="M54,38v-1h-2v-1h-1v-1h-1v-1h-1v5h1v1h2v1h4v-3H54z" fill="#fff"/><path d="M51 35v-1h-1v-1h-4v1h-1v1h-1v1h-1v1h-1v1h-1v1h-2v1h-2v1h-3v1h-4v-1h-3v-1h-2v-1h-2v-1h-1v-1h-1v-1h-1v-1h-1v-1h-1v-1h-4v1h-1v1h-1v7h2v-1h1v12h34V41h1v1h2v-7z" fill="#009696"/><g fill="#00ffe1"><path d="M46 34v1h-1v1h-1v1h-1v1h-1v1h-1v1h-2v1h-2v1h-3v1h-4v-1h-3v-1h-2v-1h-2v-1h-1v-1h-1v-1h-1v-1h-1v-1h-1v-1h-2v18h32V34h-2zM36 51h-2v-1h-1v1h-2v-1h-1v1h-2v-5h1v-1h1v-1h4v1h1v1h1v5zm14-16v-1h-1v6h1v1h1v-6z"/><path d="M35 46h-1v-1h-4v1h-1v4h1v-1h1v1h2v-1h1v1h1v-4zm-2.5 3h-1v-3h1v3zM14 35h-1v6h1v-1h1v-6h-1z"/></g><path d="M51 35v-1h-1v-1h-4v1h-1v1h-2v1h-2v1h-2v1h-2v15h12V41h1v1h2v-7zm-26 3v-1h-2v-1h-2v-1h-2v-1h-1v-1h-4v1h-1v1h-1v7h2v-1h1v12h12V38z" fill="#323232"/><path d="M46 34v1h-1v1h-2v1h1v1h1v1h-1v1h-1v1h-1v1h-1v1h-1v1h-1v1h-1v7h10V34h-2zm0 14h-4v-1h4v1z"/><path d="M40 43v-1h1v-1h1v-1h1v-1h1v-1h-1v-1h-2v1h-2v1h-1v5h1v-1zm10-8v-1h-1v6h1v1h1v-6zm-25 3h-2v-1h-2v1h-1v1h1v1h1v1h1v1h1v1h1v1h1v-5h-1z"/><path d="M24 43h-1v-1h-1v-1h-1v-1h-1v-1h-1v-1h1v-1h1v-1h-2v-1h-1v-1h-2v18h10v-7h-1v-1h-1v-1zm-2 5h-4v-1h4v1zm-8-13h-1v6h1v-1h1v-6h-1zm35-17v-2h-2v-2H35V5h-6v9H17v2h-2v2h-1v7h1v2h2v2h2v2h10v-2h6v2h10v-2h2v-2h2v-2h1v-7z"/><path d="M17 16v11h2v2h10v-2h6v2h10v-2h2V16z" fill="#ff0097"/><path d="M19 18v9h10v-2h6v2h10v-9z" fill="#ff14ff"/><path d="M21 16h2v13h-2zm20 0h2v13h-2zm-2 0h1v13h-1zm-15 0h1v13h-1z" opacity=".8" fill="#fff"/><path d="M15 38v-1h-1v-1h-1v-1h-2v1h-1v1H6v-1H5v-1H3v1H2v1H1v1H0v3h1v6h1v1h3v-1h1v-3h1v-1h2v1h1v3h1v1h3v-1h1v-6h1v-3z"/><path d="M7 38h2v1H7zm4 8h3v1h-3zm-9 0h3v1H2z" fill="#4b4b4b"/><path d="M14 38v-1h-1v-1h-2v1h-1v2H9v1H7v-1H6v-2H5v-1H3v1H2v1H1v3h1v4h3v-1h1v-1H5v-2h2v1h2v-1h2v2h-1v1h1v1h3v-4h1v-3h-1zm-1 2h-1v-1h1v1z" fill="#969696"/><path d="M6 42h1v1H6zm3 0h1v1H9zm2-3h1v1h-1zm2 0h1v1h-1z" fill="#ff14ff"/><path d="M12 38h1v1h-1zm0 2h1v1h-1zm-9-1h1v1H3z" fill="#00ffe1"/><path d="M12 39h1v1h-1z"/><path d="M13 38h1v1h-1zm0 2h1v1h-1zm-2 0h1v1h-1zm0-2h1v1h-1zm-8 0h1v1H3z"/><path d="M2 39h1v1H2zm2 0h1v1H4z"/><path d="M3 40h1v1H3z"/></svg>