<?xml version="1.0" encoding="utf-8"?>
<!-- Generator: Adobe Illustrator 25.3.1, SVG Export Plug-In . SVG Version: 6.00 Build 0)  -->
<svg version="1.1" id="Layer_1" xmlns="http://www.w3.org/2000/svg" xmlns:xlink="http://www.w3.org/1999/xlink" x="0px" y="0px"
	 viewBox="0 0 34 23" style="enable-background:new 0 0 34 23;" xml:space="preserve">
<style type="text/css">
	.st0{fill:#FFFFFF;}
	.st1{fill:#51FFA8;}
	.st2{fill:#FFE600;}
	.st3{fill:#FF9600;}
	.st4{fill:#FFC03C;}
	.st5{fill:#EF1E26;}
</style>
<path d="M33,15v-2h-1v-2h-1v-1h-1V9h-1V8h-1v1h-1v1h-2V9h1V8h1V6h-1V5h-1V4h-3V2h1V1h-1V0h-2v1h-2V0h-2v1h-2V0h-2v1h-1v1h1v2H9v1H8
	v1H7v2h1v1h1v1H7V9H6V8H5v1H4v1H3v1H2v2H1v2H0v6h1v1h1v-1h1v-2h1v-1h1v1h1v1h1v-1h2v1H8v2h4v1h3v-1h1v-1h2v1h1v1h3v-1h4v-2h-1v-1h2
	v1h1v-1h1v-1h1v1h1v2h1v1h1v-1h1v-6H33z M9,15h1v1H9V15z M24,15h1v1h-1V15z"/>
<path class="st0" d="M28,9h1v1h-1V9z M32,20h1v1h-1V20z M27,18h1v1h-1V18z M5,9h1v1H5V9z M1,20h1v1H1V20z M6,18h1v1H6V18z"/>
<g>
	<path class="st1" d="M32,16v4h1v-4H32z"/>
	<path class="st1" d="M32,14v-1h-1v3h1V14z"/>
	<path class="st1" d="M29,12h1v1h1v-2h-1v-1h-2v1h1V12z"/>
	<path class="st1" d="M30,15v-2h-1v-1h-1v-1h-2v1h1v1h1v2h1v2h1v1h1v-2h-1V15z"/>
	<path class="st1" d="M27,14v-1h-1v3h1v2h1v-3h-1V14z M1,17v3h1v-4H1V17z"/>
	<path class="st1" d="M3,14v-1H2v3h1V14z"/>
	<path class="st1" d="M4,12h1v-1h1v-1H4v1H3v2h1V12z"/>
	<path class="st1" d="M6,11v1H5v1H4v3H3v2h1v-1h1v-2h1v-2h1v-1h1v-1H6z"/>
	<path class="st1" d="M7,15H6v3h1v-2h1v-3H7V15z"/>
</g>
<path class="st0" d="M25,7h-1v1h-3V7h-2v1h1v1h5V8h1V7H25z M13,7v1h-3V7H8v1h1v1h5V8h1V7H13z"/>
<path class="st2" d="M12,1v1h2V1H12z M16,1v1h2V1H16z M21,1h-1v1h2V1H21z"/>
<path class="st3" d="M18,4h-3v2h4V4H18z"/>
<path class="st4" d="M20,2h-7v2h8V2H20z"/>
<g>
	<path class="st1" d="M24,5h-4v1h5V5H24z M17,9h2V8h-1V7h-2v1h-1v1H17z M11,6h3V5H9v1H11z M16,18v2h2v-2H16z"/>
	<path class="st1" d="M23,17v-2H11v2H9v2h2v1H9v1h3v-3h1v3h-1v1h3v-4h1v-1h2v1h1v4h3v-1h-1v-3h1v3h3v-1h-2v-1h2v-2H23z"/>
</g>
<path class="st5" d="M24,10H9v4h16v-4H24z M24,12v1H10v-2h14V12z"/>
</svg>
