<svg xmlns="http://www.w3.org/2000/svg" viewBox="0 0 64 64"><path d="M44,58H19v1h1v1h24v-1h1v-1H44z" opacity=".25" enable-background="new"/><path d="M47 14v-2h-2v-2h-4V8h-4V6H27v2h-4v2h-4v2h-2v2h-2v41h4v-2h5v2h5v-2h6v2h5v-2h5v2h4V14z" fill="#64438e"/><path d="M45 14v-2h-4v-2h-4V8H27v2h-4v2h-4v2h-2v39h2v-2h5v2h5v-2h6v2h5v-2h5v2h2V14z" fill="#edd3fd"/><path d="M18,49h2v-1h2v1h2v2h5v-2h2v-1h2v1h2v2h5v-2h2v-1h2v1h1V14h-4v-2h-4v-2h-5V9h-5v2h-4v2h-4v2h-1V49z" fill="#fff"/><path d="M23 28v2h4v-2h2v-4h-2v-2h-4v2h-2v4h2zm12-4v4h2v2h4v-2h2v-4h-2v-2h-4v2h-2z" fill="#64438e"/><path d="M21 32v2h2v-2h-2zm20 0v2h2v-2h-2z" fill="#f696c6"/><g fill="#64438e"><path d="M29,32h-2v2h2V32z"/><path d="M29,34v2h6v-2H29z"/><path d="M35 32v2h2v-2h-2zm0-17v-1h-1v-1h-1v-1h-2v1h-1v1h-1v1h-1v4h1v1h1v1h1v1h2v-1h1v-1h1v-1h1v-4z"/></g><g fill="#dea8ff"><path d="M29,17v2h1v1h1v1h1v-4H29z"/><path d="M34,15v-1h-1v-1h-1v4h3v-2H34z"/></g><path d="M32,17v4h1v-1h1v-1h1v-2H32z" fill="#c260ff"/><path d="M31,13v1h-1v1h-1v2h3v-4H31z" fill="#edd3fd"/><path d="M8 38v-1h2v-1h2v-1h1v-1h1v-1h1v8h-1v1h-2v1H8v-1H7v-4z" fill="#64438e"/><path d="M10 38v-1h2v-1h1v-1h1v-1h1v6h-1v1h-2v1H8v-4z" fill="#edd3fd"/><path d="M8,38v3h4v-1h2v-1h1v-5h-1v1h-1v1h-1v1h-2v1H8z" fill="#fff"/><path d="M56 38v-1h-2v-1h-2v-1h-1v-1h-1v-1h-1v8h1v1h2v1h4v-1h1v-4z" fill="#64438e"/><path d="M54 38v-1h-2v-1h-1v-1h-1v-1h-1v6h1v1h2v1h4v-4z" fill="#edd3fd"/><path d="M54,38v-1h-2v-1h-1v-1h-1v-1h-1v5h1v1h2v1h4v-3H54z" fill="#fff"/><path d="M50,40v2h2v-1h1v-1h1v-1h2v-1h2v2h2v-2h2v-2h2v-2h-2v-2h-2v-2h-2v-2h-2v2h-2v2h-2v2h2v2h-1v2h-1v1h-1v1H50z"/><path d="M54,36v2h2v-2H54z" fill="#c0642e"/><path d="M54,32v2h2v2h2v2h2v-2h2v-2h-2v-2h-2v-2h-2v2H54z" fill="#8e9397"/><path d="M49,18V3h-2V2H17v1h-2v15H9v2h46v-2H49z"/><path d="M49,16v-3H15v3H49z" fill="#282828"/><path d="M47,33v1h-2v1h-2v1h-2v1h-2v1h-2v1H27v-1h-2v-1h-2v-1h-2v-1h-2v-1h-2v-1h-2v22h4v-2h5v2h5v-2h6v2h5v-2h5v2h4V33H47z"/><g fill="#fff"><path d="M44,41h1v1h-1V41z"/><path d="M42 40v1h-1v1h2v-1h1v-1h-2zm-11 8v1h2v-1h-2zm6-11v1h2v-1h-2zm-12 0v1h2v-1h-2z"/><path d="M37,38h-3v2h-1v6h-2v-6h-1v-2h-3v1h2v2h1v6h4v-6h1v-2h2V38z"/></g><path d="M15 32h-2v1h1v1h-1v1h-1v7h2v-1h1v-9zm34 9h1v1h2v-7h-1v-1h-1v-1h1v-1h-2v9z"/><g fill="#646464"><path d="M44,25v-2h-1v-1h-1v-1h-6v1h-1v1h-1v6h1v1h1v1h6v-1h1v-1h1v-2h1v-2H44z"/><path d="M45,27h1v12h-1V27z"/><path d="M44,39h1v2h-1V39z"/><path d="M43,41h1v1h-1V41z"/></g><path d="M42,23v-1h-6v1h-1v6h1v1h6v-1h1v-6H42z" fill="#fff"/><path d="M37,24h4v4h-4V24z"/><path d="M42,23v-1h-6v1h-1v6h1v1h6v-1h1v-6H42z" opacity=".5" fill="#fff" enable-background="new"/><path d="M12 36v-1h-1v-1h-1v-1H4v1H3v1H2v1H1v6h1v1h1v1h1v1h6v-1h1v-1h1v-1h1v-6z" fill="#fa34f3"/><path d="M1,39v2h12v-2H1z" fill="#ac15f9"/><path d="M1,37v2h12v-2H1z" fill="#cf15f9"/><path d="M1,41v1h1v1h10v-1h1v-1H1z" fill="#8f17f9"/><path d="M3,43v1h1v1h6v-1h1v-1H3z" fill="#7e18f8"/><g fill="#fff"><path d="M8.9 39.8h.4v-.6h-.4v.6z"/><path d="M7.4 39.8v.5h.9v.4h.4v-.4h.2v-.5H7.4zm.4-.6h1.1v-.4H7.8v.4z"/><path d="M7.4 38.2v.6h.4v-.6h-.4z"/><path d="M8.7 37.7v-.4h-.4v.4h-.5v.5h1.5v-.5h-.6zm1.9 2.6h.4v-2.1h.9v-.5H9.8v.5h.8v2.1zm-4-2.6v1.1H5.5v-1.1h-.4v2.6h.4v-1.1h1.1v1.1H7v-2.6h-.4zm-3.6 0v.5h1.7v-.5H3zm1.7 2.1v-1H3.4v.4h.8v.6h.5z"/><path d="M3 40.3h1.2v-.5H3v.5z"/><path d="M2.6,38.2v1.6H3v-1.6H2.6z"/></g><path d="M39.7 32.8V32h-2v.8H39v1.6h-.9v-.8h-1.3v-.8h-1.3V32h-2.7v.8h-1.3V32h-2.7v.8h-1.3v.8h-1.3v.8H25v-1.6h1.3V32h-2v.8h-.7v2.4h.7v.8h.7v.8h5V36h1.3v-.8h1.3v.8H34v.8h5V36h.7v-.8h.7v-2.4h-.7z"/><g fill="#303030"><path d="M36 34.4h.7v.8H36v-.8zm-1.3-1.6H34v.8h1.3v-.8h-.6z"/><path d="M35.4 33.6h.6v.8h-.7v-.8zm-8.1.8h.7v.8h-.7v-.8zm1.3-1.6v.8H30v-.8h-.7-.7z"/><path d="M28 33.6h.7v.8H28v-.8z"/></g></svg>