<svg xmlns="http://www.w3.org/2000/svg" viewBox="0 0 64 64"><path d="M44,58H19v1h1v1h24v-1h1v-1H44z" opacity=".25" enable-background="new"/><path d="M47 14v-2h-2v-2h-4V8h-4V6H27v2h-4v2h-4v2h-2v2h-2v41h4v-2h5v2h5v-2h6v2h5v-2h5v2h4V14z" fill="#64438e"/><path d="M45 14v-2h-4v-2h-4V8H27v2h-4v2h-4v2h-2v39h2v-2h5v2h5v-2h6v2h5v-2h5v2h2V14z" fill="#edd3fd"/><path d="M18,49h2v-1h2v1h2v2h5v-2h2v-1h2v1h2v2h5v-2h2v-1h2v1h1V14h-4v-2h-4v-2h-5V9h-5v2h-4v2h-4v2h-1V49z" fill="#fff"/><path d="M23 28v2h4v-2h2v-4h-2v-2h-4v2h-2v4h2zm12-4v4h2v2h4v-2h2v-4h-2v-2h-4v2h-2z" fill="#64438e"/><path d="M21 32v2h2v-2h-2zm20 0v2h2v-2h-2z" fill="#f696c6"/><g fill="#64438e"><path d="M29,32h-2v2h2V32z"/><path d="M29,34v2h6v-2H29z"/><path d="M35 32v2h2v-2h-2zm0-17v-1h-1v-1h-1v-1h-2v1h-1v1h-1v1h-1v4h1v1h1v1h1v1h2v-1h1v-1h1v-1h1v-4z"/></g><g fill="#dea8ff"><path d="M29,17v2h1v1h1v1h1v-4H29z"/><path d="M34,15v-1h-1v-1h-1v4h3v-2H34z"/></g><path d="M32,17v4h1v-1h1v-1h1v-2H32z" fill="#c260ff"/><path d="M31,13v1h-1v1h-1v2h3v-4H31z" fill="#edd3fd"/><path d="M8 38v-1h2v-1h2v-1h1v-1h1v-1h1v8h-1v1h-2v1H8v-1H7v-4z" fill="#64438e"/><path d="M10 38v-1h2v-1h1v-1h1v-1h1v6h-1v1h-2v1H8v-4z" fill="#edd3fd"/><path d="M8,38v3h4v-1h2v-1h1v-5h-1v1h-1v1h-1v1h-2v1H8z" fill="#fff"/><path d="M56 38v-1h-2v-1h-2v-1h-1v-1h-1v-1h-1v8h1v1h2v1h4v-1h1v-4z" fill="#64438e"/><path d="M54 38v-1h-2v-1h-1v-1h-1v-1h-1v6h1v1h2v1h4v-4z" fill="#edd3fd"/><path d="M54,38v-1h-2v-1h-1v-1h-1v-1h-1v5h1v1h2v1h4v-3H54z" fill="#fff"/><path d="M56 37h1v1h-1v-1zm-2 0h1v1h-1v-1z" fill="#464646"/><path d="M54 35h1v1h-1v-1zm2 0h1v1h-1v-1zm-2 4h3v1h-3v-1z" fill="#6e6e6e"/><path d="M54 41h3v1h-3v-1zm1-5h1v1h-1v-1z" fill="#5a5a5a"/><path d="M57 31v3h-3v1h1v1h1v-1h1v1h-1v1h1v1h-1v-1h-1v1h-1v-1h1v-1h-1v-1h-1v8h1v1h3v-1h1V31h-1zm0 11h-3v-1h3v1zm0-2h-3v-1h3v1z"/><path d="M46 34v1h-1v1h-1v1h-1v1h-1v1h-1v1h-2v1h-2v1h-3v1h-4v-1h-3v-1h-2v-1h-2v-1h-1v-1h-1v-1h-1v-1h-1v-1h-1v-1h-2v17h32V34h-2z" fill="#f0f"/><g fill="#8c007d"><path d="M18 34h1v1h-1v-1zm2 2h1v1h-1v-1z"/><path d="M19 35h1v1h-1v-1zm3 3h1v1h-1v-1z"/><path d="M21 37h1v1h-1v-1zm4 3h2v1h-2v-1z"/><path d="M23 39h2v1h-2v-1zm22-5h1v1h-1v-1zm-2 2h1v1h-1v-1z"/><path d="M44 35h1v1h-1v-1zm-3 3h1v1h-1v-1z"/><path d="M42 37h1v1h-1v-1zm-5 3h2v1h-2v-1z"/><path d="M39 39h2v1h-2v-1zm7-6v1h2v17H16V34h2v-1h-3v19h34V33h-3zm-16 9h4v1h-4v-1z"/><path d="M27 41h3v1h-3v-1zm7 0h3v1h-3v-1z"/></g><path d="M20.5 44v5h1v-2h1v2h1v-5h-3zm2 2h-1v-1h1v1zm2-2v5h1v-2h1v2h1v-5h-3zm2 2h-1v-1h1v1zm2-2v5h3v-3h-1v2h-1v-3h2v-1h-3zm4 0v5h3v-1h-2v-1h1v-1h-1v-1h2v-1h-3zm4 0v5h1v-4h1v4h1v-5h-3zm4 0v1h1v4h1v-4h1v-1h-3z" fill="#fff"/><path d="M14 35v-1h1v6h-1v1h-1v-6h1z" fill="#f0f"/><g fill="#8c007d"><path d="M13 35v6h1v1h-2v-7h1z"/><path d="M13 34h1v1h-1v-1zm1 6h1v1h-1v-1z"/><path d="M14,33h1v1h-1V33z"/></g><path d="M50,35v-1h-1v6h1v1h1v-6H50z" fill="#f0f"/><g fill="#8c007d"><path d="M51,35v6h-1v1h2v-7H51z"/><path d="M50 34h1v1h-1v-1zm-1 6h1v1h-1v-1z"/><path d="M49,33h1v1h-1V33z"/></g><path d="M49,26h1v1h-1V26z" fill="#f0f"/><path d="M50,26h1v1h-1V26z"/><path d="M49,27v-1h1v-1h-2v3h2v-1H49z"/><path d="M50,28h1v1h-1V28z"/><path d="M49,29h1v1h-1V29z"/><path d="M50,30h1v1h-1V30z"/><path d="M49,31h1v1h-1V31z"/><path d="M27 24h1v2h-1v-2zm15 0h1v2h-1v-2z" fill="#fff"/><path d="M15 22v2h3v4h1v1h1v1h1v1h7v-1h1v-1h1v-1h1v-4h2v4h1v1h1v1h1v1h7v-1h1v-1h1v-1h1v-4h3v-2H15zm28 4h-1v-2h1v2zm-15 0h-1v-2h1v2zm-17-7h42v2H11v-2zm8-12h-2v2h-2v7h34V9h-2V7h-2V5h-2V4h-9v1h-1v1h-2V5h-1V4h-9v1h-2v2z"/><path d="M15,16h34v3H15V16z" fill="#232323"/><path d="M9,38v-1H8v2h1v1h1v-2H9z" fill="#969696"/><path d="M3,36h6v1H3V36z" fill="#cdcdcd"/><path d="M10,34h1v1h-1V34z"/><path d="M2,35v3h3v1h1v1h1v-1H6v-1h1v1h1v-2H3v-1h6v2h1v-1h1v-1h-1v-1H2z"/><path d="M10,38h1v2h-1V38z"/><path d="M9,39H8v2h2v-1H9V39z"/></svg>