<svg xmlns="http://www.w3.org/2000/svg" viewBox="0 0 64 64"><path d="M44,58H19v1h1v1h24v-1h1v-1H44z" opacity=".25" enable-background="new"/><g fill="#0000b9"><path d="M23 12v-2h-4v2h4z"/><path d="M19 14v-2h-2v2h2zm8-4V8h-4v2h4z"/><path d="M37 8V6H27v2h10zm8 6h2v-2h-2v2z"/><path d="M47 53h-2v2h4V14h-2v39zM37 10h4V8h-4v2z"/><path d="M41 12h4v-2h-4v2zM15 55h4v-2h-2V14h-2v41z"/><path d="M24,51h-5v2h5V51z"/><path d="M24 53v2h5v-2h-5zm21-2h-5v2h5v-2z"/><path d="M35,51h-6v2h6V51z"/><path d="M35,53v2h5v-2H35z"/></g><g fill="#d4def8"><path d="M17,14h2v1h-1v34h2v-1h2v1h2v2h-5v2h-2V14z"/><path d="M24 51v2h5v-2h-5zm11 0v2h5v-2h-5z"/><path d="M35 49h-2v-1h-2v1h-2v2h6v-2zm-8-38v-1h-4v1h4zm-4 2v-1h-4v1h4zm22 36h-1v-1h-2v1h-2v2h5v2h2V14h-2v35z"/><path d="M37 8H27v1h5v1h5V8zm8 4h-4v2h4v-2z"/><path d="M41,10h-4v2h4V10z"/></g><path d="M18,49h2v-1h2v1h2v2h5v-2h2v-1h2v1h2v2h5v-2h2v-1h2v1h1V14h-4v-2h-4v-2h-5V9h-5v2h-4v2h-4v2h-1V49z" fill="#fff"/><path d="M21 32v2h2v-2h-2zm20 0v2h2v-2h-2z" fill="#f696c6"/><g fill="#0000b9"><path d="M34 13v-1h-4v1h-1v1h-1v1h-1v4h1v1h1v1h1v1h4v-1h1v-1h1v-1h1v-4h-1v-1h-1v-1h-1zm-1 1v1h1v1h1v2h-1v1h-1v1h-2v-1h-1v-1h-1v-2h1v-1h1v-1h2zm16 26h1v1h-1v-1zm1-6h1v1h-1v-1z"/><path d="M49 33h1v1h-1v-1zm2 2h1v1h-1v-1zm5 3h1v4h-1v-4zm-6 3h2v1h-2v-1z"/><path d="M52 42h4v1h-4v-1zm2-5h2v1h-2v-1z"/><path d="M52,36h2v1h-2V36z"/></g><g fill="#d4def8"><path d="M49,39h1v1h-1V39z"/><path d="M50,40h2v1h-2V40z"/><path d="M52,41h4v1h-4V41z"/></g><path d="M54,38v-1h-2v-1h-1v-1h-1v-1h-1v5h1v1h2v1h4v-3H54z" fill="#fff"/><g fill="#0000b9"><path d="M14 40h1v1h-1v-1zm-1-6h1v1h-1v-1z"/><path d="M14 33h1v1h-1v-1zm-2 2h1v1h-1v-1zm-5 3h1v4H7v-4zm5 3h2v1h-2v-1z"/><path d="M8 42h4v1H8v-1zm0-5h2v1H8v-1z"/><path d="M10,36h2v1h-2V36z"/></g><g fill="#d4def8"><path d="M14,39h1v1h-1V39z"/><path d="M12,40h2v1h-2V40z"/><path d="M8,41h4v1H8V41z"/></g><path d="M8,38v3h4v-1h2v-1h1v-5h-1v1h-1v1h-1v1h-2v1H8z" fill="#fff"/><g fill="#0000b9"><path d="M29,32h-2v2h2V32z"/><path d="M29,34v2h6v-2H29z"/><path d="M35,32v2h2v-2H35z"/></g><path d="M24.1 29.9v-1h-1v-1h-1v-3.8h1v-1h1v-1h3.8v1h1v1h1v3.8h-1v1h-1v1h-3.8z" fill="#fff"/><path d="M27.8 22.2v1h1v1h1v3.5h-1v1.1h-1v1h-3.6v-1h-1v-1h-1v-3.6h1v-1h1v-1h3.6m.2-.2h-4v1h-1v1h-1v4h1v1h1v1h4v-1h1v-1h1v-4h-1v-1h-1v-1z" fill="#0000b9"/><path d="M36.1 29.9v-1h-1v-1h-1v-3.8h1v-1h1v-1h3.8v1h1v1h1v3.8h-1v1h-1v1h-3.8z" fill="#fff"/><path d="M39.8 22.2v1h1v1h1v3.5h-1v1.1h-1v1h-3.5v-1h-1.1v-1h-1v-3.6h1v-1h1v-1h3.6m.2-.2h-4v1h-1v1h-1v4h1v1h1v1h4v-1h1v-1h1v-4h-1v-1h-1v-1z" fill="#0000b9"/><g fill="#fff"><path d="M27,23h1v1h-1V23z"/><path d="M26 24h1v2h-1v-2zm-2-1h1v1h-1v-1z"/><path d="M28,24v3h-1v1h-2v-1h-1v-3h-1v4h1v1h4v-1h1v-4H28z"/></g><path d="M27 26h-1v-2h1v-1h-2v1h-1v3h1v1h2v-1h1v-3h-1v2z" fill="#00a5ff"/><g fill="#0000b9"><path d="M23,23h1v1h-1V23z"/><path d="M23,24h-1v4h1V24z"/><path d="M23 28h1v1h-1v-1zm5-5h1v1h-1v-1z"/><path d="M28 23v-1h-4v1h4zm-4 6v1h4v-1h-4z"/></g><g fill="#fff"><path d="M39,23h1v1h-1V23z"/><path d="M38 24h1v2h-1v-2zm-2-1h1v1h-1v-1z"/><path d="M40,24v3h-1v1h-2v-1h-1v-3h-1v4h1v1h4v-1h1v-4H40z"/></g><path d="M39 24v2h-1v-2h1v-1h-2v1h-1v3h1v1h2v-1h1v-3h-1z" fill="#00a5ff"/><g fill="#0000b9"><path d="M35,23h1v1h-1V23z"/><path d="M35,24h-1v4h1V24z"/><path d="M35 28h1v1h-1v-1zm5-5h1v1h-1v-1z"/><path d="M41 24v4h1v-4h-1zm-1-1v-1h-4v1h4zm-4 6v1h4v-1h-4z"/><path d="M40 28h1v1h-1v-1zm-11 0h1v-4h-1v4z"/><path d="M28,28h1v1h-1V28z"/></g><path d="M47 33v1h-2v3h-3v1h-1v1h-6v-1h-1v1h-1v1h-2v-1h-1v-1h-1v1h-5v-1h-1v-1h-1v-1h-3v-2h-2v-1h-2v22h4v-2h5v2h5v-2h6v2h5v-2h5v2h4V33h-2z" fill="#640000"/><path d="M31 42h1v1h-1v-1zm0 4h1v1h-1v-1zm11-4h3v1h-3v-1zm-20 2h1v1h-1v-1zm9 6h1v1h-1v-1z" fill="#0ff"/><g fill="#e9eef2"><path d="M19 36h1v2h-1v-2zm0 3h1v1h-1v-1zm7 8h2v1h-2v-1zm-2 0h1v1h-1v-1zm5 0h1v1h-1v-1zm-10 0h1v1h-1v-1zm0-3h1v2h-1v-2zm25-8h1v2h-1v-2zm0 3h1v1h-1v-1zm-4-2h-3v1h-2v1h1v1h1v1h1v-1h1v-1h2v-1h1v-1h1v-1h-3v1zm-19-2h1v1h-1v-1zm23 12h1v1h-1v-1zm-8 0h2v1h-2v-1zm-2 0h1v1h-1v-1zm5 0h1v1h-1v-1zm-3-3h2v2h-2v-2z"/><path d="M34 39h1v1h-1v-1zm-7-1v-1h-3v-1h-2v1h1v1h1v1h1v1h1v1h1v-1h1v-1h1v-1h-2z"/><path d="M29 39h1v1h-1v-1zm5 5h1v2h-1v-2zm-5 0h1v2h-1v-2zm-13 0h2v2h-2v-2zm0 7h2v2h-2v-2zm0-15h2v2h-2v-2zm0 11h2v1h-2v-1zm0-8h2v1h-2v-1zm27-4h1v1h-1v-1zm-4 9h1v2h-1v-2zm-15 0h1v2h-1v-2zm2 7h2v2h-2v-2zm-2 0h1v2h-1v-2zm22-4h2v1h-2v-1zm0 4h2v2h-2v-2zm-10 0h2v2h-2v-2zm3 0h1v2h-1v-2zm7-15h2v2h-2v-2zm0 8h2v2h-2v-2zm0-5h2v1h-2v-1zm-20 5h2v2h-2v-2z"/></g><path d="M30 40h-2v3h-2v-2h-1v2h-1v-2h1v-1h-1v-1h-1v12h1v-2h1v4h1v-4h2v4h1v-4h1v2h1V39h-1v1zm-2 4v2h-2v-2h2zm-4 0h1v2h-1v-2zm0 4v-1h1v1h-1zm2 0v-1h2v1h-2zm4 0h-1v-1h1v1zm0-2h-1v-2h1v2zm0-3h-1v-2h1v2zm10-3h-1v1h1v2h-1v-2h-1v2h-2v-3h-2v-1h-1v12h1v-2h1v4h1v-4h2v4h1v-4h1v2h1V39h-1v1zm-2 4v2h-2v-2h2zm-4-3h1v2h-1v-2zm0 3h1v2h-1v-2zm0 4v-1h1v1h-1zm2 0v-1h2v1h-2zm4 0h-1v-1h1v1zm0-2h-1v-2h1v2zm-25-5h3v2h-2v1h2v2h-2v1h2v1h-2v1h2v4h1v-4h1v2h1V35h-2v-1h-1v1h-2v-2h-1v8zm3-5v2h-2v-2h2zm-2 4v-1h2v1h-2zm4 8h-1v-1h1v1zm0-2h-1v-2h1v2zm0-3h-1v-2h1v2zm0-3h-1v-1h1v1zm0-2h-1v-2h1v2zm29-5h-1v2h-2v-1h-1v1h-1v1h1v2h-1v-2h-1v6h1v-1h1v5h-1v-3h-1v8h1v-2h1v4h1v-4h2v-1h-2v-1h2v-1h-2v-2h2v-1h-2v-2h3v-8zm-4 15h-1v-1h1v1zm1-12h2v2h-2v-2zm-2 4v-1h1v1h-1zm4 0h-2v-1h2v1z" fill="red"/><path d="M51,35v-1h-1v-1h-1v8h1v1h2v-7H51z" fill="#640000"/><path d="M49,35v5h1v1h1v-6H49z" fill="red"/><path d="M49 39h1v1h-1v-1zm0-3h1v2h-1v-2z" fill="#e9eef2"/><path d="M14,33v1h-1v1h-1v7h2v-1h1v-8H14z" fill="#640000"/><path d="M13,35v6h1v-1h1v-5H13z" fill="red"/><path d="M14 39h1v1h-1v-1zm0-3h1v2h-1v-2z" fill="#e9eef2"/><path d="M28.8,36.2v-3.5h6.5v3.5H28.8z" fill="#fff"/><g fill="#773e1d"><path d="M30,34h4v1h-4V34z"/><path d="M15 33h2v1h2v1h2v1h2v1h4v1h3v1h1v1h2v-1h1v-1h3v-1h4v-1h2v-1h2v-1h2v-1h2V14h-2v-2h-2v-2h-4V8h-4V6H27v2h-4v2h-4v2h-2v2h-2v19zm15 3v-1h-1v-1h1v-1h4v1h1v1h-1v1h-4zm12-5v1h-2v1h-3v-1h-1v-1h-1v-1h-6v1h-1v1h-1v1h-3v-1h-2v-1h-4V18h1v-3h1v-1h3v-1h4v1h3v1h4v-1h3v-1h4v1h3v1h1v3h1v13h-4z"/></g><path d="M12 36v-1h-1v-1h-1v-1H9v-1H8v-1H6v1H5v1H4v1H3v1H2v1H1v6h1v1h1v1h1v1h1v1h1v1h2v-1h1v-1h1v-1h1v-1h1v-1h1v-6h-1z" fill="#339cf0"/><g fill="#dcdcdc"><path d="M6,42v-1H5v2H4v1h1v1h1v1h1v-4H6z"/><path d="M4 40h1v1H4v-1zm-1 2h1v1H3v-1z"/><path d="M3,40h1v-1H3v-1H2v4h1V40z"/></g><g fill="#f5f5f5"><path d="M11,38v1h-1v1h1v2h1v-4H11z"/><path d="M9 40h1v1H9v-1zm1 2h1v1h-1v-1z"/><path d="M9,41H8v1H7v4h1v-1h1v-1h1v-1H9V41z"/></g><g fill="#b9b9b9"><path d="M11,37h1v1h-1V37z"/><path d="M10,38h1v1h-1V38z"/><path d="M9 39h1v1H9v-1zm-5 0h1v1H4v-1z"/><path d="M5,40h1v1H5V40z"/><path d="M6 41v1h2v-1H6zm-3-3h1v1H3v-1z"/><path d="M2 37h1v1H2v-1zm6 3h1v1H8v-1z"/></g><path d="M11,36v-1h-1v-1H9v-1H8v-1H6v1H5v1H4v1H3v1H2v1h1v1h1v1h1v1h1v1h2v-1h1v-1h1v-1h1v-1h1v-1H11z" fill="#fff"/><path d="M6 38h1v1H6v-1zm-2-2h1v1H4v-1z"/><path d="M5 37h1v1H5v-1zm1-3h1v1H6v-1z"/><path d="M5,35h1v1H5V35z"/></svg>