<?xml version="1.0" encoding="utf-8"?>
<!-- Generator: Adobe Illustrator 25.3.1, SVG Export Plug-In . SVG Version: 6.00 Build 0)  -->
<svg version="1.1" id="Layer_1" xmlns="http://www.w3.org/2000/svg" xmlns:xlink="http://www.w3.org/1999/xlink" x="0px" y="0px"
	 viewBox="0 0 64 64" style="enable-background:new 0 0 64 64;" xml:space="preserve">
<style type="text/css">
	.st0{fill:#FF7D00;}
	.st1{fill:#F9D792;}
	.st2{fill:#FFFFFF;}
	.st3{fill:#F4AF24;}
	.st4{opacity:0.25;enable-background:new    ;}
	.st5{fill:#0064FF;}
	.st6{fill:#00FFFF;}
	.st7{fill:#FF00FF;}
	.st8{display:none;}
	.st9{display:inline;}
	.st10{display:inline;fill:#FFFFFF;}
	.st11{fill:#FF0097;}
	.st12{fill:#FF14FF;}
	.st13{opacity:0.8;fill:#FFFFFF;enable-background:new    ;}
	.st14{fill:#00FF00;}
	.st15{fill:#FFFF00;}
	.st16{fill:#FFC800;}
	.st17{fill:#007DFF;}
	.st18{fill:#7D00FF;}
	.st19{fill:#009600;}
	.st20{fill:#7D0064;}
	.st21{fill:#32007D;}
	.st22{display:inline;fill:#FF00FF;}
	.st23{display:inline;fill:#00FFFF;}
	.st24{fill:#47289B;}
	.st25{fill:#CB5BFF;}
	.st26{fill:#6F16E2;}
	.st27{fill:#3A2B77;}
	.st28{fill:#F37AFF;}
	.st29{fill:#5D24BF;}
	.st30{fill:#8000FF;}
	.st31{fill:#B135FF;}
	.st32{fill:#FFA3FF;}
	.st33{fill:#FFC9FF;}
</style>
<g>
	<g>
		<path class="st0" d="M21,12h2v-2h-4v2h1H21z"/>
		<path class="st0" d="M19,14v-2h-2v2h1H19z M25,10h2V8h-4v2h1H25z"/>
		<path class="st0" d="M29,8h8V6H27v2h1H29z M45,14h2v-2h-2v1V14z"/>
		<path class="st0" d="M48,14h-1v39h-2v2h4V14H48z M37,10h4V8h-4v1V10z"/>
		<path class="st0" d="M41,12h4v-2h-4v1V12z M17,53V14h-2v41h4v-2h-1H17z"/>
		<path class="st0" d="M24,51h-5v2h5v-1V51z"/>
		<path class="st0" d="M27,53h-3v2h5v-2h-1H27z M45,51h-5v2h5v-1V51z"/>
		<path class="st0" d="M35,51h-6v2h6v-1V51z"/>
		<path class="st0" d="M38,53h-3v2h5v-2h-1H38z"/>
	</g>
	<g>
		<path class="st1" d="M18,43v6h2v-1h2v1h2v2h-5v2h-2V14h2v1h-1v26V43z"/>
		<path class="st1" d="M27,51h-3v2h5v-2h-1H27z M38,51h-3v2h5v-2h-1H38z"/>
		<path class="st1" d="M35,49h-2v-1h-2v1h-2v2h6v-1V49z M25,11h2v-1h-4v1h1H25z M21,13h2v-1h-4v1h1H21z M45,44v5h-1v-1h-2v1h-2v2h5
			v2h2V14h-2v29V44z"/>
		<path class="st1" d="M37,8H27v1h5v1h5V9V8z M45,12h-4v2h4v-1V12z"/>
		<path class="st1" d="M41,10h-4v2h4v-1V10z"/>
	</g>
	<path class="st2" d="M44,14h-3v-2h-4v-2h-5V9h-5v2h-4v2h-4v2h-1v34h2v-1h2v1h2v2h5v-2h2v-1h2v1h2v2h5v-2h2v-1h2v1h1V14H44z"/>
</g>
<path class="st3" d="M21,32v2h2v-2h-1H21z M42,32h-1v2h2v-2H42z"/>
<g>
	<path class="st0" d="M29,32h-2v2h2v-1V32z"/>
	<path class="st0" d="M33,34h-4v2h6v-2h-1H33z"/>
	<path class="st0" d="M36,32h-1v2h2v-2H36z"/>
</g>
<g>
	<path class="st4" d="M25,58h-6v1h1v1h24v-1h1v-1h-1H25z"/>
</g>
<g>
	<path class="st0" d="M27,23h-1h-1h-1h-1h-1h-1v1v1h1h1h1h1h1h1h1h1v-1v-1h-1H27z"/>
	<path class="st0" d="M42,23h-1h-1h-1h-1h-1h-1h-1v1v1h1h1h1h1h1h1h1h1v-1v-1H42z"/>
	<rect x="24" y="23" class="st5" width="2" height="2"/>
	<rect x="38" y="23" class="st5" width="2" height="2"/>
</g>
<g>
	<path class="st0" d="M37,16v-1h-1v-1h-1v1h-6v-2h5v-1h-6v3h-1v1h1v1h-1v1h1v3h6v-1h-5v-2h6v1h1v-1h1v-1h-1v-1H37z M35,17h-6v-1h6
		V17z"/>
	<path class="st0" d="M34,19h1v1h-1V19z M34,13h1v1h-1V13z"/>
</g>
<g>
	<path d="M46,33v1h-1v1h-1v1h-1v1h-1v1h-1v1h-2v1H25v-1h-2v-1h-1v-1h-1v-1h-1v-1h-1v-1h-1v-1h-3v22h34V33H46z"/>
	<path class="st6" d="M35,54V42h4v-1h2v-1h1v-1h1v-1h1v-1h1v-1h1v-1h1v-1h1v-1h-2v1h-1v1h-1v1h-1v1h-1v1h-1v1h-2v1H25v-1h-2v-1h-1
		v-1h-1v-1h-1v-1h-1v-1h-1v-1h-2v1h1v1h1v1h1v1h1v1h1v1h1v1h1v1h2v1h4v12H15v1h17v-1h-1v-1h1v-1h-1v-1h1v-1h-1v-1h1v-1h-1v-1h1v-1
		h-1v-1h1v-1h-1v-1h1v-1h-1v-1h1v1h1v1h-1v1h1v1h-1v1h1v1h-1v1h1v1h-1v1h1v1h-1v1h1v1h-1v1h1v1h16v-1H35z"/>
	<g>
		<path class="st7" d="M15,54h14v1H15V54z M35,54h14v1H35V54z M17,33h1v1h-1V33z M19,35h1v1h-1V35z"/>
		<path class="st7" d="M18,34h1v1h-1V34z M20,36h1v1h-1V36z"/>
		<path class="st7" d="M21,37h1v1h-1V37z M23,39h2v1h-2V39z M46,33h1v1h-1V33z"/>
		<path class="st7" d="M45,34h1v1h-1V34z"/>
		<path class="st7" d="M44,35h1v1h-1V35z M42,37h1v1h-1V37z"/>
		<path class="st7" d="M43,36h1v1h-1V36z M39,39h2v1h-2V39z"/>
		<path class="st7" d="M22,38h1v1h-1V38z M41,38h1v1h-1V38z M39,41v-1H25v1h5v14h1V41h2v14h1V41H39z"/>
	</g>
</g>
<g class="st8">
	<g class="st9">
		<path class="st0" d="M19,42h1v1h-1V42z M20,36h1v1h-1V36z"/>
		<path class="st0" d="M21,37h1v1h-1V37z M26,40v4h1v-4H26z M21,43h-1v1h2v-1H21z"/>
		<path class="st0" d="M24,44h-2v1h4v-1h-1H24z M25,39h-1v1h2v-1H25z"/>
		<path class="st0" d="M23,38h-1v1h2v-1H23z"/>
	</g>
	<g class="st9">
		<path class="st1" d="M19,43h1v1h-1V43z M24,45h-2v1h4v-1h-1H24z"/>
		<path class="st1" d="M27,41v3h1v-3H27z M21,44h-1v1h2v-1H21z"/>
		<path class="st1" d="M26,44h1v1h-1V44z M19,41h-1v2h1v-1V41z"/>
	</g>
	<g class="st9">
		<path class="st0" d="M44,42h1v1h-1V42z M43,36h1v1h-1V36z"/>
		<path class="st0" d="M42,37h1v1h-1V37z"/>
		<path class="st0" d="M42,39v-1h-2v1h1H42z M42,43v1h2v-1h-1H42z"/>
		<path class="st0" d="M40,44h-2v1h4v-1h-1H40z"/>
		<path class="st0" d="M38,42v-2h-1v4h1v-1V42z"/>
		<path class="st0" d="M40,40v-1h-2v1h1H40z"/>
	</g>
	<g class="st9">
		<path class="st1" d="M42,44v1h2v-1h-1H42z M37,42v-1h-1v3h1v-1V42z"/>
		<path class="st1" d="M40,45h-2v1h4v-1h-1H40z"/>
		<path class="st1" d="M37,44h1v1h-1V44z M44,43h1v1h-1V43z"/>
	</g>
</g>
<g>
	<g>
		<path class="st0" d="M14,40h1v1h-1V40z M13,34h1v1h-1V34z"/>
		<path class="st0" d="M14,33h1v1h-1V33z M12,35h1v1h-1V35z M7,38h1v4H7V38z M12,41h2v1h-2V41z"/>
		<path class="st0" d="M8,42h4v1H8V42z M8,37h2v1H8V37z"/>
		<path class="st0" d="M10,36h2v1h-2V36z"/>
	</g>
	<g>
		<path class="st1" d="M14,39h1v1h-1V39z"/>
		<path class="st1" d="M12,40h2v1h-2V40z"/>
		<path class="st1" d="M8,41h4v1H8V41z"/>
	</g>
	<path class="st2" d="M8,38v3h4v-1h2v-1h1v-5h-1v1h-1v1h-1v1h-2v1H8z"/>
	<g>
		<path class="st0" d="M49,40h1v1h-1V40z M50,34h1v1h-1V34z"/>
		<path class="st0" d="M49,33h1v1h-1V33z M51,35h1v1h-1V35z M56,38h1v4h-1V38z M50,41h2v1h-2V41z"/>
		<path class="st0" d="M52,42h4v1h-4V42z M54,37h2v1h-2V37z"/>
		<path class="st0" d="M52,36h2v1h-2V36z"/>
	</g>
	<g>
		<path class="st1" d="M49,39h1v1h-1V39z"/>
		<path class="st1" d="M50,40h2v1h-2V40z"/>
		<path class="st1" d="M52,41h4v1h-4V41z"/>
	</g>
	<path class="st2" d="M54,38v-1h-2v-1h-1v-1h-1v-1h-1v5h1v1h2v1h4v-3H54z"/>
</g>
<g class="st8">
	<g class="st9">
		<path class="st1" d="M50,38h1v1h-1V38z"/>
		<path class="st1" d="M49,39h1v1h-1V39z M51,37h1v1h-1V37z"/>
		<path class="st1" d="M52,36h2v1h-2V36z"/>
		<path class="st1" d="M54,35h2v1h-2V35z"/>
	</g>
	<path class="st10" d="M52,32v1h-2v1h-1v5h1v-1h1v-1h1v-1h2v-1h2v-3H52z"/>
	<g class="st9">
		<path class="st0" d="M49,33h1v1h-1V33z"/>
		<path class="st0" d="M50,32h2v1h-2V32z M50,39h1v1h-1V39z"/>
		<path class="st0" d="M49,40h1v1h-1V40z M51,38h1v1h-1V38z"/>
		<path class="st0" d="M52,37h2v1h-2V37z M52,31h4v1h-4V31z"/>
		<path class="st0" d="M56,32h1v4h-1V32z"/>
		<path class="st0" d="M54,36h2v1h-2V36z"/>
	</g>
	<g class="st9">
		<path class="st1" d="M13,38h1v1h-1V38z"/>
		<path class="st1" d="M14,39h1v1h-1V39z M12,37h1v1h-1V37z"/>
		<path class="st1" d="M10,36h2v1h-2V36z"/>
		<path class="st1" d="M8,35h2v1H8V35z"/>
	</g>
	<path class="st10" d="M8,32v3h2v1h2v1h1v1h1v1h1v-5h-1v-1h-2v-1H8z"/>
	<g class="st9">
		<path class="st0" d="M14,33h1v1h-1V33z"/>
		<path class="st0" d="M12,32h2v1h-2V32z M13,39h1v1h-1V39z"/>
		<path class="st0" d="M14,40h1v1h-1V40z M12,38h1v1h-1V38z"/>
		<path class="st0" d="M10,37h2v1h-2V37z M8,31h4v1H8V31z"/>
		<path class="st0" d="M7,32h1v4H7V32z"/>
		<path class="st0" d="M8,36h2v1H8V36z"/>
	</g>
</g>
<g>
	<path d="M51,27v-1h-1v-1h-2v3h2v-1H51z"/>
	<path d="M50,28h1v1h-1V28z"/>
	<path d="M49,29h1v1h-1V29z"/>
	<path d="M50,30h1v1h-1V30z"/>
	<path d="M49,31h1v1h-1V31z"/>
	<path class="st7" d="M49,26h1v1h-1V26z"/>
</g>
<g>
	<path d="M49,18v-2h-2v-2H35V5h-6v9H17v2h-2v2h-1v7h1v2h2v2h2v2h10v-2h6v2h10v-2h2v-2h2v-2h1v-7H49z"/>
	<path class="st11" d="M17,16v11h2v2h10v-2h6v2h10v-2h2V16H17z"/>
	<path class="st12" d="M19,18v9h10v-2h6v2h10v-9H19z"/>
	<path class="st13" d="M21,16h2v13h-2V16z M41,16h2v13h-2V16z M39,16h1v13h-1V16z M24,16h1v13h-1V16z"/>
</g>
<g>
	<path class="st14" d="M33,6h4v13h-4V6z"/>
	<path class="st15" d="M32,3h3v18h-3V3z"/>
	<path class="st16" d="M32,3h2v18h-2V3z"/>
	<path class="st6" d="M27,19h4V6h-4V19z"/>
	<path class="st17" d="M27,19h1V6h-1V19z"/>
	<path class="st7" d="M31,0h2v22h-2V0z"/>
	<path class="st18" d="M29,3h3v18h-3V3z"/>
	<path class="st19" d="M35,6h1v13h-1V6z"/>
	<path class="st20" d="M31,0h1v22h-1V0z"/>
	<path class="st21" d="M29,3h1v18h-1V3z"/>
</g>
<g>
	<g class="st8">
		<path class="st9" d="M52,32v1h-3v18h1v-5h1v-6h1v-1h2v-7H52z"/>
		<path class="st22" d="M52,32h1v7h-1V32z"/>
		<path class="st23" d="M53,32h1v7h-1V32z"/>
	</g>
	<g>
		<path d="M52,36v-1h-1v-1h-1v-1h-1v18h1v-4h1v-5h1v1h2v-7H52z"/>
		<path class="st7" d="M53,43h-1v-7h1V43z"/>
		<path class="st6" d="M54,43h-1v-7h1V43z"/>
	</g>
	<g class="st8">
		<path class="st9" d="M12,33v-1h-2v7h2v1h1v6h1v5h1V33H12z"/>
		<path class="st22" d="M12,39h-1v-7h1V39z"/>
		<path class="st23" d="M11,39h-1v-7h1V39z"/>
	</g>
	<g>
		<path d="M14,33v1h-1v1h-1v1h-2v7h2v-1h1v5h1v4h1V33H14z"/>
		<path class="st7" d="M11,36h1v7h-1V36z"/>
		<path class="st6" d="M10,36h1v7h-1V36z"/>
	</g>
</g>
<g>
	<path class="st24" d="M14,27v-1h-1v-1h-1v-2h-1v-1h-1v1H9v2H8v1H7v1H6v1h1v1h1v1h1v2h1v23h1V32h1v-2h1v-1h1v-1h1v-1H14z"/>
	<path class="st25" d="M9,29h3v1H9V29z"/>
	<path class="st26" d="M11,26h2v1h-2V26z"/>
	<g>
		<path class="st27" d="M11,28h1v1h-1V28z M11,23h1v2h-1V23z"/>
		<path class="st27" d="M12,25h1v1h-1V25z M14,27h1v1h-1V27z"/>
		<path class="st27" d="M13,26h1v1h-1V26z M13,28h1v1h-1V28z M7,26h1v1H7V26z M7,28h1v1H7V28z M9,32h1v-2H9V32z"/>
		<path class="st27" d="M8,29h1v1H8V29z"/>
	</g>
	<path class="st28" d="M10,27h3v1h-3V27z"/>
	<path class="st29" d="M11,25h1v2h-1V25z"/>
	<g>
		<path class="st30" d="M9,28h2v1H9V28z M11,25h1v1h-1V25z"/>
		<path class="st30" d="M10,29h1v3h-1V29z"/>
	</g>
	<g>
		<path class="st31" d="M10,27h1v2h-1V27z"/>
		<path class="st31" d="M11,29h1v1h-1V29z"/>
		<path class="st31" d="M12,27h1v2h-1V27z"/>
	</g>
	<path class="st32" d="M9,25v1H8v2h3v-3H9z"/>
	<path class="st33" d="M9,26h1v2H9V26z"/>
	<path class="st25" d="M8,27.5h1V29H8V27.5z M12,27v1h2v-1H12z"/>
	<path class="st2" d="M10,23h1v5h-1V23z"/>
	<path class="st33" d="M7,27h4v1H7V27z"/>
	<path class="st2" d="M9,27h1v1H9V27z"/>
</g>
<g>
	<g transform="scale(-1, 1) translate(-52, 0)">
		<path class="st24" d="M2,27v-1H1v-1H0v-2h-1v-1h-1v1h-1v2h-1v1h-1v1h-1v1h1v1h1v1h1v2h1v23h1V32h1v-2h1v-1h1v-1h1v-1H2z"/>
		<path class="st25" d="M-3,29h3v1h-3V29z"/>
		<path class="st26" d="M-1,26h2v1h-2V26z"/>
		<g>
			<path class="st27" d="M-1,28h1v1h-1V28z M-1,23h1v2h-1V23z"/>
			<path class="st27" d="M0,25h1v1H0V25z M2,27h1v1H2V27z"/>
			<path class="st27" d="M1,26h1v1H1V26z M1,28h1v1H1V28z M-5,26h1v1h-1V26z M-5,28h1v1h-1V28z M-3,32h1v-2h-1V32z"/>
			<path class="st27" d="M-4,29h1v1h-1V29z"/>
		</g>
		<path class="st28" d="M-2,27h3v1h-3V27z"/>
		<path class="st29" d="M-1,25h1v2h-1V25z"/>
		<g>
			<path class="st30" d="M-3,28h2v1h-2V28z M-1,25h1v1h-1V25z"/>
			<path class="st30" d="M-2,29h1v3h-1V29z"/>
		</g>
		<g>
			<path class="st31" d="M-2,27h1v2h-1V27z"/>
			<path class="st31" d="M-1,29h1v1h-1V29z"/>
			<path class="st31" d="M0,27h1v2H0V27z"/>
		</g>
		<path class="st32" d="M-3,25v1h-1v2h3v-3H-3z"/>
		<path class="st33" d="M-3,26h1v2h-1V26z"/>
		<path class="st25" d="M-4,27.5h1V29h-1V27.5z M0,27v1h2v-1H0z"/>
		<path class="st2" d="M-2,23h1v5h-1V23z"/>
		<path class="st33" d="M-5,27h4v1h-4V27z"/>
		<path class="st2" d="M-3,27h1v1h-1V27z"/>
	</g>
</g>
</svg>
