<svg xmlns="http://www.w3.org/2000/svg" viewBox="0 0 64 64"><path d="M44,58H19v1h1v1h24v-1h1v-1H44z" opacity=".25" enable-background="new"/><path d="M47 14v-2h-2v-2h-4V8h-4V6H27v2h-4v2h-4v2h-2v2h-2v41h4v-2h5v2h5v-2h6v2h5v-2h5v2h4V14z" fill="#64438e"/><path d="M45 14v-2h-4v-2h-4V8H27v2h-4v2h-4v2h-2v39h2v-2h5v2h5v-2h6v2h5v-2h5v2h2V14z" fill="#edd3fd"/><path d="M18,49h2v-1h2v1h2v2h5v-2h2v-1h2v1h2v2h5v-2h2v-1h2v1h1V14h-4v-2h-4v-2h-5V9h-5v2h-4v2h-4v2h-1V49z" fill="#fff"/><path d="M23 28v2h4v-2h2v-4h-2v-2h-4v2h-2v4h2zm12-4v4h2v2h4v-2h2v-4h-2v-2h-4v2h-2z" fill="#64438e"/><path d="M21 32v2h2v-2h-2zm20 0v2h2v-2h-2z" fill="#f696c6"/><g fill="#64438e"><path d="M29,32h-2v2h2V32z"/><path d="M29,34v2h6v-2H29z"/><path d="M35 32v2h2v-2h-2zm0-17v-1h-1v-1h-1v-1h-2v1h-1v1h-1v1h-1v4h1v1h1v1h1v1h2v-1h1v-1h1v-1h1v-4z"/></g><g fill="#dea8ff"><path d="M29,17v2h1v1h1v1h1v-4H29z"/><path d="M34,15v-1h-1v-1h-1v4h3v-2H34z"/></g><path d="M32,17v4h1v-1h1v-1h1v-2H32z" fill="#c260ff"/><path d="M31,13v1h-1v1h-1v2h3v-4H31z" fill="#edd3fd"/><path d="M8 38v-1h2v-1h2v-1h1v-1h1v-1h1v8h-1v1h-2v1H8v-1H7v-4z" fill="#64438e"/><path d="M10 38v-1h2v-1h1v-1h1v-1h1v6h-1v1h-2v1H8v-4z" fill="#edd3fd"/><path d="M8,38v3h4v-1h2v-1h1v-5h-1v1h-1v1h-1v1h-2v1H8z" fill="#fff"/><path d="M56 38v-1h-2v-1h-2v-1h-1v-1h-1v-1h-1v8h1v1h2v1h4v-1h1v-4z" fill="#64438e"/><path d="M54 38v-1h-2v-1h-1v-1h-1v-1h-1v6h1v1h2v1h4v-4z" fill="#edd3fd"/><path d="M54,38v-1h-2v-1h-1v-1h-1v-1h-1v5h1v1h2v1h4v-3H54z" fill="#fff"/><path d="M64 25v-1H49v1h-1v7h1v1h7v14h1V33h7v-1h1v-7h-1z" fill="#7d7d7d"/><path d="M63 25H49v7h15v-7h-1z"/><g fill="#f90"><path d="M54.3 26.3h-.9v4.3H56v-4.3h-1.7zm.9 1.8v1.7h-.9v-2.6h.9v.9zm6.9-.9h.9v-.9h-2.6v4.3H63v-.9h-1.7v-.9H63v-.9h-1.7V27h.8zm-4.3-.9h-.9v.9h.9v3.5h.9v-3.5h.9v-.9h-1.8zm-6.1.9v2.6h.9v-3.5h-.9v.9z"/><path d="M50.9 29.8h.9v.9h-.9z"/><path d="M50.9 28.1v-1.7H50v3.5h.9v-1.8z"/></g><path d="M51 35v-1h-1v-1h-3v1h-1v1h-1v1h-1v1h-1v1h-1v1h-8v1h-4v-1h-8v-1h-1v-1h-1v-1h-1v-1h-1v-1h-1v-1h-3v1h-1v1h-1v7h2v-1h1v12h34V41h1v1h2v-7h-1z" fill="#7d7d7d"/><path d="M47 35h-1v1h-1v1h-1v1h-1v1h-1v1h-8v1h-4v-1h-8v-1h-1v-1h-1v-1h-1v-1h-1v-1h-1v-1h-1v18h32V34h-1v1zm3 0v-1h-1v6h1v1h1v-6h-1zm-36 0h-1v6h1v-1h1v-6h-1v1z"/><path d="M34.2 41.6h.6v.6h-.6zm-1.3 3.1h.6v-1.2h.6v-1.2h-.6v.6h-.6v.6h-.6v.6h-.6v.6h-.6v.6h-.6v.6h-.6v.6h-.6v.6h1.8v1.2h-.6v1.2h-.6v1.2h.6v-.6h.6v-.6h.6v-.6h.6v-.6h.6v-.6h.6v-.6h.6v-.6h.6v-.6h-1.8v-1.2zm-3.6 6.1h.6v.6h-.6z" fill="#f90"/><path d="M44 41v2h-1v-2h-1v5h1v-2h1v2h1v-5h-1zm-5 6h-1v5.1h3V47h-2zm1 2v2h-1v-3h1v1zm-1-8h-1v3h2v1h-2v1h3v-3h-2v-1h2v-1h-2zm4 6h-1v1h1v4.1h1V48h1v-1h-2zm-19 0h-1v5.1h1V50h2v-3h-2zm1 2h-1v-1h1v1zm-1-8h-1v5h1v-4h1v4h1v-5h-2zm-4 0h-1v3h2v1h-2v1h3v-3h-2v-1h2v-1h-2zm0 6h-1v5.1h1V50h1v2.1h1V47h-2zm1 2h-1v-1h1v1zm27-37v-1h-1v-1h-1V9h-1V8h-1V7h-1V6h-3V5h-7V4h-2v1h-7v1h-3v1h-1v1h-1v1h-1v1h-1v1h-1v1h-1v7H7v2h42v-9h-1z" fill="#7d7d7d"/><path d="M47 12v-1h-1v-1h-1V9h-1V8h-1V7h-3V6h-6v1h1v1h1v1h1v1h1v1h1v1h1v8h8v-8h-1zm-21-1v-1h1V9h1V8h1V7h1V6h-6v1h-3v1h-1v1h-1v1h-1v1h-1v1h-1v8h8v-8h1v-1h1z"/><path d="M38 11h-1v-1h-1V9h-1V8h-1V7h-1V6h-2v1h-1v1h-1v1h-1v1h-1v1h-1v1h-1v8h14v-8h-1v-1z"/><path d="M33.8 9.2h.6v.6h-.6zm-1.2 3.1h.6v-1.2h.6V9.9h-.6v.6h-.6v.6H32v.6h-.6v.6h-.6v.6h-.6v.6h-.6v.6H29v.6h1.8v1.2h-.6v1.2h-.6v1.2h.6v-.6h.6v-.6h.6v-.6h.6v-.6h.6v-.6h.6v-.6h.6v-.6h.6v-.6h-1.8v-1.2zm-3.7 6.1h.6v.6h-.6z" fill="#f90"/></svg>