<?xml version="1.0" encoding="utf-8"?>
<!-- Generator: Adobe Illustrator 25.3.1, SVG Export Plug-In . SVG Version: 6.00 Build 0)  -->
<svg version="1.1" id="Layer_1" xmlns="http://www.w3.org/2000/svg" xmlns:xlink="http://www.w3.org/1999/xlink" x="0px" y="0px"
	 viewBox="0 0 64 64" style="enable-background:new 0 0 64 64;" xml:space="preserve">
<style type="text/css">
	.st0{fill:#B6509E;}
	.st1{fill:#CFEEF4;}
	.st2{fill:#FFFFFF;}
	.st3{fill:#F696C6;}
	.st4{opacity:0.25;enable-background:new    ;}
	.st5{fill:#A73796;}
	.st6{fill:#501E87;}
	.st7{fill:#824EE2;}
	.st8{display:none;}
	.st9{display:inline;}
	.st10{display:inline;fill:#FFFFFF;}
	.st11{fill:#6C3617;}
	.st12{fill:#E06B1A;}
	.st13{fill:#F57A1A;}
	.st14{fill:#C65616;}
	.st15{fill:#B8A394;}
	.st16{fill:#D1B9AA;}
	.st17{display:inline;fill:#501E87;}
	.st18{display:inline;fill:#824EE2;}
	.st19{fill:#64438E;}
	.st20{fill:#C260FF;}
	.st21{fill:#DEA8FF;}
	.st22{fill:#EDD3FD;}
</style>
<g>
	<g>
		<path class="st0" d="M21,12h2v-2h-4v2h1H21z"/>
		<path class="st0" d="M19,14v-2h-2v2h1H19z M25,10h2V8h-4v2h1H25z"/>
		<path class="st0" d="M29,8h8V6H27v2h1H29z M45,14h2v-2h-2v1V14z"/>
		<path class="st0" d="M48,14h-1v39h-2v2h4V14H48z M37,10h4V8h-4v1V10z"/>
		<path class="st0" d="M41,12h4v-2h-4v1V12z M17,53V14h-2v41h4v-2h-1H17z"/>
		<path class="st0" d="M24,51h-5v2h5v-1V51z"/>
		<path class="st0" d="M27,53h-3v2h5v-2h-1H27z M45,51h-5v2h5v-1V51z"/>
		<path class="st0" d="M35,51h-6v2h6v-1V51z"/>
		<path class="st0" d="M38,53h-3v2h5v-2h-1H38z"/>
	</g>
	<g>
		<path class="st1" d="M18,43v6h2v-1h2v1h2v2h-5v2h-2V14h2v1h-1v26V43z"/>
		<path class="st1" d="M27,51h-3v2h5v-2h-1H27z M38,51h-3v2h5v-2h-1H38z"/>
		<path class="st1" d="M35,49h-2v-1h-2v1h-2v2h6v-1V49z M25,11h2v-1h-4v1h1H25z M21,13h2v-1h-4v1h1H21z M45,44v5h-1v-1h-2v1h-2v2h5
			v2h2V14h-2v29V44z"/>
		<path class="st1" d="M37,8H27v1h5v1h5V9V8z M45,12h-4v2h4v-1V12z"/>
		<path class="st1" d="M41,10h-4v2h4v-1V10z"/>
	</g>
	<path class="st2" d="M44,14h-3v-2h-4v-2h-5V9h-5v2h-4v2h-4v2h-1v34h2v-1h2v1h2v2h5v-2h2v-1h2v1h2v2h5v-2h2v-1h2v1h1V14H44z"/>
</g>
<path class="st3" d="M21,32v2h2v-2h-1H21z M42,32h-1v2h2v-2H42z"/>
<g>
	<path class="st0" d="M29,32h-2v2h2v-1V32z"/>
	<path class="st0" d="M33,34h-4v2h6v-2h-1H33z"/>
	<path class="st0" d="M36,32h-1v2h2v-2H36z"/>
</g>
<g>
	<path class="st4" d="M25,58h-6v1h1v1h24v-1h1v-1h-1H25z"/>
</g>
<g>
	<path class="st0" d="M27,23h-1h-1h-1h-1h-1h-1v1h1h1h1v1h-1h-1h-1v1h1h1h1h1h1h1h1h1v-1h-1h-1h-1v-1h1h1h1v-1h-1H27z"/>
	<path class="st0" d="M41,24h1h1v-1h-1h-1h-1h-1h-1h-1h-1h-1v1h1h1h1v1h-1h-1h-1v1h1h1h1h1h1h1h1h1v-1h-1h-1h-1v-1H41z"/>
	<rect x="24" y="24" class="st0" width="2" height="1"/>
	<rect x="38" y="24" class="st0" width="2" height="1"/>
</g>
<g>
	<path class="st5" d="M30.5,15h1v-2h-1V15z"/>
	<path class="st5" d="M31.5,12h1v1h-1V12z"/>
	<path class="st5" d="M33.5,13h-1v2h1V13z M29.5,16h-2v1h1v2h1v-2h2v-1h-1v-1h-1V16z"/>
	<path class="st5" d="M34.5,15h-1v2h1V15z"/>
	<path class="st5" d="M35.5,17h-1v2h1V17z M27.5,21h1v-2h-1V21z"/>
	<path class="st5" d="M35.5,19v2h1v-2H35.5z"/>
</g>
<g>
	<path class="st6" d="M15,53h34V33h-2v1h-1v1h-1v1h-1v1h-1v1h-1v1h-8v1h-4v-1h-8v-1h-1v-1h-1v-1h-1v-1h-1v-1h-1v-1h-2V53z"/>
	<path class="st7" d="M47,35h-1v1h-1v1h-1v1h-1v1h-1v1h-8v1h-4v-1h-8v-1h-1v-1h-1v-1h-1v-1h-1v-1h-1v-1h-1v18h32V34h-1V35z"/>
	<path class="st6" d="M45,43h-1v-3h-1v4h3v-1H45z M44,45h-1v1h2v1h-2v3h3v-1h-2v-1h2v-3H44z M19,45h-1v1h2v1h-2v3h3v-1h-2v-1h2v-3
		H19z M19,43v-3h-1v4h3v-1H19z"/>
	<path class="st2" d="M39,46v-1h-1v-1h-1v-1h-3v1h-1v1h-2v1h-1v1h-3v-1h-1v-3h1v-1h3v1h1v1h1v-2h-1v-1h-1v-1h-3v1h-1v1h-1v1h-1v3h1
		v1h1v1h1v1h3v-1h1v-1h2v-1h1v-1h3v1h1v3h-1v1h-3v-1h-1v-1h-1v2h1v1h1v1h3v-1h1v-1h1v-1h1v-3H39z"/>
</g>
<g class="st8">
	<g class="st9">
		<path class="st0" d="M19,42h1v1h-1V42z M20,36h1v1h-1V36z"/>
		<path class="st0" d="M21,37h1v1h-1V37z M26,40v4h1v-4H26z M21,43h-1v1h2v-1H21z"/>
		<path class="st0" d="M24,44h-2v1h4v-1h-1H24z M25,39h-1v1h2v-1H25z"/>
		<path class="st0" d="M23,38h-1v1h2v-1H23z"/>
	</g>
	<g class="st9">
		<path class="st1" d="M19,43h1v1h-1V43z M24,45h-2v1h4v-1h-1H24z"/>
		<path class="st1" d="M27,41v3h1v-3H27z M21,44h-1v1h2v-1H21z"/>
		<path class="st1" d="M26,44h1v1h-1V44z M19,41h-1v2h1v-1V41z"/>
	</g>
	<g class="st9">
		<path class="st0" d="M44,42h1v1h-1V42z M43,36h1v1h-1V36z"/>
		<path class="st0" d="M42,37h1v1h-1V37z"/>
		<path class="st0" d="M42,39v-1h-2v1h1H42z M42,43v1h2v-1h-1H42z"/>
		<path class="st0" d="M40,44h-2v1h4v-1h-1H40z"/>
		<path class="st0" d="M38,42v-2h-1v4h1v-1V42z"/>
		<path class="st0" d="M40,40v-1h-2v1h1H40z"/>
	</g>
	<g class="st9">
		<path class="st1" d="M42,44v1h2v-1h-1H42z M37,42v-1h-1v3h1v-1V42z"/>
		<path class="st1" d="M40,45h-2v1h4v-1h-1H40z"/>
		<path class="st1" d="M37,44h1v1h-1V44z M44,43h1v1h-1V43z"/>
	</g>
</g>
<g>
	<g>
		<path class="st0" d="M14,40h1v1h-1V40z M13,34h1v1h-1V34z"/>
		<path class="st0" d="M14,33h1v1h-1V33z M12,35h1v1h-1V35z M7,38h1v4H7V38z M12,41h2v1h-2V41z"/>
		<path class="st0" d="M8,42h4v1H8V42z M8,37h2v1H8V37z"/>
		<path class="st0" d="M10,36h2v1h-2V36z"/>
	</g>
	<g>
		<path class="st1" d="M14,39h1v1h-1V39z"/>
		<path class="st1" d="M12,40h2v1h-2V40z"/>
		<path class="st1" d="M8,41h4v1H8V41z"/>
	</g>
	<path class="st2" d="M8,38v3h4v-1h2v-1h1v-5h-1v1h-1v1h-1v1h-2v1H8z"/>
	<g>
		<path class="st0" d="M49,40h1v1h-1V40z M50,34h1v1h-1V34z"/>
		<path class="st0" d="M49,33h1v1h-1V33z M51,35h1v1h-1V35z M56,38h1v4h-1V38z M50,41h2v1h-2V41z"/>
		<path class="st0" d="M52,42h4v1h-4V42z M54,37h2v1h-2V37z"/>
		<path class="st0" d="M52,36h2v1h-2V36z"/>
	</g>
	<g>
		<path class="st1" d="M49,39h1v1h-1V39z"/>
		<path class="st1" d="M50,40h2v1h-2V40z"/>
		<path class="st1" d="M52,41h4v1h-4V41z"/>
	</g>
	<path class="st2" d="M54,38v-1h-2v-1h-1v-1h-1v-1h-1v5h1v1h2v1h4v-3H54z"/>
</g>
<g class="st8">
	<g class="st9">
		<path class="st1" d="M50,38h1v1h-1V38z"/>
		<path class="st1" d="M49,39h1v1h-1V39z M51,37h1v1h-1V37z"/>
		<path class="st1" d="M52,36h2v1h-2V36z"/>
		<path class="st1" d="M54,35h2v1h-2V35z"/>
	</g>
	<path class="st10" d="M52,32v1h-2v1h-1v5h1v-1h1v-1h1v-1h2v-1h2v-3H52z"/>
	<g class="st9">
		<path class="st0" d="M49,33h1v1h-1V33z"/>
		<path class="st0" d="M50,32h2v1h-2V32z M50,39h1v1h-1V39z"/>
		<path class="st0" d="M49,40h1v1h-1V40z M51,38h1v1h-1V38z"/>
		<path class="st0" d="M52,37h2v1h-2V37z M52,31h4v1h-4V31z"/>
		<path class="st0" d="M56,32h1v4h-1V32z"/>
		<path class="st0" d="M54,36h2v1h-2V36z"/>
	</g>
	<g class="st9">
		<path class="st1" d="M13,38h1v1h-1V38z"/>
		<path class="st1" d="M14,39h1v1h-1V39z M12,37h1v1h-1V37z"/>
		<path class="st1" d="M10,36h2v1h-2V36z"/>
		<path class="st1" d="M8,35h2v1H8V35z"/>
	</g>
	<path class="st10" d="M8,32v3h2v1h2v1h1v1h1v1h1v-5h-1v-1h-2v-1H8z"/>
	<g class="st9">
		<path class="st0" d="M14,33h1v1h-1V33z"/>
		<path class="st0" d="M12,32h2v1h-2V32z M13,39h1v1h-1V39z"/>
		<path class="st0" d="M14,40h1v1h-1V40z M12,38h1v1h-1V38z"/>
		<path class="st0" d="M10,37h2v1h-2V37z M8,31h4v1H8V31z"/>
		<path class="st0" d="M7,32h1v4H7V32z"/>
		<path class="st0" d="M8,36h2v1H8V36z"/>
	</g>
</g>
<g>
	<path class="st11" d="M46,2v1h-2v1h-2v1h-2v1H24V5h-2V4h-2V3h-2V2h-3v40h2v-1h1v-1h1v-1h2v1h1v1h2v1h16v-1h2v-1h1v-1h2v1h1v1h1v1h2
		V2H46z"/>
	<g>
		<path class="st12" d="M47,17v-1h-2v-1h-2v-1h-2v-1h-2v-2h1v-1h1V9h1V8h1V7h1V6h1V5h1V4h-2v1h-2v1h-2v1H24V6h-2V5h-2V4h-2v1h1v1h1
			v1h1v1h1v1h1v1h1v1h1v2h-2v1h-2v1h-2v1h-2v1h-1v24h1v-1h1v-1h1v-1h1v-1h1v-1h1v-1h1v-1h1v-1h1v-1h1v-1h1v-1h1v-1h8v1h1v1h1v1h1v1
			h1v1h1v1h1v1h1v1h1v1h1v1h1v1h1v1h1V17H47z"/>
		<path class="st12" d="M46,3h1v1h-1V3z M17,3h1v1h-1V3z"/>
	</g>
	<path class="st13" d="M46,28v-1H34V12h1v-1h1v-1h1V9h1V8h1V7H25v1h1v1h1v1h1v1h1v1h1v15H18v1h-1v1h30v-1H46z"/>
	<path class="st14" d="M34,19v7h1v-1h1v-1h1v-1h1v-1h3v1h1v1h2v-1h1v-1h1v-1h1v-1h1v-1H34z M36,29v1h1v1h1v1h1v1h1v1h1v1h2v-1h1v-1
		h1v-1h1v-1h1v-1h1v-1H36z M16,19v1h1v1h1v1h1v1h1v1h2v-1h1v-1h3v1h1v1h1v1h1v1h1v-7H16z M16,29v1h1v1h1v1h1v1h1v1h1v1h2v-1h1v-1h1
		v-1h1v-1h1v-1h1v-1H16z"/>
	<path class="st15" d="M43,37v-1h-1v-1h-1v-1h-1v-1h-1v-1h-1v-1h-1v-1h-1v1h-1v1h-1v1h-1v1h-2v-1h-1v-1h-1v-1h-1v-1h-1v1h-1v1h-1v1
		h-1v1h-1v1h-1v1h-1v1h-1v1h1v1h1v1h2v1h16v-1h2v-1h1v-1h1v-1H43z"/>
	<path class="st16" d="M43,37v-1h-1v-1h-1v-1h-1v-1h-1v-1h-1v-1h-1v-1h-1v1h-1v1h-1v1h-1v1h-2v-1h-1v-1h-1v-1h-1v-1h-1v1h-1v1h-1v1
		h-1v1h-1v1h-1v1h-1v1h-1v1h24v-1H43z"/>
	<path d="M35,34h2v2h-2V34z M27,34h2v2h-2V34z"/>
	<path d="M29,36h6v2h-6V36z M44,26v-1h-1v-1h-1v-1h-1v-1h-3v1h-1v1h-1v1h-1v1h-1v1h11v-1H44z M30,27v-1h-1v-1h-1v-1h-1v-1h-1v-1h-3
		v1h-1v1h-1v1h-1v1h-1v1H30z M28,29v2h1v1h1v1h1v1h2v-1h1v-1h1v-1h1v-2H28z"/>
</g>
<g>
	<g class="st8">
		<path class="st17" d="M49,42h1v-1h1v-1h1v-7h-2v1h-1V42z"/>
		<path class="st18" d="M50,40h1v-6h-1v1h-1v6h1V40z"/>
	</g>
	<g>
		<path class="st6" d="M49,41h1v1h2v-7h-1v-1h-1v-1h-1V41z"/>
		<path class="st7" d="M50,34h-1v6h1v1h1v-6h-1V34z"/>
	</g>
	<g class="st8">
		<path class="st17" d="M15,34h-1v-1h-2v7h1v1h1v1h1V34z"/>
		<path class="st18" d="M14,41h1v-6h-1v-1h-1v6h1V41z"/>
	</g>
	<g>
		<path class="st6" d="M15,33h-1v1h-1v1h-1v7h2v-1h1V33z"/>
		<path class="st7" d="M14,35h-1v6h1v-1h1v-6h-1V35z"/>
	</g>
</g>
<g>
	<path class="st6" d="M13,25v-1H2v1H1v7h1v1h5v14h1V33h5v-1h1v-7H13z"/>
	<path class="st7" d="M12,25H2v7h11v-7H12z"/>
	<path class="st2" d="M10,26H8v1h2v1H8v3h3v-1H9v-1h2v-3H10z M5,30v-4H4v5h3v-1H6H5z"/>
</g>
<g>
	<g transform="scale(-1, 1) translate(-50, 0)">
		<path class="st19" d="M-1,27v-1h-1v-1h-1v-1h-1v1h-1v1h-1v1h-1v2h1v1h1v1h1v24h1V31h1v-1h1v-1h1v-2H-1z"/>
		<path class="st20" d="M-6,27h5v2h-5V27z"/>
		<path class="st21" d="M-5,26h3v4h-3V26z"/>
		<path class="st22" d="M-4,25v6h1v-6H-4z"/>
	</g>
</g>
</svg>
