<?xml version="1.0" encoding="utf-8"?>
<!-- Generator: Adobe Illustrator 25.3.1, SVG Export Plug-In . SVG Version: 6.00 Build 0)  -->
<svg version="1.1" id="Layer_1" xmlns="http://www.w3.org/2000/svg" xmlns:xlink="http://www.w3.org/1999/xlink" x="0px" y="0px"
	 viewBox="0 0 64 64" style="enable-background:new 0 0 64 64;" xml:space="preserve">
<style type="text/css">
	.st0{fill:#FF2A7A;}
	.st1{fill:#FFC3DF;}
	.st2{fill:#FFFFFF;}
	.st3{fill:#F696C6;}
	.st4{opacity:0.25;enable-background:new    ;}
	.st5{fill:#36818E;}
	.st6{fill:#FFC2DB;}
	.st7{fill:#FFDEEC;}
	.st8{fill:#FF88B8;}
	.st9{fill:#FF3085;}
	.st10{fill:#878787;}
	.st11{fill:#282828;}
	.st12{fill:#0A0A0A;}
	.st13{fill:#D2D2D2;}
	.st14{display:none;}
	.st15{display:inline;}
	.st16{display:inline;fill:#FFFFFF;}
	.st17{fill:#A97955;}
	.st18{fill:#DE9A53;}
	.st19{fill:#FA34F3;}
	.st20{fill:#AC15F9;}
	.st21{fill:#CF15F9;}
	.st22{fill:#8F17F9;}
	.st23{fill:#7E18F8;}
	.st24{fill:#323232;}
	.st25{fill:#00FF00;}
</style>
<g>
	<g>
		<path class="st0" d="M21,12h2v-2h-4v2h1H21z"/>
		<path class="st0" d="M19,14v-2h-2v2h1H19z M25,10h2V8h-4v2h1H25z"/>
		<path class="st0" d="M29,8h8V6H27v2h1H29z M45,14h2v-2h-2v1V14z"/>
		<path class="st0" d="M48,14h-1v39h-2v2h4V14H48z M37,10h4V8h-4v1V10z"/>
		<path class="st0" d="M41,12h4v-2h-4v1V12z M17,53V14h-2v41h4v-2h-1H17z"/>
		<path class="st0" d="M24,51h-5v2h5v-1V51z"/>
		<path class="st0" d="M27,53h-3v2h5v-2h-1H27z M45,51h-5v2h5v-1V51z"/>
		<path class="st0" d="M35,51h-6v2h6v-1V51z"/>
		<path class="st0" d="M38,53h-3v2h5v-2h-1H38z"/>
	</g>
	<g>
		<path class="st1" d="M18,43v6h2v-1h2v1h2v2h-5v2h-2V14h2v1h-1v26V43z"/>
		<path class="st1" d="M27,51h-3v2h5v-2h-1H27z M38,51h-3v2h5v-2h-1H38z"/>
		<path class="st1" d="M35,49h-2v-1h-2v1h-2v2h6v-1V49z M25,11h2v-1h-4v1h1H25z M21,13h2v-1h-4v1h1H21z M45,44v5h-1v-1h-2v1h-2v2h5
			v2h2V14h-2v29V44z"/>
		<path class="st1" d="M37,8H27v1h5v1h5V9V8z M45,12h-4v2h4v-1V12z"/>
		<path class="st1" d="M41,10h-4v2h4v-1V10z"/>
	</g>
	<path class="st2" d="M44,14h-3v-2h-4v-2h-5V9h-5v2h-4v2h-4v2h-1v34h2v-1h2v1h2v2h5v-2h2v-1h2v1h2v2h5v-2h2v-1h2v1h1V14H44z"/>
</g>
<path class="st3" d="M21,32v2h2v-2h-1H21z M42,32h-1v2h2v-2H42z"/>
<g>
	<path class="st0" d="M29,32h-2v2h2v-1V32z"/>
	<path class="st0" d="M33,34h-4v2h6v-2h-1H33z"/>
	<path class="st0" d="M36,32h-1v2h2v-2H36z"/>
</g>
<g>
	<path class="st4" d="M25,58h-6v1h1v1h24v-1h1v-1h-1H25z"/>
</g>
<g>
	<path class="st5" d="M39,23v1h-1v-1H39v-1h-2v1h-1v2h1v1h2v-1h1v-2H39z"/>
	<g>
		<path class="st0" d="M34,25h-1v1h1V25z M41,25v1h1v-2h-1V25z M37,23v-1h-2v1H37z"/>
		<path class="st0" d="M44,21h-7v1h5v2h1v-1h1v-1h1v-1H44z M35,26h-1v1h2v-1H35z"/>
		<path class="st0" d="M38,27h-2v1h4v-1H38z M35,24v-1h-1v2h1V24z"/>
		<path class="st0" d="M41,26h-1v1h1V26z"/>
	</g>
	<path class="st5" d="M27,22h-2v1h1v1h-1v-1h-1v2h1v1h2v-1h1v-2h-1V22z"/>
	<g>
		<path class="st0" d="M31,25h-1v1h1V25z M23,24h-1v2h1V24z"/>
		<path class="st0" d="M22,22h5v-1h-8v1h1v1h1v1h1V22z"/>
		<path class="st0" d="M28,23h1v-1h-2v1H28z M28,26v1h2v-1H28z"/>
		<path class="st0" d="M26,27h-2v1h4v-1H26z M29,25h1v-2h-1V25z"/>
		<path class="st0" d="M24,26h-1v1h1V26z"/>
	</g>
</g>
<g>
	<path class="st6" d="M30,9V8h-1v1h-1v2h1v1h2V9H30z"/>
	<path class="st7" d="M28,7V6h-1v2h2V7H28z"/>
	<path class="st2" d="M26,5h1v1h-1V5z"/>
	<path class="st8" d="M33,13v-2h-1v1h-1v1h-2v1h1v1h4v-2H33z"/>
	<g>
		<path class="st9" d="M27,5V4h-1V3h-1v3h1V5H27z"/>
		<path class="st9" d="M27,5h1v1h-1V5z"/>
		<path class="st9" d="M28,6h1v1h-1V6z"/>
		<path class="st9" d="M29,7h1v1h-1V7z"/>
		<path class="st9" d="M30,8h1v1h-1V8z M28,9h1V8h-2v3h1V9z"/>
		<path class="st9" d="M31,13v-1h-2v-1h-1v3h1v-1H31z"/>
		<path class="st9" d="M31,12h1v-1h1v-1h-1V9h-1V12z"/>
		<path class="st9" d="M34,12v-1h-1v2h1v2h1v-3H34z"/>
		<path class="st9" d="M30,15v-1h-1v2h5v-1H30z M26,6h1v2h-1V6z"/>
	</g>
</g>
<g>
	<path d="M15,41v14h4v-2h5v2h5v-2h6v2h5v-2h5v2h4V41H15z"/>
	<path class="st10" d="M32,42h1v1h-1V42z"/>
	<path class="st11" d="M25,42v1h6v-1H25z M34,42v1h5v-1H34z M16,42v1h8v-1H16z M40,42v1h8v-1H40z"/>
	<g>
		<path class="st12" d="M19,44v3h-1v1h-2v5h3v-2h5v2h5v-2h2v-7H19z"/>
		<path class="st12" d="M18,44h-2v3h2V44z M33,44h-1v4h1V44z M46,44v3h2v-3H46z"/>
		<path class="st12" d="M45,44H34v4h-1v1h-1v2h3v2h5v-2h5v2h3v-5h-2v-1h-1V44z"/>
	</g>
	<g>
		<path class="st13" d="M48,48h1v1h-1V48z M42,46h-1v2h1V46z"/>
		<path class="st13" d="M41,44h-1v2h1V44z M40,42h1v1h-1V42z M43,49v1h5v-1H43z"/>
		<path class="st13" d="M42,48h1v1h-1V48z"/>
	</g>
</g>
<g class="st14">
	<g class="st15">
		<path class="st0" d="M19,42h1v1h-1V42z M20,36h1v1h-1V36z"/>
		<path class="st0" d="M21,37h1v1h-1V37z M26,40v4h1v-4H26z M21,43h-1v1h2v-1H21z"/>
		<path class="st0" d="M24,44h-2v1h4v-1h-1H24z M25,39h-1v1h2v-1H25z"/>
		<path class="st0" d="M23,38h-1v1h2v-1H23z"/>
	</g>
	<g class="st15">
		<path class="st1" d="M19,43h1v1h-1V43z M24,45h-2v1h4v-1h-1H24z"/>
		<path class="st1" d="M27,41v3h1v-3H27z M21,44h-1v1h2v-1H21z"/>
		<path class="st1" d="M26,44h1v1h-1V44z M19,41h-1v2h1v-1V41z"/>
	</g>
	<g class="st15">
		<path class="st0" d="M44,42h1v1h-1V42z M43,36h1v1h-1V36z"/>
		<path class="st0" d="M42,37h1v1h-1V37z"/>
		<path class="st0" d="M42,39v-1h-2v1h1H42z M42,43v1h2v-1h-1H42z"/>
		<path class="st0" d="M40,44h-2v1h4v-1h-1H40z"/>
		<path class="st0" d="M38,42v-2h-1v4h1v-1V42z"/>
		<path class="st0" d="M40,40v-1h-2v1h1H40z"/>
	</g>
	<g class="st15">
		<path class="st1" d="M42,44v1h2v-1h-1H42z M37,42v-1h-1v3h1v-1V42z"/>
		<path class="st1" d="M40,45h-2v1h4v-1h-1H40z"/>
		<path class="st1" d="M37,44h1v1h-1V44z M44,43h1v1h-1V43z"/>
	</g>
</g>
<g>
	<g>
		<path class="st0" d="M14,40h1v1h-1V40z M13,34h1v1h-1V34z"/>
		<path class="st0" d="M14,33h1v1h-1V33z M12,35h1v1h-1V35z M7,38h1v4H7V38z M12,41h2v1h-2V41z"/>
		<path class="st0" d="M8,42h4v1H8V42z M8,37h2v1H8V37z"/>
		<path class="st0" d="M10,36h2v1h-2V36z"/>
	</g>
	<g>
		<path class="st1" d="M14,39h1v1h-1V39z"/>
		<path class="st1" d="M12,40h2v1h-2V40z"/>
		<path class="st1" d="M8,41h4v1H8V41z"/>
	</g>
	<path class="st2" d="M8,38v3h4v-1h2v-1h1v-5h-1v1h-1v1h-1v1h-2v1H8z"/>
	<g>
		<path class="st0" d="M49,40h1v1h-1V40z M50,34h1v1h-1V34z"/>
		<path class="st0" d="M49,33h1v1h-1V33z M51,35h1v1h-1V35z M56,38h1v4h-1V38z M50,41h2v1h-2V41z"/>
		<path class="st0" d="M52,42h4v1h-4V42z M54,37h2v1h-2V37z"/>
		<path class="st0" d="M52,36h2v1h-2V36z"/>
	</g>
	<g>
		<path class="st1" d="M49,39h1v1h-1V39z"/>
		<path class="st1" d="M50,40h2v1h-2V40z"/>
		<path class="st1" d="M52,41h4v1h-4V41z"/>
	</g>
	<path class="st2" d="M54,38v-1h-2v-1h-1v-1h-1v-1h-1v5h1v1h2v1h4v-3H54z"/>
</g>
<g class="st14">
	<g class="st15">
		<path class="st1" d="M50,38h1v1h-1V38z"/>
		<path class="st1" d="M49,39h1v1h-1V39z M51,37h1v1h-1V37z"/>
		<path class="st1" d="M52,36h2v1h-2V36z"/>
		<path class="st1" d="M54,35h2v1h-2V35z"/>
	</g>
	<path class="st16" d="M52,32v1h-2v1h-1v5h1v-1h1v-1h1v-1h2v-1h2v-3H52z"/>
	<g class="st15">
		<path class="st0" d="M49,33h1v1h-1V33z"/>
		<path class="st0" d="M50,32h2v1h-2V32z M50,39h1v1h-1V39z"/>
		<path class="st0" d="M49,40h1v1h-1V40z M51,38h1v1h-1V38z"/>
		<path class="st0" d="M52,37h2v1h-2V37z M52,31h4v1h-4V31z"/>
		<path class="st0" d="M56,32h1v4h-1V32z"/>
		<path class="st0" d="M54,36h2v1h-2V36z"/>
	</g>
	<g class="st15">
		<path class="st1" d="M13,38h1v1h-1V38z"/>
		<path class="st1" d="M14,39h1v1h-1V39z M12,37h1v1h-1V37z"/>
		<path class="st1" d="M10,36h2v1h-2V36z"/>
		<path class="st1" d="M8,35h2v1H8V35z"/>
	</g>
	<path class="st16" d="M8,32v3h2v1h2v1h1v1h1v1h1v-5h-1v-1h-2v-1H8z"/>
	<g class="st15">
		<path class="st0" d="M14,33h1v1h-1V33z"/>
		<path class="st0" d="M12,32h2v1h-2V32z M13,39h1v1h-1V39z"/>
		<path class="st0" d="M14,40h1v1h-1V40z M12,38h1v1h-1V38z"/>
		<path class="st0" d="M10,37h2v1h-2V37z M8,31h4v1H8V31z"/>
		<path class="st0" d="M7,32h1v4H7V32z"/>
		<path class="st0" d="M8,36h2v1H8V36z"/>
	</g>
</g>
<g>
	<path class="st17" d="M51,20v-2h-2v-4h-2V6h-2V4h-4V2H23v2h-4v2h-2v8h-2v4h-2v2H7v2h50v-2H51z"/>
	<g>
		<path class="st18" d="M29,4h2v2h-2V4z M33,4h2v2h-2V4z M37,4h2v2h-2V4z"/>
		<path class="st18" d="M35,6h2v2h-2V6z M39,6h2v2h-2V6z M43,6h2v2h-2V6z M25,4h2v2h-2V4z"/>
		<path class="st18" d="M29,8h2v2h-2V8z M33,8h2v2h-2V8z M37,8h2v2h-2V8z M25,8h2v2h-2V8z M29,12h2v2h-2V12z M33,12h2v2h-2V12z
			 M37,12h2v2h-2V12z M25,12h2v2h-2V12z M29,16h2v2h-2V16z M33,16h2v2h-2V16z M37,16h2v2h-2V16z M41,8h2v2h-2V8z M41,12h2v2h-2V12z
			 M41,16h2v2h-2V16z M25,16h2v2h-2V16z M21,8h2v2h-2V8z"/>
		<path class="st18" d="M21,12h2v2h-2V12z M21,16h2v2h-2V16z M23,6h2v2h-2V6z M27,6h2v2h-2V6z M31,6h2v2h-2V6z M19,6h2v2h-2V6z
			 M35,10h2v2h-2V10z M39,10h2v2h-2V10z"/>
		<path class="st18" d="M43,10h2v2h-2V10z M23,10h2v2h-2V10z M27,10h2v2h-2V10z M31,10h2v2h-2V10z M19,10h2v2h-2V10z M35,14h2v2h-2
			V14z M39,14h2v2h-2V14z M43,14h2v2h-2V14z M23,14h2v2h-2V14z M27,14h2v2h-2V14z M31,14h2v2h-2V14z M19,14h2v2h-2V14z M35,18h2v2
			h-2V18z M39,18h2v2h-2V18z M43,18h2v2h-2V18z"/>
		<path class="st18" d="M45,16h2v2h-2V16z"/>
		<path class="st18" d="M47,18h2v2h-2V18z M23,18h2v2h-2V18z M27,18h2v2h-2V18z M31,18h2v2h-2V18z M19,18h2v2h-2V18z"/>
		<path class="st18" d="M17,16h2v2h-2V16z"/>
		<path class="st18" d="M15,18h2v2h-2V18z"/>
	</g>
</g>
<g>
	<path class="st19" d="M12,36v-1h-1v-1h-1v-1H4v1H3v1H2v1H1v6h1v1h1v1h1v1h6v-1h1v-1h1v-1h1v-6H12z"/>
	<path class="st20" d="M1,39v2h12v-2H1z"/>
	<path class="st21" d="M1,37v2h12v-2H1z"/>
	<path class="st22" d="M1,41v1h1v1h10v-1h1v-1H1z"/>
	<path class="st23" d="M3,43v1h1v1h6v-1h1v-1H3z"/>
	<g>
		<path class="st2" d="M8.9,39.8h0.4v-0.6H8.9V39.8z"/>
		<path class="st2" d="M7.4,39.8v0.5h0.9v0.4h0.4v-0.4h0.2v-0.5H7.4z M7.8,39.2h1.1v-0.4H7.8V39.2z"/>
		<path class="st2" d="M7.4,38.2v0.6h0.4v-0.6H7.4z"/>
		<path class="st2" d="M8.7,37.7v-0.4H8.3v0.4H7.8v0.5h1.5v-0.5C9.3,37.7,8.7,37.7,8.7,37.7z M10.6,40.3H11v-2.1h0.9v-0.5H9.8v0.5
			h0.8C10.6,38.2,10.6,40.3,10.6,40.3z M6.6,37.7v1.1H5.5v-1.1H5.1v2.6h0.4v-1.1h1.1v1.1H7v-2.6C7,37.7,6.6,37.7,6.6,37.7z M3,37.7
			v0.5h1.7v-0.5H3z M4.7,39.8v-1H3.4v0.4h0.8v0.6H4.7z"/>
		<path class="st2" d="M3,40.3h1.2v-0.5H3V40.3z"/>
		<path class="st2" d="M2.6,38.2v1.6H3v-1.6H2.6z"/>
	</g>
</g>
<g>
	<g transform="scale(-1, 1) translate(-56, 0)">
		<path d="M-4,31v11h1v1h1v1h1v1h3v-1h1v-1h1v-1h1V31H-4z"/>
		<path class="st24" d="M-3,33v7h7v-7H-3z"/>
		<path class="st25" d="M-1,38h3v1h-3V38z M-1,34h3v1h-3V34z M-1,36h3v1h-3V36z"/>
	</g>
</g>
</svg>
