<svg xmlns="http://www.w3.org/2000/svg" viewBox="0 0 64 64"><path d="M44,58H19v1h1v1h24v-1h1v-1H44z" opacity=".25" enable-background="new"/><path d="M47 14v-2h-2v-2h-4V8h-4V6H27v2h-4v2h-4v2h-2v2h-2v41h4v-2h5v2h5v-2h6v2h5v-2h5v2h4V14z" fill="#64438e"/><path d="M45 14v-2h-4v-2h-4V8H27v2h-4v2h-4v2h-2v39h2v-2h5v2h5v-2h6v2h5v-2h5v2h2V14z" fill="#edd3fd"/><path d="M18,49h2v-1h2v1h2v2h5v-2h2v-1h2v1h2v2h5v-2h2v-1h2v1h1V14h-4v-2h-4v-2h-5V9h-5v2h-4v2h-4v2h-1V49z" fill="#fff"/><path d="M23 28v2h4v-2h2v-4h-2v-2h-4v2h-2v4h2zm12-4v4h2v2h4v-2h2v-4h-2v-2h-4v2h-2z" fill="#64438e"/><path d="M21 32v2h2v-2h-2zm20 0v2h2v-2h-2z" fill="#f696c6"/><g fill="#64438e"><path d="M29,32h-2v2h2V32z"/><path d="M29,34v2h6v-2H29z"/><path d="M35 32v2h2v-2h-2zm0-17v-1h-1v-1h-1v-1h-2v1h-1v1h-1v1h-1v4h1v1h1v1h1v1h2v-1h1v-1h1v-1h1v-4z"/></g><g fill="#dea8ff"><path d="M29,17v2h1v1h1v1h1v-4H29z"/><path d="M34,15v-1h-1v-1h-1v4h3v-2H34z"/></g><path d="M32,17v4h1v-1h1v-1h1v-2H32z" fill="#c260ff"/><path d="M31,13v1h-1v1h-1v2h3v-4H31z" fill="#edd3fd"/><path d="M8 38v-1h2v-1h2v-1h1v-1h1v-1h1v8h-1v1h-2v1H8v-1H7v-4z" fill="#64438e"/><path d="M10 38v-1h2v-1h1v-1h1v-1h1v6h-1v1h-2v1H8v-4z" fill="#edd3fd"/><path d="M8,38v3h4v-1h2v-1h1v-5h-1v1h-1v1h-1v1h-2v1H8z" fill="#fff"/><path d="M56 38v-1h-2v-1h-2v-1h-1v-1h-1v-1h-1v8h1v1h2v1h4v-1h1v-4z" fill="#64438e"/><path d="M54 38v-1h-2v-1h-1v-1h-1v-1h-1v6h1v1h2v1h4v-4z" fill="#edd3fd"/><path d="M54,38v-1h-2v-1h-1v-1h-1v-1h-1v5h1v1h2v1h4v-3H54z" fill="#fff"/><path d="M35 41v-1h-6v1H15v14h4v-2h5v2h5v-2h6v2h5v-2h5v2h4V41H35z" fill="#001e6e"/><g fill="#334b8b"><path d="M29 45v-1H19v3h-1v1h-2v5h3v-2h5v2h5v-2h2v-6h-2z"/><path d="M18 45v-1h-2v3h2v-2zm15 1v-1h-1v3h1v-2zm14-2h-1v3h2v-3h-1z"/><path d="M45 46v-2H35v1h-1v3h-1v1h-1v2h3v2h5v-2h5v2h3v-5h-2v-1h-1v-1z"/></g><path d="M29 52v-5h-1v1h-1v1h-1v-1h-1v-1h-1v6h-1v2h7v-2h-1v-1z" fill="#4b2d00"/><path d="M28 47v1h-1v1h-1v-1h-1v-1h-1v6h1v-1h3v1h1v-6h-1z" fill="#a97955"/><path d="M26 49v3h1v-3h-1z" fill="#8b4b1a"/><path d="M28 49h1v1h-1zm-4 0h1v1h-1zm4 2h1v1h-1zm-4 0h1v1h-1z" fill="#e4c599"/><path d="M40 52v-5h-1v1h-1v1h-1v-1h-1v-1h-1v6h-1v2h7v-2h-1v-1z" fill="#4b2d00"/><path d="M39 47v1h-1v1h-1v-1h-1v-1h-1v6h1v-1h3v1h1v-6h-1z" fill="#a97955"/><path d="M37 49v3h1v-3h-1z" fill="#8b4b1a"/><path d="M39 49h1v1h-1zm-4 0h1v1h-1zm4 2h1v1h-1zm-4 0h1v1h-1z" fill="#e4c599"/><path d="M36 42v-1h-1v-1h-6v1h-1v1H16v1h12v1h1v1h4 0 1 0 1v-1h1v-1h12v-1H36z" fill="#4b2d00"/><path d="M36 42v1h2v-1h-2zm-10 0v1h2v-1h-2zm-8 0v1h2v-1h-2zm4 0v1h2v-1h-2zm18 0v1h2v-1h-2zm4 0v1h2v-1h-2zm-15-1v3h6v-3h-6zm2 2v-1h2v1h-2z" fill="#a97955"/><g fill="#e4c599"><path d="M30 42h1v1h-1zm3 0h1v1h-1zm-22-5h1v-1h-2v1h1z"/><path d="M9 36h1v-2H9v2zm0-4v1h2v-1H9z"/><path d="M11 31h1v1h-1z"/><path d="M12 30h1v1h-1z"/><path d="M13 26v4h1v-4h-1z"/><path d="M12 25h1v1h-1z"/><path d="M11 24h1v1h-1z"/><path d="M7 24h4v-1H5v1h2zm-4 1h1v1H3z"/><path d="M4 24h1v1H4zm-1 4v-2H2v4h1v-2z"/><path d="M3 30h1v1H3z"/><path d="M4 31h1v1H4z"/><path d="M6 32H5v1h2v-1H6z"/><path d="M7 33v1h2v-1H7zm5 6h1v-2h-1v2z"/><path d="M13 41v1h1v-3h-1v2z"/><path d="M12 42h1v1h-1z"/><path d="M10 43H8v1h4v-1h-2z"/><path d="M7 44h1v1H7z"/><path d="M6 46v1h1v-2H6v1z"/><path d="M7 47h1v1H7z"/><path d="M8 48h1v1H8z"/></g><path d="M9 35h1v1H9zm-1-2h1v1H8zm2-1h1v1h-1zm2-2h1v1h-1zm1-2h1v1h-1zm0-2h1v1h-1zm-2-2h1v1h-1zm-2-1h1v1H9zm-2 0h1v1H7zm-2 0h1v1H5zm-2 2h1v1H3zm-1 2h1v1H2zm0 2h1v1H2zm2 2h1v1H4zm2 1h1v1H6zm5 4h1v1h-1zm1 2h1v1h-1zm1 2h1v1h-1zm-1 2h1v1h-1zm-2 1h1v1h-1zm-2 0h1v1H8zm-2 2h1v1H6zm1 2h1v1H7z" fill="#a97955"/><path d="M53 17v2h-4V7h-2V5h-2V3H35v1h-1v1h-4V4h-1V3H19v2h-2v2h-2v12h-4v-2H9v3h1v1h44v-1h1v-3h-2z" fill="#e4c599"/><path d="M15 16v3h34v-3H15z" fill="#4b2d00"/><path d="M21 16v3h2v-3h-2zm4 0v3h2v-3h-2zm4 0v3h2v-3h-2zm12 0v3h2v-3h-2zm-4 0v3h2v-3h-2zm-20 0v3h2v-3h-2zm28 0v3h2v-3h-2zm-12 0v3h2v-3h-2z" fill="#a97955"/></svg>