<?xml version="1.0" encoding="utf-8"?>
<!-- Generator: Adobe Illustrator 25.3.1, SVG Export Plug-In . SVG Version: 6.00 Build 0)  -->
<svg version="1.1" id="Layer_1" xmlns="http://www.w3.org/2000/svg" xmlns:xlink="http://www.w3.org/1999/xlink" x="0px" y="0px"
	 viewBox="0 0 64 64" style="enable-background:new 0 0 64 64;" xml:space="preserve">
<style type="text/css">
	.st0{fill:#282473;}
	.st1{fill:#489FF8;}
	.st2{fill:#FFFFFF;}
	.st3{fill:#F696C6;}
	.st4{opacity:0.25;enable-background:new    ;}
	.st5{fill:#EA8C27;}
	.st6{fill:#006400;}
	.st7{fill:#00AF00;}
	.st8{display:none;}
	.st9{display:inline;}
	.st10{display:inline;fill:#FFFFFF;}
	.st11{fill:#C8C8C8;}
	.st12{fill:#C260FF;}
	.st13{fill:#FFDD00;}
	.st14{fill:#0000FF;}
	.st15{fill:#0000CB;}
	.st16{opacity:0.5;fill:#FFFFFF;enable-background:new    ;}
	.st17{opacity:0.5;fill:#C3FFFF;enable-background:new    ;}
	.st18{fill:#DECD87;}
	.st19{fill:#782121;}
	.st20{fill:#008000;}
	.st21{fill:#00AA00;}
	.st22{fill:#9B00DC;}
	.st23{fill:#FAAFF3;}
</style>
<g>
	<g>
		<path class="st0" d="M21,12h2v-2h-4v2h1H21z"/>
		<path class="st0" d="M19,14v-2h-2v2h1H19z M25,10h2V8h-4v2h1H25z"/>
		<path class="st0" d="M29,8h8V6H27v2h1H29z M45,14h2v-2h-2v1V14z"/>
		<path class="st0" d="M48,14h-1v39h-2v2h4V14H48z M37,10h4V8h-4v1V10z"/>
		<path class="st0" d="M41,12h4v-2h-4v1V12z M17,53V14h-2v41h4v-2h-1H17z"/>
		<path class="st0" d="M24,51h-5v2h5v-1V51z"/>
		<path class="st0" d="M27,53h-3v2h5v-2h-1H27z M45,51h-5v2h5v-1V51z"/>
		<path class="st0" d="M35,51h-6v2h6v-1V51z"/>
		<path class="st0" d="M38,53h-3v2h5v-2h-1H38z"/>
	</g>
	<g>
		<path class="st1" d="M18,43v6h2v-1h2v1h2v2h-5v2h-2V14h2v1h-1v26V43z"/>
		<path class="st1" d="M27,51h-3v2h5v-2h-1H27z M38,51h-3v2h5v-2h-1H38z"/>
		<path class="st1" d="M35,49h-2v-1h-2v1h-2v2h6v-1V49z M25,11h2v-1h-4v1h1H25z M21,13h2v-1h-4v1h1H21z M45,44v5h-1v-1h-2v1h-2v2h5
			v2h2V14h-2v29V44z"/>
		<path class="st1" d="M37,8H27v1h5v1h5V9V8z M45,12h-4v2h4v-1V12z"/>
		<path class="st1" d="M41,10h-4v2h4v-1V10z"/>
	</g>
	<path class="st2" d="M44,14h-3v-2h-4v-2h-5V9h-5v2h-4v2h-4v2h-1v34h2v-1h2v1h2v2h5v-2h2v-1h2v1h2v2h5v-2h2v-1h2v1h1V14H44z"/>
</g>
<path class="st3" d="M21,32v2h2v-2h-1H21z M42,32h-1v2h2v-2H42z"/>
<g>
	<path class="st0" d="M29,32h-2v2h2v-1V32z"/>
	<path class="st0" d="M33,34h-4v2h6v-2h-1H33z"/>
	<path class="st0" d="M36,32h-1v2h2v-2H36z"/>
</g>
<g>
	<path class="st4" d="M25,58h-6v1h1v1h24v-1h1v-1h-1H25z"/>
</g>
<g>
	<path class="st5" d="M28,22h-1v-1h-1h-1h-1h-1v1h-1v1h-1v1v1v1v1h1v1h1v1h1h1h1h1v-1h1v-1h1v-1v-1v-1v-1h-1V22z"/>
	<path class="st5" d="M42,23v-1h-1v-1h-1h-1h-1h-1v1h-1v1h-1v1v1v1v1h1v1h1v1h1h1h1h1v-1h1v-1h1v-1v-1v-1v-1H42z"/>
</g>
<g>
	<g>
		<path class="st0" d="M37,15h-1v4h1V15z M34,20h1v1h-1V20z"/>
		<path class="st0" d="M35,19h1v1h-1V19z M29,20h1v1h-1V20z"/>
		<path class="st0" d="M34,22v-1h-4v1H34z"/>
	</g>
	<g>
		<path class="st1" d="M30.5,15v1h1v3h1v-3h1v-1H30.5z M30,12v1h4v-1H30z"/>
		<path class="st1" d="M34,13h1v1h-1V13z M27,19h1v-4h-1V19z M29,13h1v1h-1V13z"/>
		<path class="st1" d="M28,14h1v1h-1V14z"/>
	</g>
</g>
<g>
	<path class="st6" d="M15,41v14h4v-2h5v2h5v-2h6v2h5v-2h5v2h4V41H15z"/>
	<path class="st7" d="M33,42h1v1h-1V42z M24,42h1v1h-1V42z M39,42h1v1h-1V42z M16,44v9h3v-2h5v2h5v-2h6v2h5v-2h5v2h3v-9H16z M30,42
		h1v1h-1V42z M28,42h1v1h-1V42z M35,42h1v1h-1V42z M37,42h1v1h-1V42z M26,42h1v1h-1V42z M20,42h1v1h-1V42z M18,42h1v1h-1V42z M22,42
		h1v1h-1V42z M16,42h1v1h-1V42z M43,42h1v1h-1V42z M41,42h1v1h-1V42z M47,42h1v1h-1V42z M45,42h1v1h-1V42z"/>
	<g>
		<path class="st2" d="M30,43h1v1h-1V43z M33,43h1v1h-1V43z"/>
		<path class="st2" d="M29,44h1v1h-1V44z M34,44h1v1h-1V44z M31,42v1h2v-1H31z"/>
	</g>
</g>
<g class="st8">
	<g class="st9">
		<path class="st0" d="M19,42h1v1h-1V42z M20,36h1v1h-1V36z"/>
		<path class="st0" d="M21,37h1v1h-1V37z M26,40v4h1v-4H26z M21,43h-1v1h2v-1H21z"/>
		<path class="st0" d="M24,44h-2v1h4v-1h-1H24z M25,39h-1v1h2v-1H25z"/>
		<path class="st0" d="M23,38h-1v1h2v-1H23z"/>
	</g>
	<g class="st9">
		<path class="st1" d="M19,43h1v1h-1V43z M24,45h-2v1h4v-1h-1H24z"/>
		<path class="st1" d="M27,41v3h1v-3H27z M21,44h-1v1h2v-1H21z"/>
		<path class="st1" d="M26,44h1v1h-1V44z M19,41h-1v2h1v-1V41z"/>
	</g>
	<g class="st9">
		<path class="st0" d="M44,42h1v1h-1V42z M43,36h1v1h-1V36z"/>
		<path class="st0" d="M42,37h1v1h-1V37z"/>
		<path class="st0" d="M42,39v-1h-2v1h1H42z M42,43v1h2v-1h-1H42z"/>
		<path class="st0" d="M40,44h-2v1h4v-1h-1H40z"/>
		<path class="st0" d="M38,42v-2h-1v4h1v-1V42z"/>
		<path class="st0" d="M40,40v-1h-2v1h1H40z"/>
	</g>
	<g class="st9">
		<path class="st1" d="M42,44v1h2v-1h-1H42z M37,42v-1h-1v3h1v-1V42z"/>
		<path class="st1" d="M40,45h-2v1h4v-1h-1H40z"/>
		<path class="st1" d="M37,44h1v1h-1V44z M44,43h1v1h-1V43z"/>
	</g>
</g>
<g>
	<g>
		<path class="st0" d="M14,40h1v1h-1V40z M13,34h1v1h-1V34z"/>
		<path class="st0" d="M14,33h1v1h-1V33z M12,35h1v1h-1V35z M7,38h1v4H7V38z M12,41h2v1h-2V41z"/>
		<path class="st0" d="M8,42h4v1H8V42z M8,37h2v1H8V37z"/>
		<path class="st0" d="M10,36h2v1h-2V36z"/>
	</g>
	<g>
		<path class="st1" d="M14,39h1v1h-1V39z"/>
		<path class="st1" d="M12,40h2v1h-2V40z"/>
		<path class="st1" d="M8,41h4v1H8V41z"/>
	</g>
	<path class="st2" d="M8,38v3h4v-1h2v-1h1v-5h-1v1h-1v1h-1v1h-2v1H8z"/>
	<g>
		<path class="st0" d="M49,40h1v1h-1V40z M50,34h1v1h-1V34z"/>
		<path class="st0" d="M49,33h1v1h-1V33z M51,35h1v1h-1V35z M56,38h1v4h-1V38z M50,41h2v1h-2V41z"/>
		<path class="st0" d="M52,42h4v1h-4V42z M54,37h2v1h-2V37z"/>
		<path class="st0" d="M52,36h2v1h-2V36z"/>
	</g>
	<g>
		<path class="st1" d="M49,39h1v1h-1V39z"/>
		<path class="st1" d="M50,40h2v1h-2V40z"/>
		<path class="st1" d="M52,41h4v1h-4V41z"/>
	</g>
	<path class="st2" d="M54,38v-1h-2v-1h-1v-1h-1v-1h-1v5h1v1h2v1h4v-3H54z"/>
</g>
<g class="st8">
	<g class="st9">
		<path class="st1" d="M50,38h1v1h-1V38z"/>
		<path class="st1" d="M49,39h1v1h-1V39z M51,37h1v1h-1V37z"/>
		<path class="st1" d="M52,36h2v1h-2V36z"/>
		<path class="st1" d="M54,35h2v1h-2V35z"/>
	</g>
	<path class="st10" d="M52,32v1h-2v1h-1v5h1v-1h1v-1h1v-1h2v-1h2v-3H52z"/>
	<g class="st9">
		<path class="st0" d="M49,33h1v1h-1V33z"/>
		<path class="st0" d="M50,32h2v1h-2V32z M50,39h1v1h-1V39z"/>
		<path class="st0" d="M49,40h1v1h-1V40z M51,38h1v1h-1V38z"/>
		<path class="st0" d="M52,37h2v1h-2V37z M52,31h4v1h-4V31z"/>
		<path class="st0" d="M56,32h1v4h-1V32z"/>
		<path class="st0" d="M54,36h2v1h-2V36z"/>
	</g>
	<g class="st9">
		<path class="st1" d="M13,38h1v1h-1V38z"/>
		<path class="st1" d="M14,39h1v1h-1V39z M12,37h1v1h-1V37z"/>
		<path class="st1" d="M10,36h2v1h-2V36z"/>
		<path class="st1" d="M8,35h2v1H8V35z"/>
	</g>
	<path class="st10" d="M8,32v3h2v1h2v1h1v1h1v1h1v-5h-1v-1h-2v-1H8z"/>
	<g class="st9">
		<path class="st0" d="M14,33h1v1h-1V33z"/>
		<path class="st0" d="M12,32h2v1h-2V32z M13,39h1v1h-1V39z"/>
		<path class="st0" d="M14,40h1v1h-1V40z M12,38h1v1h-1V38z"/>
		<path class="st0" d="M10,37h2v1h-2V37z M8,31h4v1H8V31z"/>
		<path class="st0" d="M7,32h1v4H7V32z"/>
		<path class="st0" d="M8,36h2v1H8V36z"/>
	</g>
</g>
<g>
	<path d="M17.1,29.9v-2h-2v-3.8h2v-2h29.8v2h2v3.8h-2v2H17.1z"/>
	<path class="st11" d="M46.8,22.2v2h2v3.5h-2v2.1H17.2v-2h-2v-3.6h2v-2H46.8 M47,22H17v2h-2v4h2v2h30v-2h2v-4h-2V22z"/>
	<path d="M17,24h30v4H17V24z"/>
	<path class="st12" d="M41,24v4h2v-4H41z"/>
	<g>
		<path class="st11" d="M17,22h30v2H17V22z"/>
		<path class="st11" d="M15,24h2v4h-2V24z M47,24h2v4h-2V24z"/>
		<path class="st11" d="M17,28h30v2H17V28z"/>
	</g>
</g>
<g>
	<path class="st13" d="M15,14h34v6H15V14z"/>
	<path class="st7" d="M15,14h34v4H15V14z"/>
	<path class="st14" d="M15,14h34v2H15V14z"/>
</g>
<g>
	<path class="st14" d="M12,34v-1h-1v-2H9v2H8v1H7v9h1v1h4v-1h1v-9H12z"/>
	<path class="st15" d="M9,31v1h2v-1H9z"/>
	<g>
		<path class="st2" d="M11,34v-1H9v1H8v9h4v-9H11z"/>
		<path class="st16" d="M11,34v-1H9v1H8v9h4v-9H11z"/>
	</g>
	<path class="st17" d="M8,36v7h4v-7H8z"/>
</g>
<g>
	<g transform="scale(-1, 1) translate(-52, 0)">
		<path d="M0,30v-1h-1v-6h-3v6h-1v1h-1v14h1v1h5v-1h1V30H0z"/>
		<path class="st18" d="M-5,34h2v7h-2V34z"/>
		<path class="st19" d="M-3,26h1v2h-1V26z"/>
		<path class="st20" d="M-3,24h1v1h-1V24z M-1,30v-1h-3v1h-1v3h3v9h-3v2h5V30H-1z"/>
		<path class="st21" d="M-5,30h1v3h-1V30z M-5,42h1v2h-1V42z"/>
	</g>
</g>
<g>
	<path d="M61,45v-1h-1v-1h-5v1h-1v1h-4v-1h-1v-1h-5v1h-1v1h-1v2h1v1h1v1h-1v3h1v1h1v1h-1v1h-1v2h1v1h-1v2h4v1h3v-1h1v-1h2v1h1v1h3
		v-1h4v-2h-1v-1h1v-2h-1v-1h-1v-1h1v-1h1v-3h-1v-1h1v-1h1v-2H61z"/>
	<path class="st2" d="M60,46h-1v1h-3v-1h-2v1h1v1h5v-1h1v-1H60z M48,46v1h-3v-1h-2v1h1v1h5v-1h1v-1h-1H48z"/>
	<g>
		<path class="st22" d="M59,44h-4v1h5v-1H59z M52,48h2v-1h-1v-1h-2v1h-1v1h1H52z M46,45h3v-1h-5v1h1H46z M51,56v2h2v-2h-1H51z"/>
		<path class="st22" d="M58,55v-2H46v2h-2v2h2v1h-2v1h3v-3h1v3h-1v1h3v-4h1v-1h2v1h1v4h3v-1h-1v-3h1v3h3v-1h-2v-1h2v-2h-1H58z"/>
	</g>
	<path class="st23" d="M59,49H44v3h16v-3H59z M59,51H45v-1h14V51z"/>
</g>
</svg>
