<svg xmlns="http://www.w3.org/2000/svg" viewBox="0 0 64 64"><path d="M21 12h2v-2h-4v2h1 1z"/><path d="M19 14v-2h-2v2h1 1zm6-4h2V8h-4v2h1 1z"/><path d="M29 8h8V6H27v2h1 1zm16 6h2v-2h-2v1 1z"/><path d="M48 14h-1v39h-2v2h4V14h-1zm-11-4h4V8h-4v1 1z"/><path d="M41 12h4v-2h-4v1 1zM17 53V14h-2v41h4v-2h-1-1z"/><path d="M24 51h-5v2h5v-1-1z"/><path d="M27 53h-3v2h5v-2h-1-1zm18-2h-5v2h5v-1-1z"/><path d="M35 51h-6v2h6v-1-1z"/><path d="M38 53h-3v2h5v-2h-1-1z"/><g fill="#fbdfeb"><path d="M18 43v6h2v-1h2v1h2v2h-5v2h-2V14h2v1h-1v26 2z"/><path d="M27 51h-3v2h5v-2h-1-1zm11 0h-3v2h5v-2h-1-1z"/><path d="M35 49h-2v-1h-2v1h-2v2h6v-1-1zM25 11h2v-1h-4v1h1 1zm-4 2h2v-1h-4v1h1 1zm24 31v5h-1v-1h-2v1h-2v2h5v2h2V14h-2v29 1z"/><path d="M37 8H27v1h5v1h5V9 8zm8 4h-4v2h4v-1-1z"/><path d="M41 10h-4v2h4v-1-1z"/></g><path d="M44,14h-3v-2h-4v-2h-5V9h-5v2h-4v2h-4v2h-1v34h2v-1h2v1h2v2h5v-2h2v-1h2v1h2v2h5v-2h2v-1h2v1h1V14H44z" fill="#fff"/><path d="M21 32v2h2v-2h-1-1zm21 0h-1v2h2v-2h-1z" fill="#f696c6"/><path d="M29 32h-2v2h2v-1-1z"/><path d="M33 34h-4v2h6v-2h-1-1z"/><path d="M36,32h-1v2h2v-2H36z"/><path d="M25,58h-6v1h1v1h24v-1h1v-1h-1H25z" opacity=".25" enable-background="new"/><path d="M35.5 20h1v-1h1v-5h-1v-1h-1v-1h-1v-1h-5v1h-1v1h-1v1h-1v5h1v1h1v1h1v1h5v-1h1v-1zm0-2h-1v1h-4v-1h-1v-3h1v-1h4v1h1v3z"/><path d="M28.5,15h1v-1h1v-1h3v-1h-4v1h-1v1h-1v5h1v1h1v1h4v-1h-3v-1h-1v-1h-1V15z" fill="#e51b6d"/><path d="M27 23h-1-1-1-1-1-1v1 1h1 1 1 1 1 1 1 1v-1-1h-1-1zm15 0h-1-1-1-1-1-1-1v1 1h1 1 1 1 1 1 1 1v-1-1h-1z"/><path d="M24 23h2v2h-2zm14 0h2v2h-2z" fill="#51ffa8"/><path d="M14 40h1v1h-1v-1zm-1-6h1v1h-1v-1z"/><path d="M14 33h1v1h-1v-1zm-2 2h1v1h-1v-1zm-5 3h1v4H7v-4zm5 3h2v1h-2v-1z"/><path d="M8 42h4v1H8v-1zm0-5h2v1H8v-1z"/><path d="M10,36h2v1h-2V36z"/><g fill="#fbdfeb"><path d="M14,39h1v1h-1V39z"/><path d="M12,40h2v1h-2V40z"/><path d="M8,41h4v1H8V41z"/></g><path d="M8,38v3h4v-1h2v-1h1v-5h-1v1h-1v1h-1v1h-2v1H8z" fill="#fff"/><path d="M49 40h1v1h-1v-1zm1-6h1v1h-1v-1z"/><path d="M49 33h1v1h-1v-1zm2 2h1v1h-1v-1zm5 3h1v4h-1v-4zm-6 3h2v1h-2v-1z"/><path d="M52 42h4v1h-4v-1zm2-5h2v1h-2v-1z"/><path d="M52,36h2v1h-2V36z"/><g fill="#fbdfeb"><path d="M49,39h1v1h-1V39z"/><path d="M50,40h2v1h-2V40z"/><path d="M52,41h4v1h-4V41z"/></g><path d="M54,38v-1h-2v-1h-1v-1h-1v-1h-1v5h1v1h2v1h4v-3H54z" fill="#fff"/><path d="M46 33v1h-1v1h-1v1h-1v1h-1v1h-1v1h-2v1h-3v1h-8v-1h-3v-1h-2v-1h-1v-1h-1v-1h-1v-1h-1v-1h-1v-1h-3v2h1v1h1v1h1v6h-1v1h-1v1h-1v8h34v-8h-1v-1h-1v-1h-1v-6h1v-1h1v-1h1v-2h-3z"/><g fill="#7e18f8"><path d="M31 42.3v.7h-.7v1.4h-.7v1.4h-.7v.7H31v1.4h-.7v1.4h-.7v1.4h.7V50h.7v-.7h.7v-.7h.7v-.7h.7v-.7h.7v-.7h.7v-.7h-2.1v-.7h.7v-.7h.7v-.7h.7V43h.7v-.7H31z"/><path d="M28.9 50.7v.7h.7v-.7h-.7z"/></g><path d="M31 42.3v.7h-.7v1.4h3.5v-.7h.7V43h.7v-.7H31z" fill="#fa34f3"/><path d="M32.4 45.8v-.7h.7v-.7h-3.5v1.4h-.7v.7h5.6v-.7c.1 0-1.5 0-2.1 0z" fill="#cf15f9"/><path d="M31 46.5v1.4h2.1v-.7h.7v-.7H31z" fill="#ac15f9"/><path d="M30.3 47.9v1.4h1.4v-.7h.7v-.7h-2.1z" fill="#8f17f9"/><path d="M51 27v-1h-1v-1h-2v3h2v-1h1z"/><path d="M50,28h1v1h-1V28z"/><path d="M49,29h1v1h-1V29z"/><path d="M50,30h1v1h-1V30z"/><path d="M49,31h1v1h-1V31z"/><path d="M49,26h1v1h-1V26z" fill="#f0f"/><path d="M48,17v-1h-2v-1H35v1h-1v1h-1v1h-1v6h1v4h2v2h4v2h1v1h1v1h7v-1h1V17H48z" fill="#0a040b"/><g fill="#323232"><path d="M46,17v-1H35v1h-1v1h-1v6h2v-2h8v2h2v1h2v-1h1v-7H46z"/><path d="M35,24v4h8v-4H35z"/><path d="M43 30h-3v2h1v1h7v-5h-1v-1h-2v1h-2v2z"/></g><path d="M35,24v4h8v-4H35z" fill="#af00ff"/><g fill="#646464"><path d="M46,17v-1H35v1h10v1h1v7h1v-8H46z"/><path d="M34,17h1v1h-1V17z"/><path d="M33 19v2h1v-3h-1v1zm13 9v4h1v-5h-1v1z"/></g><g fill="#0affff"><path d="M43,20h-8v2h8V20z"/><path d="M33 22v2h2v-2h-2zm10 0v2h2v-2h-2zm-2 8h-1v2h3v-2h-2z"/><path d="M43,28v2h2v-2H43z"/></g><path d="M45 18v-1H35v1h-1v2h1v-1h8v1h1v1h1v1h1v-4h-1zm0 13h-1v1h2v-2h-1v1z" fill="#c5c8cf"/><path d="M35,25v2h8v-2H35z" fill="#f0f"/><path d="M35,6V3h-2V0h-2v3h-2v3h-2v13h2v2h2v1h2v-1h2v-2h2V6H35z"/><path d="M31 22h1V0h-1v22zm2-1h1V3h-1v18zm-4 0h1V3h-1v18zm-2-2h1V6h-1v13zm8-13v13h1V6h-1z" fill="#191919"/><path d="M54,37v-1h-2v1h-1v1h-1v1h-1v2h1v1h2v-1h1v-1h1v-1h1v-2H54z"/><g fill="#fa34f3"><path d="M53,37h1v1h-1V37z"/><path d="M52,38h1v1h-1V38z"/></g><path d="M51,39h1v1h-1V39z" fill="#ac15f9"/><path d="M50,40h1v1h-1V40z" fill="#7e18f8"/><path d="M14,38h-1v-1h-1v-1h-2v1H9v2h1v1h1v1h1v1h2v-1h1v-2h-1V38z"/><g fill="#fa34f3"><path d="M10,37h1v1h-1V37z"/><path d="M11,38h1v1h-1V38z"/></g><path d="M12,39h1v1h-1V39z" fill="#ac15f9"/><path d="M13,40h1v1h-1V40z" fill="#7e18f8"/><path d="M14,27v-1h-1v-1h-1v-2h-1v-1h-1v1H9v2H8v1H7v1H6v1h1v1h1v1h1v2h1v23h1V32h1v-2h1v-1h1v-1h1v-1H14z" fill="#47289b"/><path d="M9,29h3v1H9V29z" fill="#cb5bff"/><path d="M11,26h2v1h-2V26z" fill="#6f16e2"/><g fill="#3a2b77"><path d="M11 28h1v1h-1v-1zm0-5h1v2h-1v-2z"/><path d="M12 25h1v1h-1v-1zm2 2h1v1h-1v-1z"/><path d="M13 26h1v1h-1v-1zm0 2h1v1h-1v-1zm-6-2h1v1H7v-1zm0 2h1v1H7v-1zm2 4h1v-2H9v2z"/><path d="M8,29h1v1H8V29z"/></g><path d="M10,27h3v1h-3V27z" fill="#f37aff"/><path d="M11,25h1v2h-1V25z" fill="#5d24bf"/><g fill="#8000ff"><path d="M9 28h2v1H9v-1zm2-3h1v1h-1v-1z"/><path d="M10,29h1v3h-1V29z"/></g><g fill="#b135ff"><path d="M10,27h1v2h-1V27z"/><path d="M11,29h1v1h-1V29z"/><path d="M12,27h1v2h-1V27z"/></g><path d="M9,25v1H8v2h3v-3H9z" fill="#ffa3ff"/><path d="M9,26h1v2H9V26z" fill="#ffc9ff"/><path d="M8 27.5h1V29H8v-1.5zm4-.5v1h2v-1h-2z" fill="#cb5bff"/><path d="M10,23h1v5h-1V23z" fill="#fff"/><path d="M7,27h4v1H7V27z" fill="#ffc9ff"/><path d="M9,27h1v1H9V27z" fill="#fff"/><g transform="matrix(-1 0 0 1 52 0)"><path d="M2,27v-1H1v-1H0v-2h-1v-1h-1v1h-1v2h-1v1h-1v1h-1v1h1v1h1v1h1v2h1v23h1V32h1v-2h1v-1h1v-1h1v-1H2z" fill="#47289b"/><path d="M-3,29h3v1h-3V29z" fill="#cb5bff"/><path d="M-1,26h2v1h-2V26z" fill="#6f16e2"/><g fill="#3a2b77"><path d="M-1 28h1v1h-1v-1zm0-5h1v2h-1v-2z"/><path d="M0 25h1v1H0v-1zm2 2h1v1H2v-1z"/><path d="M1 26h1v1H1v-1zm0 2h1v1H1v-1zm-6-2h1v1h-1v-1zm0 2h1v1h-1v-1zm2 4h1v-2h-1v2z"/><path d="M-4,29h1v1h-1V29z"/></g><path d="M-2,27h3v1h-3V27z" fill="#f37aff"/><path d="M-1,25h1v2h-1V25z" fill="#5d24bf"/><g fill="#8000ff"><path d="M-3 28h2v1h-2v-1zm2-3h1v1h-1v-1z"/><path d="M-2,29h1v3h-1V29z"/></g><g fill="#b135ff"><path d="M-2,27h1v2h-1V27z"/><path d="M-1,29h1v1h-1V29z"/><path d="M0,27h1v2H0V27z"/></g><path d="M-3,25v1h-1v2h3v-3H-3z" fill="#ffa3ff"/><path d="M-3,26h1v2h-1V26z" fill="#ffc9ff"/><path d="M-4 27.5h1V29h-1v-1.5zm4-.5v1h2v-1H0z" fill="#cb5bff"/><path d="M-2,23h1v5h-1V23z" fill="#fff"/><path d="M-5,27h4v1h-4V27z" fill="#ffc9ff"/><path d="M-3,27h1v1h-1V27z" fill="#fff"/></g></svg>