<svg xmlns="http://www.w3.org/2000/svg" viewBox="0 0 64 64"><style><![CDATA[.Eb{fill:#64438e}.Ec{fill:#edd3fd}.Ed{fill:#c260ff}.Ee{fill:#ffc03c}]]></style><path d="M44,58H19v1h1v1h24v-1h1v-1H44z" opacity=".25" enable-background="new"/><path d="M47 14v-2h-2v-2h-4V8h-4V6H27v2h-4v2h-4v2h-2v2h-2v41h4v-2h5v2h5v-2h6v2h5v-2h5v2h4V14z" class="Eb"/><path d="M45 14v-2h-4v-2h-4V8H27v2h-4v2h-4v2h-2v39h2v-2h5v2h5v-2h6v2h5v-2h5v2h2V14z" class="Ec"/><path d="M18,49h2v-1h2v1h2v2h5v-2h2v-1h2v1h2v2h5v-2h2v-1h2v1h1V14h-4v-2h-4v-2h-5V9h-5v2h-4v2h-4v2h-1V49z" fill="#fff"/><path d="M23 28v2h4v-2h2v-4h-2v-2h-4v2h-2v4h2zm12-4v4h2v2h4v-2h2v-4h-2v-2h-4v2h-2z" class="Eb"/><path d="M21 32v2h2v-2h-2zm20 0v2h2v-2h-2z" fill="#f696c6"/><g class="Eb"><path d="M29,32h-2v2h2V32z"/><path d="M29,34v2h6v-2H29z"/><path d="M35 32v2h2v-2h-2zm0-17v-1h-1v-1h-1v-1h-2v1h-1v1h-1v1h-1v4h1v1h1v1h1v1h2v-1h1v-1h1v-1h1v-4z"/></g><g fill="#dea8ff"><path d="M29,17v2h1v1h1v1h1v-4H29z"/><path d="M34,15v-1h-1v-1h-1v4h3v-2H34z"/></g><path d="M32,17v4h1v-1h1v-1h1v-2H32z" class="Ed"/><path d="M31,13v1h-1v1h-1v2h3v-4H31z" class="Ec"/><path d="M8 38v-1h2v-1h2v-1h1v-1h1v-1h1v8h-1v1h-2v1H8v-1H7v-4z" class="Eb"/><path d="M10 38v-1h2v-1h1v-1h1v-1h1v6h-1v1h-2v1H8v-4z" class="Ec"/><path d="M8,38v3h4v-1h2v-1h1v-5h-1v1h-1v1h-1v1h-2v1H8z" fill="#fff"/><path d="M56 38v-1h-2v-1h-2v-1h-1v-1h-1v-1h-1v8h1v1h2v1h4v-1h1v-4z" class="Eb"/><path d="M54 38v-1h-2v-1h-1v-1h-1v-1h-1v6h1v1h2v1h4v-4z" class="Ec"/><path d="M54,38v-1h-2v-1h-1v-1h-1v-1h-1v5h1v1h2v1h4v-3H54z" fill="#fff"/><path d="M48 14h-1v-2h-2v-2h-4V8h-4V6H27v2h-4v2h-4v2h-2v2h-2v37h2V25h1v-1h2v-1h2v-1h2v-1h2v-1h1v-1h1v-1h1v1h1v1h2v1h2v1h2v1h2v1h2v1h2v1h2v1h2v1h1v23h2V14h-1z" fill="#9300d7"/><g fill="#ac27ff"><path d="M27 16h-1v-2h-1v-1h-1v-2h-1v1h-4v2h-2v10h1v-1h2v-1h2v-1h2v-1h3v-2h1v-1h-1v-1z"/><path d="M46 14h-1v-2h-4v-2h-4V8H27v2h-3v1h1v2h1v1h1v2h1v1h1v1h1v1h2v1h2v1h2v1h2v1h2v1h2v1h2v1h2v1h1V14h-1z"/></g><g class="Ed"><path d="M26 11h-1v2h1v-2zm-3 0h1v1h-1z"/><path d="M26 10h1v1h-1zm-2 0h1v1h-1zm5 0V9h-1v2h1v-1zm1 1h1V9h-1v2zm3 0h1v1h-1z"/><path d="M32 11h1V9h-1v2zm2 0h2v-1h-1V9h-1v2z"/><path d="M37 12h1v-1h-2v1h1zm3-1h1v1h-1z"/><path d="M40 11v-1h-2v1h2zm-4-2h1v1h-1zm-8 4h1v1h-1zm-2 0h1v1h-1z"/><path d="M27 13h1v-2h-1v2zm-4 1h1v-1h-2v1h1z"/><path d="M22 13v-1h-2v1h2z"/><path d="M19 13h1v1h-1zm11 0h1v1h-1z"/><path d="M30 12v-1h-1v2h1v-1zm3 2h1v-1h-2v1h1z"/><path d="M31 13h1v-2h-1v2zm4 0h1v-1h-2v1h1z"/><path d="M36 13v1h2v-1h-2z"/><path d="M38 12v1h2v-1h-2z"/><path d="M41 14h1v-1h-2v1h1zm3-1h1v1h-1z"/><path d="M44 13v-1h-2v1h2zm-16 1h-1v2h1v-2zm-4 0h1v1h-1z"/><path d="M22 15v1h2v-1h-2z"/><path d="M22 15v-1h-2v1h2z"/><path d="M20 16v-1h-2v1h2zm10-2h-1v2h1v-2zm1 0h1v1h-1z"/><path d="M33 15h-1v1h2v-1h-1z"/><path d="M34 14v1h2v-1h-2z"/><path d="M37 16h1v-1h-2v1h1z"/><path d="M39 15h1v-1h-2v1h1z"/><path d="M40 15v1h2v-1h-2z"/><path d="M42 14v1h2v-1h-2zm-16 3h1v1h-1z"/><path d="M25 17h1v-1h-2v1h1z"/><path d="M22 17v1h2v-1h-2z"/><path d="M22 17v-1h-2v1h2z"/><path d="M20 18v-1h-2v1h2zm8-2h1v1h-1zm3 0h-1v1h2v-1h-1z"/><path d="M29 17h1v1h-1zm4 0h-1v1h2v-1h-1z"/><path d="M35 16h-1v1h2v-1h-1z"/><path d="M37 17h-1v1h2v-1h-1z"/><path d="M38 16v1h2v-1h-2z"/><path d="M40 17v1h2v-1h-2z"/><path d="M42 16v1h2v-1h-2z"/><path d="M44 17v1h2v-1h-2zm1-2h-1v1h2v-1h-1z"/><path d="M46 14h1v1h-1zm0 2h1v1h-1zm-29-2h1v1h-1zm0 2h1v1h-1zm29 2h1v1h-1zm0 2h1v1h-1z"/><path d="M44 19v1h2v-1h-2z"/><path d="M42 18v1h2v-1h-2z"/><path d="M40 19v1h2v-1h-2z"/><path d="M39 18h-1v1h2v-1h-1z"/><path d="M37 19h-1v1h2v-1h-1zm7 2v1h2v-1h-2z"/><path d="M41 21h-1v1h2v-1h-1zm5 1h1v1h-1zm0 2h1v1h-1zm0 2h1v1h-1z"/><path d="M44 25v1h2v-1h-2zm0-2v1h2v-1h-2z"/><path d="M42 22v1h2v-1h-2zm0-2v1h2v-1h-2zm-3 0h-1v1h2v-1h-1zm-4-2h-1v1h2v-1h-1zm8 6h-1v1h2v-1h-1z"/><path d="M41 23h-1v1h2v-1h-1z"/><path d="M39 22h-1v1h2v-1h-1z"/><path d="M37 21h-1v1h2v-1h-1z"/><path d="M35 20h-1v1h2v-1h-1z"/><path d="M33 19h-1v1h2v-1h-1z"/><path d="M31 18h-1v1h2v-1h-1zm-5 1h1v1h-1z"/><path d="M24 18v1h2v-1h-2z"/><path d="M22 19v1h2v-1h-2zm-2 1v-1h-2v1h2z"/><path d="M20 18v1h2v-1h-2zm0 2v1h2v-1h-2zm-3 0h1v1h-1z"/><path d="M18 21v1h2v-1h-2z"/><path d="M17 22h1v1h-1zm0-4h1v1h-1zM27 8h1v1h-1zm2 0h1v1h-1zm2 0h1v1h-1zm2 0h1v1h-1zm2 0h1v1h-1z"/></g><path d="M48 16h-1v-2h-2v2h-2v-2h-2v2h-2v-2h-2v-2h-2v-2h-2V8h-2v2h-2v2h-2v2h-2v2h-2v-2h-2v2h-2v-2h-2v2h-2v2h34v-2h-1z" class="Ee"/><path d="M34 13v-1h-1v-1h-2v1h-1v1h-1v2h1v1h1v1h2v-1h1v-1h1v-2h-1z" fill="#ffd781"/><path d="M33 13v-1h-2v1h-1v2h1v1h2v-1h1v-2h-1z" fill="#ffeabe"/><path d="M32 13h-1v2h2v-2h-1z" class="Eb"/><path d="M32 13h-1v1h2v-1h-1z" fill="#715398"/><g class="Ee"><path d="M34 43v-1h-1v-1h-2v1h-1v1h-2v1h2v1h1v1h2v-1h1v-1h2v-1h-2zm-15-5h1v1h-1z"/><path d="M18 37h1v1h-1z"/><path d="M17 36h1v1h-1z"/><path d="M16 35h1v1h-1z"/><path d="M15 34h1v1h-1zm5 5h1v1h-1z"/><path d="M22 40h-1v1h2v-1h-1z"/><path d="M24 41h-1v1h2v-1h-1zm20-3h1v1h-1z"/><path d="M45 37h1v1h-1z"/><path d="M46 36h1v1h-1z"/><path d="M47 35h1v1h-1z"/><path d="M48 34h1v1h-1zm-5 5h1v1h-1z"/><path d="M41 40v1h2v-1h-2z"/><path d="M39 41v1h2v-1h-2z"/><path d="M37 42h-1v1h3v-1h-2zm-10 0h-2v1h3v-1h-1z"/></g><path d="M33 43v-1h-2v1h-1v1h1v1h2v-1h1v-1h-1z" fill="#ffeabe"/><path d="M32 43h-1v1h2v-1h-1z" class="Eb"/><path d="M11 35v-1h1v-1h1v-1h-1v-1h-1v-1h-1v-1H8v1H7v1H6v1H5v1h1v1h1v1h1v1H7v1H6v1H5v3h1v1h1v1h4v-1h1v-1h1v-3h-1v-1h-1v-1h-1v-1h1zm0 7H7v-1H6v-3h1v-1h4v1h1v3h-1v1z"/><path d="M11 32v-1h-1v-1H8v1H7v1H6v1h1v1h1v1h2v-1h1v-1h1v-1h-1z" fill="#b132ff"/><path d="M8 30v1H7v1H6v1h3v-3H8z" class="Ed"/><path d="M11 32v-1h-1v-1H9v3h3v-1h-1z" class="Ec"/><path d="M10 33H9v2h1v-1h1v-1h-1z" fill="#d596fb"/><g fill="#ffe600"><path d="M7 39v-1H6v3h1v-2z"/><path d="M9 38h2v-1H7v1h2z"/><path d="M11 38v3h1v-3h-1z"/><path d="M9 41H7v1h4v-1H9z"/></g><g class="Ee"><path d="M7 39v-1H6v3h1v-2z"/><path d="M9 38v-1H7v1h2zm-1 4h1v-1H7v1h1z"/></g><path d="M14 20h-1v-2H9v6h2v4h2v2h2V20h-1z" class="Eb"/><path d="M14 22h-1v-2h-2v4h2v4h2v-6h-1z" fill="#b464ed"/><g class="Ec"><path d="M13 22h-2v2h2v-2z"/><path d="M14 24h-1v4h2v-4h-1z"/></g><path d="M50 20h1v-2h4v6h-2v4h-2v2h-2V20h1z" class="Eb"/><path d="M50 22h1v-2h2v4h-2v4h-2v-6h1z" fill="#b464ed"/><g class="Ec"><path d="M51 22h2v2h-2v-2z"/><path d="M50 24h1v4h-2v-4h1z"/></g></svg>