<svg xmlns="http://www.w3.org/2000/svg" viewBox="0 0 64 64"><path d="M44,58H19v1h1v1h24v-1h1v-1H44z" opacity=".25" enable-background="new"/><g fill="#d4def8"><path d="M24 49h-2v-1h-2v1h-2V15h1v-1h-2v39h2v-2h5v-2z"/><path d="M27 51h-3v2h5v-2h-2zm11 0h-3v2h5v-2h-2z"/><path d="M35 49h-2v-1h-2v1h-2v2h6v-2zM25 11h2v-1h-4v1h2zm-4 2h2v-1h-4v1h2zm25 1h-1v35h-1v-1h-2v1h-2v2h5v2h2V14h-1z"/><path d="M37 8H27v1h5v1h5V8zm8 4h-4v2h4v-2z"/><path d="M41 10h-4v2h4v-2z"/></g><path d="M45 42V14h-4v-2h-4v-2h-5V9h-5v2h-4v2h-4v2h-1v34h2v-1h2v1h2v2h5v-2h2v-1h2v1h2v2h5v-2h2v-1h2v1h1v-7z" fill="#fff"/><g fill="#0000b9"><path d="M17 53V14h-2v41h4v-2h-2z"/><path d="M24 51h-5v2h5v-2z"/><path d="M27 53h-3v2h5v-2h-2zm18-2h-5v2h5v-2z"/><path d="M35 51h-6v2h6v-2z"/><path d="M38 53h-3v2h5v-2h-2zM21 12h2v-2h-4v2h2z"/><path d="M19 14v-2h-2v2h2zm6-4h2V8h-4v2h2z"/><path d="M29 8h8V6H27v2h2zm16 6h2v-2h-2v2z"/><path d="M48 14h-1v39h-2v2h4V14h-1zm-11-4h4V8h-4v2z"/><path d="M41 12h4v-2h-4v2z"/></g><path d="M21 32v2h2v-2h-2zm21 0h-1v2h2v-2h-1z" fill="#f696c6"/><g fill="#0000b9"><path d="M29 32h-2v2h2v-2z"/><path d="M33 34h-4v2h6v-2h-2z"/><path d="M37 33v-1h-2v2h2v-1zm-3-20v-1h-1 0-2 0-1v1h-1v1h-1v1h-1v4h1v1h1v1h1v1h4v-1h1v-1h1v-1h1v-4h-1v-1h-1v-1h-1 0zm-2 1h1v1h1v1h1v2h-1v1h-1v1h-2v-1h-1v-1h-1v-2h1v-1h1v-1h1zm5 9v1h-2v4h2v2h4v-2h2v-4h-2v-2h-4v1zm-14 5v2h4v-2h2v-4h-2v-2h-4v2h-2v4h2zm-9 12h1v1h-1z"/><path d="M14 42v-1h-2v1h2zm-1-8h1v1h-1z"/><path d="M14 33h1v1h-1zM9 43h3v-1H8v1h1zm-1-6v1h2v-1H8z"/><path d="M10 36v1h2v-1h-2zm-3 3v3h1v-4H7v1zm42 1h1v1h-1zm1-6h1v1h-1z"/><path d="M49 33h1v1h-1zm2 2h1v1h-1zm5 3v4h1v-4h-1zm-5 3h-1v1h2v-1h-1z"/><path d="M54 42h-2v1h4v-1h-2zm1-5h-1v1h2v-1h-1z"/><path d="M53 36h-1v1h2v-1h-1zm-41-1h1v1h-1z"/></g><g fill="#d4def8"><path d="M14 39h1v1h-1zm-4 2H8v1h4v-1h-2zm39-2h1v1h-1z"/><path d="M51 40h-1v1h2v-1h-1z"/><path d="M55 41h-3v1h4v-1h-1zm-43-1v1h2v-1h-2z"/></g><path d="M14 35h-1v1h-1v1h-2v1H8v3h4v-1h2v-1h1v-5h-1v1zm41 3h-1v-1h-2v-1h-1v-1h-1v-1h-1v5h1v1h2v1h4v-3h-1zm-23-2h-2v-1h-1v-1h1v-1h4v1h1v1h-1v1h-2z" fill="#fff"/><g fill="#773e1d"><path d="M32 35h2v-1h-4v1h2z"/><path d="M48 14h-1v-2h-2v-2h-4V8h-4V6H27v2h-4v2h-4v2h-2v2h-2v19h2v1h2v1h2v1h2v1h4v1h3v1h1v1h2v-1h1v-1h3v-1h4v-1h2v-1h2v-1h2v-1h2V14h-1zM32 36h-2v-1h-1v-1h1v-1h4v1h1v1h-1v1h-2zm13-5h-3v1h-2v1h-3v-1h-1v-1h-1v-1h-6v1h-1v1h-1v1h-3v-1h-2v-1h-4V18h1v-3h1v-1h3v-1h4v1h3v1h4v-1h3v-1h4v1h3v1h1v3h1v13h-1z"/></g><g fill="#092c1b"><path d="M27 12v2h2v-2h-2z"/><path d="M25 14v2h2v-2h-2zm-2 4h-2v2h2v-2z"/><path d="M23 16v2h2v-2h-2zm24 3v1h2v-1h-2zM20 6h1V5h-2v2h1V6z"/><path d="M18 8h1V7h-2v2h1V8z"/><path d="M16 10h1V9h-2v2h1v-1z"/><path d="M15 12v-1h-1v2h1v-1z"/><path d="M14 14v-1h-1v2h1v-1zm-1 12v1h1v1h1v-2h-2z"/><path d="M13 24v-9h-1v11h1v-2zm2 0v2h2v-2h-2z"/><path d="M17 22v2h2v-2h-2z"/><path d="M19 20v2h2v-2h-2zM33 6v2h2V6h-2zm13-1h1v1h-1zM22 4h1V3h-2v2h1V4z"/><path d="M35 4v2h2V4h-2zM25 3V2h-2v1h2z"/><path d="M27 2h10v2h2V2h3V1H25v1h2z"/><path d="M43 3h1V2h-2v1h1z"/><path d="M44 3h1v1h-1z"/><path d="M45 4h1v1h-1zm2 2h1v1h-1zm2 11v2h1v-3h-1v1z"/><path d="M50 11v5h1v-5h-1zM31 8v2h2V8h-2zm17-1h1v1h-1z"/><path d="M49 10v1h1V8h-1v2zm-20 0v2h2v-2h-2z"/></g><g fill="#283d2e"><path d="M23 16h2v-2h2v-2h2v-2h2V8h2V6h2V4h2V2H25v1h-2v1h-1v1h-1v1h-1v1h-1v1h-1v1h-1v1h-1v1h-1v2h-1v2h-1v11h2v-2h2v-2h2v-2h2v-2h2v-2z"/><path d="M49 11V8h-1V7h-1V6h-1V5h-1V4h-1V3h-2V2h-3v2h-2v2h-2v2h-2v2h-2v2h-2v2h-2v2h-2v2h-2v2h6v1h6v-1h12v-1h2v-3h1v-5h-1z"/></g><path d="M45 10V9h-1V8h-2 0 1V7h-1 0-2 0-1v1h1 0-2v1h-1v1h-1v4h1v1h1v1h1v1h4v-1h1v-1h1v-1h1v-4h-1zm-4-1h1v1h1v1h1v2h-1v1h-1v1h-2v-1h-1v-1h-1v-2h1v-1h1V9h1z" fill="#f8af4e"/><path d="M45 20H23v1h24v-1h-2z" fill="#092c1b"/><path d="M7 32h1v1H7z" fill="#757575"/><path d="M9 37v-1H8v-2H7v2H5v1h2v1H5v1h2v1h1v-1h1v-1H8v-1h1z" fill="#558b2f"/><path d="M7 35v-1H6v2h1v-1zm0 3v-1H5v1h2zm0 1H6v2h2v-1H7v-1zm1-2h1v1H8z" fill="#689f38"/><g fill="#33691e"><path d="M8 34v-1H6v1h2zm-2 7v1h2v-1H6z"/><path d="M8 36h1v-2H8v2zm-2-1v-1H5v2h1v-1zm2 5v1h1v-2H8v1zm-2-1H5v2h1v-2z"/><path d="M5 37v-1H4v3h1v-2zm4-1v3h1v-3H9z"/></g><path d="M11 34v-1h-1v-1H9v-1H5v1h1v1h1v-1h1v1h1v1h1v1h1v3h1v-4h-1z"/><g fill="#ddd9d6"><path d="M42 47h1v1h-1z"/><path d="M42 46h1v1h-1z"/></g><path d="M44 44h1v1h-1z" fill="#698bd9"/><path d="M44 45h1v1h-1z" fill="#e2e5f3"/><path d="M42 45h1v1h-1z" fill="#45322f"/><path d="M43 45h1v1h-1z" fill="#d9c6b2"/><path d="M41 48h1v1h-1z" fill="#ddd9d6"/><path d="M40 44h1v1h-1z" fill="#76946f"/><path d="M41 44h1v1h-1z" fill="#cad4e4"/><g fill="#ddd9d6"><path d="M43 49h1v1h-1z"/><path d="M42 49h1v1h-1z"/></g><path d="M32 39h-2v1h1v6h2v-6h1v-1h-2zm10 9h1v1h-1z"/><path d="M41 49h1v1h-1zm2-1h1v1h-1z" fill="#ddd9d6"/><path d="M45 45h1v1h-1z" fill="#556592"/><path d="M42 44h1v1h-1z" fill="#5666bc"/><path d="M41 45h1v1h-1z" fill="#f6d435"/><path d="M40 45h1v1h-1z" fill="#e6bf8f"/><path d="M43 44h1v1h-1z" fill="#c23e3f"/><path d="M39 45h1v1h-1z" fill="#f75457"/><path d="M22 47h-3v1h5v-1h-2zm16-8h1v1h-1zm-13 0h1v1h-1zm7 11h1v1h-1zm0-2h1v1h-1zM14 34h1v1h-1zm35 0h1v1h-1z" fill="orange"/><g fill="#fff"><path d="M29 45h-1v-1h-1v-1h-1v-1h-2v-1h-1v-1h-2v-1h-2v-1h-1v-1h-1v-2h-1v17h15v-5h-1v-1h-1v-1zm-9-1v-1h3v2h-3v-1zm3 7h-4v-5h5v5h-1zm12-6v-1h1v-1h1v-1h1v-1h2v-1h1v-1h2v-1h2v-1h1v-2h-1v1h-2v1h-2v1h-4v1h-2v2h-1v1h-1v4h1v-1h1zm4-6v1h-1v-1h1z"/><path d="M30 41h-1v-2h-2v-1h-4v-1h-2v-1h-2v-1h-1v2h1v1h2v1h2v1h1v1h2v1h1v1h1v1h1v1h1v1h1v-4h-1v-1zm-5-1v-1h1v1h-1zm22-4v1h-1v1h-1v1h-2v1h-2v1h-1v1h-2v1h-1v1h-1v1h-1v1h-1v1h-2v1h1v1h-1v1h1v1h-1v1h16V35h-1v1zm-5 6h2v1h-3v-1h1zm3 9h-6v-6h1v-1h5v1h1v6h-1zM13 35v6h1v-1h1v-5h-2zm37 0h-1v5h1v1h1v-6h-1z"/></g><g fill="#c8c8c8"><path d="M18 37h1v1h-1z"/><path d="M20 39h1v-1h-2v1h1z"/><path d="M22 40h1v-1h-2v1h1zm0-3h1v-1h-2v1h1z"/><path d="M25 42h1v-1h-2v1h1zm-1-4h3v-1h-4v1h1zm-3 9h3v-1h-5v1h2zm7-3h1v1h-1z"/><path d="M23 40h1v1h-1zm22-1v-1h-2v1h2z"/><path d="M43 40v-1h-2v1h2zm0 3h1v-1h-3v1h2z"/><path d="M41 36v1h2v-1h-2zm-1 4h1v1h-1z"/><path d="M35 44h1v1h-1zm5-2v-1h-2v1h2zm-5-4h-1v2h-1v2h1v-1h1v-2h2v-1h-2zm-7 1h1v2h1v1h1v-2h-1v-2h-3v1h1z"/><path d="M34 45h1v1h-1zm-5 0h1v1h-1zm10-8h-2v1h4v-1h-2zm4-2v1h2v-1h-2zm-6 7h1v1h-1zm-17-6h1v-1h-2v1h1zm6 6h1v1h-1zm-5 9h3v-3h-5v3h2z"/><path d="M41 51h5v-5h-3v2h1v2h-3v-2h1v-2h-3v5h2zm4-14h1v1h-1zm-18 6h1v1h-1zm-5 2h1v-2h-3v2h2zm14-2h1v1h-1zm-23-9h1v1h-1z"/><path d="M13 40v-5h-1v7h2v-1h-1v-1z"/><path d="M49 40v-6h1v-1h1v-1h-2v1h-2v1h-2v1h1v2h1v-2h1v17H32v-5h2v-1h-4v1h1v5H16V35h1v2h1v-2h1v-1h-2v-1h-2v-1h-2v1h1v1h1v6h-1v1h1v14h4v-2h5v2h5v-2h6v2h5v-2h5v2h4V41h1v-1h-1z"/><path d="M50 34h1v1h-1z"/><path d="M51 35v6h-1v1h2v-7h-1z"/></g><path d="M57 31h-2v2h3v-2h-1z" fill="#fff"/><path d="M56 33h-1v5h3v-5h-2zm0-5h1v1h-1zm1-2h1v1h-1zm-2-1h1v1h-1z" fill="#ffffbe"/><g fill="#0000b9"><path d="M58 30h-4v8h1v-7h3v7h1v-8h-1z"/><path d="M56 38h-1v1h1v4h-1v1h3v-1h-1v-4h1v-1h-2z"/></g></svg>