<svg xmlns="http://www.w3.org/2000/svg" viewBox="0 0 64 64"><path d="M47 14v-2h-2v-2h-4V8h-4V6H27v2h-4v2h-4v2h-2v2h-2v41h4v-2h5v2h5v-2h6v2h5v-2h5v2h4V14z" fill="#a73796"/><path d="M45 14v-2h-4v-2h-4V8H27v2h-4v2h-4v2h-2v39h2v-2h5v2h5v-2h6v2h5v-2h5v2h2V14z" fill="#e6cce1"/><path d="M18,49h2v-1h2v1h2v2h5v-2h2v-1h2v1h2v2h5v-2h2v-1h2v1h1V14h-4v-2h-4v-2h-5V9h-5v2h-4v2h-4v2h-1V49z" fill="#fff"/><path d="M21 32v2h2v-2h-2zm20 0v2h2v-2h-2z" fill="#f696c6"/><g fill="#a73796"><path d="M29,32h-2v2h2V32z"/><path d="M29,34v2h6v-2H29z"/><path d="M35 32v2h2v-2h-2zm-4.5-17h1v-2h-1v2z"/><path d="M31.5,12h1v1h-1V12z"/><path d="M33.5 13h-1v2h1v-2zm-4 3h-2v1h1v2h1v-2h2v-1h-1v-1h-1v1z"/><path d="M34.5,15h-1v2h1V15z"/><path d="M35.5 17h-1v2h1v-2zm-8 4h1v-2h-1v2z"/><path d="M35.5 19v2h1v-2h-1z"/></g><g fill="#c67ebb"><path d="M39 24h1v2h-1z"/><path d="M38 24h-2v2h1v1h2v-1h-1z"/></g><g fill="#a73796"><path d="M34 24h1v1h-1zm0 2h1v1h-1zm7-2h1v1h-1z"/><path d="M42 25h1v1h-1zm-7-2h6v1h-6z"/><path d="M33 25h1v1h-1zm8 1h1v1h-1z"/><path d="M35 27h6v1h-6z"/></g><g fill="#c67ebb"><path d="M27 24h1v2h-1z"/><path d="M26 24h-2v2h1v1h2v-1h-1z"/></g><g fill="#a73796"><path d="M22 24h1v1h-1zm0 2h1v1h-1zm7-2h1v1h-1z"/><path d="M30 25h1v1h-1zm-7-2h6v1h-6z"/><path d="M21 25h1v1h-1zm8 1h1v1h-1z"/><path d="M23 27h6v1h-6zm26 13h1v1h-1v-1zm1-6h1v1h-1v-1z"/><path d="M49 33h1v1h-1v-1zm2 2h1v1h-1v-1zm5 3h1v4h-1v-4zm-6 3h2v1h-2v-1z"/><path d="M52 42h4v1h-4v-1zm2-5h2v1h-2v-1z"/><path d="M52,36h2v1h-2V36z"/></g><g fill="#e6cce1"><path d="M49,39h1v1h-1V39z"/><path d="M50,40h2v1h-2V40z"/><path d="M52,41h4v1h-4V41z"/></g><path d="M54,38v-1h-2v-1h-1v-1h-1v-1h-1v5h1v1h2v1h4v-3H54z" fill="#fff"/><g fill="#a73796"><path d="M14 40h1v1h-1v-1zm-1-6h1v1h-1v-1z"/><path d="M14 33h1v1h-1v-1zm-2 2h1v1h-1v-1zm-5 3h1v4H7v-4zm5 3h2v1h-2v-1z"/><path d="M8 42h4v1H8v-1zm0-5h2v1H8v-1z"/><path d="M10,36h2v1h-2V36z"/></g><g fill="#e6cce1"><path d="M14,39h1v1h-1V39z"/><path d="M12,40h2v1h-2V40z"/><path d="M8,41h4v1H8V41z"/></g><path d="M8,38v3h4v-1h2v-1h1v-5h-1v1h-1v1h-1v1h-2v1H8z" fill="#fff"/><path d="M47 14v-2h-2v-2h-4V8h-4V6H27v2h-4v2h-4v2h-2v2h-2v10h2v-1h2v-1h2v-1h2v-1h6v-1h3v-1h2v-1h2v-1h1v-1h1v-1h1v1h1v1h1v1h1v1h1v1h1v1h1v1h1v1h1v2h2V14z" fill="#301800"/><path d="M47 15v-1h-1v-1h-1v-1h-1v-1h-3v-1h-1V9h-3V8h-1V7h-8v1h-1v1h-3v1h-1v1h-1-2v1h-1v1h-1v1h-1v1h-1v8h1v-1h2v-1h2v-1h2v-1h4.6.4 1v-1h3v-1h2v-1h2v-1h1v-1h1v-1h1v1h1v1h1v1h1v1h1v1h1v1h1v1h1v1h1v1h1v-7z" fill="#462300"/><path d="M36 10h-2V9h-6v1h5v1h2v1h2v-1h-1v-1zm-2 3h-2v-1h-3v-1h-7v1h-1v1h2v-1h5v1h3v1h2v1h2v-1h-1v-1zm-4 2h-3v-1h-6v1h-2v1h-1v1h2v-1h2v-1h4v1h3v1h2v-1h-1v-1zm-3 2h-6v1h-2v1h-1v1h2v-1h2v-1h4v1h2v-1h-1v-1zm19 0v-1h-1v-1h-1v-1h-1v-1h-1v-1h-2v1h1v1h1v1h1v1h1v1h1v1h1v1h1v-2h-1z" fill="#965c43"/><path d="M34 47h1v1h1v1h11v-1h1v-1h1V33h-3v1h-2v1h-2v1h-2v1h-2v1h-2v1h-1v1h-1v7zm-4-7h-1v-1h-1v-1h-2v-1h-2v-1h-2v-1h-2v-1h-2v-1h-3v14h1v1h1v1h11v-1h1v-1h1v-7z" fill="#f3410a"/><path d="M27 40v-1h-2v-1h-2v-1h-2v-1h-2v-1h-2v-1h-1v13h1v1h11v-1h1v-7h-2zm20-6v1h-2v1h-2v1h-2v1h-2v1h-2v1h-2v7h1v1h11v-1h1V34h-1zM30 44v2h4v-2h-4zm0-3v2h4v-2h-4z"/><path d="M42 40h3v1h-3z" fill="#fff"/><g fill="#00a0f5"><path d="M51 59h3v1h-3zm4 0h1v1h-1z"/><path d="M10 60h41v1H10z"/><path d="M7 59h3v1H7zm-2 0h1v1H5z"/></g><path d="M59 47v-1H49v1h.1v2H14.9v-2h.1v-1H8v1H7v1H6v8h1v1h1v1h1v1h1v1h41v-1h1v-1h1v-1h1v-1h1v-1h1v-1h1v-1h1v-1h1v-1h1v-1h1v-1h1v-2z" fill="#e1dad7"/><g fill="#fff"><path d="M59 48v-1H49v2h7v-1zm-34 5h1v1h-1zm-10-6H8v1H7v1h8zm14 6h1v1h-1z"/><path d="M59 48v1h-3v1H7v6h1v1h1v1h1v1h41v-1h1v-1h1v-1h1v-1h1v-1h1v-1h1v-1h1v-1h1v-1h1v-1h1v-1h-2zm-36 7h-8v-1h8v1zm4 2h-1v-2h-1v2h-1v-4h1v-1h1v1h1v4zm4 0h-1v-2h-1v2h-1v-4h1v-1h1v1h1v4zm4-1h-1v1h-1v-1h-1v-4h1v4h1v-4h1v4zm4-3h-2v1h2v1h-2v1h2v1h-3v-5h3v1zm10 2h-9v-1h9v1z"/></g></svg>