<svg xmlns="http://www.w3.org/2000/svg" viewBox="0 0 64 64"><path d="M44,58H19v1h1v1h24v-1h1v-1H44z" opacity=".25" enable-background="new"/><path d="M47 14v-2h-2v-2h-4V8h-4V6H27v2h-4v2h-4v2h-2v2h-2v41h4v-2h5v2h5v-2h6v2h5v-2h5v2h4V14z" fill="#64438e"/><path d="M45 14v-2h-4v-2h-4V8H27v2h-4v2h-4v2h-2v39h2v-2h5v2h5v-2h6v2h5v-2h5v2h2V14z" fill="#edd3fd"/><path d="M18,49h2v-1h2v1h2v2h5v-2h2v-1h2v1h2v2h5v-2h2v-1h2v1h1V14h-4v-2h-4v-2h-5V9h-5v2h-4v2h-4v2h-1V49z" fill="#fff"/><path d="M23 28v2h4v-2h2v-4h-2v-2h-4v2h-2v4h2zm12-4v4h2v2h4v-2h2v-4h-2v-2h-4v2h-2z" fill="#64438e"/><path d="M21 32v2h2v-2h-2zm20 0v2h2v-2h-2z" fill="#f696c6"/><g fill="#64438e"><path d="M29,32h-2v2h2V32z"/><path d="M29,34v2h6v-2H29z"/><path d="M35 32v2h2v-2h-2zm0-17v-1h-1v-1h-1v-1h-2v1h-1v1h-1v1h-1v4h1v1h1v1h1v1h2v-1h1v-1h1v-1h1v-4z"/></g><g fill="#dea8ff"><path d="M29,17v2h1v1h1v1h1v-4H29z"/><path d="M34,15v-1h-1v-1h-1v4h3v-2H34z"/></g><path d="M32,17v4h1v-1h1v-1h1v-2H32z" fill="#c260ff"/><path d="M31,13v1h-1v1h-1v2h3v-4H31z" fill="#edd3fd"/><path d="M8 38v-1h2v-1h2v-1h1v-1h1v-1h1v8h-1v1h-2v1H8v-1H7v-4z" fill="#64438e"/><path d="M10 38v-1h2v-1h1v-1h1v-1h1v6h-1v1h-2v1H8v-4z" fill="#edd3fd"/><path d="M8,38v3h4v-1h2v-1h1v-5h-1v1h-1v1h-1v1h-2v1H8z" fill="#fff"/><path d="M56 38v-1h-2v-1h-2v-1h-1v-1h-1v-1h-1v8h1v1h2v1h4v-1h1v-4z" fill="#64438e"/><path d="M54 38v-1h-2v-1h-1v-1h-1v-1h-1v6h1v1h2v1h4v-4z" fill="#edd3fd"/><path d="M54,38v-1h-2v-1h-1v-1h-1v-1h-1v5h1v1h2v1h4v-3H54z" fill="#fff"/><path d="M14 33v1h-1v1h-1v1H9v1H8v-1H4v1H3v1H2v4h1v1h1v1h3v-1h1v1h4v-1h2v-1h1v-9h-1z" fill="#0a040b"/><path d="M3 38v4h1v-4H3z" fill="#0affff"/><path d="M14 34v1h-1v1h-1v1H9v1h1v1h1v1h4v-6h-1z" fill="#323232"/><path d="M11 41v-1h-1v-1H9v-1H8v5h4v-1h2v-1h-3z" fill="#c5c8cf"/><g fill="#646464"><path d="M5 37v6h2v-6H5zm5 0h1v1h-1zm4 2h1v1h-1zm-2 0h1v1h-1z"/><path d="M13 38h1v1h-1z"/><path d="M14 37h1v1h-1zm0-2h1v1h-1z"/><path d="M13 36h1v1h-1z"/><path d="M12 37h1v1h-1z"/><path d="M11 38h1v1h-1z"/></g><path d="M10 40v3h1v-3h-1z" fill="#0affff"/><path d="M12 41h1v1h-1zm-3-2v4h1v-4H9z" fill="#646464"/><path d="M5 37v6h1v-6H5z" fill="#c5c8cf"/><path d="M48 17v-1h-2v-1H35v1h-1v1h-1v1h-1v6h1v4h2v2h4v2h1v1h1v1h7v-1h1V17h-1z" fill="#0a040b"/><g fill="#323232"><path d="M46 17v-1H35v1h-1v1h-1v6h2v-2h8v2h2v1h2v-1h1v-7h-2z"/><path d="M35 24v4h8v-4h-8z"/><path d="M43 30h-3v2h1v1h7v-5h-1v-1h-2v1h-2v2z"/></g><path d="M35 24v4h8v-4h-8z" fill="#af00ff"/><g fill="#646464"><path d="M46 17v-1H35v1h10v1h1v7h1v-8h-1z"/><path d="M34 17h1v1h-1z"/><path d="M33 19v2h1v-3h-1v1zm13 9v4h1v-5h-1v1z"/></g><g fill="#0affff"><path d="M43 20h-8v2h8v-2z"/><path d="M33 22v2h2v-2h-2zm10 0v2h2v-2h-2zm-2 8h-1v2h3v-2h-2z"/><path d="M43 28v2h2v-2h-2z"/></g><path d="M45 18v-1H35v1h-1v2h1v-1h8v1h1v1h1v1h1v-4h-1zm0 13h-1v1h2v-2h-1v1z" fill="#c5c8cf"/><path d="M35 25v2h8v-2h-8z" fill="#f0f"/><g fill="#0f0"><path d="M25 50h1v1h-1zm-2 1h1v1h-1zm-1 3h1v1h-1zm16-4h1v1h-1z"/><path d="M40 51h1v1h-1zm-1 2h-1v-2h-1V33H27v18h-1v2h-1v1h-1v1h16v-1h-1v-1zm2 1h1v1h-1z"/></g><path d="M28 33v22h1V33h-1z" fill="#0ff"/><g fill="#007dff"><path d="M27 33v18h-1v2h-1v1h-1v1h4V33h-1z"/><path d="M25 50h1v1h-1zm-2 1h1v1h-1zm-1 3h1v1h-1z"/></g><path d="M35 33v22h1V33h-1z" fill="#009600"/><path d="M30 33v22h1V33h-1z" fill="#7d00ff"/><path d="M31 33v22h1V33h-1z" fill="#7d0064"/><path d="M29 33v22h1V33h-1z" fill="#32007d"/><path d="M32 33v22h1V33h-1z" fill="#f0f"/><path d="M33 33v22h1V33h-1z" fill="#ffc800"/><path d="M34 33v22h1V33h-1z" fill="#ff0"/><path d="M27 32v2h10v-2H27z" fill="#64438e"/></svg>