<?xml version="1.0" encoding="utf-8"?>
<!-- Generator: Adobe Illustrator 25.3.1, SVG Export Plug-In . SVG Version: 6.00 Build 0)  -->
<svg version="1.1" id="Layer_1" xmlns="http://www.w3.org/2000/svg" xmlns:xlink="http://www.w3.org/1999/xlink" x="0px" y="0px"
	 viewBox="0 0 64 64" style="enable-background:new 0 0 64 64;" xml:space="preserve">
<style type="text/css">
	.st0{fill:#64438E;}
	.st1{fill:#EDD3FD;}
	.st2{fill:#FFFFFF;}
	.st3{fill:#F696C6;}
	.st4{opacity:0.25;enable-background:new    ;}
	.st5{fill:#36818E;}
	.st6{fill:#C260FF;}
	.st7{fill:#DEA8FF;}
	.st8{fill:#7D7D7D;}
	.st9{fill:#FF9900;}
	.st10{display:none;}
	.st11{display:inline;}
	.st12{display:inline;fill:#FFFFFF;}
	.st13{fill:#B464ED;}
	.st14{fill:#C8C8C8;}
	.st15{display:inline;fill:#7D7D7D;}
	.st16{fill:#511F17;}
	.st17{fill:#7A500C;}
	.st18{fill:#955C4B;}
	.st19{fill:#FF89FF;}
</style>
<g>
	<g>
		<path class="st0" d="M21,12h2v-2h-4v2h1H21z"/>
		<path class="st0" d="M19,14v-2h-2v2h1H19z M25,10h2V8h-4v2h1H25z"/>
		<path class="st0" d="M29,8h8V6H27v2h1H29z M45,14h2v-2h-2v1V14z"/>
		<path class="st0" d="M48,14h-1v39h-2v2h4V14H48z M37,10h4V8h-4v1V10z"/>
		<path class="st0" d="M41,12h4v-2h-4v1V12z M17,53V14h-2v41h4v-2h-1H17z"/>
		<path class="st0" d="M24,51h-5v2h5v-1V51z"/>
		<path class="st0" d="M27,53h-3v2h5v-2h-1H27z M45,51h-5v2h5v-1V51z"/>
		<path class="st0" d="M35,51h-6v2h6v-1V51z"/>
		<path class="st0" d="M38,53h-3v2h5v-2h-1H38z"/>
	</g>
	<g>
		<path class="st1" d="M18,43v6h2v-1h2v1h2v2h-5v2h-2V14h2v1h-1v26V43z"/>
		<path class="st1" d="M27,51h-3v2h5v-2h-1H27z M38,51h-3v2h5v-2h-1H38z"/>
		<path class="st1" d="M35,49h-2v-1h-2v1h-2v2h6v-1V49z M25,11h2v-1h-4v1h1H25z M21,13h2v-1h-4v1h1H21z M45,44v5h-1v-1h-2v1h-2v2h5
			v2h2V14h-2v29V44z"/>
		<path class="st1" d="M37,8H27v1h5v1h5V9V8z M45,12h-4v2h4v-1V12z"/>
		<path class="st1" d="M41,10h-4v2h4v-1V10z"/>
	</g>
	<path class="st2" d="M44,14h-3v-2h-4v-2h-5V9h-5v2h-4v2h-4v2h-1v34h2v-1h2v1h2v2h5v-2h2v-1h2v1h2v2h5v-2h2v-1h2v1h1V14H44z"/>
</g>
<path class="st3" d="M21,32v2h2v-2h-1H21z M42,32h-1v2h2v-2H42z"/>
<g>
	<path class="st0" d="M29,32h-2v2h2v-1V32z"/>
	<path class="st0" d="M33,34h-4v2h6v-2h-1H33z"/>
	<path class="st0" d="M36,32h-1v2h2v-2H36z"/>
</g>
<g>
	<path class="st4" d="M25,58h-6v1h1v1h24v-1h1v-1h-1H25z"/>
</g>
<g>
	<path class="st5" d="M28,22h-1v-1h-1h-1h-1h-1v1h-1v1h-1v1v1v1v1h1v1h1v1h1h1h1h1v-1h1v-1h1v-1v-1v-1v-1h-1V22z"/>
	<path class="st5" d="M42,23v-1h-1v-1h-1h-1h-1h-1v1h-1v1h-1v1v1v1v1h1v1h1v1h1h1h1h1v-1h1v-1h1v-1v-1v-1v-1H42z"/>
</g>
<g>
	<g>
		<path class="st0" d="M29,17v-2h-1v4h1v-1V17z"/>
		<path class="st0" d="M29,14h1v1h-1V14z M29,19h1v1h-1V19z"/>
		<path class="st0" d="M30,20h1v1h-1V20z"/>
		<path class="st0" d="M31,21v1h2v-1h-1H31z M30,13h1v1h-1V13z M34,19h1v1h-1V19z M34,14h1v1h-1V14z"/>
		<path class="st0" d="M33,13v-1h-2v1h1H33z M33,20h1v1h-1V20z"/>
		<path class="st0" d="M33,13h1v1h-1V13z M35,15v4h1v-4H35z"/>
	</g>
	<path class="st6" d="M34,17h-2v4h1v-1h1v-1h1v-2H34z"/>
	<g>
		<path class="st7" d="M30,17h-1v2h1v1h1v1h1v-4h-1H30z"/>
		<path class="st7" d="M34,15v-1h-1v-1h-1v4h3v-2H34z"/>
	</g>
	<path class="st1" d="M31,17h1v-4h-1v1h-1v1h-1v2h1H31z"/>
</g>
<g>
	<path class="st8" d="M15,33v20h34V33h-2v1h-1v1h-1v1h-1v1h-1v1h-1v1h-8v1h-4v-1h-8v-1h-1v-1h-1v-1h-1v-1h-1v-1h-1v-1H15z"/>
	<path d="M47,35h-1v1h-1v1h-1v1h-1v1h-1v1h-8v1h-4v-1h-8v-1h-1v-1h-1v-1h-1v-1h-1v-1h-1v-1h-1v18h32V34h-1V35z"/>
	<g>
		<path class="st9" d="M34.2,41.6h0.6v0.6h-0.6V41.6z"/>
		<path class="st9" d="M32.9,44.7h0.7v-1.3h0.6v-1.2h-0.6v0.6h-0.7v0.6h-0.6v0.7h-0.6v0.6h-0.6v0.6h-0.6v0.6h-0.6v0.6h-0.6v0.6h1.8
			v1.2h-0.6v1.3h-0.6v1.2h0.6v-0.6h0.6v-0.6h0.6v-0.7h0.6v-0.6h0.6v-0.6h0.7v-0.6h0.6v-0.6h0.6v-0.6h-1.9
			C32.9,45.9,32.9,44.7,32.9,44.7z"/>
		<path class="st9" d="M29.3,50.8h0.6v0.6h-0.6V50.8z"/>
	</g>
	<path class="st8" d="M44,41v2h-1v-2h-1v5h1v-2h1v2h1v-5H44z M39,47h-1v5.1h3V47H39z M40,49v2h-1v-3h1V49z M39,41h-1v3h2v1h-2v1h3
		v-3h-2v-1h2v-1H39z M43,47h-1v1h1v4.1h1V48h1v-1H43z M24,47h-1v5.1h1V50h2v-3H24z M25,49h-1v-1h1V49z M24,41h-1v5h1v-4h1v4h1v-5H24
		z M20,41h-1v3h2v1h-2v1h3v-3h-2v-1h2v-1H20z M20,47h-1v5.1h1V50h1v2.1h1V47H20z M21,49h-1v-1h1V49z"/>
</g>
<g class="st10">
	<g class="st11">
		<path class="st0" d="M19,42h1v1h-1V42z M20,36h1v1h-1V36z"/>
		<path class="st0" d="M21,37h1v1h-1V37z M26,40v4h1v-4H26z M21,43h-1v1h2v-1H21z"/>
		<path class="st0" d="M24,44h-2v1h4v-1h-1H24z M25,39h-1v1h2v-1H25z"/>
		<path class="st0" d="M23,38h-1v1h2v-1H23z"/>
	</g>
	<g class="st11">
		<path class="st1" d="M19,43h1v1h-1V43z M24,45h-2v1h4v-1h-1H24z"/>
		<path class="st1" d="M27,41v3h1v-3H27z M21,44h-1v1h2v-1H21z"/>
		<path class="st1" d="M26,44h1v1h-1V44z M19,41h-1v2h1v-1V41z"/>
	</g>
	<g class="st11">
		<path class="st0" d="M44,42h1v1h-1V42z M43,36h1v1h-1V36z"/>
		<path class="st0" d="M42,37h1v1h-1V37z"/>
		<path class="st0" d="M42,39v-1h-2v1h1H42z M42,43v1h2v-1h-1H42z"/>
		<path class="st0" d="M40,44h-2v1h4v-1h-1H40z"/>
		<path class="st0" d="M38,42v-2h-1v4h1v-1V42z"/>
		<path class="st0" d="M40,40v-1h-2v1h1H40z"/>
	</g>
	<g class="st11">
		<path class="st1" d="M42,44v1h2v-1h-1H42z M37,42v-1h-1v3h1v-1V42z"/>
		<path class="st1" d="M40,45h-2v1h4v-1h-1H40z"/>
		<path class="st1" d="M37,44h1v1h-1V44z M44,43h1v1h-1V43z"/>
	</g>
</g>
<g>
	<g>
		<path class="st0" d="M14,40h1v1h-1V40z M13,34h1v1h-1V34z"/>
		<path class="st0" d="M14,33h1v1h-1V33z M12,35h1v1h-1V35z M7,38h1v4H7V38z M12,41h2v1h-2V41z"/>
		<path class="st0" d="M8,42h4v1H8V42z M8,37h2v1H8V37z"/>
		<path class="st0" d="M10,36h2v1h-2V36z"/>
	</g>
	<g>
		<path class="st1" d="M14,39h1v1h-1V39z"/>
		<path class="st1" d="M12,40h2v1h-2V40z"/>
		<path class="st1" d="M8,41h4v1H8V41z"/>
	</g>
	<path class="st2" d="M8,38v3h4v-1h2v-1h1v-5h-1v1h-1v1h-1v1h-2v1H8z"/>
	<g>
		<path class="st0" d="M49,40h1v1h-1V40z M50,34h1v1h-1V34z"/>
		<path class="st0" d="M49,33h1v1h-1V33z M51,35h1v1h-1V35z M56,38h1v4h-1V38z M50,41h2v1h-2V41z"/>
		<path class="st0" d="M52,42h4v1h-4V42z M54,37h2v1h-2V37z"/>
		<path class="st0" d="M52,36h2v1h-2V36z"/>
	</g>
	<g>
		<path class="st1" d="M49,39h1v1h-1V39z"/>
		<path class="st1" d="M50,40h2v1h-2V40z"/>
		<path class="st1" d="M52,41h4v1h-4V41z"/>
	</g>
	<path class="st2" d="M54,38v-1h-2v-1h-1v-1h-1v-1h-1v5h1v1h2v1h4v-3H54z"/>
</g>
<g class="st10">
	<g class="st11">
		<path class="st1" d="M50,38h1v1h-1V38z"/>
		<path class="st1" d="M49,39h1v1h-1V39z M51,37h1v1h-1V37z"/>
		<path class="st1" d="M52,36h2v1h-2V36z"/>
		<path class="st1" d="M54,35h2v1h-2V35z"/>
	</g>
	<path class="st12" d="M52,32v1h-2v1h-1v5h1v-1h1v-1h1v-1h2v-1h2v-3H52z"/>
	<g class="st11">
		<path class="st0" d="M49,33h1v1h-1V33z"/>
		<path class="st0" d="M50,32h2v1h-2V32z M50,39h1v1h-1V39z"/>
		<path class="st0" d="M49,40h1v1h-1V40z M51,38h1v1h-1V38z"/>
		<path class="st0" d="M52,37h2v1h-2V37z M52,31h4v1h-4V31z"/>
		<path class="st0" d="M56,32h1v4h-1V32z"/>
		<path class="st0" d="M54,36h2v1h-2V36z"/>
	</g>
	<g class="st11">
		<path class="st1" d="M13,38h1v1h-1V38z"/>
		<path class="st1" d="M14,39h1v1h-1V39z M12,37h1v1h-1V37z"/>
		<path class="st1" d="M10,36h2v1h-2V36z"/>
		<path class="st1" d="M8,35h2v1H8V35z"/>
	</g>
	<path class="st12" d="M8,32v3h2v1h2v1h1v1h1v1h1v-5h-1v-1h-2v-1H8z"/>
	<g class="st11">
		<path class="st0" d="M14,33h1v1h-1V33z"/>
		<path class="st0" d="M12,32h2v1h-2V32z M13,39h1v1h-1V39z"/>
		<path class="st0" d="M14,40h1v1h-1V40z M12,38h1v1h-1V38z"/>
		<path class="st0" d="M10,37h2v1h-2V37z M8,31h4v1H8V31z"/>
		<path class="st0" d="M7,32h1v4H7V32z"/>
		<path class="st0" d="M8,36h2v1H8V36z"/>
	</g>
</g>
<g>
	<path class="st0" d="M14,20h-1v-2H9v6h2v4h2v2h2V20H14z"/>
	<path class="st13" d="M14,22h-1v-2h-2v4h2v4h2v-6H14z"/>
	<g>
		<path class="st1" d="M13,22h-2v2h2v-1V22z"/>
		<path class="st1" d="M14,24h-1v4h2v-4H14z"/>
	</g>
	<path class="st0" d="M50,20h1v-2h4v6h-2v4h-2v2h-2V20H50z"/>
	<path class="st13" d="M50,22h1v-2h2v4h-2v4h-2v-6H50z"/>
	<g>
		<path class="st1" d="M51,22h2v2h-2v-1V22z"/>
		<path class="st1" d="M50,24h1v4h-2v-4H50z"/>
	</g>
</g>
<g>
	<path d="M17.1,29.9v-2h-2v-3.8h2v-2h29.8v2h2v3.8h-2v2H17.1z"/>
	<path class="st14" d="M46.8,22.2v2h2v3.5h-2v2.1H17.2v-2h-2v-3.6h2v-2H46.8 M47,22H17v2h-2v4h2v2h30v-2h2v-4h-2V22z"/>
	<path d="M17,24h30v4H17V24z"/>
	<path class="st6" d="M41,24v4h2v-4H41z"/>
	<g>
		<path class="st14" d="M17,22h30v2H17V22z"/>
		<path class="st14" d="M15,24h2v4h-2V24z M47,24h2v4h-2V24z"/>
		<path class="st14" d="M17,28h30v2H17V28z"/>
	</g>
</g>
<g>
	<path class="st8" d="M48,12v-1h-1v-1h-1V9h-1V8h-1V7h-1V6h-3V5h-7V4h-2v1h-7v1h-3v1h-1v1h-1v1h-1v1h-1v1h-1v1h-1v7H7v2h42v-9H48z"
		/>
	<path d="M47,12v-1h-1v-1h-1V9h-1V8h-1V7h-3V6h-6v1h1v1h1v1h1v1h1v1h1v1h1v8h8v-8H47z M26,11v-1h1V9h1V8h1V7h1V6h-6v1h-3v1h-1v1h-1
		v1h-1v1h-1v1h-1v8h8v-8h1v-1H26z"/>
	<path d="M38,11h-1v-1h-1V9h-1V8h-1V7h-1V6h-2v1h-1v1h-1v1h-1v1h-1v1h-1v1h-1v8h14v-8h-1V11z"/>
	<g>
		<path class="st9" d="M33.8,9.2h0.6v0.6h-0.6V9.2z"/>
		<path class="st9" d="M32.6,12.3h0.6v-1.2h0.6V9.8h-0.6v0.6h-0.6v0.7h-0.7v0.6h-0.6v0.6h-0.6v0.6h-0.6v0.6h-0.6v0.6h-0.6v0.6h1.8
			v1.2h-0.6v1.3h-0.6v1.2h0.6v-0.6h0.6v-0.6h0.6v-0.6h0.6v-0.7h0.7v-0.6h0.6v-0.6h0.6v-0.6h0.6v-0.6h-1.8v-0.6V12.3z"/>
		<path class="st9" d="M28.9,18.4h0.6V19h-0.6V18.4z"/>
	</g>
</g>
<g>
	<g class="st10">
		<path class="st15" d="M49,42h1v-1h1v-1h1v-7h-2v1h-1V42z"/>
		<path class="st11" d="M50,40h1v-6h-1v1h-1v6h1V40z"/>
	</g>
	<g>
		<path class="st8" d="M49,41h1v1h2v-7h-1v-1h-1v-1h-1V41z"/>
		<path d="M50,34h-1v6h1v1h1v-6h-1V34z"/>
	</g>
	<g class="st10">
		<path class="st15" d="M15,34h-1v-1h-2v7h1v1h1v1h1V34z"/>
		<path class="st11" d="M14,41h1v-6h-1v-1h-1v6h1V41z"/>
	</g>
	<g>
		<path class="st8" d="M15,33h-1v1h-1v1h-1v7h2v-1h1V33z"/>
		<path d="M14,35h-1v6h1v-1h1v-6h-1V35z"/>
	</g>
</g>
<g>
	<path class="st16" d="M12,34v-1h-1v-1H4v1H3v1H2v7h1v2h1v1h2v1h3v-1h2v-1h1v-2h1v-7H12z"/>
	<path class="st17" d="M10,36h1v1h-1V36z M3,40h1v-3H3V40z M5,39h1v-2H5V39z M7,41h1v-3H7V41z M9,38h1v1H9V38z M11,38v2h1v-2H11z
		 M5,43h1v-3H5V43z M9,42h1v-2H9V42z M7,44h1v-2H7V44z"/>
	<path class="st18" d="M11,34v-1H4v1H3v1h1v1h7v-1h1v-1H11z"/>
	<path class="st2" d="M4,34h7v1H4V34z"/>
	<g>
		<path class="st19" d="M3,27h1v1H3V27z"/>
		<path class="st19" d="M2,28h1v1H2V28z M4,28h1v2H4V28z"/>
		<path class="st19" d="M1,29h1v1H1V29z M5,30h1v2H5V30z"/>
		<path class="st19" d="M6,32h1v2H6V32z"/>
		<path class="st19" d="M7,34h1v1H7V34z"/>
	</g>
</g>
<g>
	<g transform="scale(-1, 1) translate(-62, 0)">
		<path class="st16" d="M10,34v-1H9v-1H2v1H1v1H0v7h1v2h1v1h2v1h3v-1h2v-1h1v-2h1v-7H10z"/>
		<path class="st17" d="M8,36h1v1H8V36z M1,40h1v-3H1V40z M3,39h1v-2H3V39z M5,41h1v-3H5V41z M7,38h1v1H7V38z M9,38v2h1v-2H9z M3,43
			h1v-3H3V43z M7,42h1v-2H7V42z M5,44h1v-2H5V44z"/>
		<path class="st18" d="M9,34v-1H2v1H1v1h1v1h7v-1h1v-1H9z"/>
		<path class="st2" d="M2,34h7v1H2V34z"/>
		<g>
			<path class="st19" d="M1,27h1v1H1V27z"/>
			<path class="st19" d="M0,28h1v1H0V28z M2,28h1v2H2V28z"/>
			<path class="st19" d="M-1,29h1v1h-1V29z M3,30h1v2H3V30z"/>
			<path class="st19" d="M4,32h1v2H4V32z"/>
			<path class="st19" d="M5,34h1v1H5V34z"/>
		</g>
	</g>
</g>
</svg>
