<?xml version="1.0" encoding="utf-8"?>
<!-- Generator: Adobe Illustrator 25.3.1, SVG Export Plug-In . SVG Version: 6.00 Build 0)  -->
<svg version="1.1" id="Layer_1" xmlns="http://www.w3.org/2000/svg" xmlns:xlink="http://www.w3.org/1999/xlink" x="0px" y="0px"
	 viewBox="0 0 64 64" style="enable-background:new 0 0 64 64;" xml:space="preserve">
<style type="text/css">
	.st0{fill:#B6509E;}
	.st1{fill:#CFEEF4;}
	.st2{fill:#FFFFFF;}
	.st3{fill:#F696C6;}
	.st4{opacity:0.25;enable-background:new    ;}
	.st5{fill:#EA8C27;}
	.st6{fill:#A73796;}
	.st7{fill:#390601;}
	.st8{fill:#5E342F;}
	.st9{fill:#A97955;}
	.st10{display:none;}
	.st11{display:inline;}
	.st12{display:inline;fill:#FFFFFF;}
	.st13{fill:#592F2A;}
	.st14{fill:#846460;}
	.st15{fill:#00FFFF;}
	.st16{fill:#46CDFF;}
	.st17{fill:#0093FF;}
	.st18{fill:#00AFFF;}
	.st19{fill:#FFCB00;}
	.st20{fill:#FFB300;}
	.st21{fill:#4E2721;}
</style>
<g>
	<g>
		<path class="st0" d="M21,12h2v-2h-4v2h1H21z"/>
		<path class="st0" d="M19,14v-2h-2v2h1H19z M25,10h2V8h-4v2h1H25z"/>
		<path class="st0" d="M29,8h8V6H27v2h1H29z M45,14h2v-2h-2v1V14z"/>
		<path class="st0" d="M48,14h-1v39h-2v2h4V14H48z M37,10h4V8h-4v1V10z"/>
		<path class="st0" d="M41,12h4v-2h-4v1V12z M17,53V14h-2v41h4v-2h-1H17z"/>
		<path class="st0" d="M24,51h-5v2h5v-1V51z"/>
		<path class="st0" d="M27,53h-3v2h5v-2h-1H27z M45,51h-5v2h5v-1V51z"/>
		<path class="st0" d="M35,51h-6v2h6v-1V51z"/>
		<path class="st0" d="M38,53h-3v2h5v-2h-1H38z"/>
	</g>
	<g>
		<path class="st1" d="M18,43v6h2v-1h2v1h2v2h-5v2h-2V14h2v1h-1v26V43z"/>
		<path class="st1" d="M27,51h-3v2h5v-2h-1H27z M38,51h-3v2h5v-2h-1H38z"/>
		<path class="st1" d="M35,49h-2v-1h-2v1h-2v2h6v-1V49z M25,11h2v-1h-4v1h1H25z M21,13h2v-1h-4v1h1H21z M45,44v5h-1v-1h-2v1h-2v2h5
			v2h2V14h-2v29V44z"/>
		<path class="st1" d="M37,8H27v1h5v1h5V9V8z M45,12h-4v2h4v-1V12z"/>
		<path class="st1" d="M41,10h-4v2h4v-1V10z"/>
	</g>
	<path class="st2" d="M44,14h-3v-2h-4v-2h-5V9h-5v2h-4v2h-4v2h-1v34h2v-1h2v1h2v2h5v-2h2v-1h2v1h2v2h5v-2h2v-1h2v1h1V14H44z"/>
</g>
<path class="st3" d="M21,32v2h2v-2h-1H21z M42,32h-1v2h2v-2H42z"/>
<g>
	<path class="st0" d="M29,32h-2v2h2v-1V32z"/>
	<path class="st0" d="M33,34h-4v2h6v-2h-1H33z"/>
	<path class="st0" d="M36,32h-1v2h2v-2H36z"/>
</g>
<g>
	<path class="st4" d="M25,58h-6v1h1v1h24v-1h1v-1h-1H25z"/>
</g>
<g>
	<path class="st5" d="M28,22h-1v-1h-1h-1h-1h-1v1h-1v1h-1v1v1v1v1h1v1h1v1h1h1h1h1v-1h1v-1h1v-1v-1v-1v-1h-1V22z"/>
	<path class="st5" d="M42,23v-1h-1v-1h-1h-1h-1h-1v1h-1v1h-1v1v1v1v1h1v1h1v1h1h1h1h1v-1h1v-1h1v-1v-1v-1v-1H42z"/>
</g>
<g>
	<path class="st6" d="M30.5,15h1v-2h-1V15z"/>
	<path class="st6" d="M31.5,12h1v1h-1V12z"/>
	<path class="st6" d="M33.5,13h-1v2h1V13z M29.5,16h-2v1h1v2h1v-2h2v-1h-1v-1h-1V16z"/>
	<path class="st6" d="M34.5,15h-1v2h1V15z"/>
	<path class="st6" d="M35.5,17h-1v2h1V17z M27.5,21h1v-2h-1V21z"/>
	<path class="st6" d="M35.5,19v2h1v-2H35.5z"/>
</g>
<g>
	<path class="st7" d="M15,41v14h4v-2h5v2h5v-2h6v2h5v-2h5v2h4V41H15z"/>
	<g>
		<path class="st8" d="M29,50h-1v1h-3v-1h-1v-5h-5v5h-1v1h-2v2h3v-2h5v2h5v-2h1v-6h-1V50z M20,46h3v1h-3V46z M20,48h3v1h-3V48z
			 M25,45h3v1h-3V45z M25,47h3v1h-3V47z M16,45h2v2h-2V45z"/>
		<path class="st8" d="M25,49h3v1h-3V49z M16,48h2v2h-2V48z M36,45h3v1h-3V45z M36,47h3v1h-3V47z M45,45h-5v5h-1v1h-3v-1h-1v-5h-1v6
			h1v2h5v-2h5v2h3v-2h-2v-1h-1V45z M41,46h3v1h-3V46z M41,48h3v1h-3V48z"/>
		<path class="st8" d="M46,48h2v2h-2V48z M46,45h2v2h-2V45z M36,49h3v1h-3V49z M31,45h2v6h-2V45z"/>
	</g>
	<g>
		<path class="st9" d="M30,42h1v2h-1V42z M25,42h1v1h-1V42z M27,42h1v1h-1V42z M36,42h1v1h-1V42z M38,42h1v1h-1V42z M19,42h1v1h-1
			V42z M21,42h1v1h-1V42z M23,42h1v1h-1V42z M17,42h1v1h-1V42z M44,42h1v1h-1V42z M42,42h1v1h-1V42z M40,42h1v1h-1V42z"/>
		<path class="st9" d="M46,42h1v1h-1V42z M33,42h1v2h-1V42z M20,43h1v1h-1V43z M18,43h1v1h-1V43z M22,43h1v1h-1V43z M24,43h1v1h-1
			V43z M28,43h1v1h-1V43z M43,43h1v1h-1V43z"/>
		<path class="st9" d="M41,43h1v1h-1V43z M35,43h1v1h-1V43z M39,43h1v1h-1V43z M16,43h1v1h-1V43z M47,43h1v1h-1V43z M37,43h1v1h-1
			V43z M26,43h1v1h-1V43z M45,43h1v1h-1V43z"/>
	</g>
</g>
<g class="st10">
	<g class="st11">
		<path class="st0" d="M19,42h1v1h-1V42z M20,36h1v1h-1V36z"/>
		<path class="st0" d="M21,37h1v1h-1V37z M26,40v4h1v-4H26z M21,43h-1v1h2v-1H21z"/>
		<path class="st0" d="M24,44h-2v1h4v-1h-1H24z M25,39h-1v1h2v-1H25z"/>
		<path class="st0" d="M23,38h-1v1h2v-1H23z"/>
	</g>
	<g class="st11">
		<path class="st1" d="M19,43h1v1h-1V43z M24,45h-2v1h4v-1h-1H24z"/>
		<path class="st1" d="M27,41v3h1v-3H27z M21,44h-1v1h2v-1H21z"/>
		<path class="st1" d="M26,44h1v1h-1V44z M19,41h-1v2h1v-1V41z"/>
	</g>
	<g class="st11">
		<path class="st0" d="M44,42h1v1h-1V42z M43,36h1v1h-1V36z"/>
		<path class="st0" d="M42,37h1v1h-1V37z"/>
		<path class="st0" d="M42,39v-1h-2v1h1H42z M42,43v1h2v-1h-1H42z"/>
		<path class="st0" d="M40,44h-2v1h4v-1h-1H40z"/>
		<path class="st0" d="M38,42v-2h-1v4h1v-1V42z"/>
		<path class="st0" d="M40,40v-1h-2v1h1H40z"/>
	</g>
	<g class="st11">
		<path class="st1" d="M42,44v1h2v-1h-1H42z M37,42v-1h-1v3h1v-1V42z"/>
		<path class="st1" d="M40,45h-2v1h4v-1h-1H40z"/>
		<path class="st1" d="M37,44h1v1h-1V44z M44,43h1v1h-1V43z"/>
	</g>
</g>
<g>
	<g>
		<path class="st0" d="M14,40h1v1h-1V40z M13,34h1v1h-1V34z"/>
		<path class="st0" d="M14,33h1v1h-1V33z M12,35h1v1h-1V35z M7,38h1v4H7V38z M12,41h2v1h-2V41z"/>
		<path class="st0" d="M8,42h4v1H8V42z M8,37h2v1H8V37z"/>
		<path class="st0" d="M10,36h2v1h-2V36z"/>
	</g>
	<g>
		<path class="st1" d="M14,39h1v1h-1V39z"/>
		<path class="st1" d="M12,40h2v1h-2V40z"/>
		<path class="st1" d="M8,41h4v1H8V41z"/>
	</g>
	<path class="st2" d="M8,38v3h4v-1h2v-1h1v-5h-1v1h-1v1h-1v1h-2v1H8z"/>
	<g>
		<path class="st0" d="M49,40h1v1h-1V40z M50,34h1v1h-1V34z"/>
		<path class="st0" d="M49,33h1v1h-1V33z M51,35h1v1h-1V35z M56,38h1v4h-1V38z M50,41h2v1h-2V41z"/>
		<path class="st0" d="M52,42h4v1h-4V42z M54,37h2v1h-2V37z"/>
		<path class="st0" d="M52,36h2v1h-2V36z"/>
	</g>
	<g>
		<path class="st1" d="M49,39h1v1h-1V39z"/>
		<path class="st1" d="M50,40h2v1h-2V40z"/>
		<path class="st1" d="M52,41h4v1h-4V41z"/>
	</g>
	<path class="st2" d="M54,38v-1h-2v-1h-1v-1h-1v-1h-1v5h1v1h2v1h4v-3H54z"/>
</g>
<g class="st10">
	<g class="st11">
		<path class="st1" d="M50,38h1v1h-1V38z"/>
		<path class="st1" d="M49,39h1v1h-1V39z M51,37h1v1h-1V37z"/>
		<path class="st1" d="M52,36h2v1h-2V36z"/>
		<path class="st1" d="M54,35h2v1h-2V35z"/>
	</g>
	<path class="st12" d="M52,32v1h-2v1h-1v5h1v-1h1v-1h1v-1h2v-1h2v-3H52z"/>
	<g class="st11">
		<path class="st0" d="M49,33h1v1h-1V33z"/>
		<path class="st0" d="M50,32h2v1h-2V32z M50,39h1v1h-1V39z"/>
		<path class="st0" d="M49,40h1v1h-1V40z M51,38h1v1h-1V38z"/>
		<path class="st0" d="M52,37h2v1h-2V37z M52,31h4v1h-4V31z"/>
		<path class="st0" d="M56,32h1v4h-1V32z"/>
		<path class="st0" d="M54,36h2v1h-2V36z"/>
	</g>
	<g class="st11">
		<path class="st1" d="M13,38h1v1h-1V38z"/>
		<path class="st1" d="M14,39h1v1h-1V39z M12,37h1v1h-1V37z"/>
		<path class="st1" d="M10,36h2v1h-2V36z"/>
		<path class="st1" d="M8,35h2v1H8V35z"/>
	</g>
	<path class="st12" d="M8,32v3h2v1h2v1h1v1h1v1h1v-5h-1v-1h-2v-1H8z"/>
	<g class="st11">
		<path class="st0" d="M14,33h1v1h-1V33z"/>
		<path class="st0" d="M12,32h2v1h-2V32z M13,39h1v1h-1V39z"/>
		<path class="st0" d="M14,40h1v1h-1V40z M12,38h1v1h-1V38z"/>
		<path class="st0" d="M10,37h2v1h-2V37z M8,31h4v1H8V31z"/>
		<path class="st0" d="M7,32h1v4H7V32z"/>
		<path class="st0" d="M8,36h2v1H8V36z"/>
	</g>
</g>
<g>
	<path class="st7" d="M46,24v-1h-1v-1h-1v-1h-1v-1h-6v1h-1v1h-1v1h-1v1h-4v-1h-1v-1h-1v-1h-1v-1h-6v1h-1v1h-1v1h-1v1h-3v4h3v1h1v1h1
		v1h1v1h5v5h1v1h1v1h8v-1h1v-1h1v-5h5v-1h1v-1h1v-1h1v-1h3v-4H46z"/>
	<g>
		<path class="st13" d="M26,21h1v1h-1V21z"/>
		<path class="st13" d="M27,22h1v1h-1V22z M21,21h1v1h-1V21z"/>
		<path class="st13" d="M20,22h1v1h-1V22z"/>
		<path class="st13" d="M19,23h1v1h-1V23z"/>
		<path class="st13" d="M18,24h1v1h-1V24z M26,30h1v1h-1V30z"/>
		<path class="st13" d="M27,29h1v1h-1V29z M21,30h1v1h-1V30z"/>
		<path class="st13" d="M20,29h1v1h-1V29z"/>
		<path class="st13" d="M19,28h1v1h-1V28z"/>
		<path class="st13" d="M18,27h1v1h-1V27z M16,26h1v1h-1V26z"/>
		<path class="st13" d="M17,25h1v1h-1V25z M15,25h1v1h-1V25z M28,23h1v1h-1V23z M28,28h1v1h-1V28z"/>
		<path class="st13" d="M29,24h1v1h-1V24z M29,27h1v1h-1V27z M34,24h1v1h-1V24z M34,27h1v1h-1V27z"/>
		<path class="st13" d="M35,23h1v1h-1V23z M35,28h1v1h-1V28z M37,21h1v1h-1V21z"/>
		<path class="st13" d="M36,22h1v1h-1V22z M42,21h1v1h-1V21z"/>
		<path class="st13" d="M43,22h1v1h-1V22z"/>
		<path class="st13" d="M44,23h1v1h-1V23z"/>
		<path class="st13" d="M45,24h1v1h-1V24z M37,30h1v1h-1V30z"/>
		<path class="st13" d="M36,29h1v1h-1V29z M42,30h1v1h-1V30z"/>
		<path class="st13" d="M43,29h1v1h-1V29z"/>
		<path class="st13" d="M44,28h1v1h-1V28z"/>
		<path class="st13" d="M45,27h1v1h-1V27z M47,26h1v1h-1V26z"/>
		<path class="st13" d="M46,25h1v1h-1V25z M48,25h1v1h-1V25z"/>
	</g>
	<g>
		<path class="st14" d="M26,22h1v1h-1V22z"/>
		<path class="st14" d="M27,23h1v1h-1V23z M27,28h1v1h-1V28z"/>
		<path class="st14" d="M26,29h1v1h-1V29z M21,22h1v1h-1V22z"/>
		<path class="st14" d="M20,23h1v1h-1V23z M20,28h1v1h-1V28z"/>
		<path class="st14" d="M21,29h1v1h-1V29z M23,21h2v1h-2V21z M19,25h1v2h-1V25z M17,26h1v1h-1V26z M15,26h1v1h-1V26z"/>
		<path class="st14" d="M16,25h1v1h-1V25z M23,30h2v1h-2V30z M34,29h1v1h-1V29z"/>
		<path class="st14" d="M35,30h1v1h-1V30z"/>
		<path class="st14" d="M36,36h-1v1h-6v-1h-1v-5h-1v6h1v1h8v-1h1v-6h-1V36z M30,28h4v1h-4V28z M33,30h1v1h-1V30z"/>
		<path class="st14" d="M34,31h1v1h-1V31z M30,30h1v1h-1V30z"/>
		<path class="st14" d="M29,31h1v1h-1V31z M31,31h2v1h-2V31z"/>
		<path class="st14" d="M33,32h1v1h-1V32z M30,32h1v1h-1V32z"/>
		<path class="st14" d="M31,33h2v1h-2V33z"/>
		<path class="st14" d="M33,34h1v1h-1V34z M30,34h1v1h-1V34z"/>
		<path class="st14" d="M31,35h2v1h-2V35z M34,33h1v1h-1V33z M34,35h1v1h-1V35z M29,33h1v1h-1V33z M29,35h1v1h-1V35z M29,29h1v1h-1
			V29z"/>
		<path class="st14" d="M28,30h1v1h-1V30z M28,25h1v2h-1V25z M30,25h1v2h-1V25z M33,25h1v2h-1V25z M35,25h1v2h-1V25z M37,22h1v1h-1
			V22z"/>
		<path class="st14" d="M36,23h1v1h-1V23z M36,28h1v1h-1V28z"/>
		<path class="st14" d="M37,29h1v1h-1V29z M42,22h1v1h-1V22z"/>
		<path class="st14" d="M43,23h1v1h-1V23z M43,28h1v1h-1V28z"/>
		<path class="st14" d="M42,29h1v1h-1V29z M39,21h2v1h-2V21z M46,26h1v1h-1V26z M48,26h1v1h-1V26z"/>
		<path class="st14" d="M44,25h1v2h-1V25z M47,25h1v1h-1V25z M39,30h2v1h-2V30z"/>
	</g>
	<path class="st15" d="M26,23h-4v1h-1v4h1v1h4v-1h1v-4h-1V23z M42,24v-1h-4v1h-1v4h1v1h4v-1h1v-4H42z"/>
	<g>
		<path class="st2" d="M24,23h1v1h-1V23z"/>
		<path class="st2" d="M23,24h1v1h-1V24z"/>
		<path class="st2" d="M22,25h1v1h-1V25z"/>
		<path class="st2" d="M21,26h1v1h-1V26z M26,25h-1v1h-1v1h-1v1h-1v1h2v-1h1v-1h1v-1h1v-2h-1V25z M40,23h1v1h-1V23z"/>
		<path class="st2" d="M39,24h1v1h-1V24z"/>
		<path class="st2" d="M38,25h1v1h-1V25z M42,24v1h-1v1h-1v1h-1v1h-1v1h2v-1h1v-1h1v-1h1v-2H42z"/>
		<path class="st2" d="M37,26h1v1h-1V26z"/>
	</g>
</g>
<g>
	<path d="M11,24v-2H9v-4H7V8H5V6h10v2h2v2h2V8h6V6h14v2h6v2h2V8h2V6h10v2h-2v10h-2v4h-2v2H11z"/>
	<path class="st2" d="M9,8v2h4v2H9v2h4v2H9v2h4v2h-2v2h4V8H9z M49,8v14h4v-2h-2v-2h4v-2h-4v-2h4v-2h-4v-2h4V8H49z M41,10h2v6h-2V10z
		 M21,10h2v6h-2V10z M35,12v-1h-1v-1h-1V9h-2v1h-1v1h-1v1h-1v4h1v1h1v1h1v1h2v-1h1v-1h1v-1h1v-4H35z"/>
	<path class="st16" d="M31,10v1h-1v1h-1v2h3v-4H31z"/>
	<path class="st17" d="M32,14v4h1v-1h1v-1h1v-2H32z"/>
	<g>
		<path class="st18" d="M29,14v2h1v1h1v1h1v-4H29z"/>
		<path class="st18" d="M34,12v-1h-1v-1h-1v4h3v-2H34z"/>
	</g>
	<path class="st19" d="M47,19v-2h-6v1h-3v1h-2v1h-1v1h-1v1h-1v1h-2v-1h-1v-1h-1v-1h-1v-1h-2v-1h-3v-1h-6v2h-2v9h2v2h3v1h3v1h4v-1h1
		v-1h1v1h1v1h1v1h2v-1h1v-1h1v-1h1v1h1v1h4v-1h3v-1h3v-2h2v-9H47z"/>
	<path class="st20" d="M31,23v-1h-1v-1h-1v-1h-1v-1h-2v-1h-3v-1h-6v2h-2v9h2v2h3v1h3v1h4v-1h1v-1h1v1h1v1h1v1h1V23H31z"/>
	<path d="M29,24h-2v-1h-2v-1h-6v4h1v2h1v1h2v1h4v-1h2v-1h1v-3h-1V24z M39,22v1h-2v1h-2v1h-1v3h1v1h2v1h4v-1h2v-1h1v-1h1v-5H39z"/>
	<g>
		<path class="st2" d="M21,23h2v1h-2V23z"/>
		<path class="st2" d="M28,26h-1v1h-4v-1h-1v-1h-1v-1h-1v2h1v2h2v1h4v-1h2v-3h-1V26z M41,23h2v1h-2V23z"/>
		<path class="st2" d="M43,24v1h-1v1h-1v1h-4v-1h-1v-1h-1v3h2v1h4v-1h2v-2h1v-2H43z"/>
	</g>
</g>
<g>
	<path class="st7" d="M14,33v1h-1v1h-1v1h-2v1H8v1H7v-1H6v-1H3v1H2v1H1v1h2v-1h3v1H5v2h1v1H3v-1H1v1h1v1h1v1h3v-1h1v-1h1v1h4v-1h2
		v-1h1v-8H14z"/>
	<path class="st15" d="M6,39h2v2H6V39z"/>
	<g>
		<path class="st21" d="M2,38h1v1H2V38z"/>
		<path class="st21" d="M3,37h3v1H3V37z M3,42h3v1H3V42z"/>
		<path class="st21" d="M2,41h1v1H2V41z M14,36v1h-2v1h-2v1H9v2h1v-1h2v-1h2v-1h1v-2H14z"/>
	</g>
	<path class="st2" d="M6,39h1v1H6V39z"/>
</g>
<g>
	<g transform="scale(-1, 1) translate(-62, 0)">
		<path class="st7" d="M12,33v1h-1v1h-1v1H8v1H6v1H5v-1H4v-1H1v1H0v1h-1v1h2v-1h3v1H3v2h1v1H1v-1h-2v1h1v1h1v1h3v-1h1v-1h1v1h4v-1h2
			v-1h1v-8H12z"/>
		<path class="st15" d="M4,39h2v2H4V39z"/>
		<g>
			<path class="st21" d="M0,38h1v1H0V38z"/>
			<path class="st21" d="M1,37h3v1H1V37z M1,42h3v1H1V42z"/>
			<path class="st21" d="M0,41h1v1H0V41z M12,36v1h-2v1H8v1H7v2h1v-1h2v-1h2v-1h1v-2H12z"/>
		</g>
		<path class="st2" d="M4,39h1v1H4V39z"/>
	</g>
</g>
</svg>
