<svg xmlns="http://www.w3.org/2000/svg" xmlns:xlink="http://www.w3.org/1999/xlink" viewBox="0 0 64 64"><style><![CDATA[.Ef{fill:#0f0}.Eg{fill:#ff0}.Eh{fill:#64438e}.Ei{fill:#f0f}.Ej{fill:#edd3fd}.Ek{fill:#000032}.El{fill:#646464}.Em{enable-background:new}]]></style><path d="M44,58H19v1h1v1h24v-1h1v-1H44z" opacity=".25" class="Em"/><path d="M47 14v-2h-2v-2h-4V8h-4V6H27v2h-4v2h-4v2h-2v2h-2v41h4v-2h5v2h5v-2h6v2h5v-2h5v2h4V14z" class="Eh"/><path d="M45 14v-2h-4v-2h-4V8H27v2h-4v2h-4v2h-2v39h2v-2h5v2h5v-2h6v2h5v-2h5v2h2V14z" class="Ej"/><path d="M18,49h2v-1h2v1h2v2h5v-2h2v-1h2v1h2v2h5v-2h2v-1h2v1h1V14h-4v-2h-4v-2h-5V9h-5v2h-4v2h-4v2h-1V49z" fill="#fff"/><path d="M23 28v2h4v-2h2v-4h-2v-2h-4v2h-2v4h2zm12-4v4h2v2h4v-2h2v-4h-2v-2h-4v2h-2z" class="Eh"/><path d="M21 32v2h2v-2h-2zm20 0v2h2v-2h-2z" fill="#f696c6"/><g class="Eh"><path d="M29,32h-2v2h2V32z"/><path d="M29,34v2h6v-2H29z"/><path d="M35 32v2h2v-2h-2zm0-17v-1h-1v-1h-1v-1h-2v1h-1v1h-1v1h-1v4h1v1h1v1h1v1h2v-1h1v-1h1v-1h1v-4z"/></g><g fill="#dea8ff"><path d="M29,17v2h1v1h1v1h1v-4H29z"/><path d="M34,15v-1h-1v-1h-1v4h3v-2H34z"/></g><path d="M32,17v4h1v-1h1v-1h1v-2H32z" fill="#c260ff"/><path d="M31,13v1h-1v1h-1v2h3v-4H31z" class="Ej"/><path d="M8 38v-1h2v-1h2v-1h1v-1h1v-1h1v8h-1v1h-2v1H8v-1H7v-4z" class="Eh"/><path d="M10 38v-1h2v-1h1v-1h1v-1h1v6h-1v1h-2v1H8v-4z" class="Ej"/><path d="M8,38v3h4v-1h2v-1h1v-5h-1v1h-1v1h-1v1h-2v1H8z" fill="#fff"/><path d="M56 38v-1h-2v-1h-2v-1h-1v-1h-1v-1h-1v8h1v1h2v1h4v-1h1v-4z" class="Eh"/><path d="M54 38v-1h-2v-1h-1v-1h-1v-1h-1v6h1v1h2v1h4v-4z" class="Ej"/><path d="M54,38v-1h-2v-1h-1v-1h-1v-1h-1v5h1v1h2v1h4v-3H54z" fill="#fff"/><path d="M49,18v-2h-2v-2H35V5h-6v9H17v2h-2v2h-1v7h1v2h2v2h2v2h10v-2h6v2h10v-2h2v-2h2v-2h1v-7H49z"/><path d="M17,16v11h2v2h10v-2h6v2h10v-2h2V16H17z" fill="#ff0097"/><path d="M19,18v9h10v-2h6v2h10v-9H19z" fill="#ff14ff"/><path d="M21 16h2v13h-2V16zm20 0h2v13h-2V16zm-2 0h1v13h-1V16zm-15 0h1v13h-1V16z" opacity=".8" fill="#fff" class="Em"/><path d="M33,6h4v13h-4V6z" class="Ef"/><path d="M32,3h3v18h-3V3z" class="Eg"/><path d="M32,3h2v18h-2V3z" fill="#ffc800"/><path d="M27,19h4V6h-4V19z" fill="#0ff"/><path d="M27,19h1V6h-1V19z" fill="#007dff"/><path d="M31,0h2v22h-2V0z" class="Ei"/><path d="M29,3h3v18h-3V3z" fill="#7d00ff"/><path d="M35,6h1v13h-1V6z" fill="#009600"/><path d="M31,0h1v22h-1V0z" fill="#7d0064"/><path d="M29,3h1v18h-1V3z" fill="#32007d"/><path d="M47 31v1h-3v2h-3v2h-3v1h-1v1H27v-1h-1v-1h-3v-2h-3v-2h-3v-1h-1l-1.5 2v16h.5v6h4v-1h5v1h5v-1h6v1h5v-1h5v1h4v-6h.5V33L48 31h-1z" class="Ek"/><path d="M47 51h-1v1h2v-1h-1zm-31 0v1h2v-1h-2z" fill="#ff9600"/><path d="M48 41h1v1h-1v-1zm-3 0v1h2v-1h-2zm-3 2v1h2v-1h-2zm-3 2v1h2v-1h-2zm-2 8h1v1h-1v-1zm0-2h1v1h-1v-1zm0-2h1v1h-1v-1zm0-2h1v1h-1v-1zm-11 6h1v1h-1v-1zm0-2h1v1h-1v-1zm0-2h1v1h-1v-1zm0-2h1v1h-1v-1zm-3-2v1h2v-1h-2zm-3-2v1h2v-1h-2zm-3-2v1h2v-1h-2zm-2 0h1v1h-1v-1z" fill="#0ff"/><path d="M48 37h-2v2h-3v2h-3v2h-3v2h-2v2h1v-1h2v-2h3v-2h3v-2h5v-3h-1zm0 2h-1v-1h1v1zM35 52h1v1h-1v-1zm0-2h1v1h-1v-1zm0-2h1v1h-1v-1zm-7 4h1v1h-1v-1zm0-2h1v1h-1v-1zm0-2h1v1h-1v-1zm-1-3v-2h-3v-2h-3v-2h-3v-2h-3v3h5v2h3v2h3v2h2v1h1v-2h-2zm-11-6v-1h1v1h-1z" class="Ef"/><path d="M47 33h-2v3h3v-3h-1zm0 2h-1v-1h1v1zm-7 2h-1v3h3v-3h-2zm1 2h-1v-1h1v1zm-7 2h-1v3h3v-3h-2zm1 2h-1v-1h1v1zm-3 9h-2v1h4v-1h-2zm0-4h-2v1h4v-1h-2zm-1-4v-3h-3v3h3zm-2-1v-1h1v1h-1zm-6-6h-1v3h3v-3h-2zm1 2h-1v-1h1v1zm-7-6h-1v3h3v-3h-2zm1 2h-1v-1h1v1z" class="Ei"/><g class="Eg"><path d="M48 31v2h1.5v-1H49v-1h-1zm-2 22v1h2v-1h-2zm-3-18h-1v3h3v-3h-2zm1 2h-1v-1h1v1zm-7 2h-1v3h3v-3h-2zm1 2h-1v-1h1v1zm-4-3h1v1h-1v-1zm-1 7v1h-2v-2h-1v3h4v-3h-1v1z"/><path d="M33 39h1v1h-1v-1zm-1 11h-2v1h4v-1h-2z"/><path d="M33 44v-1h-2v1h2zm-2-4v1h2v-1h-2z"/><path d="M30,39h1v1h-1V39z"/><path d="M29 38h1v1h-1v-1zm-3 1h-1v3h3v-3h-2zm1 2h-1v-1h1v1zM16 53v1h2v-1h-2zm4-18h-1v3h3v-3h-2zm1 2h-1v-1h1v1zm-5-5v-1h-1v1h-.5v1H16v-1z"/></g><path d="M50 33h1v2h1v10h-1v2h-1v3h-1V33h1z" class="Ek"/><path d="M48.5,32H50v1h-1.5V32z" class="Eg"/><path d="M51 34v1h-1v1h1v-1h1v2h-3v-3h2z" class="Ef"/><path d="M14,33h-1v2h-1v10h1v2h1v3h1V33H14z" class="Ek"/><path d="M14,32h1.5v1H14V32z" class="Eg"/><g class="Ef"><path d="M13 34v1h1v1h-1v-1h-1v2h3v-3h-2zm12 16h1v1h-1v-1zm-2 1h1v1h-1v-1zm-1 3h1v1h-1v-1zm16-4h1v1h-1v-1z"/><path d="M40 51h1v1h-1v-1zm-1 2h-1v-2h-1V33H27v18h-1v2h-1v1h-1v1h16v-1h-1v-1zm2 1h1v1h-1v-1z"/></g><path d="M28,33v22h1V33H28z" fill="#0ff"/><g fill="#007dff"><path d="M27,33v18h-1v2h-1v1h-1v1h4V33H27z"/><path d="M25 50h1v1h-1v-1zm-2 1h1v1h-1v-1zm-1 3h1v1h-1v-1z"/></g><path d="M35,33v22h1V33H35z" fill="#009600"/><path d="M30,33v22h1V33H30z" fill="#7d00ff"/><path d="M31,33v22h1V33H31z" fill="#7d0064"/><path d="M29,33v22h1V33H29z" fill="#32007d"/><path d="M32,33v22h1V33H32z" class="Ei"/><path d="M33,33v22h1V33H33z" fill="#ffc800"/><path d="M34,33v22h1V33H34z" class="Eg"/><path d="M27,32v2h10v-2H27z" class="Eh"/><path d="M15,42v-1h-1v-1h1v-9h-1v-1H2v1H1v9h1v1H1v1H0v2h16v-2H15z"/><path d="M14,42v-1H2v1H1v1h14v-1H14z" class="El"/><path d="M2,31v9h12v-9H2z" fill="#323232"/><g fill="#969696"><path d="M2 41h1v1H2v-1zm2 0h1v1H4v-1zm2 0h1v1H6v-1zm2 0h1v1H8v-1z"/><path d="M10 41h1v1h-1v-1zm2 0h1v1h-1v-1zM1 42h1v1H1v-1zm2 0h1v1H3v-1z"/><path d="M5 42h1v1H5v-1zm2 0h1v1H7v-1zm2 0h1v1H9v-1zm2 0h1v1h-1v-1zm2 0h1v1h-1v-1z"/></g><path d="M3 34v4h1v-5H3v1zm2-1v1h1v1H5v1h1v1H5v1h2v-5H5zm3 0v1h1v1H8v1h1v1H8v1h2v-5H8zm3 0v1h1v4h1v-5h-2z" class="Ef"/><g transform="matrix(-1 0 0 1 60 0)"><path d="M10,33v1H9v1H8v1H5v1H4v-1H0v1h-1v1h-1v4h1v1h1v1h3v-1h1v1h4v-1h2v-1h1v-9H10z" fill="#0a040b"/><path d="M-1,38v4h1v-4H-1z" fill="#0affff"/><path d="M10,34v1H9v1H8v1H5v1h1v1h1v1h4v-6H10z" fill="#323232"/><path d="M7,41v-1H6v-1H5v-1H4v5h4v-1h2v-1H7z" fill="#c5c8cf"/><g class="El"><path d="M1 37v6h2v-6H1zm5 0h1v1H6v-1zm4 2h1v1h-1v-1zm-2 0h1v1H8v-1z"/><path d="M9,38h1v1H9V38z"/><path d="M10 37h1v1h-1v-1zm0-2h1v1h-1v-1z"/><path d="M9,36h1v1H9V36z"/><path d="M8,37h1v1H8V37z"/><path d="M7,38h1v1H7V38z"/></g><path d="M6,40v3h1v-3H6z" fill="#0affff"/><path d="M8 41h1v1H8v-1zm-3-2v4h1v-4H5z" class="El"/><path d="M1,37v6h1v-6H1z" fill="#c5c8cf"/></g><path d="M52 55h1v1h-1v-1zm8-2h1v1h-1v-1zm-6 0h1v1h-1v-1zm8 2h1v1h-1v-1z" class="Ef"/><path d="M62 58h1v1h-1v1h-1v1h-1v1h-5v-1h-1v-1h-1v-1h-1v-1h1v-2h1v-1h1v-1h1v-1h1v-1h1v1h1v1h1v1h1v1h1v2z" fill="#009300"/><path d="M58 55v-1h1v-1h-1v-1h-1v1h-1v1h1v1h1zm-6 3h1v1h-1v-1zm0-3h1v1h-1v-1zm6 3h1v1h-1v-1zm-2-2h1v1h-1v-1zm4-3h1v1h-1v-1zm-6 0h1v1h-1v-1zm5 7h1v1h-1v-1zm-4 0h1v1h-1v-1zm5-4h1v1h-1v-1zm2 2h1v1h-1v-1zm0-3h1v1h-1v-1z" class="Ei"/><path d="M57 56v6h1v-7h-1v1zm2-1v5h1v-6h-1v1zm0 6h1v1h-1v-1zm-4-6v5h1v-6h-1v1zm0 6h1v1h-1v-1zm6-5v4h1v-4h-1zm-8 1v3h1v-4h-1v1z" fill="#006300"/><path d="M57 54h1v-1h-1v1z" class="Eg"/><path d="M11 55h1v1h-1v-1zm-8-2h1v1H3v-1zm6 0h1v1H9v-1zm-8 2h1v1H1v-1z" class="Ef"/><path d="M10 56h1v2h1v1h-1v1h-1v1H9v1H4v-1H3v-1H2v-1H1v-1h1v-2h1v-1h1v-1h1v-1h1v-1h1v1h1v1h1v1h1v1z" class="Eg"/><path d="M7 55v-1h1v-1H7v-1H6v1H5v1h1v1h1zm4 3h1v1h-1v-1zm0-3h1v1h-1v-1zm-6 3h1v1H5v-1zm2-2h1v1H7v-1zm-4-3h1v1H3v-1zm6 0h1v1H9v-1zm-5 7h1v1H4v-1zm4 0h1v1H8v-1zm-5-4h1v1H3v-1zm-2 2h1v1H1v-1zm0-3h1v1H1v-1z" fill="#8700ff"/><path d="M6 56v6h1v-7H6v1zm-2-1v5h1v-6H4v1zm0 6h1v1H4v-1zm4-6v5h1v-6H8v1zm0 6h1v1H8v-1zm-6-4v3h1v-4H2v1zm8 0v3h1v-4h-1v1z" fill="#c5bd00"/><path d="M6 54h1v-1H6v1z" class="Eg"/><path d="M23 51h1v1h-1v-1zm-8-2h1v1h-1v-1zm6 0h1v1h-1v-1zm-8 2h1v1h-1v-1z" class="Ef"/><use xlink:href="#B" fill="#00a"/><path d="M19 51v-1h1v-1h-1v-1h-1v1h-1v1h1v1h1zm4 5h1v1h-1v-1zm0-2h1v1h-1v-1zm0-3h1v1h-1v-1zm-6 4h1v1h-1v-1zm2-3h1v1h-1v-1zm-4-3h1v1h-1v-1zm6 0h1v1h-1v-1zm-5 8h1v1h-1v-1zm4 0h1v1h-1v-1zm-5-4h1v1h-1v-1zm-2 3h1v1h-1v-1zm0-2h1v1h-1v-1zm0-3h1v1h-1v-1zm8 2h1v1h-1v-1z" class="Ei"/><path d="M18 52v8h1v-9h-1v1zm-2-1v6h1v-7h-1v1zm0 8v1h1v-2h-1v1zm4-8v6h1v-7h-1v1zm0 8v1h1v-2h-1v1zm-6-6v5h1v-6h-1v1zm8 0v5h1v-6h-1v1z" fill="#0064ff"/><path d="M18 50h1v-1h-1v1z" class="Eg"/><g class="Ef"><path d="M26.4 53h1v1h-1v-1zm8-2h1v1h-1v-1zm-6 0h1v1h-1v-1z"/><use xlink:href="#B" x="13.4" y="2"/><path d="M36.4 54h1v-1h-1v1z"/></g><use xlink:href="#C" class="Ei"/><use xlink:href="#D" fill="#00af00"/><path d="M31.4 52h1v-1h-1v1z" class="Eg"/><path d="M40 51h1v1h-1v-1zm8-2h1v1h-1v-1zm-6 0h1v1h-1v-1z" class="Ef"/><use xlink:href="#B" x="27" fill="#ff3bff"/><path d="M50 52h1v-1h-1v1z" class="Ef"/><use xlink:href="#C" x="13.6" y="-2" fill="#8700ff"/><use xlink:href="#D" x="13.6" y="-2" fill="#ff9aff"/><path d="M45 50h1v-1h-1v1z" class="Eg"/><defs ><path id="B" d="M22 52h1v2h1v1h-1v1h1v1h-1v1h-1v1h-1v1h-5v-1h-1v-1h-1v-1h-1v-1h1v-1h-1v-1h1v-2h1v-1h1v-1h1v-1h1v-1h1v1h1v1h1v1h1v1z"/><path id="C" d="M32.4 53v-1h1v-1h-1v-1h-1v1h-1v1h1v1h1zm-6 5h1v1h-1v-1zm0-2h1v1h-1v-1zm0-3h1v1h-1v-1zm6 4h1v1h-1v-1zm-2-3h1v1h-1v-1zm4-3h1v1h-1v-1zm-6 0h1v1h-1v-1zm5 8h1v1h-1v-1zm-4 0h1v1h-1v-1zm5-4h1v1h-1v-1zm2 3h1v1h-1v-1zm0-2h1v1h-1v-1zm0-3h1v1h-1v-1zm-8 2h1v1h-1v-1z"/><path id="D" d="M31.4 54v8h1v-9h-1v1zm2-1v6h1v-7h-1v1zm0 8v1h1v-2h-1v1zm-4-8v6h1v-7h-1v1zm0 8v1h1v-2h-1v1zm6-6v5h1v-6h-1v1zm-8 0v5h1v-6h-1v1z"/></defs></svg>