<svg xmlns="http://www.w3.org/2000/svg" viewBox="0 0 64 64"><path d="M44,58H19v1h1v1h24v-1h1v-1H44z" opacity=".25" enable-background="new"/><path d="M47 14v-2h-2v-2h-4V8h-4V6H27v2h-4v2h-4v2h-2v2h-2v41h4v-2h5v2h5v-2h6v2h5v-2h5v2h4V14z" fill="#64438e"/><path d="M45 14v-2h-4v-2h-4V8H27v2h-4v2h-4v2h-2v39h2v-2h5v2h5v-2h6v2h5v-2h5v2h2V14z" fill="#edd3fd"/><path d="M18,49h2v-1h2v1h2v2h5v-2h2v-1h2v1h2v2h5v-2h2v-1h2v1h1V14h-4v-2h-4v-2h-5V9h-5v2h-4v2h-4v2h-1V49z" fill="#fff"/><path d="M23 28v2h4v-2h2v-4h-2v-2h-4v2h-2v4h2zm12-4v4h2v2h4v-2h2v-4h-2v-2h-4v2h-2z" fill="#64438e"/><path d="M21 32v2h2v-2h-2zm20 0v2h2v-2h-2z" fill="#f696c6"/><g fill="#64438e"><path d="M29,32h-2v2h2V32z"/><path d="M29,34v2h6v-2H29z"/><path d="M35 32v2h2v-2h-2zm0-17v-1h-1v-1h-1v-1h-2v1h-1v1h-1v1h-1v4h1v1h1v1h1v1h2v-1h1v-1h1v-1h1v-4z"/></g><g fill="#dea8ff"><path d="M29,17v2h1v1h1v1h1v-4H29z"/><path d="M34,15v-1h-1v-1h-1v4h3v-2H34z"/></g><path d="M32,17v4h1v-1h1v-1h1v-2H32z" fill="#c260ff"/><path d="M31,13v1h-1v1h-1v2h3v-4H31z" fill="#edd3fd"/><path d="M8 38v-1h2v-1h2v-1h1v-1h1v-1h1v8h-1v1h-2v1H8v-1H7v-4z" fill="#64438e"/><path d="M10 38v-1h2v-1h1v-1h1v-1h1v6h-1v1h-2v1H8v-4z" fill="#edd3fd"/><path d="M8,38v3h4v-1h2v-1h1v-5h-1v1h-1v1h-1v1h-2v1H8z" fill="#fff"/><path d="M56 38v-1h-2v-1h-2v-1h-1v-1h-1v-1h-1v8h1v1h2v1h4v-1h1v-4z" fill="#64438e"/><path d="M54 38v-1h-2v-1h-1v-1h-1v-1h-1v6h1v1h2v1h4v-4z" fill="#edd3fd"/><path d="M54,38v-1h-2v-1h-1v-1h-1v-1h-1v5h1v1h2v1h4v-3H54z" fill="#fff"/><path d="M50 11V8h-1V7h-1V6h-1V5h-1V4h-1V3h-1V2h-2V1H25v1h-2v1h-2v2h-2v2h-2v2h-2v2h-1v2h-1v2h-1v11h1v1h1v1h1v-2h2v-2h2v-2h2v-2h2v1h24v-1h2v-1h1v-3h1v-5z" fill="#092c1b"/><g fill="#283d2e"><path d="M23 16h2v-2h2v-2h2v-2h2V8h2V6h2V4h2V2H25v1h-2v1h-1v1h-1v1h-1v1h-1v1h-1v1h-1v1h-1v1h-1v2h-1v2h-1v11h2v-2h2v-2h2v-2h2v-2h2v-2z"/><path d="M47 20v-1h2v-3h1v-5h-1V8h-1V7h-1V6h-1V5h-1V4h-1V3h-2V2h-3v2h-2v2h-2v2h-2v2h-2v2h-2v2h-2v2h-2v2h-2v2h24z"/></g><path d="M45 10V9h-1V8h-1V7h-4v1h-1v1h-1v1h-1v4h1v1h1v1h1v1h4v-1h1v-1h1v-1h1v-4h-1zm-3-1v1h1v1h1v2h-1v1h-1v1h-2v-1h-1v-1h-1v-2h1v-1h1V9h2z" fill="#f8af4e"/><path d="M51 35v-1h-1v-1h1v-1h-2v1h-2v1h-2v1h-2v1h-2v1h-2v1h-2v1H27v-1h-2v-1h-2v-1h-2v-1h-2v-1h-2v-1h-2v-1h-2v1h1v1h-1v1h-1v7h2v-1h1v14h4v-2h5v2h5v-2h6v2h5v-2h5v2h4V41h1v1h2v-7z" fill="#092c1b"/><g fill="#283d2e"><path d="M29 45h-1v-1h-1v-1h-1v-1h-2v2h-1v1h-1v1h2v5h-5v-5h2v-1h-1v-1h-1v-4h2v-1h-2v-1h-2v-3h-1v17h15v-5h-1v-1h-1v-1z"/><path d="M30 41h-1v-2h-2v-1h-2v-1h-2v-1h-2v-1h-2v-1h-2v1h1v2h1v1h2v1h1v1h2v1h2v1h1v1h1v1h1v1h1v1h1v-4h-1v-1zm-5-1v-1h1v1h-1z"/><path d="M16 33h1v1h-1v-1zm29 1v1h-2v1h-2v1h-2v1h-2v1h-2v2h-1v1h-2v5h1v-1h1v-1h1v-1h1v-1h1v-1h2v-1h1v-1h1v-1h2v-1h2v-1h1v-2h1v-1h-2zm-7 6v-1h1v1h-1z"/><path d="M47 33h1v1h-1v-1zm0 5h-2v1h-2v1h2v1h1v1h-1v1h-5v-1h-1v1h-2v1h-1v1h-1v1h-1v1h-1v2h-1v1h1v1h-1v1h16V35h-1v3zm-8 13v-6h1v-1h5v1h1v6h-7z"/></g><path d="M49,34h1v1h-1V34z" fill="#ddd9d6"/><path d="M49 40h1v1h1v-6h-2v5z" fill="#283d2e"/><path d="M15 35h-1v-1h1v1z" fill="#f8af4e"/><path d="M15,35h-2v6h1v-1h1V35z" fill="#283d2e"/><path d="M43 41h1v1h-1v-1zm-2 0h1v1h-1v-1z" fill="#fff"/><path d="M40,46h1v1h-1V46z" fill="#e15667"/><path d="M39,46h1v1h-1V46z" fill="#fed11f"/><path d="M42,46h1v1h-1V46z" fill="#4b6329"/><path d="M44,46h1v1h-1V46z" fill="#f55549"/><path d="M44,44h1v1h-1V44z" fill="#698bd9"/><path d="M44,45h1v1h-1V45z" fill="#e2e5f3"/><path d="M42,45h1v1h-1V45z" fill="#45322f"/><path d="M41,46h1v1h-1V46z" fill="#474981"/><path d="M43,46h1v1h-1V46z" fill="#756638"/><path d="M30,39v1h1v2h2v-2h1v-1H30z" fill="#222423"/><path d="M43,45h1v1h-1V45z" fill="#d9c6b2"/><g fill="#c2cbc7"><path d="M34,38v2h-1v2h1v-1h1v-2h2v-1H34z"/><path d="M37 37v1h2v-1h-2zm-12 0v1h2v-1h-2z"/><path d="M30,38h-3v1h2v2h1v1h1v-2h-1V38z"/></g><path d="M40,44h1v1h-1V44z" fill="#76946f"/><path d="M41,44h1v1h-1V44z" fill="#cad4e4"/><path d="M42,48h1v1h-1V48z" fill="#fafefd"/><path d="M45,45h1v1h-1V45z" fill="#556592"/><path d="M45,46h1v1h-1V46z" fill="#4770bb"/><g fill="#6f4017"><path d="M21,39h1v1h-1V39z"/><path d="M22 40v1h1v3h1v-4h-2zm-1 5h1v1h-1v-1zm23-4h1v1h-1v-1zm-2 0h1v1h-1v-1zm-2 0h1v1h-1v-1zm-20 0h1v-1h-2v4h1v-3z"/><path d="M22 44h1v1h-1v-1zm-2 0h1v1h-1v-1z"/></g><path d="M42,44h1v1h-1V44z" fill="#5666bc"/><path d="M41,45h1v1h-1V45z" fill="#f6d435"/><path d="M40,45h1v1h-1V45z" fill="#e6bf8f"/><path d="M19 47v1h5v-1h-5zm6-8h1v1h-1v-1zm18 5h1v1h-1v-1z" fill="#c23e3f"/><path d="M39,45h1v1h-1V45z" fill="#f75457"/><g fill="#f8af4e"><path d="M22 40h-1v1h-1v3h1v1h1v-1h1v-3h-1v-1zm18 2v1h5v-1h-5zm5-1v-1h-5v1h5z"/><path d="M39 41h1v1h-1v-1zm-1-2h1v1h-1v-1zm-6 11h1v1h-1v-1zm0-2h1v1h-1v-1zm13-7h1v1h-1v-1z"/></g><g fill="#ddd9d6"><path d="M42,47h1v1h-1V47z"/><path d="M43 49h-1v-1h-1v2h3v-2h-1v1z"/></g><path d="M9 35v-4H8v4H4v2H3v2h1v7h6V35z"/><path d="M5,37v1h4v-1H5z" fill="#5a5a5a"/><path d="M5,38v1h4v-1H5z" fill="#464646"/><path d="M5,36v1h4v-1H5z" fill="#6e6e6e"/><path d="M5 39h4v6H5z" fill="#323232"/><g fill="#1e1e1e"><path d="M8 40h1v1H8v-1zm0 2h1v1H8v-1z"/><path d="M7 39h1v1H7v-1zm0 2h1v1H7v-1zm-2-2h1v1H5v-1zm0 2h1v1H5v-1zm2 2h1v1H7v-1zm-2 0h1v1H5v-1z"/><path d="M8 44h1v1H8v-1zm-2-4h1v1H6v-1zm0 2h1v1H6v-1zm0 2h1v1H6v-1z"/></g></svg>