<svg xmlns="http://www.w3.org/2000/svg" viewBox="0 0 64 64"><path d="M44,58H19v1h1v1h24v-1h1v-1H44z" opacity=".25" enable-background="new"/><path d="M47 14v-2h-2v-2h-4V8h-4V6H27v2h-4v2h-4v2h-2v2h-2v41h4v-2h5v2h5v-2h6v2h5v-2h5v2h4V14z" fill="#64438e"/><path d="M45 14v-2h-4v-2h-4V8H27v2h-4v2h-4v2h-2v39h2v-2h5v2h5v-2h6v2h5v-2h5v2h2V14z" fill="#edd3fd"/><path d="M18,49h2v-1h2v1h2v2h5v-2h2v-1h2v1h2v2h5v-2h2v-1h2v1h1V14h-4v-2h-4v-2h-5V9h-5v2h-4v2h-4v2h-1V49z" fill="#fff"/><path d="M23 28v2h4v-2h2v-4h-2v-2h-4v2h-2v4h2zm12-4v4h2v2h4v-2h2v-4h-2v-2h-4v2h-2z" fill="#64438e"/><path d="M21 32v2h2v-2h-2zm20 0v2h2v-2h-2z" fill="#f696c6"/><g fill="#64438e"><path d="M29,32h-2v2h2V32z"/><path d="M29,34v2h6v-2H29z"/><path d="M35 32v2h2v-2h-2zm0-17v-1h-1v-1h-1v-1h-2v1h-1v1h-1v1h-1v4h1v1h1v1h1v1h2v-1h1v-1h1v-1h1v-4z"/></g><g fill="#dea8ff"><path d="M29,17v2h1v1h1v1h1v-4H29z"/><path d="M34,15v-1h-1v-1h-1v4h3v-2H34z"/></g><path d="M32,17v4h1v-1h1v-1h1v-2H32z" fill="#c260ff"/><path d="M31,13v1h-1v1h-1v2h3v-4H31z" fill="#edd3fd"/><path d="M8 38v-1h2v-1h2v-1h1v-1h1v-1h1v8h-1v1h-2v1H8v-1H7v-4z" fill="#64438e"/><path d="M10 38v-1h2v-1h1v-1h1v-1h1v6h-1v1h-2v1H8v-4z" fill="#edd3fd"/><path d="M8,38v3h4v-1h2v-1h1v-5h-1v1h-1v1h-1v1h-2v1H8z" fill="#fff"/><path d="M56 38v-1h-2v-1h-2v-1h-1v-1h-1v-1h-1v8h1v1h2v1h4v-1h1v-4z" fill="#64438e"/><path d="M54 38v-1h-2v-1h-1v-1h-1v-1h-1v6h1v1h2v1h4v-4z" fill="#edd3fd"/><path d="M54,38v-1h-2v-1h-1v-1h-1v-1h-1v5h1v1h2v1h4v-3H54z" fill="#fff"/><g fill="#935628"><path d="M10,55h1V31h2v-1h-2v-6h-1v6H8v1h2V55z"/><path d="M8 24H7v6h1v-6zm5 0v6h1v-6h-1z"/></g><path d="M51 20v-2h-2v-4h-2V6h-2V4h-4V2H23v2h-4v2h-2v8h-2v4h-2v2H7v2h50v-2z" fill="#a97955"/><g fill="#de9a53"><path d="M29 4h2v2h-2V4zm4 0h2v2h-2V4zm4 0h2v2h-2V4z"/><path d="M35 6h2v2h-2V6zm4 0h2v2h-2V6zm4 0h2v2h-2V6zM25 4h2v2h-2V4z"/><path d="M29 8h2v2h-2V8zm4 0h2v2h-2V8zm4 0h2v2h-2V8zM25 8h2v2h-2V8zm4 4h2v2h-2v-2zm4 0h2v2h-2v-2zm4 0h2v2h-2v-2zm-12 0h2v2h-2v-2zm4 4h2v2h-2v-2zm4 0h2v2h-2v-2zm4 0h2v2h-2v-2zm4-8h2v2h-2V8zm0 4h2v2h-2v-2zm0 4h2v2h-2v-2zm-16 0h2v2h-2v-2zm-4-8h2v2h-2V8z"/><path d="M21 12h2v2h-2v-2zm0 4h2v2h-2v-2zm2-10h2v2h-2V6zm4 0h2v2h-2V6zm4 0h2v2h-2V6zM19 6h2v2h-2V6zm16 4h2v2h-2v-2zm4 0h2v2h-2v-2z"/><path d="M43 10h2v2h-2v-2zm-20 0h2v2h-2v-2zm4 0h2v2h-2v-2zm4 0h2v2h-2v-2zm-12 0h2v2h-2v-2zm16 4h2v2h-2v-2zm4 0h2v2h-2v-2zm4 0h2v2h-2v-2zm-20 0h2v2h-2v-2zm4 0h2v2h-2v-2zm4 0h2v2h-2v-2zm-12 0h2v2h-2v-2zm16 4h2v2h-2v-2zm4 0h2v2h-2v-2zm4 0h2v2h-2v-2z"/><path d="M45,16h2v2h-2V16z"/><path d="M47 18h2v2h-2v-2zm-24 0h2v2h-2v-2zm4 0h2v2h-2v-2zm4 0h2v2h-2v-2zm-12 0h2v2h-2v-2z"/><path d="M17,16h2v2h-2V16z"/><path d="M15,18h2v2h-2V18z"/></g><path d="M15 41v14h4v-2h5v2h5v-2h6v2h5v-2h5v2h4V41z" fill="#003ca0"/><path d="M31 43v-1h-6v1h6zm8 0v-1h-5v1h5zm-15 0v-1h-8v1h8zm24 0v-1h-8v1h8z" fill="#de9a53"/><path d="M32,42h1v1h-1V42z" fill="#a97955"/><g fill="#4bafff"><path d="M19,44v3h-1v1h-2v5h3v-2h5v2h5v-2h2v-7H19z"/><path d="M18 44h-2v3h2v-3zm15 0h-1v4h1v-4zm13 0v3h2v-3h-2z"/><path d="M45,44H34v4h-1v1h-1v2h3v2h5v-2h5v2h3v-5h-2v-1h-1V44z"/></g></svg>