<?xml version="1.0" encoding="utf-8"?>
<!-- Generator: Adobe Illustrator 25.3.1, SVG Export Plug-In . SVG Version: 6.00 Build 0)  -->
<svg version="1.1" id="Layer_1" xmlns="http://www.w3.org/2000/svg" xmlns:xlink="http://www.w3.org/1999/xlink" x="0px" y="0px"
	 viewBox="0 0 64 64" style="enable-background:new 0 0 64 64;" xml:space="preserve">
<style type="text/css">
	.st0{fill:#64438E;}
	.st1{fill:#EDD3FD;}
	.st2{fill:#FFFFFF;}
	.st3{fill:#F696C6;}
	.st4{opacity:0.25;enable-background:new    ;}
	.st5{fill:#EA8C27;}
	.st6{fill:#C260FF;}
	.st7{fill:#DEA8FF;}
	.st8{fill:#1CA4B4;}
	.st9{fill:#20C7DB;}
	.st10{fill:#E8DC21;}
	.st11{fill:#A322D4;}
	.st12{fill:#2234CB;}
	.st13{fill:#F122AD;}
	.st14{fill:#8A22A0;}
	.st15{fill:#369C2E;}
	.st16{fill:#5FB935;}
	.st17{fill:#368528;}
	.st18{fill:#F122A4;}
	.st19{fill:#B782C2;}
	.st20{fill:#1C62A3;}
	.st21{fill:#D322E8;}
	.st22{fill:#36A72E;}
	.st23{fill:#1CE4A3;}
	.st24{fill:#6822BC;}
	.st25{fill:#0E982E;}
	.st26{fill:#8A22B4;}
	.st27{fill:#18742E;}
	.st28{fill:#CEC81C;}
	.st29{fill:#BA911C;}
	.st30{fill:#84861C;}
	.st31{fill:#367F2E;}
	.st32{fill:#077C22;}
	.st33{display:none;}
	.st34{display:inline;}
	.st35{display:inline;fill:#FFFFFF;}
	.st36{fill:#7D7D7D;}
	.st37{fill:#FF9900;}
	.st38{display:inline;fill:#1CA4B4;}
	.st39{display:inline;fill:#20C7DB;}
	.st40{display:inline;fill:#F1751C;}
	.st41{display:inline;fill:#367F2E;}
	.st42{fill:#F1751C;}
	.st43{fill:#008000;}
	.st44{fill:#2D5016;}
	.st45{fill:#FFB81C;}
	.st46{fill:#D4AA00;}
	.st47{fill:#808080;}
	.st48{fill:#4D4D4D;}
</style>
<g>
	<g>
		<path class="st0" d="M21,12h2v-2h-4v2h1H21z"/>
		<path class="st0" d="M19,14v-2h-2v2h1H19z M25,10h2V8h-4v2h1H25z"/>
		<path class="st0" d="M29,8h8V6H27v2h1H29z M45,14h2v-2h-2v1V14z"/>
		<path class="st0" d="M48,14h-1v39h-2v2h4V14H48z M37,10h4V8h-4v1V10z"/>
		<path class="st0" d="M41,12h4v-2h-4v1V12z M17,53V14h-2v41h4v-2h-1H17z"/>
		<path class="st0" d="M24,51h-5v2h5v-1V51z"/>
		<path class="st0" d="M27,53h-3v2h5v-2h-1H27z M45,51h-5v2h5v-1V51z"/>
		<path class="st0" d="M35,51h-6v2h6v-1V51z"/>
		<path class="st0" d="M38,53h-3v2h5v-2h-1H38z"/>
	</g>
	<g>
		<path class="st1" d="M18,43v6h2v-1h2v1h2v2h-5v2h-2V14h2v1h-1v26V43z"/>
		<path class="st1" d="M27,51h-3v2h5v-2h-1H27z M38,51h-3v2h5v-2h-1H38z"/>
		<path class="st1" d="M35,49h-2v-1h-2v1h-2v2h6v-1V49z M25,11h2v-1h-4v1h1H25z M21,13h2v-1h-4v1h1H21z M45,44v5h-1v-1h-2v1h-2v2h5
			v2h2V14h-2v29V44z"/>
		<path class="st1" d="M37,8H27v1h5v1h5V9V8z M45,12h-4v2h4v-1V12z"/>
		<path class="st1" d="M41,10h-4v2h4v-1V10z"/>
	</g>
	<path class="st2" d="M44,14h-3v-2h-4v-2h-5V9h-5v2h-4v2h-4v2h-1v34h2v-1h2v1h2v2h5v-2h2v-1h2v1h2v2h5v-2h2v-1h2v1h1V14H44z"/>
</g>
<path class="st3" d="M21,32v2h2v-2h-1H21z M42,32h-1v2h2v-2H42z"/>
<g>
	<path class="st0" d="M29,32h-2v2h2v-1V32z"/>
	<path class="st0" d="M33,34h-4v2h6v-2h-1H33z"/>
	<path class="st0" d="M36,32h-1v2h2v-2H36z"/>
</g>
<g>
	<path class="st4" d="M25,58h-6v1h1v1h24v-1h1v-1h-1H25z"/>
</g>
<g>
	<path class="st5" d="M28,22h-1v-1h-1h-1h-1h-1v1h-1v1h-1v1v1v1v1h1v1h1v1h1h1h1h1v-1h1v-1h1v-1v-1v-1v-1h-1V22z"/>
	<path class="st5" d="M42,23v-1h-1v-1h-1h-1h-1h-1v1h-1v1h-1v1v1v1v1h1v1h1v1h1h1h1h1v-1h1v-1h1v-1v-1v-1v-1H42z"/>
</g>
<g>
	<g>
		<path class="st0" d="M29,17v-2h-1v4h1v-1V17z"/>
		<path class="st0" d="M29,14h1v1h-1V14z M29,19h1v1h-1V19z"/>
		<path class="st0" d="M30,20h1v1h-1V20z"/>
		<path class="st0" d="M31,21v1h2v-1h-1H31z M30,13h1v1h-1V13z M34,19h1v1h-1V19z M34,14h1v1h-1V14z"/>
		<path class="st0" d="M33,13v-1h-2v1h1H33z M33,20h1v1h-1V20z"/>
		<path class="st0" d="M33,13h1v1h-1V13z M35,15v4h1v-4H35z"/>
	</g>
	<path class="st6" d="M34,17h-2v4h1v-1h1v-1h1v-2H34z"/>
	<g>
		<path class="st7" d="M30,17h-1v2h1v1h1v1h1v-4h-1H30z"/>
		<path class="st7" d="M34,15v-1h-1v-1h-1v4h3v-2H34z"/>
	</g>
	<path class="st1" d="M31,17h1v-4h-1v1h-1v1h-1v2h1H31z"/>
</g>
<g>
	<path class="st8" d="M47,33v1h-2v1h-2v1h-2v1h-2v1h-1v1h-1v1h-1v1h-1v1h-1v1h-1v1h-2v-1h-1v-1h-1v-1h-1v-1h-1v-1h-1v-1h-1v-1h-2v-1
		h-2v-1h-2v-1h-2v-1h-2v18h34V33H47z"/>
	<path class="st9" d="M47,34v1h-2v1h-2v1h-2v1h-2v1h-1v1h-1v1h-1v1h-1v1h-1v1h-2v1h1v1h-1v1h1v1h-1v1h1v1h15v-9h1v-7H47z M39,46v-1
		h1v1H39z M45,42h-4v-1h4V42z M30,43h-1v-1h-1v-1h-1v-1h-1v-1h-1v-1h-2v-1h-2v-1h-2v-1h-2v-1h-2v7h1v9h15v-6h-1V43z M19,42v-1h4v1
		H19z M25,45v1h-1v-1H25z"/>
	<path class="st10" d="M32,46h1v1h-1V46z"/>
	<path class="st11" d="M33,46h1v1h-1V46z M33,44h1v1h-1V44z"/>
	<path class="st12" d="M43,37h1v1h-1V37z"/>
	<path class="st13" d="M43,40h1v1h-1V40z"/>
	<path class="st14" d="M42,40h1v1h-1V40z"/>
	<path class="st13" d="M42,39h1v1h-1V39z"/>
	<path class="st15" d="M41,42h1v1h-1V42z"/>
	<path class="st13" d="M41,40h1v1h-1V40z"/>
	<path class="st16" d="M44,44h1v1h-1V44z"/>
	<path class="st15" d="M44,45h1v1h-1V45z"/>
	<path class="st10" d="M32,44h1v1h-1V44z"/>
	<path class="st11" d="M35,46h1v1h-1V46z"/>
	<path class="st16" d="M43,45h1v1h-1V45z"/>
	<path class="st11" d="M35,44h1v1h-1V44z"/>
	<path class="st17" d="M38,40h1v1h-1V40z"/>
	<path class="st18" d="M34,45h1v1h-1V45z"/>
	<path class="st19" d="M48,34h1v1h-1V34z"/>
	<path class="st12" d="M45,35h1v1h-1V35z"/>
	<path class="st20" d="M47,43h1v1h-1V43z"/>
	<path class="st21" d="M47,46h1v1h-1V46z"/>
	<g>
		<path class="st22" d="M47,39h1v1h-1V39z M47,37h1v1h-1V37z"/>
		<path class="st22" d="M48,38h1v1h-1V38z"/>
	</g>
	<path class="st16" d="M43,43h1v1h-1V43z"/>
	<path class="st17" d="M37,41h1v1h-1V41z"/>
	<path class="st15" d="M42,43h1v1h-1V43z"/>
	<path class="st17" d="M39,39h1v1h-1V39z"/>
	<path class="st23" d="M46,44h1v1h-1V44z"/>
	<path class="st12" d="M45,37h1v1h-1V37z"/>
	<path class="st22" d="M46,38h1v1h-1V38z"/>
	<path class="st23" d="M46,42h1v1h-1V42z"/>
	<path class="st16" d="M42,44h1v1h-1V44z"/>
	<path class="st17" d="M36,42h1v1h-1V42z"/>
	<path class="st15" d="M43,44h1v1h-1V44z"/>
	<path class="st10" d="M32,48h1v1h-1V48z"/>
	<path class="st24" d="M33,48h1v1h-1V48z"/>
	<path class="st25" d="M38,48h1v1h-1V48z"/>
	<path class="st26" d="M44,47h1v1h-1V47z M42,47h1v1h-1V47z"/>
	<path class="st27" d="M37,48h1v1h-1V48z"/>
	<path class="st28" d="M43,48h1v1h-1V48z"/>
	<path class="st29" d="M47,47h1v1h-1V47z"/>
	<g>
		<path class="st21" d="M47,48h1v1h-1V48z"/>
		<path class="st21" d="M46,47h1v1h-1V47z"/>
	</g>
	<path class="st30" d="M33,49h1v1h-1V49z"/>
	<path class="st26" d="M44,49h1v1h-1V49z M42,49h1v1h-1V49z"/>
	<path class="st25" d="M37,49h1v1h-1V49z"/>
	<path class="st24" d="M34,49h1v1h-1V49z"/>
	<path class="st27" d="M38,49h1v1h-1V49z"/>
	<path class="st25" d="M39,49h1v1h-1V49z"/>
	<path class="st11" d="M30,46h1v1h-1V46z M30,44h1v1h-1V44z"/>
	<path class="st12" d="M20,37h1v1h-1V37z"/>
	<path class="st13" d="M20,40h1v1h-1V40z"/>
	<path class="st14" d="M21,40h1v1h-1V40z"/>
	<path class="st13" d="M21,39h1v1h-1V39z"/>
	<path class="st15" d="M22,42h1v1h-1V42z"/>
	<path class="st13" d="M22,40h1v1h-1V40z"/>
	<path class="st16" d="M19,44h1v1h-1V44z"/>
	<path class="st15" d="M19,45h1v1h-1V45z"/>
	<path class="st11" d="M28,46h1v1h-1V46z"/>
	<path class="st16" d="M20,45h1v1h-1V45z"/>
	<path class="st11" d="M28,44h1v1h-1V44z"/>
	<path class="st17" d="M25,40h1v1h-1V40z"/>
	<path class="st18" d="M29,45h1v1h-1V45z"/>
	<path class="st19" d="M15,34h1v1h-1V34z"/>
	<path class="st12" d="M18,35h1v1h-1V35z"/>
	<path class="st20" d="M16,43h1v1h-1V43z"/>
	<path class="st21" d="M16,46h1v1h-1V46z"/>
	<g>
		<path class="st22" d="M16,39h1v1h-1V39z M16,37h1v1h-1V37z"/>
		<path class="st22" d="M15,38h1v1h-1V38z"/>
	</g>
	<path class="st16" d="M20,43h1v1h-1V43z"/>
	<path class="st17" d="M26,41h1v1h-1V41z"/>
	<path class="st15" d="M21,43h1v1h-1V43z"/>
	<path class="st17" d="M24,39h1v1h-1V39z"/>
	<path class="st23" d="M17,44h1v1h-1V44z"/>
	<path class="st12" d="M18,37h1v1h-1V37z"/>
	<path class="st22" d="M17,38h1v1h-1V38z"/>
	<g>
		<path class="st31" d="M48,37h1v1h-1V37z"/>
		<path class="st31" d="M47,38h1v1h-1V38z"/>
		<path class="st31" d="M46,39h1v1h-1V39z M15,37h1v1h-1V37z"/>
		<path class="st31" d="M16,38h1v1h-1V38z"/>
		<path class="st31" d="M17,39h1v1h-1V39z"/>
	</g>
	<path class="st23" d="M17,42h1v1h-1V42z"/>
	<g>
		<path class="st32" d="M38,41h1v1h-1V41z"/>
		<path class="st32" d="M37,42h1v1h-1V42z M37,40h1v1h-1V40z"/>
		<path class="st32" d="M36,41h1v1h-1V41z M25,41h1v1h-1V41z"/>
		<path class="st32" d="M26,42h1v1h-1V42z M26,40h1v1h-1V40z"/>
		<path class="st32" d="M27,41h1v1h-1V41z"/>
	</g>
	<path class="st16" d="M21,44h1v1h-1V44z"/>
	<path class="st17" d="M27,42h1v1h-1V42z"/>
	<g>
		<path class="st10" d="M44,36h1v1h-1V36z M39,46h1v1h-1V46z M39,44h1v1h-1V44z"/>
		<path class="st10" d="M38,45h1v1h-1V45z M40,45h1v1h-1V45z M19,36h1v1h-1V36z M24,46h1v1h-1V46z M24,44h1v1h-1V44z"/>
		<path class="st10" d="M25,45h1v1h-1V45z M23,45h1v1h-1V45z"/>
	</g>
	<path class="st15" d="M20,44h1v1h-1V44z"/>
	<path class="st24" d="M30,48h1v1h-1V48z"/>
	<path class="st25" d="M25,48h1v1h-1V48z"/>
	<path class="st26" d="M19,47h1v1h-1V47z M21,47h1v1h-1V47z"/>
	<path class="st27" d="M26,48h1v1h-1V48z"/>
	<path class="st28" d="M20,48h1v1h-1V48z"/>
	<path class="st29" d="M16,47h1v1h-1V47z"/>
	<g>
		<path class="st21" d="M16,48h1v1h-1V48z"/>
		<path class="st21" d="M17,47h1v1h-1V47z"/>
	</g>
	<path class="st30" d="M30,49h1v1h-1V49z"/>
	<path class="st26" d="M19,49h1v1h-1V49z M21,49h1v1h-1V49z"/>
	<path class="st25" d="M26,49h1v1h-1V49z"/>
	<path class="st24" d="M29,49h1v1h-1V49z"/>
	<path class="st27" d="M25,49h1v1h-1V49z"/>
	<path class="st25" d="M24,49h1v1h-1V49z"/>
</g>
<g class="st33">
	<g class="st34">
		<path class="st0" d="M19,42h1v1h-1V42z M20,36h1v1h-1V36z"/>
		<path class="st0" d="M21,37h1v1h-1V37z M26,40v4h1v-4H26z M21,43h-1v1h2v-1H21z"/>
		<path class="st0" d="M24,44h-2v1h4v-1h-1H24z M25,39h-1v1h2v-1H25z"/>
		<path class="st0" d="M23,38h-1v1h2v-1H23z"/>
	</g>
	<g class="st34">
		<path class="st1" d="M19,43h1v1h-1V43z M24,45h-2v1h4v-1h-1H24z"/>
		<path class="st1" d="M27,41v3h1v-3H27z M21,44h-1v1h2v-1H21z"/>
		<path class="st1" d="M26,44h1v1h-1V44z M19,41h-1v2h1v-1V41z"/>
	</g>
	<g class="st34">
		<path class="st0" d="M44,42h1v1h-1V42z M43,36h1v1h-1V36z"/>
		<path class="st0" d="M42,37h1v1h-1V37z"/>
		<path class="st0" d="M42,39v-1h-2v1h1H42z M42,43v1h2v-1h-1H42z"/>
		<path class="st0" d="M40,44h-2v1h4v-1h-1H40z"/>
		<path class="st0" d="M38,42v-2h-1v4h1v-1V42z"/>
		<path class="st0" d="M40,40v-1h-2v1h1H40z"/>
	</g>
	<g class="st34">
		<path class="st1" d="M42,44v1h2v-1h-1H42z M37,42v-1h-1v3h1v-1V42z"/>
		<path class="st1" d="M40,45h-2v1h4v-1h-1H40z"/>
		<path class="st1" d="M37,44h1v1h-1V44z M44,43h1v1h-1V43z"/>
	</g>
</g>
<g>
	<g>
		<path class="st0" d="M14,40h1v1h-1V40z M13,34h1v1h-1V34z"/>
		<path class="st0" d="M14,33h1v1h-1V33z M12,35h1v1h-1V35z M7,38h1v4H7V38z M12,41h2v1h-2V41z"/>
		<path class="st0" d="M8,42h4v1H8V42z M8,37h2v1H8V37z"/>
		<path class="st0" d="M10,36h2v1h-2V36z"/>
	</g>
	<g>
		<path class="st1" d="M14,39h1v1h-1V39z"/>
		<path class="st1" d="M12,40h2v1h-2V40z"/>
		<path class="st1" d="M8,41h4v1H8V41z"/>
	</g>
	<path class="st2" d="M8,38v3h4v-1h2v-1h1v-5h-1v1h-1v1h-1v1h-2v1H8z"/>
	<g>
		<path class="st0" d="M49,40h1v1h-1V40z M50,34h1v1h-1V34z"/>
		<path class="st0" d="M49,33h1v1h-1V33z M51,35h1v1h-1V35z M56,38h1v4h-1V38z M50,41h2v1h-2V41z"/>
		<path class="st0" d="M52,42h4v1h-4V42z M54,37h2v1h-2V37z"/>
		<path class="st0" d="M52,36h2v1h-2V36z"/>
	</g>
	<g>
		<path class="st1" d="M49,39h1v1h-1V39z"/>
		<path class="st1" d="M50,40h2v1h-2V40z"/>
		<path class="st1" d="M52,41h4v1h-4V41z"/>
	</g>
	<path class="st2" d="M54,38v-1h-2v-1h-1v-1h-1v-1h-1v5h1v1h2v1h4v-3H54z"/>
</g>
<g class="st33">
	<g class="st34">
		<path class="st1" d="M50,38h1v1h-1V38z"/>
		<path class="st1" d="M49,39h1v1h-1V39z M51,37h1v1h-1V37z"/>
		<path class="st1" d="M52,36h2v1h-2V36z"/>
		<path class="st1" d="M54,35h2v1h-2V35z"/>
	</g>
	<path class="st35" d="M52,32v1h-2v1h-1v5h1v-1h1v-1h1v-1h2v-1h2v-3H52z"/>
	<g class="st34">
		<path class="st0" d="M49,33h1v1h-1V33z"/>
		<path class="st0" d="M50,32h2v1h-2V32z M50,39h1v1h-1V39z"/>
		<path class="st0" d="M49,40h1v1h-1V40z M51,38h1v1h-1V38z"/>
		<path class="st0" d="M52,37h2v1h-2V37z M52,31h4v1h-4V31z"/>
		<path class="st0" d="M56,32h1v4h-1V32z"/>
		<path class="st0" d="M54,36h2v1h-2V36z"/>
	</g>
	<g class="st34">
		<path class="st1" d="M13,38h1v1h-1V38z"/>
		<path class="st1" d="M14,39h1v1h-1V39z M12,37h1v1h-1V37z"/>
		<path class="st1" d="M10,36h2v1h-2V36z"/>
		<path class="st1" d="M8,35h2v1H8V35z"/>
	</g>
	<path class="st35" d="M8,32v3h2v1h2v1h1v1h1v1h1v-5h-1v-1h-2v-1H8z"/>
	<g class="st34">
		<path class="st0" d="M14,33h1v1h-1V33z"/>
		<path class="st0" d="M12,32h2v1h-2V32z M13,39h1v1h-1V39z"/>
		<path class="st0" d="M14,40h1v1h-1V40z M12,38h1v1h-1V38z"/>
		<path class="st0" d="M10,37h2v1h-2V37z M8,31h4v1H8V31z"/>
		<path class="st0" d="M7,32h1v4H7V32z"/>
		<path class="st0" d="M8,36h2v1H8V36z"/>
	</g>
</g>
<g>
	<path class="st2" d="M27,24h1v2h-1V24z M42,24h1v2h-1V24z"/>
	<path d="M15,22v2h3v4h1v1h1v1h1v1h7v-1h1v-1h1v-1h1v-4h2v4h1v1h1v1h1v1h7v-1h1v-1h1v-1h1v-4h3v-2H15z"/>
	<path class="st2" d="M42,24h1v2h-1V24z M27,24h1v2h-1V24z"/>
</g>
<g>
	<path class="st36" d="M48,12v-1h-1v-1h-1V9h-1V8h-1V7h-1V6h-3V5h-7V4h-2v1h-7v1h-3v1h-1v1h-1v1h-1v1h-1v1h-1v1h-1v7H7v2h42v-9H48z"
		/>
	<path d="M47,12v-1h-1v-1h-1V9h-1V8h-1V7h-3V6h-6v1h1v1h1v1h1v1h1v1h1v1h1v8h8v-8H47z M26,11v-1h1V9h1V8h1V7h1V6h-6v1h-3v1h-1v1h-1
		v1h-1v1h-1v1h-1v8h8v-8h1v-1H26z"/>
	<path d="M38,11h-1v-1h-1V9h-1V8h-1V7h-1V6h-2v1h-1v1h-1v1h-1v1h-1v1h-1v1h-1v8h14v-8h-1V11z"/>
	<g>
		<path class="st37" d="M33.8,9.2h0.6v0.6h-0.6V9.2z"/>
		<path class="st37" d="M32.6,12.3h0.6v-1.2h0.6V9.8h-0.6v0.6h-0.6v0.7h-0.7v0.6h-0.6v0.6h-0.6v0.6h-0.6v0.6h-0.6v0.6h-0.6v0.6h1.8
			v1.2h-0.6v1.3h-0.6v1.2h0.6v-0.6h0.6v-0.6h0.6v-0.6h0.6v-0.7h0.7v-0.6h0.6v-0.6h0.6v-0.6h0.6v-0.6h-1.8v-0.6V12.3z"/>
		<path class="st37" d="M28.9,18.4h0.6V19h-0.6V18.4z"/>
	</g>
</g>
<g>
	<g class="st33">
		<path class="st38" d="M50,32v1h-1v8h1v-1h1v-1h1v-7H50z"/>
		<path class="st39" d="M50,33v1h-1v6h1v-1h1v-6H50z"/>
		<path class="st40" d="M50,34h1v1h-1V34z"/>
		<path class="st41" d="M49,37h1v1h-1V37z"/>
	</g>
	<g>
		<path class="st8" d="M51,35v-1h-1v-1h-1v8h1v1h2v-7H51z"/>
		<path class="st9" d="M50,35v-1h-1v6h1v1h1v-6H50z"/>
		<path class="st42" d="M50,39h1v1h-1V39z"/>
		<path class="st31" d="M49,36h1v1h-1V36z"/>
	</g>
	<g class="st33">
		<path class="st38" d="M14,33v-1h-2v7h1v1h1v1h1v-8H14z"/>
		<path class="st39" d="M14,34v-1h-1v6h1v1h1v-6H14z"/>
		<path class="st40" d="M13,34h1v1h-1V34z"/>
		<path class="st41" d="M14,37h1v1h-1V37z"/>
	</g>
	<g>
		<path class="st8" d="M14,33v1h-1v1h-1v7h2v-1h1v-8H14z"/>
		<path class="st9" d="M14,34v1h-1v6h1v-1h1v-6H14z"/>
		<path class="st42" d="M13,39h1v1h-1V39z"/>
		<path class="st31" d="M14,36h1v1h-1V36z"/>
	</g>
</g>
<g>
	<path class="st43" d="M7,25v1H2v9h5v-1h4.5v-9H7z"/>
	<path class="st44" d="M7,25h1v9H7V25z"/>
	<g>
		<path class="st45" d="M8,30h1v1H8V30z"/>
		<path class="st45" d="M9,31h1v1H9V31z"/>
		<path class="st45" d="M10,32h1v1h-1V32z M6,30h1v1H6V30z"/>
		<path class="st45" d="M5,31h1v1H5V31z"/>
		<path class="st45" d="M4,32h1v1H4V32z"/>
		<path class="st45" d="M3,33h1v1H3V33z"/>
		<path class="st45" d="M2,34h1v1H2V34z M8,28h1v1H8V28z"/>
		<path class="st45" d="M9,27h1v1H9V27z"/>
		<path class="st45" d="M10,26h1v1h-1V26z M2,26h1v1H2V26z M5,29h1v1H5V29z"/>
		<path class="st45" d="M4,28h1v1H4V28z"/>
		<path class="st45" d="M3,27h1v1H3V27z"/>
	</g>
	<path d="M10,27v1H9v1H8v1h1v1h1v1h1v-5H10z M5,29H4v-1H3v-1H2v7h1v-1h1v-1h1v-1h1v-1H5V29z"/>
	<path class="st46" d="M7,29h1v1H7V29z"/>
	<path class="st47" d="M11,24h1v28h-1V24z"/>
	<path class="st48" d="M11,24h1v1h-1V24z"/>
</g>
<g>
	<g transform="scale(-1, 1) translate(-60, 0)">
		<path class="st43" d="M3,25v1h-5v9h5v-1h4.5v-9H3z"/>
		<path class="st44" d="M3,25h1v9H3V25z"/>
		<g>
			<path class="st45" d="M4,30h1v1H4V30z"/>
			<path class="st45" d="M5,31h1v1H5V31z"/>
			<path class="st45" d="M6,32h1v1H6V32z M2,30h1v1H2V30z"/>
			<path class="st45" d="M1,31h1v1H1V31z"/>
			<path class="st45" d="M0,32h1v1H0V32z"/>
			<path class="st45" d="M-1,33h1v1h-1V33z"/>
			<path class="st45" d="M-2,34h1v1h-1V34z M4,28h1v1H4V28z"/>
			<path class="st45" d="M5,27h1v1H5V27z"/>
			<path class="st45" d="M6,26h1v1H6V26z M-2,26h1v1h-1V26z M1,29h1v1H1V29z"/>
			<path class="st45" d="M0,28h1v1H0V28z"/>
			<path class="st45" d="M-1,27h1v1h-1V27z"/>
		</g>
		<path d="M6,27v1H5v1H4v1h1v1h1v1h1v-5H6z M1,29H0v-1h-1v-1h-1v7h1v-1h1v-1h1v-1h1v-1H1V29z"/>
		<path class="st46" d="M3,29h1v1H3V29z"/>
		<path class="st47" d="M7,24h1v28H7V24z"/>
		<path class="st48" d="M7,24h1v1H7V24z"/>
	</g>
</g>
</svg>
