<svg xmlns="http://www.w3.org/2000/svg" viewBox="0 0 64 64"><path d="M44,58H19v1h1v1h24v-1h1v-1H44z" opacity=".25" enable-background="new"/><path d="M47 14v-2h-2v-2h-4V8h-4V6H27v2h-4v2h-4v2h-2v2h-2v41h4v-2h5v2h5v-2h6v2h5v-2h5v2h4V14z" fill="#64438e"/><path d="M45 14v-2h-4v-2h-4V8H27v2h-4v2h-4v2h-2v39h2v-2h5v2h5v-2h6v2h5v-2h5v2h2V14z" fill="#edd3fd"/><path d="M18,49h2v-1h2v1h2v2h5v-2h2v-1h2v1h2v2h5v-2h2v-1h2v1h1V14h-4v-2h-4v-2h-5V9h-5v2h-4v2h-4v2h-1V49z" fill="#fff"/><path d="M23 28v2h4v-2h2v-4h-2v-2h-4v2h-2v4h2zm12-4v4h2v2h4v-2h2v-4h-2v-2h-4v2h-2z" fill="#64438e"/><path d="M21 32v2h2v-2h-2zm20 0v2h2v-2h-2z" fill="#f696c6"/><g fill="#64438e"><path d="M29,32h-2v2h2V32z"/><path d="M29,34v2h6v-2H29z"/><path d="M35 32v2h2v-2h-2zm0-17v-1h-1v-1h-1v-1h-2v1h-1v1h-1v1h-1v4h1v1h1v1h1v1h2v-1h1v-1h1v-1h1v-4z"/></g><g fill="#dea8ff"><path d="M29,17v2h1v1h1v1h1v-4H29z"/><path d="M34,15v-1h-1v-1h-1v4h3v-2H34z"/></g><path d="M32,17v4h1v-1h1v-1h1v-2H32z" fill="#c260ff"/><g fill="#edd3fd"><path d="M31 13v1h-1v1h-1v2h3v-4h-1zm13 29h1v2h-1v-2zm-6 2v2h4v-2h-4z"/><path d="M36 41v3h2v-3h-2zm6 2v2h2v-2h-2z"/><path d="M37,41h1v4h-1V41z"/></g><path d="M43 36v1h-1v1h-2v1h-2v1h-1v4h1v1h4v-1h2v-1h1v-1h-1v-5-1z" fill="#64438e"/><path d="M38,40v4h4v-1h2v-1h1v-6h-1v1h-1v1h-1v1h-2v1H38z" fill="#fff"/><g fill="#edd3fd"><path d="M20 44h-1v-2h1v2zm2 0v2h4v-2h-4z"/><path d="M26 41v3h2v-3h-2zm-6 2v2h2v-2h-2z"/><path d="M27 45h-1v-4h1v4z"/></g><path d="M21 36v1h1v1h2v1h2v1h1v4h-1v1h-4v-1h-2v-1h-1v-1h1v-5-1z" fill="#64438e"/><path d="M24,40v-1h-2v-1h-1v-1h-1v-1h-1v6h1v1h2v1h4v-4H24z" fill="#fff"/><path d="M8 38v-1h2v-1h2v-1h1v-1h1v-1h1v8h-1v1h-2v1H8v-1H7v-4z" fill="#64438e"/><path d="M10 38v-1h2v-1h1v-1h1v-1h1v6h-1v1h-2v1H8v-4z" fill="#edd3fd"/><path d="M8,38v3h4v-1h2v-1h1v-5h-1v1h-1v1h-1v1h-2v1H8z" fill="#fff"/><path d="M56 38v-1h-2v-1h-2v-1h-1v-1h-1v-1h-1v8h1v1h2v1h4v-1h1v-4z" fill="#64438e"/><path d="M54 38v-1h-2v-1h-1v-1h-1v-1h-1v6h1v1h2v1h4v-4z" fill="#edd3fd"/><path d="M54,38v-1h-2v-1h-1v-1h-1v-1h-1v5h1v1h2v1h4v-3H54z" fill="#fff"/><path d="M57 22v-2h-8v-2H15v2H7v2h50zM17 6v2h-2v7h34V8h-2V6H17z"/><path d="M49,18v-3H15v3H49z" fill="#323232"/><path d="M31 42h1v1h-1v-1zm0 4h1v1h-1v-1zm11-4h3v1h-3v-1zm-20 2h1v1h-1v-1zm9 6h1v1h-1v-1z" fill="#ffe2c1"/><g fill="#e9eef2"><path d="M19 36h1v2h-1v-2zm0 3h1v1h-1v-1zm7 8h2v1h-2v-1zm-2 0h1v1h-1v-1zm5 0h1v1h-1v-1zm-10 0h1v1h-1v-1zm0-3h1v2h-1v-2zm25-8h1v2h-1v-2zm0 3h1v1h-1v-1zm-4-2h-3v1h-2v1h1v1h1v1h1v-1h1v-1h2v-1h1v-1h1v-1h-3v1zm-19-2h1v1h-1v-1zm23 12h1v1h-1v-1zm-8 0h2v1h-2v-1zm-2 0h1v1h-1v-1zm5 0h1v1h-1v-1zm-3-3h2v2h-2v-2z"/><path d="M34 39h1v1h-1v-1zm-7-1v-1h-3v-1h-2v1h1v1h1v1h1v1h1v1h1v-1h1v-1h1v-1h-2z"/><path d="M29 39h1v1h-1v-1zm5 5h1v2h-1v-2zm-5 0h1v2h-1v-2zm-13 0h2v2h-2v-2zm0 7h2v2h-2v-2zm0-15h2v2h-2v-2zm0 11h2v1h-2v-1zm0-8h2v1h-2v-1zm27-4h1v1h-1v-1zm-4 9h1v2h-1v-2zm-15 0h1v2h-1v-2zm2 7h2v2h-2v-2zm-2 0h1v2h-1v-2zm22-4h2v1h-2v-1zm0 4h2v2h-2v-2zm-10 0h2v2h-2v-2zm3 0h1v2h-1v-2zm7-15h2v2h-2v-2zm0 8h2v2h-2v-2zm0-5h2v1h-2v-1zm-20 5h2v2h-2v-2z"/></g><path d="M30 40h-2v3h-2v-2h-1v2h-1v-2h1v-1h-1v-1h-1v12h1v-2h1v4h1v-4h2v4h1v-4h1v2h1V39h-1v1zm-2 4v2h-2v-2h2zm-4 0h1v2h-1v-2zm0 4v-1h1v1h-1zm2 0v-1h2v1h-2zm4 0h-1v-1h1v1zm0-2h-1v-2h1v2zm0-3h-1v-2h1v2zm10-3h-1v1h1v2h-1v-2h-1v2h-2v-3h-2v-1h-1v12h1v-2h1v4h1v-4h2v4h1v-4h1v2h1V39h-1v1zm-2 4v2h-2v-2h2zm-4-3h1v2h-1v-2zm0 3h1v2h-1v-2zm0 4v-1h1v1h-1zm2 0v-1h2v1h-2zm4 0h-1v-1h1v1zm0-2h-1v-2h1v2zm-25-5h3v2h-2v1h2v2h-2v1h2v1h-2v1h2v4h1v-4h1v2h1V35h-2v-1h-1v1h-2v-2h-1v8zm3-5v2h-2v-2h2zm-2 4v-1h2v1h-2zm4 8h-1v-1h1v1zm0-2h-1v-2h1v2zm0-3h-1v-2h1v2zm0-3h-1v-1h1v1zm0-2h-1v-2h1v2zm29-5h-1v2h-2v-1h-1v1h-1v1h1v2h-1v-2h-1v6h1v-1h1v5h-1v-3h-1v8h1v-2h1v4h1v-4h2v-1h-2v-1h2v-1h-2v-2h2v-1h-2v-2h3v-8zm-4 15h-1v-1h1v1zm1-12h2v2h-2v-2zm-2 4v-1h1v1h-1zm4 0h-2v-1h2v1z" fill="#2c629e"/><g fill="#262743"><path d="M18 34h-1v-1h-1v2h2v-1zm26 9h1v3h-1v-3zm4-10h-1v1h-1v1h2v-2zm-24 8h1v2h-1v-2zm0 8h1v2h-1v-2zm2 0h2v2h-2v-2zm2-10h1v1h-1v-1z"/><path d="M25 40h1v1h-1v-1zm19 1h1v1h-1v-1zm-5 8h1v2h-1v-2zm-3 0h2v2h-2v-2zm3-8h1v2h-1v-2zm-4-2h1v1h-1v-1z"/><path d="M38 40h1v1h-1v-1zm-4 1h1v2h-1v-2zm0-3h1v1h-1v-1zm-5 0h1v1h-1v-1zm0 3h1v2h-1v-2zM16 51h2v-2h-2v-6h2v-2h-3v14h4v-2h-3v-2z"/><path d="M23,51v-6h-1v-1h1v-5h1v-1h-1v-1h-1v-1h-1v15h-1v-2h-1v4h5v-2H23z"/><path d="M24 53h5v2h-5v-2zm22-10h2v6h-2v2h2v2h-3v2h4V41h-3v2z"/><path d="M44 49v2h-1v-8h-1v-1h1v-5h-1v1h-1v13h-1v2h5v-4h-1zm-10 0v2h-1V40h-2v2h1v1h-1v3h1v1h-1v3h1v1h-2v-2h-1v4h6v-4h-1z"/><path d="M35 53h5v2h-5v-2zm4-14h1v1h-1v-1zm-20 2h1v2h-1v-2zm5-2h1v1h-1v-1zm4 4v-3h-1v1h-1v2h2zm10 0v-2h-1v-1h-1v3h2z"/></g><path d="M15,38h-1v-2h1v-1h-2v6h1v-2h1V38z" fill="#2c629e"/><path d="M14 39h1v1h-1v-1zm0-3h1v2h-1v-2z" fill="#e9eef2"/><g fill="#262743"><path d="M14 40h1v1h-1v-1zm1-7h-1v1h-1v1h2v-2z"/><path d="M12,35v7h2v-1h-1v-6H12z"/></g><path d="M49 39h1v2h1v-6h-2v1h1v2h-1v1z" fill="#2c629e"/><path d="M49 39h1v1h-1v-1zm0-3h1v2h-1v-2z" fill="#e9eef2"/><g fill="#262743"><path d="M49 40h1v1h-1v-1zm0-5h2v-1h-1v-1h-1v2z"/><path d="M51,35v6h-1v1h2v-7H51z"/></g><g fill="#ffa3ff"><path d="M8,26h1v1H8V26z"/><path d="M9,25h1v1H9V25z"/></g><g fill="#cb5bff"><path d="M9,29h1v1H9V29z"/><path d="M8 28h1v1H8v-1zm4-1v1h2v-1h-2z"/></g><path d="M12,26h1v1h-1V26z" fill="#6f16e2"/><g fill="#3a2b77"><path d="M11 28h1v1h-1zm0-5h1v2h-1z"/><path d="M12 25h1v1h-1v-1zm2 2h1v1h-1v-1z"/><path d="M13 26h1v1h-1v-1zm0 2h1v1h-1v-1zm-6-2h1v1H7v-1zm0 2h1v1H7v-1zm2 4h1v-2H9v2z"/><path d="M8,29h1v1H8V29z"/></g><g fill="#47289b"><path d="M10,22h1v1h-1V22z"/><path d="M10,23H9v2h1V23z"/><path d="M8 25h1v1H8zm2 7h1v23h-1z"/><path d="M11 32h1v-2h-1v2z"/><path d="M12 29v1h1v-1h-1zm-6-2h1v1H6v-1z"/></g><path d="M11 27h1v1h-1z" fill="#f37aff"/><g fill="#ffc9ff"><path d="M9,26h1v1H9V26z"/><path d="M10 27h1v1h-1zm-3 0h2v1H7z"/></g><g fill="#fff"><path d="M9,27h1v1H9V27z"/><path d="M10 23h1v4h-1z"/></g><path d="M11 26h1v1h-1z" fill="#5d24bf"/><g fill="#8000ff"><path d="M9 28h1v1H9v-1zm2-3h1v1h-1v-1z"/><path d="M10 29h1v3h-1z"/></g><g fill="#b135ff"><path d="M10,28h1v1h-1V28z"/><path d="M11,29h1v1h-1V29z"/><path d="M12 28h1v1h-1z"/></g></svg>