<svg xmlns="http://www.w3.org/2000/svg" viewBox="0 0 64 64"><path d="M44,58H19v1h1v1h24v-1h1v-1H44z" opacity=".25" enable-background="new"/><path d="M47 14v-2h-2v-2h-4V8h-4V6H27v2h-4v2h-4v2h-2v2h-2v41h4v-2h5v2h5v-2h6v2h5v-2h5v2h4V14z" fill="#64438e"/><path d="M45 14v-2h-4v-2h-4V8H27v2h-4v2h-4v2h-2v39h2v-2h5v2h5v-2h6v2h5v-2h5v2h2V14z" fill="#edd3fd"/><path d="M18,49h2v-1h2v1h2v2h5v-2h2v-1h2v1h2v2h5v-2h2v-1h2v1h1V14h-4v-2h-4v-2h-5V9h-5v2h-4v2h-4v2h-1V49z" fill="#fff"/><path d="M23 28v2h4v-2h2v-4h-2v-2h-4v2h-2v4h2zm12-4v4h2v2h4v-2h2v-4h-2v-2h-4v2h-2z" fill="#64438e"/><path d="M21 32v2h2v-2h-2zm20 0v2h2v-2h-2z" fill="#f696c6"/><g fill="#64438e"><path d="M29,32h-2v2h2V32z"/><path d="M29,34v2h6v-2H29z"/><path d="M35 32v2h2v-2h-2zm0-17v-1h-1v-1h-1v-1h-2v1h-1v1h-1v1h-1v4h1v1h1v1h1v1h2v-1h1v-1h1v-1h1v-4z"/></g><g fill="#dea8ff"><path d="M29,17v2h1v1h1v1h1v-4H29z"/><path d="M34,15v-1h-1v-1h-1v4h3v-2H34z"/></g><path d="M32,17v4h1v-1h1v-1h1v-2H32z" fill="#c260ff"/><path d="M31,13v1h-1v1h-1v2h3v-4H31z" fill="#edd3fd"/><path d="M8 38v-1h2v-1h2v-1h1v-1h1v-1h1v8h-1v1h-2v1H8v-1H7v-4z" fill="#64438e"/><path d="M10 38v-1h2v-1h1v-1h1v-1h1v6h-1v1h-2v1H8v-4z" fill="#edd3fd"/><path d="M8,38v3h4v-1h2v-1h1v-5h-1v1h-1v1h-1v1h-2v1H8z" fill="#fff"/><path d="M56 38v-1h-2v-1h-2v-1h-1v-1h-1v-1h-1v8h1v1h2v1h4v-1h1v-4z" fill="#64438e"/><path d="M54 38v-1h-2v-1h-1v-1h-1v-1h-1v6h1v1h2v1h4v-4z" fill="#edd3fd"/><path d="M54,38v-1h-2v-1h-1v-1h-1v-1h-1v5h1v1h2v1h4v-3H54z" fill="#fff"/><path d="M44 33v-1h-3v1h2v2h-2v-1h-2v-1h-2v-1h-4v1h-2v-1h-4v1h-2v1h-2v1h-2v-2h2v-1h-3v1h-1v3h1v1h1v1h2v1h4v-1h2v-1h2v-1h2v1h2v1h2v1h4v-1h2v-1h1v-1h1v-3h-1z"/><g fill="#303030"><path d="M38 35h1v1h-1zm-2-2h-1v1h2v-1h-1z"/><path d="M37 34h1v1h-1zm-12 1h1v1h-1zm2-2v1h2v-1h-2z"/><path d="M26 34h1v1h-1z"/></g><path d="M51 35v-1h-1v-1h-1v1h-2v1h-1v1h-1v1h-1v2h-2v1H22v-1h-1v-1h-1v-1h-1v-1h-1v-1h-1v-1h-2v-1h-1v1h-1v1h-1v7h2v-1h1v14h4v-2h5v2h5v-2h6v2h5v-2h5v2h4V41h1v1h2v-7h-1z" fill="#3c0055"/><path d="M28 41v1h-1v-2h1v-1h-6v2h-1v-2h1v-1h-1v-1h-1v2h-1v-2h1v-1h-1v-1h-1v-1h-1v-1h-2v8h2v2h2v2h8v-2h2v-3h-1v1zm-5-1h1v2h-1v-2zm-7-4v-1h1v2h-1v-1zm1 3v-1h1v2h-1v-1zm2 2v-1h1v2h-1v-1zm2 3v-2h1v2h-1zm2 0v-1h1v1h-1zm2-1v-2h1v2h-1zm23-10h-1v1h-1v1h-1v1h-1v1h1v2h-1v-2h-1v1h-1v1h1v2h-1v-2h-6v1h1v2h-1v-2h-1v3h2v2h8v-2h2v-2h2v-8h-1zm-7 7v2h-1v-2h1zm-3 2v-1h1v2h-1v-1zm2 2v-1h1v1h-1zm2 0v-2h1v2h-1zm2-2v-2h1v2h-1zm2-2v-2h1v2h-1zm2-4v1h-1v-2h1v1z" fill="#fff"/><path d="M20 38v-1h-1v2h1v-1zm25 0v-1h-1v2h1v-1zm-19 4v-1h-1v2h1v-1zm1-1v1h1v-2h-1v1zm12 1v-1h-1v2h1v-1zm-22-6v-1h-1v2h1v-1zm0 3v1h1v-2h-1v1zm26 4v-1h-1v2h1v-1zm-21 0v-1h-1v2h1v-1zm0-3v-1h-1v2h1v-1zm2 1v-1h-1v2h1v-1zm23-5v1h1v-2h-1v1zm-4 4v-1h-1v2h1v-1zm-2 1v-1h-1v2h1v-1zm-4 0v-1h-1v2h1v-1zm10-2v-1h-1v2h1v-1zm-27 2v-1h-1v2h1v-1zm3 2h1v1h-1zm17 0h1v1h-1zm5-2v-1h-1v2h1v-1zm2 3h-1v1h-1v1h-8v7h3v-2h5v2h3V43h-1v1zm3-9v6h1v-6h-1zm-37 1v5h1v-6h-1v1zm12 10h-6v-1h-1v-1h-1v-1h-1v10h3v-2h5v2h3v-7h-2z" fill="#5f0087"/><path d="M53 54v-2h-1v-4h-1v-4h-1v-3h-1v14h5v-1h-1zM14 42v2h-1v4h-1v4h-1v2h-1v1h5V41h-1v1zm36-9v-3h-1v1h-1v1h-1v1h3zm-34-2h-1v-1h-1v3h3v-1h-1v-1z" fill="#ffc03c"/><path d="M49 42v13h1V41h-1v1zm4 12h1v1h-1zm-2-5v6h1v-7h-1v1zm-37-7v13h1V41h-1v1zm35-11v2h1v-3h-1v1zm-35 0v2h1v-3h-1v1zm-4 23h1v1h-1zm2-5v6h1v-7h-1v1z" fill="#ff9e00"/><path d="M34 40h-5v3h6v-3h-1z" fill="#00c8ff"/><path d="M36 43h-9v4h10v-4h-1zm-1 6h-8v6h2v-2h6v2h2v-6h-2z" fill="#ffc03c"/><path d="M36 47h-9v2h10v-2h-1z" fill="#400"/><path d="M48 14h-1v-2h-2v-1h-2v-1h-2V8h-4V6H27v2h-4v2h-2v1h-2v1h-2v2h-1v3h32v-3z" fill="#5f0087"/><path d="M48 6h-1v2h-2v2h-2v2h-2v2h-2v-2h-2v-2h-2V8h-2V6h-2v2h-2v2h-2v2h-2v2h-2v-2h-2v-2h-2V8h-2V6h-2v12h34V6h-1z" fill="#ffc03c"/><g fill="#ffd781"><path d="M33 10V9h-2v1h2zm-3 1h-1v2h1v-2z"/><path d="M30 10h1v1h-1zm4 1v2h1v-2h-1z"/><path d="M33 10h1v1h-1zm-3 3h1v1h-1zm3 0h1v1h-1z"/><path d="M31 14v1h2v-1h-2z"/></g><path d="M48 17H15v1h34v-1h-1z" fill="#ff9e00"/><g fill="#ffeabe"><path d="M31 11h-1v2h1v-2zm2 1v1h1v-2h-1v1z"/><path d="M33 11v-1h-2v1h2zm-2 2v1h2v-1h-2zm-5 3h1v1h-1zm2 0h1v1h-1zm4 0h-2v1h4v-1h-2zm3 0h1v1h-1zm-11 0h1v1h-1zm-2 0h1v1h-1zm-2 0h1v1h-1zm17 0h1v1h-1zm2 0h1v1h-1zm2 0h1v1h-1zm2 0h1v1h-1zm4 0h1v1h-1zm-2 0h1v1h-1zm-27 0h1v1h-1zm-2 0h1v1h-1z"/></g><path d="M32 11h-1v2h2v-2h-1z" fill="#5f0087"/><path d="M32 11h-1v1h2v-1h-1z" fill="#8237a1"/><g fill="#ffc03c"><path d="M56 34h-1v15h2V34h-1z"/><path d="M58 30v-1h-1v-1h-2v1h-1v1h-1v2h1v1h1v1h2v-1h1v-1h1v-2h-1z"/></g><path d="M57 29h-3v4h4v-4h-1z" fill="#ffeabe"/><path d="M54 29h1v1h-1zm3 0h1v1h-1zm-3 3h1v1h-1zm3 0h1v1h-1zm-1 16h1v1h-1z" fill="#ffd781"/><path d="M56 30h-1v2h2v-2h-1z" fill="#5f0087"/><path d="M56 30h-1v1h2v-1h-1z" fill="#8237a1"/><path d="M56 34h-1v14h2V34h-1z" fill="#400"/><path d="M56 34v14h1V34h-1z" fill="#5c2121"/></svg>