<svg xmlns="http://www.w3.org/2000/svg" viewBox="0 0 64 64"><path d="M44,58H19v1h1v1h24v-1h1v-1H44z" opacity=".25" enable-background="new"/><path d="M47 14v-2h-2v-2h-4V8h-4V6H27v2h-4v2h-4v2h-2v2h-2v41h4v-2h5v2h5v-2h6v2h5v-2h5v2h4V14z" fill="#64438e"/><path d="M45 14v-2h-4v-2h-4V8H27v2h-4v2h-4v2h-2v39h2v-2h5v2h5v-2h6v2h5v-2h5v2h2V14z" fill="#edd3fd"/><path d="M18,49h2v-1h2v1h2v2h5v-2h2v-1h2v1h2v2h5v-2h2v-1h2v1h1V14h-4v-2h-4v-2h-5V9h-5v2h-4v2h-4v2h-1V49z" fill="#fff"/><path d="M23 28v2h4v-2h2v-4h-2v-2h-4v2h-2v4h2zm12-4v4h2v2h4v-2h2v-4h-2v-2h-4v2h-2z" fill="#64438e"/><path d="M21 32v2h2v-2h-2zm20 0v2h2v-2h-2z" fill="#f696c6"/><g fill="#64438e"><path d="M29,32h-2v2h2V32z"/><path d="M29,34v2h6v-2H29z"/><path d="M35 32v2h2v-2h-2zm0-17v-1h-1v-1h-1v-1h-2v1h-1v1h-1v1h-1v4h1v1h1v1h1v1h2v-1h1v-1h1v-1h1v-4z"/></g><g fill="#dea8ff"><path d="M29,17v2h1v1h1v1h1v-4H29z"/><path d="M34,15v-1h-1v-1h-1v4h3v-2H34z"/></g><path d="M32,17v4h1v-1h1v-1h1v-2H32z" fill="#c260ff"/><path d="M31,13v1h-1v1h-1v2h3v-4H31z" fill="#edd3fd"/><path d="M8 38v-1h2v-1h2v-1h1v-1h1v-1h1v8h-1v1h-2v1H8v-1H7v-4z" fill="#64438e"/><path d="M10 38v-1h2v-1h1v-1h1v-1h1v6h-1v1h-2v1H8v-4z" fill="#edd3fd"/><path d="M8,38v3h4v-1h2v-1h1v-5h-1v1h-1v1h-1v1h-2v1H8z" fill="#fff"/><path d="M56 38v-1h-2v-1h-2v-1h-1v-1h-1v-1h-1v8h1v1h2v1h4v-1h1v-4z" fill="#64438e"/><path d="M54 38v-1h-2v-1h-1v-1h-1v-1h-1v6h1v1h2v1h4v-4z" fill="#edd3fd"/><path d="M54,38v-1h-2v-1h-1v-1h-1v-1h-1v5h1v1h2v1h4v-3H54z" fill="#fff"/><path d="M15 13v2h1v1h1v1h1v1h1v1h1v1h3v1h18v-1h3v-1h1v-1h1v-1h1v-1h1v-1h1v-2z"/><path d="M13 13v-2h-2V9H9V7h4V5h4V3h4V1h22v2h4v2h4v2h4v2h-2v2h-2v2z" fill="#fff"/><g fill="#c8c8c8"><path d="M10,8V7H9v2h2V8H10z"/><path d="M12,10V9h-1v2h2v-1H12z"/><path d="M14 11h-1v2h2v-1h-1v-1zm36 1h-1v1h2v-2h-1v1zm4-5v1h-1v1h2V7h-1z"/><path d="M52 10h-1v1h2V9h-1v1z"/></g><g fill="#2f2f2f"><path d="M19 18h1v1h-1v-1zm25 0h1v1h-1v-1z"/><path d="M20 19h1v1h-1v-1zm23 0h1v1h-1v-1zm-26-3h1v1h-1v-1z"/><path d="M16,15h1v1h-1V15z"/><path d="M16 13h-1v2h1v-2zm31 2h1v1h-1v-1z"/><path d="M48 13v2h1v-2h-1zm-2 3h1v1h-1v-1z"/><path d="M18 17h1v1h-1v-1zm27 0h1v1h-1v-1z"/></g><path d="M36 5V4h-1V3h-1V2h-4v1h-1v1h-1v1h-1v4h1v1h1v1h1v1h4v-1h1v-1h1V9h1V5h-1zm-3-1v1h1v1h1v2h-1v1h-1v1h-2V9h-1V8h-1V6h1V5h1V4h2z" fill="#0000b9"/><path d="M15,12v1h34v-1H15z" fill="orange"/><path d="M51 35v-1h-1v-1h1v-1h-2v1h-2v1h-2v1h-2v1h-2v1h-4v1h-3v1h-4v-1h-3v-1h-4v-1h-2v-1h-2v-1h-2v-1h-2v-1h-2v1h1v1h-1v1h-1v7h2v-1h1v14h4v-2h5v2h5v-2h6v2h5v-2h5v2h4V41h1v1h2v-7z" fill="#c8c8c8"/><g fill="#fff"><path d="M29 45h-1v-1h-1v-1h-1v-1h-2v-1h-1v-1h-2v-1h-2v-1h-1v-1h-1v-2h-1v17h15v-5h-1v-1h-1v-1zm-9-2h3v2h-3v-2zm-1 8v-5h5v5h-5zm16-6v-1h1v-1h1v-1h1v-1h2v-1h1v-1h2v-1h2v-1h1v-2h-1v1h-2v1h-2v1h-4v1h-2v2h-1v1h-1v4h1v-1h1z"/><path d="M30 41h-1v-2h-2v-1h-4v-1h-2v-1h-2v-1h-1v2h1v1h2v1h2v1h1v1h2v1h1v1h1v1h1v1h1v1h1v-4h-1v-1zm17-4h-1v1h-1v1h-2v1h-2v1h-1v1h-2v1h-1v1h-1v1h-1v1h-1v1h-2v1h1v1h-1v1h1v1h-1v1h16V35h-1v2zm-3 5v1h-3v-1h3zm-5 9v-6h1v-1h5v1h1v6h-7z"/></g><path d="M44,44h1v1h-1V44z" fill="#698bd9"/><path d="M44,45h1v1h-1V45z" fill="#e2e5f3"/><path d="M42,45h1v1h-1V45z" fill="#45322f"/><path d="M43,45h1v1h-1V45z" fill="#d9c6b2"/><path d="M40,44h1v1h-1V44z" fill="#76946f"/><path d="M41,44h1v1h-1V44z" fill="#cad4e4"/><path d="M30 39v1h1v6h2v-6h1v-1h-4zm12 9h1v1h-1v-1z"/><g fill="#ddd9d6"><path d="M42,46h1v2h-1V46z"/><path d="M43,48v1h-1v-1h-1v2h3v-2H43z"/></g><path d="M45,45h1v1h-1V45z" fill="#556592"/><path d="M42,44h1v1h-1V44z" fill="#5666bc"/><path d="M41,45h1v1h-1V45z" fill="#f6d435"/><path d="M40,45h1v1h-1V45z" fill="#e6bf8f"/><path d="M43,44h1v1h-1V44z" fill="#c23e3f"/><path d="M39,45h1v1h-1V45z" fill="#f75457"/><path d="M19 47v1h5v-1h-5zm19-8h1v1h-1v-1zm-13 0h1v1h-1v-1zm7 11h1v1h-1v-1zm0-2h1v1h-1v-1zm17-14h1v1h-1v-1z" fill="orange"/><path d="M49 40h1v1h1v-6h-2v5z" fill="#fff"/><path d="M15 35h-1v-1h1v1z" fill="orange"/><path d="M15,35h-2v6h1v-1h1V35z" fill="#fff"/><path d="M5 30v8h1v1h1v4H6v1h3v-1H8v-4h1v-1h1v-8z" fill="#0000b9"/><path d="M6,31v7h3v-7H6z" fill="#fff"/><path d="M6 33v5h3v-5H6zm1-5h1v1H7v-1zm1-2h1v1H8v-1zm-2-1h1v1H6v-1z" fill="#ffffbe"/></svg>