<?xml version="1.0" encoding="utf-8"?>
<!-- Generator: Adobe Illustrator 25.3.1, SVG Export Plug-In . SVG Version: 6.00 Build 0)  -->
<svg version="1.1" id="Layer_1" xmlns="http://www.w3.org/2000/svg" xmlns:xlink="http://www.w3.org/1999/xlink" x="0px" y="0px"
	 viewBox="0 0 64 64" style="enable-background:new 0 0 64 64;" xml:space="preserve">
<style type="text/css">
	.st0{opacity:0.25;enable-background:new    ;}
	.st1{fill:#64438E;}
	.st2{fill:#EDD3FD;}
	.st3{fill:#FFFFFF;}
	.st4{fill:#F696C6;}
	.st5{fill:#DEA8FF;}
	.st6{fill:#C260FF;}
	.st7{fill:#00FF00;}
	.st8{fill:#FFFF00;}
	.st9{fill:#FFC800;}
	.st10{fill:#00FFFF;}
	.st11{fill:#007DFF;}
	.st12{fill:#FF00FF;}
	.st13{fill:#7D00FF;}
	.st14{fill:#009600;}
	.st15{fill:#7D0064;}
	.st16{fill:#32007D;}
	.st17{fill:#FF0000;}
	.st18{fill:#7D7D7D;}
	.st19{fill:#282828;}
	.st20{fill:#464646;}
	.st21{fill:#646464;}
	.st22{fill:#46A7C0;}
</style>
<path class="st0" d="M44,58H19v1h1v1h24v-1h1v-1H44z"/>
<path class="st1" d="M47,14v-2h-2v-2h-4V8h-4V6H27v2h-4v2h-4v2h-2v2h-2v41h4v-2h5v2h5v-2h6v2h5v-2h5v2h4V14H47z"/>
<path class="st2" d="M45,14v-2h-4v-2h-4V8H27v2h-4v2h-4v2h-2v39h2v-2h5v2h5v-2h6v2h5v-2h5v2h2V14H45z"/>
<path class="st3" d="M18,49h2v-1h2v1h2v2h5v-2h2v-1h2v1h2v2h5v-2h2v-1h2v1h1V14h-4v-2h-4v-2h-5V9h-5v2h-4v2h-4v2h-1V49z"/>
<path class="st1" d="M23,28v2h4v-2h2v-4h-2v-2h-4v2h-2v4H23z M35,24v4h2v2h4v-2h2v-4h-2v-2h-4v2H35z"/>
<path class="st4" d="M21,32v2h2v-2H21z M41,32v2h2v-2H41z"/>
<g>
	<path class="st1" d="M29,32h-2v2h2V32z"/>
	<path class="st1" d="M29,34v2h6v-2H29z"/>
	<path class="st1" d="M35,32v2h2v-2H35z M35,15v-1h-1v-1h-1v-1h-2v1h-1v1h-1v1h-1v4h1v1h1v1h1v1h2v-1h1v-1h1v-1h1v-4H35z"/>
</g>
<g>
	<path class="st5" d="M29,17v2h1v1h1v1h1v-4H29z"/>
	<path class="st5" d="M34,15v-1h-1v-1h-1v4h3v-2H34z"/>
</g>
<path class="st6" d="M32,17v4h1v-1h1v-1h1v-2H32z"/>
<path class="st2" d="M31,13v1h-1v1h-1v2h3v-4H31z"/>
<path class="st1" d="M8,38v-1h2v-1h2v-1h1v-1h1v-1h1v8h-1v1h-2v1H8v-1H7v-4H8z"/>
<path class="st2" d="M10,38v-1h2v-1h1v-1h1v-1h1v6h-1v1h-2v1H8v-4H10z"/>
<path class="st3" d="M8,38v3h4v-1h2v-1h1v-5h-1v1h-1v1h-1v1h-2v1H8z"/>
<path class="st1" d="M56,38v-1h-2v-1h-2v-1h-1v-1h-1v-1h-1v8h1v1h2v1h4v-1h1v-4H56z"/>
<path class="st2" d="M54,38v-1h-2v-1h-1v-1h-1v-1h-1v6h1v1h2v1h4v-4H54z"/>
<path class="st3" d="M54,38v-1h-2v-1h-1v-1h-1v-1h-1v5h1v1h2v1h4v-3H54z"/>
<path class="st7" d="M33,6h4v13h-4V6z"/>
<path class="st8" d="M32,3h3v18h-3V3z"/>
<path class="st9" d="M32,3h2v18h-2V3z"/>
<path class="st10" d="M27,19h4V6h-4V19z"/>
<path class="st11" d="M27,19h1V6h-1V19z"/>
<path class="st12" d="M31,0h2v22h-2V0z"/>
<path class="st13" d="M29,3h3v18h-3V3z"/>
<path class="st14" d="M35,6h1v13h-1V6z"/>
<path class="st15" d="M31,0h1v22h-1V0z"/>
<path class="st16" d="M29,3h1v18h-1V3z"/>
<path class="st17" d="M46,24v-2h-1v-1h-1v-1h-1v-1h-6v1h-1v1h-1v1h-1v2h-4v-2h-1v-1h-1v-1h-1v-1h-6v1h-1v1h-1v1h-1v2h-3v2h3v2h1v1h1
	v1h1v1h6v-1h1v-1h1v-1h1v-2h4v2h1v1h1v1h1v1h6v-1h1v-1h1v-1h1v-2h3v-2H46z"/>
<path d="M28,21h-1v-1h-6v1h-1v1h-1v6h1v1h1v1h6v-1h1v-1h1v-6h-1V21z M44,21h-1v-1h-6v1h-1v1h-1v6h1v1h1v1h6v-1h1v-1h1v-6h-1V21z"/>
<path class="st18" d="M23,21v1h-1v1h-1v2h3v-4H23z"/>
<path class="st19" d="M24,25v4h1v-1h1v-1h1v-2H24z"/>
<g>
	<path class="st20" d="M21,25v2h1v1h1v1h1v-4H21z"/>
	<path class="st20" d="M26,23v-1h-1v-1h-1v4h3v-2H26z"/>
</g>
<g>
	<path class="st21" d="M41.5,23.6h1v1h-1V23.6z M41.5,25.6h1v1h-1V25.6z"/>
	<path class="st21" d="M39.5,24.6v-1h2v-1h-1v-1h-1v1h-2v1h1v3h-1v1h2v1h1v-1h1v-1h-2v-1h2v-1H39.5z"/>
</g>
<path d="M46,33v1h-1v1h-1v1h-1v1h-1v1h-1v1h-2v1H25v-1h-2v-1h-1v-1h-1v-1h-1v-1h-1v-1h-1v-1h-3v22h34V33H46z"/>
<path class="st10" d="M35,54V42h4v-1h2v-1h1v-1h1v-1h1v-1h1v-1h1v-1h1v-1h1v-1h-2v1h-1v1h-1v1h-1v1h-1v1h-1v1h-2v1H25v-1h-2v-1h-1
	v-1h-1v-1h-1v-1h-1v-1h-1v-1h-2v1h1v1h1v1h1v1h1v1h1v1h1v1h1v1h2v1h4v12H15v1h17v-1h-1v-1h1v-1h-1v-1h1v-1h-1v-1h1v-1h-1v-1h1v-1h-1
	v-1h1v-1h-1v-1h1v-1h-1v-1h1v1h1v1h-1v1h1v1h-1v1h1v1h-1v1h1v1h-1v1h1v1h-1v1h1v1h-1v1h1v1h16v-1H35z"/>
<g>
	<path class="st12" d="M15,54h14v1H15V54z M35,54h14v1H35V54z M17,33h1v1h-1V33z M19,35h1v1h-1V35z"/>
	<path class="st12" d="M18,34h1v1h-1V34z M20,36h1v1h-1V36z"/>
	<path class="st12" d="M21,37h1v1h-1V37z M23,39h2v1h-2V39z M46,33h1v1h-1V33z"/>
	<path class="st12" d="M45,34h1v1h-1V34z"/>
	<path class="st12" d="M44,35h1v1h-1V35z M42,37h1v1h-1V37z"/>
	<path class="st12" d="M43,36h1v1h-1V36z M39,39h2v1h-2V39z"/>
	<path class="st12" d="M22,38h1v1h-1V38z M41,38h1v1h-1V38z M39,41v-1H25v1h5v14h1V41h2v14h1V41H39z"/>
</g>
<path d="M52,36v-1h-1v-1h-1v-1h-2v18h2v-4h1v-5h1v1h2v-7H52z"/>
<path class="st12" d="M53,43h-1v-7h1V43z"/>
<path class="st10" d="M54,43h-1v-7h1V43z"/>
<path d="M14,33v1h-1v1h-1v1h-2v7h2v-1h1v5h1v4h2V33H14z"/>
<path class="st12" d="M11,36h1v7h-1V36z"/>
<path class="st10" d="M10,36h1v7h-1V36z"/>
<path d="M14,35v-1h-1v-1H4v1H3v1H2v2h1v1h1v1h1v1h1v1h1v1h1v1h1v-1h1v-1h1v-1h1v-1h1v-1h1v-1h1v-2H14z"/>
<path class="st22" d="M4,37v1h1v1h1v1h1v1h1v1h1v-1h1v-1h1v-1h1v-1h1v-1H4z"/>
<g>
	<path class="st10" d="M11,35h-1v-1H7v1H6v1H5v2h1v1h1v1h1v1h1v-1h1v-1h1v-1h1v-2h-1V35z M13,35h1v1h-1V35z"/>
	<path class="st10" d="M12,34h1v1h-1V34z M4,34h1v1H4V34z"/>
	<path class="st10" d="M3,35h1v1H3V35z"/>
</g>
<g>
	<path class="st3" d="M13,36h1v1h-1V36z M3,36h1v1H3V36z M11,34h1v1h-1V34z M10,36v-1H9v-1H8v1H7v1H5v1h7v-1H10z"/>
	<path class="st3" d="M12,35h1v1h-1V35z M4,35h1v1H4V35z"/>
	<path class="st3" d="M5,34h1v1H5V34z"/>
</g>
</svg>
