<svg xmlns="http://www.w3.org/2000/svg" viewBox="0 0 64 64"><path d="M44,58H19v1h1v1h24v-1h1v-1H44z" opacity=".25" enable-background="new"/><path d="M47 14v-2h-2v-2h-4V8h-4V6H27v2h-4v2h-4v2h-2v2h-2v41h4v-2h5v2h5v-2h6v2h5v-2h5v2h4V14z" fill="#64438e"/><path d="M45 14v-2h-4v-2h-4V8H27v2h-4v2h-4v2h-2v39h2v-2h5v2h5v-2h6v2h5v-2h5v2h2V14z" fill="#edd3fd"/><path d="M18,49h2v-1h2v1h2v2h5v-2h2v-1h2v1h2v2h5v-2h2v-1h2v1h1V14h-4v-2h-4v-2h-5V9h-5v2h-4v2h-4v2h-1V49z" fill="#fff"/><path d="M23 28v2h4v-2h2v-4h-2v-2h-4v2h-2v4h2zm12-4v4h2v2h4v-2h2v-4h-2v-2h-4v2h-2z" fill="#64438e"/><path d="M21 32v2h2v-2h-2zm20 0v2h2v-2h-2z" fill="#f696c6"/><g fill="#64438e"><path d="M29,32h-2v2h2V32z"/><path d="M29,34v2h6v-2H29z"/><path d="M35 32v2h2v-2h-2zm0-17v-1h-1v-1h-1v-1h-2v1h-1v1h-1v1h-1v4h1v1h1v1h1v1h2v-1h1v-1h1v-1h1v-4z"/></g><g fill="#dea8ff"><path d="M29,17v2h1v1h1v1h1v-4H29z"/><path d="M34,15v-1h-1v-1h-1v4h3v-2H34z"/></g><path d="M32,17v4h1v-1h1v-1h1v-2H32z" fill="#c260ff"/><path d="M31,13v1h-1v1h-1v2h3v-4H31z" fill="#edd3fd"/><path d="M8 38v-1h2v-1h2v-1h1v-1h1v-1h1v8h-1v1h-2v1H8v-1H7v-4z" fill="#64438e"/><path d="M10 38v-1h2v-1h1v-1h1v-1h1v6h-1v1h-2v1H8v-4z" fill="#edd3fd"/><path d="M8,38v3h4v-1h2v-1h1v-5h-1v1h-1v1h-1v1h-2v1H8z" fill="#fff"/><path d="M56 38v-1h-2v-1h-2v-1h-1v-1h-1v-1h-1v8h1v1h2v1h4v-1h1v-4z" fill="#64438e"/><path d="M54 38v-1h-2v-1h-1v-1h-1v-1h-1v6h1v1h2v1h4v-4z" fill="#edd3fd"/><path d="M54,38v-1h-2v-1h-1v-1h-1v-1h-1v5h1v1h2v1h4v-3H54z" fill="#fff"/><path d="M33,6h4v13h-4V6z" fill="#0f0"/><path d="M32,3h3v18h-3V3z" fill="#ff0"/><path d="M32,3h2v18h-2V3z" fill="#ffc800"/><path d="M27,19h4V6h-4V19z" fill="#0ff"/><path d="M27,19h1V6h-1V19z" fill="#007dff"/><path d="M31,0h2v22h-2V0z" fill="#f0f"/><path d="M29,3h3v18h-3V3z" fill="#7d00ff"/><path d="M35,6h1v13h-1V6z" fill="#009600"/><path d="M31,0h1v22h-1V0z" fill="#7d0064"/><path d="M29,3h1v18h-1V3z" fill="#32007d"/><path d="M13 27v-1h-1v-1h-1v-1h-1v1H9v1H8v1H7v2h1v1h1v1h1v24h1V31h1v-1h1v-1h1v-2z" fill="#64438e"/><path d="M8 27h5v2H8z" fill="#c260ff"/><path d="M9 26h3v4H9z" fill="#dea8ff"/><path d="M10,25v6h1v-6H10z" fill="#edd3fd"/><path d="M17.1,29.9v-2h-2v-3.8h2v-2h29.8v2h2v3.8h-2v2H17.1z"/><path d="M46.8 22.2v2h2v3.5h-2v2.1H17.2v-2h-2v-3.6h2v-2h29.6m.2-.2H17v2h-2v4h2v2h30v-2h2v-4h-2v-2z" fill="#c8c8c8"/><path d="M17,24h30v4H17V24z"/><path d="M41,24v4h2v-4H41z" fill="#c260ff"/><g fill="#c8c8c8"><path d="M17,22h30v2H17V22z"/><path d="M15 24h2v4h-2v-4zm32 0h2v4h-2v-4z"/><path d="M17,28h30v2H17V28z"/></g><path d="M46 33v1h-1v1h-1v1h-1v1h-1v1h-1v1h-2v1h-2v1h-3v1h-4v-1h-3v-1h-2v-1h-2v-1h-1v-1h-1v-1h-1v-1h-1v-1h-1v-1h-3.5v8h.5v13h34V41h.5v-8H46z"/><path d="M46 34v1h-1v1h-1v1h-1v1h-1v1h-1v1h-2v1h-2v1h-3v1h-4v-1h-3v-1h-2v-1h-2v-1h-1v-1h-1v-1h-1v-1h-1v-1h-1v-1h-2v19h32V34h-2z" fill="#167ffe"/><path d="M19,38h1v1h-1V38z" fill="#646464"/><path d="M18,38h1v1h-1V38z" fill="#969696"/><g fill="#c8c8c8"><path d="M19,37h1v1h-1V37z"/><path d="M21,39v-1h-1v1h-1v1h3v-1H21z"/></g><g fill="#e2cab5"><path d="M26,42h1v1h-1V42z"/><path d="M27,43h1v2h-1V43z"/></g><g fill="#0ff"><path d="M16,34h2v1h-2V34z"/><path d="M18 35h1v1h-1v-1zm19 6h2v1h-2v-1zm10 5h1v1h-1v-1z"/><path d="M45,45h2v1h-2V45z"/><path d="M43,44h2v1h-2V44z"/><path d="M41,43h2v1h-2V43z"/><path d="M39,42h2v1h-2V42z"/></g><g fill="#e1e1e1"><path d="M18,37h1v1h-1V37z"/><path d="M17,38v1h-1v1h3v-1h-1v-1H17z"/></g><g fill="#7d00ff"><path d="M18,36h2v1h-2V36z"/><path d="M16 35h2v1h-2v-1zm21 7h2v1h-2v-1zm10 5h1v1h-1v-1z"/><path d="M45,46h2v1h-2V46z"/><path d="M43,45h2v1h-2V45z"/><path d="M41,44h2v1h-2V44z"/><path d="M39,43h2v1h-2V43z"/></g><g fill="#d3af90"><path d="M29,43h-1v3h2v-1h-1V43z"/><path d="M29,42h1v1h-1V42z"/></g><g fill="#ff0"><path d="M39 40h2v1h-2v-1zm8 4h1v1h-1v-1z"/><path d="M45 43h2v1h-2v-1zm-4-2h2v1h-2v-1z"/><path d="M43,42h2v1h-2V42z"/></g><g fill="#f0f"><path d="M47,43h1v1h-1V43z"/><path d="M45 42h2v1h-2v-1zm-4-2h2v1h-2v-1z"/><path d="M43,41h2v1h-2V41z"/></g><path d="M46 34v1h1v1h1v-2h-2zm-3 12h-2v1h-1v1h4v-1h-1v-1zm-23 0h-1v1h-1v1h3v-1h-1v-1zm-2-1h2v-1h-1v-1h-2v-1h-1v4h2v-1zm29-8h-2v1h-1v1h-1v1h2v1h3v-3h-1v-1zm-8 8h2v-1h-2v-1h-2v-1h-3v2h-1v1h2v1h4v-1zm-12 0h1v1h-1v-1z" fill="#fff"/><g fill="#0f0"><path d="M47,45h1v1h-1V45z"/><path d="M45,44h2v1h-2V44z"/><path d="M43 43h2v1h-2v-1zm-4-2h2v1h-2v-1z"/><path d="M41 42h2v1h-2v-1zm6 8h-1v-2h-7v2h-1v-2h-4v1h1v2h-1v1h-1v1h3v-2h1v2h3v-2h1v2h3v-2h1v2h3v-5h-1v2zm-5 1v-2h1v2h-1zm-19-1h-1v-2h-6v3h1v2h3v-2h1v2h3v-1h-1v-1h1v-3h-1v2zm-5 1v-2h1v2h-1zm10-1h2v1h-2v-1zm5 0h-2v2h-2v1h3v-2h1v-1zm-7 2v-1h1v-1h-2v3h3v-1h-2z"/></g><path d="M46 48h1v2h-1v-2zm-8 0h1v2h-1v-2zm-16 0h1v2h-1v-2zm20 1h1v2h-1v-2zm-24 0h1v2h-1v-2zm16 0h1v2h-1v-2zm2 2h1v2h-1v-2zm-8 0h1v2h-1v-2zm-8 0h1v2h-1v-2zm20 0h1v2h-1v-2zm4 0h1v2h-1v-2zm-28 0h1v2h-1v-2zm8 1h1v1h-1v-1zm8 0h1v1h-1v-1z" fill="#00b900"/><path d="M30,45v1h-3v-1h-1v2h1v1h3v-1h1v-2H30z" fill="#323232"/><g fill="#f8ece0"><path d="M24,42h1v1h-1V42z"/><path d="M33 47v-1h-2v1h-1v1h-3v-1h-1v-1h-1v-1h-1v-2h-2v-2h-1v3h1v2h1v2h1v3h-1v1h2v-2h2v1h-1v1h2v-2h2v1h-1v1h2v-2h2v1h-1v1h2v-5h-1z"/></g><path d="M14,33v1h-1v1h-1v7h2v-1h1v-8H14z"/><path d="M14,34v1h-1v6h1v-1h1v-6H14z" fill="#167ffe"/><path d="M15 39h-1v-1h-1v3h1v-1h1v-1zm0-5h-1v1h-1v1h2v-2z" fill="#fff"/><path d="M51,35v-1h-1v-1h-1v8h1v1h2v-7H51z"/><path d="M50,35v-1h-1v6h1v1h1v-6H50z" fill="#167ffe"/><path d="M49 34h1v1h-1v-1zm1 2h1v1h-1v-1zm-1 2h1v1h-1v-1z" fill="#fff"/></svg>