<?xml version="1.0" encoding="utf-8"?>
<!-- Generator: Adobe Illustrator 25.3.1, SVG Export Plug-In . SVG Version: 6.00 Build 0)  -->
<svg version="1.1" id="Layer_1" xmlns="http://www.w3.org/2000/svg" xmlns:xlink="http://www.w3.org/1999/xlink" x="0px" y="0px"
	 viewBox="0 0 64 64" style="enable-background:new 0 0 64 64;" xml:space="preserve">
<style type="text/css">
	.st0{fill:#64438E;}
	.st1{fill:#EDD3FD;}
	.st2{fill:#FFFFFF;}
	.st3{fill:#F696C6;}
	.st4{opacity:0.25;enable-background:new    ;}
	.st5{fill:#EA8C27;}
	.st6{fill:#C260FF;}
	.st7{fill:#DEA8FF;}
	.st8{fill:#001E6E;}
	.st9{fill:#A97955;}
	.st10{fill:#E4C599;}
	.st11{fill:#334B8B;}
	.st12{display:none;}
	.st13{display:inline;}
	.st14{display:inline;fill:#FFFFFF;}
	.st15{fill:#002DE4;}
	.st16{fill:#1973FF;}
	.st17{fill:#9DC3FF;}
	.st18{fill:#FA34F3;}
	.st19{fill:#AC15F9;}
	.st20{fill:#CF15F9;}
	.st21{fill:#8F17F9;}
	.st22{fill:#7E18F8;}
</style>
<g>
	<g>
		<path class="st0" d="M21,12h2v-2h-4v2h1H21z"/>
		<path class="st0" d="M19,14v-2h-2v2h1H19z M25,10h2V8h-4v2h1H25z"/>
		<path class="st0" d="M29,8h8V6H27v2h1H29z M45,14h2v-2h-2v1V14z"/>
		<path class="st0" d="M48,14h-1v39h-2v2h4V14H48z M37,10h4V8h-4v1V10z"/>
		<path class="st0" d="M41,12h4v-2h-4v1V12z M17,53V14h-2v41h4v-2h-1H17z"/>
		<path class="st0" d="M24,51h-5v2h5v-1V51z"/>
		<path class="st0" d="M27,53h-3v2h5v-2h-1H27z M45,51h-5v2h5v-1V51z"/>
		<path class="st0" d="M35,51h-6v2h6v-1V51z"/>
		<path class="st0" d="M38,53h-3v2h5v-2h-1H38z"/>
	</g>
	<g>
		<path class="st1" d="M18,43v6h2v-1h2v1h2v2h-5v2h-2V14h2v1h-1v26V43z"/>
		<path class="st1" d="M27,51h-3v2h5v-2h-1H27z M38,51h-3v2h5v-2h-1H38z"/>
		<path class="st1" d="M35,49h-2v-1h-2v1h-2v2h6v-1V49z M25,11h2v-1h-4v1h1H25z M21,13h2v-1h-4v1h1H21z M45,44v5h-1v-1h-2v1h-2v2h5
			v2h2V14h-2v29V44z"/>
		<path class="st1" d="M37,8H27v1h5v1h5V9V8z M45,12h-4v2h4v-1V12z"/>
		<path class="st1" d="M41,10h-4v2h4v-1V10z"/>
	</g>
	<path class="st2" d="M44,14h-3v-2h-4v-2h-5V9h-5v2h-4v2h-4v2h-1v34h2v-1h2v1h2v2h5v-2h2v-1h2v1h2v2h5v-2h2v-1h2v1h1V14H44z"/>
</g>
<path class="st3" d="M21,32v2h2v-2h-1H21z M42,32h-1v2h2v-2H42z"/>
<g>
	<path class="st0" d="M29,32h-2v2h2v-1V32z"/>
	<path class="st0" d="M33,34h-4v2h6v-2h-1H33z"/>
	<path class="st0" d="M36,32h-1v2h2v-2H36z"/>
</g>
<g>
	<path class="st4" d="M25,58h-6v1h1v1h24v-1h1v-1h-1H25z"/>
</g>
<g>
	<path class="st0" d="M27,23h-1h-1h-1h-1h-1h-1v1v1v1h1h1h1h1h1h1h1h1v-1v-1v-1h-1H27z M23,25h-1v-1h1h1v1H23z M28,25h-1h-1v-1h1h1
		V25z"/>
	<rect x="24" y="24" class="st5" width="2" height="1"/>
	<path class="st0" d="M42,23h-1h-1h-1h-1h-1h-1h-1v1v1v1h1h1h1h1h1h1h1h1v-1v-1v-1H42z M37,25h-1v-1h1h1v1H37z M42,25h-1h-1v-1h1h1
		V25z"/>
	<rect x="38" y="24" class="st5" width="2" height="1"/>
</g>
<g>
	<g>
		<path class="st0" d="M29,17v-2h-1v4h1v-1V17z"/>
		<path class="st0" d="M29,14h1v1h-1V14z M29,19h1v1h-1V19z"/>
		<path class="st0" d="M30,20h1v1h-1V20z"/>
		<path class="st0" d="M31,21v1h2v-1h-1H31z M30,13h1v1h-1V13z M34,19h1v1h-1V19z M34,14h1v1h-1V14z"/>
		<path class="st0" d="M33,13v-1h-2v1h1H33z M33,20h1v1h-1V20z"/>
		<path class="st0" d="M33,13h1v1h-1V13z M35,15v4h1v-4H35z"/>
	</g>
	<path class="st6" d="M34,17h-2v4h1v-1h1v-1h1v-2H34z"/>
	<g>
		<path class="st7" d="M30,17h-1v2h1v1h1v1h1v-4h-1H30z"/>
		<path class="st7" d="M34,15v-1h-1v-1h-1v4h3v-2H34z"/>
	</g>
	<path class="st1" d="M31,17h1v-4h-1v1h-1v1h-1v2h1H31z"/>
</g>
<g>
	<path class="st8" d="M15,41v14h4v-2h5v2h5v-2h6v2h5v-2h5v2h4V41H15z"/>
	<path class="st9" d="M31,43v-1h-6v1H31z M39,43v-1h-5v1H39z M24,43v-1h-8v1H24z M48,43v-1h-8v1H48z"/>
	<path class="st10" d="M32,42h1v1h-1V42z"/>
	<g>
		<path class="st11" d="M19,44v3h-1v1h-2v5h3v-2h5v2h5v-2h2v-7H19z"/>
		<path class="st11" d="M18,44h-2v3h2V44z M33,44h-1v4h1V44z M46,44v3h2v-3H46z"/>
		<path class="st11" d="M45,44H34v4h-1v1h-1v2h3v2h5v-2h5v2h3v-5h-2v-1h-1V44z"/>
	</g>
</g>
<g class="st12">
	<g class="st13">
		<path class="st0" d="M19,42h1v1h-1V42z M20,36h1v1h-1V36z"/>
		<path class="st0" d="M21,37h1v1h-1V37z M26,40v4h1v-4H26z M21,43h-1v1h2v-1H21z"/>
		<path class="st0" d="M24,44h-2v1h4v-1h-1H24z M25,39h-1v1h2v-1H25z"/>
		<path class="st0" d="M23,38h-1v1h2v-1H23z"/>
	</g>
	<g class="st13">
		<path class="st1" d="M19,43h1v1h-1V43z M24,45h-2v1h4v-1h-1H24z"/>
		<path class="st1" d="M27,41v3h1v-3H27z M21,44h-1v1h2v-1H21z"/>
		<path class="st1" d="M26,44h1v1h-1V44z M19,41h-1v2h1v-1V41z"/>
	</g>
	<g class="st13">
		<path class="st0" d="M44,42h1v1h-1V42z M43,36h1v1h-1V36z"/>
		<path class="st0" d="M42,37h1v1h-1V37z"/>
		<path class="st0" d="M42,39v-1h-2v1h1H42z M42,43v1h2v-1h-1H42z"/>
		<path class="st0" d="M40,44h-2v1h4v-1h-1H40z"/>
		<path class="st0" d="M38,42v-2h-1v4h1v-1V42z"/>
		<path class="st0" d="M40,40v-1h-2v1h1H40z"/>
	</g>
	<g class="st13">
		<path class="st1" d="M42,44v1h2v-1h-1H42z M37,42v-1h-1v3h1v-1V42z"/>
		<path class="st1" d="M40,45h-2v1h4v-1h-1H40z"/>
		<path class="st1" d="M37,44h1v1h-1V44z M44,43h1v1h-1V43z"/>
	</g>
</g>
<g>
	<g>
		<path class="st0" d="M14,40h1v1h-1V40z M13,34h1v1h-1V34z"/>
		<path class="st0" d="M14,33h1v1h-1V33z M12,35h1v1h-1V35z M7,38h1v4H7V38z M12,41h2v1h-2V41z"/>
		<path class="st0" d="M8,42h4v1H8V42z M8,37h2v1H8V37z"/>
		<path class="st0" d="M10,36h2v1h-2V36z"/>
	</g>
	<g>
		<path class="st1" d="M14,39h1v1h-1V39z"/>
		<path class="st1" d="M12,40h2v1h-2V40z"/>
		<path class="st1" d="M8,41h4v1H8V41z"/>
	</g>
	<path class="st2" d="M8,38v3h4v-1h2v-1h1v-5h-1v1h-1v1h-1v1h-2v1H8z"/>
	<g>
		<path class="st0" d="M49,40h1v1h-1V40z M50,34h1v1h-1V34z"/>
		<path class="st0" d="M49,33h1v1h-1V33z M51,35h1v1h-1V35z M56,38h1v4h-1V38z M50,41h2v1h-2V41z"/>
		<path class="st0" d="M52,42h4v1h-4V42z M54,37h2v1h-2V37z"/>
		<path class="st0" d="M52,36h2v1h-2V36z"/>
	</g>
	<g>
		<path class="st1" d="M49,39h1v1h-1V39z"/>
		<path class="st1" d="M50,40h2v1h-2V40z"/>
		<path class="st1" d="M52,41h4v1h-4V41z"/>
	</g>
	<path class="st2" d="M54,38v-1h-2v-1h-1v-1h-1v-1h-1v5h1v1h2v1h4v-3H54z"/>
</g>
<g class="st12">
	<g class="st13">
		<path class="st1" d="M50,38h1v1h-1V38z"/>
		<path class="st1" d="M49,39h1v1h-1V39z M51,37h1v1h-1V37z"/>
		<path class="st1" d="M52,36h2v1h-2V36z"/>
		<path class="st1" d="M54,35h2v1h-2V35z"/>
	</g>
	<path class="st14" d="M52,32v1h-2v1h-1v5h1v-1h1v-1h1v-1h2v-1h2v-3H52z"/>
	<g class="st13">
		<path class="st0" d="M49,33h1v1h-1V33z"/>
		<path class="st0" d="M50,32h2v1h-2V32z M50,39h1v1h-1V39z"/>
		<path class="st0" d="M49,40h1v1h-1V40z M51,38h1v1h-1V38z"/>
		<path class="st0" d="M52,37h2v1h-2V37z M52,31h4v1h-4V31z"/>
		<path class="st0" d="M56,32h1v4h-1V32z"/>
		<path class="st0" d="M54,36h2v1h-2V36z"/>
	</g>
	<g class="st13">
		<path class="st1" d="M13,38h1v1h-1V38z"/>
		<path class="st1" d="M14,39h1v1h-1V39z M12,37h1v1h-1V37z"/>
		<path class="st1" d="M10,36h2v1h-2V36z"/>
		<path class="st1" d="M8,35h2v1H8V35z"/>
	</g>
	<path class="st14" d="M8,32v3h2v1h2v1h1v1h1v1h1v-5h-1v-1h-2v-1H8z"/>
	<g class="st13">
		<path class="st0" d="M14,33h1v1h-1V33z"/>
		<path class="st0" d="M12,32h2v1h-2V32z M13,39h1v1h-1V39z"/>
		<path class="st0" d="M14,40h1v1h-1V40z M12,38h1v1h-1V38z"/>
		<path class="st0" d="M10,37h2v1h-2V37z M8,31h4v1H8V31z"/>
		<path class="st0" d="M7,32h1v4H7V32z"/>
		<path class="st0" d="M8,36h2v1H8V36z"/>
	</g>
</g>
<g>
	<path class="st15" d="M26,13v-1h-1V3h-2v1h-1v1h-1v1h-1v2h-1v6h1v2h1v1h1v1h2v-1h1v-1h1v-1h1v-2H26z"/>
	<g>
		<path class="st16" d="M25,14h-1v1h-1v1h-1v1h2v-1h1v-1h1v-1H25z M24,6V4h-1v1h-1v1h-1v1h2V6H24z"/>
		<path class="st16" d="M24,9V7h-1v1h-3v2h3V9H24z"/>
		<path class="st16" d="M24,12v-2h-1v1h-3v2h3v-1H24z"/>
		<path class="st16" d="M23,13h1v1h-1V13z"/>
		<path class="st16" d="M24,12h1v1h-1V12z M22,14h-1v1h2v-1H22z"/>
	</g>
	<g>
		<path class="st17" d="M22,10h1V8h-3v2h1H22z M23,7V5h-1v1h-1v1h1H23z M23,11h-3v2h3v-1V11z"/>
		<path class="st17" d="M23,13h1v1h-1V13z"/>
		<path class="st17" d="M21,14v1h2v-1h-1H21z"/>
	</g>
	<path class="st15" d="M38,13v-1h1V3h2v1h1v1h1v1h1v2h1v6h-1v2h-1v1h-1v1h-2v-1h-1v-1h-1v-1h-1v-2H38z"/>
	<g>
		<path class="st16" d="M39,14h1v1h1v1h1v1h-2v-1h-1v-1h-1v-1H39z M40,6V4h1v1h1v1h1v1h-2V6H40z"/>
		<path class="st16" d="M40,9V7h1v1h3v2h-3V9H40z"/>
		<path class="st16" d="M40,12v-2h1v1h3v2h-3v-1H40z"/>
		<path class="st16" d="M40,13h1v1h-1V13z"/>
		<path class="st16" d="M39,12h1v1h-1V12z M42,14h1v1h-2v-1H42z"/>
	</g>
	<g>
		<path class="st17" d="M42,10h-1V8h3v2h-1H42z M41,7V5h1v1h1v1h-1H41z M41,11h3v2h-3v-1V11z"/>
		<path class="st17" d="M40,13h1v1h-1V13z"/>
		<path class="st17" d="M43,14v1h-2v-1h1H43z"/>
	</g>
</g>
<g>
	<path class="st18" d="M12,36v-1h-1v-1h-1v-1H4v1H3v1H2v1H1v6h1v1h1v1h1v1h6v-1h1v-1h1v-1h1v-6H12z"/>
	<path class="st19" d="M1,39v2h12v-2H1z"/>
	<path class="st20" d="M1,37v2h12v-2H1z"/>
	<path class="st21" d="M1,41v1h1v1h10v-1h1v-1H1z"/>
	<path class="st22" d="M3,43v1h1v1h6v-1h1v-1H3z"/>
	<g>
		<path class="st2" d="M8.9,39.8h0.4v-0.6H8.9V39.8z"/>
		<path class="st2" d="M7.4,39.8v0.5h0.9v0.4h0.4v-0.4h0.2v-0.5H7.4z M7.8,39.2h1.1v-0.4H7.8V39.2z"/>
		<path class="st2" d="M7.4,38.2v0.6h0.4v-0.6H7.4z"/>
		<path class="st2" d="M8.7,37.7v-0.4H8.3v0.4H7.8v0.5h1.5v-0.5C9.3,37.7,8.7,37.7,8.7,37.7z M10.6,40.3H11v-2.1h0.9v-0.5H9.8v0.5
			h0.8C10.6,38.2,10.6,40.3,10.6,40.3z M6.6,37.7v1.1H5.5v-1.1H5.1v2.6h0.4v-1.1h1.1v1.1H7v-2.6C7,37.7,6.6,37.7,6.6,37.7z M3,37.7
			v0.5h1.7v-0.5H3z M4.7,39.8v-1H3.4v0.4h0.8v0.6H4.7z"/>
		<path class="st2" d="M3,40.3h1.2v-0.5H3V40.3z"/>
		<path class="st2" d="M2.6,38.2v1.6H3v-1.6H2.6z"/>
	</g>
</g>
</svg>
