<svg xmlns="http://www.w3.org/2000/svg" viewBox="0 0 64 64"><path d="M44,58H19v1h1v1h24v-1h1v-1H44z" opacity=".25" enable-background="new"/><path d="M47 14v-2h-2v-2h-4V8h-4V6H27v2h-4v2h-4v2h-2v2h-2v41h4v-2h5v2h5v-2h6v2h5v-2h5v2h4V14z" fill="#64438e"/><path d="M45 14v-2h-4v-2h-4V8H27v2h-4v2h-4v2h-2v39h2v-2h5v2h5v-2h6v2h5v-2h5v2h2V14z" fill="#edd3fd"/><path d="M18,49h2v-1h2v1h2v2h5v-2h2v-1h2v1h2v2h5v-2h2v-1h2v1h1V14h-4v-2h-4v-2h-5V9h-5v2h-4v2h-4v2h-1V49z" fill="#fff"/><path d="M23 28v2h4v-2h2v-4h-2v-2h-4v2h-2v4h2zm12-4v4h2v2h4v-2h2v-4h-2v-2h-4v2h-2z" fill="#64438e"/><path d="M21 32v2h2v-2h-2zm20 0v2h2v-2h-2z" fill="#f696c6"/><g fill="#64438e"><path d="M29,32h-2v2h2V32z"/><path d="M29,34v2h6v-2H29z"/><path d="M35 32v2h2v-2h-2zm0-17v-1h-1v-1h-1v-1h-2v1h-1v1h-1v1h-1v4h1v1h1v1h1v1h2v-1h1v-1h1v-1h1v-4z"/></g><g fill="#dea8ff"><path d="M29,17v2h1v1h1v1h1v-4H29z"/><path d="M34,15v-1h-1v-1h-1v4h3v-2H34z"/></g><path d="M32,17v4h1v-1h1v-1h1v-2H32z" fill="#c260ff"/><g fill="#edd3fd"><path d="M31 13v1h-1v1h-1v2h3v-4h-1zm13 29h1v2h-1v-2zm-6 2v2h4v-2h-4z"/><path d="M36 41v3h2v-3h-2zm6 2v2h2v-2h-2z"/><path d="M37,41h1v4h-1V41z"/></g><path d="M43 36v1h-1v1h-2v1h-2v1h-1v4h1v1h4v-1h2v-1h1v-1h-1v-5-1z" fill="#64438e"/><path d="M38,40v4h4v-1h2v-1h1v-6h-1v1h-1v1h-1v1h-2v1H38z" fill="#fff"/><g fill="#edd3fd"><path d="M20 44h-1v-2h1v2zm2 0v2h4v-2h-4z"/><path d="M26 41v3h2v-3h-2zm-6 2v2h2v-2h-2z"/><path d="M27 45h-1v-4h1v4z"/></g><path d="M21 36v1h1v1h2v1h2v1h1v4h-1v1h-4v-1h-2v-1h-1v-1h1v-5-1z" fill="#64438e"/><path d="M24,40v-1h-2v-1h-1v-1h-1v-1h-1v6h1v1h2v1h4v-4H24z" fill="#fff"/><path d="M8 38v-1h2v-1h2v-1h1v-1h1v-1h1v8h-1v1h-2v1H8v-1H7v-4z" fill="#64438e"/><path d="M10 38v-1h2v-1h1v-1h1v-1h1v6h-1v1h-2v1H8v-4z" fill="#edd3fd"/><path d="M8,38v3h4v-1h2v-1h1v-5h-1v1h-1v1h-1v1h-2v1H8z" fill="#fff"/><path d="M56 38v-1h-2v-1h-2v-1h-1v-1h-1v-1h-1v8h1v1h2v1h4v-1h1v-4z" fill="#64438e"/><path d="M54 38v-1h-2v-1h-1v-1h-1v-1h-1v6h1v1h2v1h4v-4z" fill="#edd3fd"/><path d="M54,38v-1h-2v-1h-1v-1h-1v-1h-1v5h1v1h2v1h4v-3H54z" fill="#fff"/><g fill="#bebebc"><path d="M9,31h1v1H8v-1H9z"/><path d="M5,34h2v-2h1v2h4v1h-1v8h-1v1H6v-1H5v-8H4v-1H5z"/></g><g fill="#0f0"><path d="M7 35h1v1H7v1H6v-2h1zm1 4v2H7v1H6v-3h2z"/><path d="M8 37h1v-1h1v3H8v-2zm1 4h1v2H8v-1h1v-1z"/></g><g fill="#fff"><path d="M8 37v2H7v-2h1zm-1 5h1v1H7v-1z"/><path d="M8 36h1v1H8v-1zm0 5h1v1H8v-1z"/><path d="M9 35h1v1H9v-1zm0 4h1v2H9v-2z"/></g><g fill="#0af"><path d="M7 37v2H6v-2h1zm-1 5h1v1H6v-1z"/><path d="M7 36h1v1H7v-1zm0 5h1v1H7v-1z"/><path d="M8 35h1v1H8v-1zm0 4h1v2H8v-2z"/></g><path d="M52 36v-1h-1v-1h-1v-1h-4v1h-2v1h-2v1h-2v1h-2v1h-2v2h-2v1h-1v1h-2v-1h-1v-1h-2v-2h-2v-1h-2v-1h-2v-1h-2v-1h-2v-1h-4v1h-1v1h-1v1h-1v7h1v-1h2v-1h1v14h4v-2h5v2h5v-2h6v2h5v-2h5v2h4V41h1v1h2v1h1v-7h-1z" fill="#0064b4"/><path d="M50 34h-1v6h1v1h1v-6h-1v-1zm-36 1h-1v6h1v-1h1v-6h-1v1zm38 2h1v1h-1v-1zm0 2h1v1h-1v-1zm0 2h1v1h-1v-1zm-41-4h1v1h-1v-1zm0 2h1v1h-1v-1zm0 2h1v1h-1v-1zm36 7v-2h-1v-2h-1v-1h-5v1h-2v2h-1v2h-1v1h-1v1h-2v1h2v2h5v-2h5v2h3v-4h-1v-1zm-18 2v-1h-1v-1h-1v-2h-1v-2h-2v-1h-5v1h-1v2h-1v3h-1v4h3v-2h5v2h5v-2h2v-1h-2z" fill="#0af"/><path d="M29,37v1h1v1h1v1h2v-1h1v-1h1v-1H29z"/><g fill="#ff0096"><path d="M25,38h-1v1h2v-1H25z"/><path d="M26 39v1h2v-1h-2zm13-1h-1v1h2v-1h-1z"/><path d="M36,39v1h2v-1H36z"/></g><g fill="#0000be"><path d="M25,37h-1v1h2v-1H25z"/><path d="M26 38v1h2v-1h-2zm13-1h-1v1h2v-1h-1z"/><path d="M36,38v1h2v-1H36z"/></g><g fill="#ffbe00"><path d="M16 41v-1h-1v3h1v-2zm-1 5h1v1h-1v-1z"/><path d="M31 43v1h2v-1h-2zm-7-4v-2h-2v-1h-2v-1h-2v-1h-3v2h1v4h1v3h-1v1h-1v1h1v1h1v-2h1v-1h1v-3h-1v-3h1v3h1v2h2v-2h-1v-2h1v2h1v2h1v1h1v-3h1v-1h-2z"/><path d="M30,42v-1h-2v1h1v1h2v-1H30z"/><path d="M27 40h1v1h-1v-1zm21-6h-2v1h-2v1h-2v1h-2v2h-2v1h1v3h1v-1h1v-2h1v-2h1v2h-1v2h2v-2h1v-3h1v3h-1v3h1v1h1v2h1v-1h1v-1h-1v-1h-1v-3h1v-4h1v-2h-1z"/><path d="M48 42v1h1v-3h-1v2zm0 4h1v1h-1v-1zm-16-1h-1v-1h-3v-1h-1v3h1v-1h2v1h-2v2h1v-1h6v1h1v-2h-2v-1h2v1h1v-3h-1v1h-3v1h-1zm4-5h1v1h-1v-1z"/><path d="M34,41v1h-1v1h2v-1h1v-1H34z"/></g><g fill="#fff"><path d="M28 43h1v1h-1v-1zm3 6v1h2v-1h-2z"/><path d="M30 48v-1h-1v2h2v-1h-1zm-2-7h-1v-1h-1v3h2v-2zm7 2h1v1h-1v-1z"/><path d="M37 40v1h-1v2h2v-3h-1zm-3 8h-1v1h2v-2h-1v1z"/></g><path d="M18,43h1v1h-1V43z"/><path d="M17 45v1h1v-2h-1v1zm-1-7v-2h-1v4h1v-2z"/><path d="M17,42v-2h-1v3h1V42z"/><path d="M15 43h1v1h-1v-1zm0 2h1v1h-1v-1z"/><path d="M16 47h-1v2h2v-3h-1v1zm12-5h1v1h-1v-1zm-9-4v-1h-1v3h1v-2z"/><path d="M23 42v-2h-1v2h-2v-2h-1v3h5v-1h-1zm5 4h-1v2h1v-2z"/><path d="M28 48h1v1h-1v-1zm-1-4v-1h-1v-3h-1v3h-1v1h2v2h1v-2zm-5-7h2v-1h-2v1z"/><path d="M21 36h1v-1h-2v1h1z"/><path d="M19 35h1v-1h-2v1h1zm11 6h1v1h-1v-1z"/><path d="M29 40h-1v1h2v-1h-1zm4 9v1h2v-1h-2zm-3 0h-1v1h2v-1h-1zM17 34h1v-1h-3v1h2zm5 4h-1v2h1v-2zm8 8v-1h-2v1h2zm0-2h1v-1h-2v1h1z"/><path d="M31 44v1h2v-1h-2zm17-11h-2v1h3v-1h-1zm-3 10h1v1h-1v-1z"/><path d="M47 44h-1v2h1v-2zm0-3v2h1v-3h-1v1z"/><path d="M48 43h1v1h-1v-1zm0 2h1v1h-1v-1z"/><path d="M47 47v2h2v-2h-1v-1h-1v1zm-4-8v-1h-1v2h1v-1zm-4 3v-2h-1v3h-1v3h1v-2h2v-1h-1v-1zm-4 0h1v1h-1v-1zm13-5v3h1v-4h-1v1zm-2 2v-2h-1v3h1v-1z"/><path d="M45 41v-1h-1v2h-2v-2h-1v2h-1v1h5v-2zm-9 6v1h1v-2h-1v1z"/><path d="M35 48h1v1h-1v-1zm0-3h-1v1h2v-1h-1zm7-8v-1h-2v1h2z"/><path d="M42,35v1h2v-1H42z"/><path d="M44 34v1h2v-1h-2zM34 44h1v-1h-2v1h1zm-1-3h1v1h-1v-1z"/><path d="M36 41v-1h-2v1h2zm-3 2v-1h-2v1h2zm0 6v-1h1v-1h-4v1h1v1h2zm-2 1v1h2v-1h-2z"/><g fill="#42433d"><path d="M20 28h1v1h-1v-1zm0-7h1v1h-1v-1z"/><path d="M21 29h1v1h-1v-1zm8-1h1v1h-1v-1z"/><path d="M21 20h1v1h-1v-1zm7 9h1v1h-1v-1z"/><path d="M19 22v2h-4v2h4v2h1v-6h-1zm3 8h6v1h-6v-1zm14 0h6v1h-6v-1zm-7-9h1v1h-1v-1z"/><path d="M28,20h1v1h-1V20z"/><path d="M22 19h6v1h-6v-1zm14 0h6v1h-6v-1zm-2 9h1v1h-1v-1z"/><path d="M35 29h1v1h-1v-1zm7 0h1v1h-1v-1zm3-5v-2h-1v6h1v-2h4v-2h-4z"/><path d="M43 28h1v1h-1v-1zm-8-8h1v1h-1v-1z"/><path d="M43 21h1v1h-1v-1zm-9 0h1v1h-1v-1z"/><path d="M33 22v2h-2v-2h-1v6h1v-2h2v2h1v-6h-1zm9-2h1v1h-1v-1z"/></g><g opacity=".9"><linearGradient id="A" gradientUnits="userSpaceOnUse" x1="32" y1="30" x2="32" y2="20"><stop offset="0" stop-color="#ee34b8"/><stop offset=".085" stop-color="#ef3dbb"/><stop offset=".225" stop-color="#f155c4"/><stop offset=".4" stop-color="#f47dd2"/><stop offset=".606" stop-color="#f9b4e5"/><stop offset=".834" stop-color="#fffafd"/><stop offset=".85" stop-color="#fff"/></linearGradient><path d="M29 21h-1v-1h-6v1h-1v1h-1v6h1v1h1v1h6v-1h1v-1h1v-6h-1v-1zm14 0h-1v-1h-6v1h-1v1h-1v6h1v1h1v1h6v-1h1v-1h1v-6h-1v-1z" fill="url(#A)"/></g><path d="M50 16h-1v-2h-2v-2h-2v-2h-3V8h-3V6H25v2h-3v2h-3v2h-2v2h-2v2h-2v16h1v1h4v-5h2v-4h1v-2h3v-2h3v-8h2v-2h2V9h1v1h3v2h2v2h2v2h3v2h3v2h1v13h4v-1h1V16h-1z" fill="#f6748a"/><path d="M19 17v-1h-1v2h1v-1zm0 4v-1h-1v2h1v-1zm-1 3v2h2v-2h-2zm3-13v1h1v-2h-1v1zm0 4v1h1v-2h-1v1zm0 4v1h1v-2h-1v1zm3-10v1h1V8h-1v1zm3 0v1h1V8h-1v1zm-3 4v1h1v-2h-1v1zm0 4v1h1v-2h-1v1zm-9 2v1h1v-2h-1v1zm0 4v1h1v-2h-1v1zm0 4v1h1v-2h-1v1zm0 4v1h1v-2h-1v1zM29 7v1h1V6h-1v1zm7 4v1h1v-2h-1v1zm0-4v1h1V6h-1v1zm-4 2v1h1V8h-1v1zm2-2v1h1V6h-1v1zm8 4v1h1v-2h-1v1zm0 4v1h1v-2h-1v1zm-3-6v1h1V8h-1v1zm0 4v1h1v-2h-1v1zm9 1v2h1v-2h-1zm-3-2v2h2v-2h-2zm0 5v1h1v-2h-1v1zm3 2v1h1v-2h-1v1zm0 4v1h1v-2h-1v1zm0 4v1h1v-2h-1v1zm0 4v1h1v-2h-1v1z" fill="#8dc3c0"/><path d="M19 15v-1h-1v2h1v-1zm0 4v-1h-1v2h1v-1zm0 4v-1h-1v2h1v-1zm-1 3v2h2v-2h-2zm3-13v1h1v-2h-1v1zm0 4v1h1v-2h-1v1zm0 4v1h1v-2h-1v1zm3-10v1h1v-2h-1v1zm3-4v1h1V6h-1v1zm-3 8v1h1v-2h-1v1zm0 4v1h1v-2h-1v1zm-9-2v1h1v-2h-1v1zm0 4v1h1v-2h-1v1zm0 4v1h1v-2h-1v1zm0 4v1h1v-2h-1v1zm0 3h1v1h-1v-1zm12-21v1h1v-2h-1v1zm2-2v1h1V8h-1v1zm7 0v1h1V8h-1v1zm-5-1h1v1h-1V8zm2-1v1h1V6h-1v1zm9 6v1h1v-2h-1v1zm0 4v1h1v-2h-1v1zm-3-6v1h1v-2h-1v1zm0 4v1h1v-2h-1v1zm6 0v1h1v-2h-1v1zm0 4v1h1v-2h-1v1zm3-3v2h1v-2h-1zm0 5v1h1v-2h-1v1zm0 4v1h1v-2h-1v1zm0 4v1h1v-2h-1v1zm0 3h1v1h-1v-1z" fill="#027073"/><g fill="#c10359"><path d="M13 20v2h2v-2h-2zm0 4v2h2v-2h-2zm0 4v2h2v-2h-2zm0-12v2h2v-2h-2zm3 6v2h2v-2h-2zm0 4v2h2v-2h-2zm0-12v2h2v-2h-2zm0 4v2h2v-2h-2zM28 7v1h1V6h-1v1zM16 30v2h2v-2h-2zm3-18v2h2v-2h-2zm0 4v2h2v-2h-2zm0 4v2h2v-2h-2zm3-10v2h2v-2h-2zm0 4v2h2v-2h-2zm0 4v2h2v-2h-2zm3-10v2h2V8h-2zm0 4v2h2v-2h-2zm3-1v1h1v-2h-1v1zm2-2v1h1V8h-1v1z"/><path d="M31 7v1h1V6h-1v1zm4 5h1v-2h-1v2zm0-5v1h1V6h-1v1z"/><path d="M34 9v1h1V8h-1v1zm-9 7v2h2v-2h-2zm15-6v2h2v-2h-2zm0 4v2h2v-2h-2zm-3-6v2h2V8h-2zm0 4v2h2v-2h-2zm12 8v2h2v-2h-2zm0 4v2h2v-2h-2zm-35 8h1v1h-1v-1zm35 0h1v1h-1v-1zm0-4v2h2v-2h-2zm1-12h-1v2h2v-2h-1zm-4 6v2h2v-2h-2zm0 4v2h2v-2h-2zm0-12v2h2v-2h-2zm0 4v2h2v-2h-2zm0 12v2h2v-2h-2zm-3-18v2h2v-2h-2zm0 4v2h2v-2h-2z"/></g></svg>