<?xml version="1.0" encoding="utf-8"?>
<!-- Generator: Adobe Illustrator 25.3.1, SVG Export Plug-In . SVG Version: 6.00 Build 0)  -->
<svg version="1.1" id="Layer_1" xmlns="http://www.w3.org/2000/svg" xmlns:xlink="http://www.w3.org/1999/xlink" x="0px" y="0px"
	 viewBox="0 0 64 64" style="enable-background:new 0 0 64 64;" xml:space="preserve">
<style type="text/css">
	.st0{fill:#0000B9;}
	.st1{fill:#D4DEF8;}
	.st2{fill:#FFFFFF;}
	.st3{fill:#F696C6;}
	.st4{opacity:0.25;enable-background:new    ;}
	.st5{fill:#001E6E;}
	.st6{fill:#A97955;}
	.st7{fill:#E4C599;}
	.st8{fill:#334B8B;}
	.st9{display:none;}
	.st10{display:inline;}
	.st11{display:inline;fill:#FFFFFF;}
	.st12{fill:#64438E;}
	.st13{fill:#B464ED;}
	.st14{fill:#EDD3FD;}
	.st15{fill:#323232;}
	.st16{fill:#646464;}
	.st17{fill:#FFBE00;}
	.st18{fill:#FFDB72;}
	.st19{fill:#FFEBB1;}
	.st20{fill:#3C3C3C;}
	.st21{fill:#C8C8C8;}
	.st22{fill:#EAEAEA;}
	.st23{fill:#007300;}
	.st24{fill:#00FF50;}
	.st25{fill:#FF0000;}
	.st26{fill:#C260FF;}
	.st27{fill:#DEA8FF;}
</style>
<g>
	<g>
		<path class="st0" d="M21,12h2v-2h-4v2h1H21z"/>
		<path class="st0" d="M19,14v-2h-2v2h1H19z M25,10h2V8h-4v2h1H25z"/>
		<path class="st0" d="M29,8h8V6H27v2h1H29z M45,14h2v-2h-2v1V14z"/>
		<path class="st0" d="M48,14h-1v39h-2v2h4V14H48z M37,10h4V8h-4v1V10z"/>
		<path class="st0" d="M41,12h4v-2h-4v1V12z M17,53V14h-2v41h4v-2h-1H17z"/>
		<path class="st0" d="M24,51h-5v2h5v-1V51z"/>
		<path class="st0" d="M27,53h-3v2h5v-2h-1H27z M45,51h-5v2h5v-1V51z"/>
		<path class="st0" d="M35,51h-6v2h6v-1V51z"/>
		<path class="st0" d="M38,53h-3v2h5v-2h-1H38z"/>
	</g>
	<g>
		<path class="st1" d="M18,43v6h2v-1h2v1h2v2h-5v2h-2V14h2v1h-1v26V43z"/>
		<path class="st1" d="M27,51h-3v2h5v-2h-1H27z M38,51h-3v2h5v-2h-1H38z"/>
		<path class="st1" d="M35,49h-2v-1h-2v1h-2v2h6v-1V49z M25,11h2v-1h-4v1h1H25z M21,13h2v-1h-4v1h1H21z M45,44v5h-1v-1h-2v1h-2v2h5
			v2h2V14h-2v29V44z"/>
		<path class="st1" d="M37,8H27v1h5v1h5V9V8z M45,12h-4v2h4v-1V12z"/>
		<path class="st1" d="M41,10h-4v2h4v-1V10z"/>
	</g>
	<path class="st2" d="M44,14h-3v-2h-4v-2h-5V9h-5v2h-4v2h-4v2h-1v34h2v-1h2v1h2v2h5v-2h2v-1h2v1h2v2h5v-2h2v-1h2v1h1V14H44z"/>
</g>
<path class="st3" d="M21,32v2h2v-2h-1H21z M42,32h-1v2h2v-2H42z"/>
<g>
	<path class="st0" d="M29,32h-2v2h2v-1V32z"/>
	<path class="st0" d="M33,34h-4v2h6v-2h-1H33z"/>
	<path class="st0" d="M36,32h-1v2h2v-2H36z"/>
</g>
<g>
	<path class="st4" d="M25,58h-6v1h1v1h24v-1h1v-1h-1H25z"/>
</g>
<g>
	<path class="st0" d="M39,23v2h-1v-2H39v-1h-2v1h-1v3h1v1h2v-1h1v-3H39z"/>
	<g>
		<path class="st0" d="M36,22h-1v1h1V22z"/>
		<path class="st0" d="M35,25v-2h-1v4h1V25z"/>
		<path class="st0" d="M36,27h-1v1h1V27z M41,22h-1v1h1V22z"/>
		<path class="st0" d="M41,23v4h1v-4H41z M38,22h2v-1h-4v1H38z M38,28h-2v1h4v-1H38z"/>
		<path class="st0" d="M41,27h-1v1h1V27z"/>
	</g>
	<path class="st0" d="M27,24v1h-1v-2h1v-1h-2v1h-1v3h1v1h2v-1h1v-3h-1V24z"/>
	<g>
		<path class="st0" d="M24,22h-1v1h1V22z"/>
		<path class="st0" d="M23,25v-2h-1v4h1V25z"/>
		<path class="st0" d="M24,27h-1v1h1V27z M29,22h-1v1h1V22z"/>
		<path class="st0" d="M29,24v3h1v-4h-1V24z M26,22h2v-1h-4v1H26z M26,28h-2v1h4v-1H26z"/>
		<path class="st0" d="M29,27h-1v1h1V27z"/>
	</g>
</g>
<g>
	<path class="st0" d="M34,13v-1h-4v1h-1v1h-1v1h-1v4h1v1h1v1h1v1h4v-1h1v-1h1v-1h1v-4h-1v-1h-1v-1H34z M32,14h1v1h1v1h1v2h-1v1h-1v1
		h-2v-1h-1v-1h-1v-2h1v-1h1v-1H32z"/>
</g>
<g>
	<path class="st5" d="M15,41v14h4v-2h5v2h5v-2h6v2h5v-2h5v2h4V41H15z"/>
	<path class="st6" d="M31,43v-1h-6v1H31z M39,43v-1h-5v1H39z M24,43v-1h-8v1H24z M48,43v-1h-8v1H48z"/>
	<path class="st7" d="M32,42h1v1h-1V42z"/>
	<g>
		<path class="st8" d="M19,44v3h-1v1h-2v5h3v-2h5v2h5v-2h2v-7H19z"/>
		<path class="st8" d="M18,44h-2v3h2V44z M33,44h-1v4h1V44z M46,44v3h2v-3H46z"/>
		<path class="st8" d="M45,44H34v4h-1v1h-1v2h3v2h5v-2h5v2h3v-5h-2v-1h-1V44z"/>
	</g>
</g>
<g class="st9">
	<g class="st10">
		<path class="st0" d="M19,42h1v1h-1V42z M20,36h1v1h-1V36z"/>
		<path class="st0" d="M21,37h1v1h-1V37z M26,40v4h1v-4H26z M21,43h-1v1h2v-1H21z"/>
		<path class="st0" d="M24,44h-2v1h4v-1h-1H24z M25,39h-1v1h2v-1H25z"/>
		<path class="st0" d="M23,38h-1v1h2v-1H23z"/>
	</g>
	<g class="st10">
		<path class="st1" d="M19,43h1v1h-1V43z M24,45h-2v1h4v-1h-1H24z"/>
		<path class="st1" d="M27,41v3h1v-3H27z M21,44h-1v1h2v-1H21z"/>
		<path class="st1" d="M26,44h1v1h-1V44z M19,41h-1v2h1v-1V41z"/>
	</g>
	<g class="st10">
		<path class="st0" d="M44,42h1v1h-1V42z M43,36h1v1h-1V36z"/>
		<path class="st0" d="M42,37h1v1h-1V37z"/>
		<path class="st0" d="M42,39v-1h-2v1h1H42z M42,43v1h2v-1h-1H42z"/>
		<path class="st0" d="M40,44h-2v1h4v-1h-1H40z"/>
		<path class="st0" d="M38,42v-2h-1v4h1v-1V42z"/>
		<path class="st0" d="M40,40v-1h-2v1h1H40z"/>
	</g>
	<g class="st10">
		<path class="st1" d="M42,44v1h2v-1h-1H42z M37,42v-1h-1v3h1v-1V42z"/>
		<path class="st1" d="M40,45h-2v1h4v-1h-1H40z"/>
		<path class="st1" d="M37,44h1v1h-1V44z M44,43h1v1h-1V43z"/>
	</g>
</g>
<g>
	<g>
		<path class="st0" d="M14,40h1v1h-1V40z M13,34h1v1h-1V34z"/>
		<path class="st0" d="M14,33h1v1h-1V33z M12,35h1v1h-1V35z M7,38h1v4H7V38z M12,41h2v1h-2V41z"/>
		<path class="st0" d="M8,42h4v1H8V42z M8,37h2v1H8V37z"/>
		<path class="st0" d="M10,36h2v1h-2V36z"/>
	</g>
	<g>
		<path class="st1" d="M14,39h1v1h-1V39z"/>
		<path class="st1" d="M12,40h2v1h-2V40z"/>
		<path class="st1" d="M8,41h4v1H8V41z"/>
	</g>
	<path class="st2" d="M8,38v3h4v-1h2v-1h1v-5h-1v1h-1v1h-1v1h-2v1H8z"/>
	<g>
		<path class="st0" d="M49,40h1v1h-1V40z M50,34h1v1h-1V34z"/>
		<path class="st0" d="M49,33h1v1h-1V33z M51,35h1v1h-1V35z M56,38h1v4h-1V38z M50,41h2v1h-2V41z"/>
		<path class="st0" d="M52,42h4v1h-4V42z M54,37h2v1h-2V37z"/>
		<path class="st0" d="M52,36h2v1h-2V36z"/>
	</g>
	<g>
		<path class="st1" d="M49,39h1v1h-1V39z"/>
		<path class="st1" d="M50,40h2v1h-2V40z"/>
		<path class="st1" d="M52,41h4v1h-4V41z"/>
	</g>
	<path class="st2" d="M54,38v-1h-2v-1h-1v-1h-1v-1h-1v5h1v1h2v1h4v-3H54z"/>
</g>
<g class="st9">
	<g class="st10">
		<path class="st1" d="M50,38h1v1h-1V38z"/>
		<path class="st1" d="M49,39h1v1h-1V39z M51,37h1v1h-1V37z"/>
		<path class="st1" d="M52,36h2v1h-2V36z"/>
		<path class="st1" d="M54,35h2v1h-2V35z"/>
	</g>
	<path class="st11" d="M52,32v1h-2v1h-1v5h1v-1h1v-1h1v-1h2v-1h2v-3H52z"/>
	<g class="st10">
		<path class="st0" d="M49,33h1v1h-1V33z"/>
		<path class="st0" d="M50,32h2v1h-2V32z M50,39h1v1h-1V39z"/>
		<path class="st0" d="M49,40h1v1h-1V40z M51,38h1v1h-1V38z"/>
		<path class="st0" d="M52,37h2v1h-2V37z M52,31h4v1h-4V31z"/>
		<path class="st0" d="M56,32h1v4h-1V32z"/>
		<path class="st0" d="M54,36h2v1h-2V36z"/>
	</g>
	<g class="st10">
		<path class="st1" d="M13,38h1v1h-1V38z"/>
		<path class="st1" d="M14,39h1v1h-1V39z M12,37h1v1h-1V37z"/>
		<path class="st1" d="M10,36h2v1h-2V36z"/>
		<path class="st1" d="M8,35h2v1H8V35z"/>
	</g>
	<path class="st11" d="M8,32v3h2v1h2v1h1v1h1v1h1v-5h-1v-1h-2v-1H8z"/>
	<g class="st10">
		<path class="st0" d="M14,33h1v1h-1V33z"/>
		<path class="st0" d="M12,32h2v1h-2V32z M13,39h1v1h-1V39z"/>
		<path class="st0" d="M14,40h1v1h-1V40z M12,38h1v1h-1V38z"/>
		<path class="st0" d="M10,37h2v1h-2V37z M8,31h4v1H8V31z"/>
		<path class="st0" d="M7,32h1v4H7V32z"/>
		<path class="st0" d="M8,36h2v1H8V36z"/>
	</g>
</g>
<g>
	<path class="st12" d="M14,20h-1v-2H9v6h2v4h2v2h2V20H14z"/>
	<path class="st13" d="M14,22h-1v-2h-2v4h2v4h2v-6H14z"/>
	<g>
		<path class="st14" d="M13,22h-2v2h2v-1V22z"/>
		<path class="st14" d="M14,24h-1v4h2v-4H14z"/>
	</g>
	<path class="st12" d="M50,20h1v-2h4v6h-2v4h-2v2h-2V20H50z"/>
	<path class="st13" d="M50,22h1v-2h2v4h-2v4h-2v-6H50z"/>
	<g>
		<path class="st14" d="M51,22h2v2h-2v-1V22z"/>
		<path class="st14" d="M50,24h1v4h-2v-4H50z"/>
	</g>
</g>
<g>
	<path d="M48,23v1h-1v1h-3v-1h-1v-2h-1v-1h-1v-1h-1v-1h-2v1h-1v1h-1v1h-1v2h-1v1h-4v-1h-1v-2h-1v-1h-1v-1h-1v-1h-2v1h-1v1h-1v1h-1v2
		h-1v1h-3v-1h-1v-1h-1v2h1v1h1v1h3v1h1v1h1v1h1v1h1v1h2v-1h1v-1h1v-1h1v-1h1v-1h4v1h1v1h1v1h1v1h1v1h2v-1h1v-1h1v-1h1v-1h1v-1h3v-1
		h1v-1h1v-2H48z"/>
	<g>
		<path class="st15" d="M20,26v2h1v1h1v1h1v1h1v1h1v-6H20z"/>
		<path class="st15" d="M29,22h-1v-1h-1v-1h-1v-1h-1v7h5v-2h-1V22z M34,26v2h1v1h1v1h1v1h1v1h1v-6H34z"/>
		<path class="st15" d="M43,24v-2h-1v-1h-1v-1h-1v-1h-1v7h5v-2H43z"/>
	</g>
	<path d="M25,26v6h1v-1h1v-1h1v-1h1v-1h1v-1h4v-1H25z M48,24h1v1h-1V24z M39,26v6h1v-1h1v-1h1v-1h1v-1h1v-1h3v-1H39z"/>
	<path d="M47,25h1v1h-1V25z M15,24h1v1h-1V24z M17,26h3v1h-3V26z"/>
	<path d="M16,25h1v1h-1V25z"/>
	<g>
		<path class="st16" d="M24,20h-1v1h-1v1h-1v2h-1v1h-3v1h8v-7h-1V20z M38,20h-1v1h-1v1h-1v2h-1v1h-4v1h9v-7h-1V20z M47,24h1v1h-1V24
			z"/>
		<path class="st16" d="M48,23h1v1h-1V23z M44,25h3v1h-3V25z M16,24h1v1h-1V24z"/>
		<path class="st16" d="M15,23h1v1h-1V23z"/>
	</g>
</g>
<g>
	<path class="st17" d="M49,20v-8h-2v-2h-2V8h-4V6h-4V4H27v2h-4v2h-4v2h-2v2h-2v8h-2v2h38v-2H49z"/>
	<path class="st18" d="M47,13v-1h-1v8h2v-7H47z M17,13h-1v7h2v-8h-1V13z M34,20h2V5h-2V20z M28,20h2V5h-2V20z M23,9h-1v11h2V8h-1V9z
		 M41,8h-1v12h2V9h-1V8z"/>
	<path class="st19" d="M44,10V9h-1v11h2V10H44z M20,10h-1v10h2V9h-1V10z M31,20h2V5h-2V20z M27,7h-2v13h2V7z M37,7v13h2V7H37z"/>
	<path class="st20" d="M37,10V9h-1V8h-1V7h-6v1h-1v1h-1v1h-1v6h1v1h1v1h1v1h6v-1h1v-1h1v-1h1v-6H37z"/>
	<path class="st16" d="M36,10V9h-1V8h-6v1h-1v1h-1v6h1v1h1v1h6v-1h1v-1h1v-6H36z"/>
	<path class="st21" d="M35,11v-1h-1V9h-4v1h-1v1h-1v4h1v1h1v1h4v-1h1v-1h1v-4H35z"/>
	<path class="st22" d="M34,11v-1h-4v1h-1v4h1v1h4v-1h1v-4H34z"/>
	<path class="st2" d="M30,11v4h4v-4H30z"/>
</g>
<g>
	<g>
		<path class="st23" d="M7,31v3H3v10h7V34H8v-3H7z"/>
		<path class="st23" d="M8,30h3v1H8V30z"/>
	</g>
	<path class="st24" d="M4,35v8h5v-8H4z"/>
	<path class="st25" d="M5,37v3h3v-3H5z"/>
</g>
<g>
	<g transform="scale(-1, 1) translate(-50, 0)">
		<path class="st12" d="M-1,27v-1h-1v-1h-1v-1h-1v1h-1v1h-1v1h-1v2h1v1h1v1h1v24h1V31h1v-1h1v-1h1v-2H-1z"/>
		<path class="st26" d="M-6,27h5v2h-5V27z"/>
		<path class="st27" d="M-5,26h3v4h-3V26z"/>
		<path class="st14" d="M-4,25v6h1v-6H-4z"/>
	</g>
</g>
</svg>
