<?xml version="1.0" encoding="utf-8"?>
<!-- Generator: Adobe Illustrator 25.3.1, SVG Export Plug-In . SVG Version: 6.00 Build 0)  -->
<svg version="1.1" id="Layer_1" xmlns="http://www.w3.org/2000/svg" xmlns:xlink="http://www.w3.org/1999/xlink" x="0px" y="0px"
	 viewBox="0 0 64 64" style="enable-background:new 0 0 64 64;" xml:space="preserve">
<style type="text/css">
	.st0{fill:#2664BA;}
	.st1{fill:#D4E0F1;}
	.st2{fill:#FFFFFF;}
	.st3{fill:#F696C6;}
	.st4{opacity:0.25;enable-background:new    ;}
	.st5{fill:#009696;}
	.st6{fill:#00FFE1;}
	.st7{fill:#323232;}
	.st8{display:none;}
	.st9{display:inline;}
	.st10{display:inline;fill:#FFFFFF;}
	.st11{fill:#C8C8C8;}
	.st12{fill:#C260FF;}
	.st13{fill:#F27322;}
	.st14{display:inline;fill:#323232;}
	.st15{fill:#BEBEBC;}
	.st16{fill:#00FF00;}
	.st17{fill:#00AAFF;}
	.st18{fill:#281D0A;}
	.st19{fill:#876526;}
	.st20{fill:#868686;}
	.st21{fill:#483514;}
	.st22{fill:#644C1E;}
	.st23{fill:#3C3C3C;}
	.st24{fill:#EAEAEA;}
</style>
<g>
	<g>
		<path class="st0" d="M21,12h2v-2h-4v2h1H21z"/>
		<path class="st0" d="M19,14v-2h-2v2h1H19z M25,10h2V8h-4v2h1H25z"/>
		<path class="st0" d="M29,8h8V6H27v2h1H29z M45,14h2v-2h-2v1V14z"/>
		<path class="st0" d="M48,14h-1v39h-2v2h4V14H48z M37,10h4V8h-4v1V10z"/>
		<path class="st0" d="M41,12h4v-2h-4v1V12z M17,53V14h-2v41h4v-2h-1H17z"/>
		<path class="st0" d="M24,51h-5v2h5v-1V51z"/>
		<path class="st0" d="M27,53h-3v2h5v-2h-1H27z M45,51h-5v2h5v-1V51z"/>
		<path class="st0" d="M35,51h-6v2h6v-1V51z"/>
		<path class="st0" d="M38,53h-3v2h5v-2h-1H38z"/>
	</g>
	<g>
		<path class="st1" d="M18,43v6h2v-1h2v1h2v2h-5v2h-2V14h2v1h-1v26V43z"/>
		<path class="st1" d="M27,51h-3v2h5v-2h-1H27z M38,51h-3v2h5v-2h-1H38z"/>
		<path class="st1" d="M35,49h-2v-1h-2v1h-2v2h6v-1V49z M25,11h2v-1h-4v1h1H25z M21,13h2v-1h-4v1h1H21z M45,44v5h-1v-1h-2v1h-2v2h5
			v2h2V14h-2v29V44z"/>
		<path class="st1" d="M37,8H27v1h5v1h5V9V8z M45,12h-4v2h4v-1V12z"/>
		<path class="st1" d="M41,10h-4v2h4v-1V10z"/>
	</g>
	<path class="st2" d="M44,14h-3v-2h-4v-2h-5V9h-5v2h-4v2h-4v2h-1v34h2v-1h2v1h2v2h5v-2h2v-1h2v1h2v2h5v-2h2v-1h2v1h1V14H44z"/>
</g>
<path class="st3" d="M21,32v2h2v-2h-1H21z M42,32h-1v2h2v-2H42z"/>
<g>
	<path class="st0" d="M29,32h-2v2h2v-1V32z"/>
	<path class="st0" d="M33,34h-4v2h6v-2h-1H33z"/>
	<path class="st0" d="M36,32h-1v2h2v-2H36z"/>
</g>
<g>
	<path class="st4" d="M25,58h-6v1h1v1h24v-1h1v-1h-1H25z"/>
</g>
<g>
	<g>
		<path class="st0" d="M40,23v2h1v-2H40z"/>
		<path class="st0" d="M39,24v-1h-2v2h1v1h2v-1h-1V24z M26,24v1h1v-2h-1V24z"/>
		<path class="st0" d="M25,24v-1h-2v2h1v1h2v-1h-1V24z"/>
	</g>
	<g>
		<path class="st0" d="M35,23h-1v1h1V23z M35,25h-1v1h1V25z M44,23h-1v1h1V23z"/>
		<path class="st0" d="M45,24h-1v1h1V24z M37,23h6v-1h-8v1H37z"/>
		<path class="st0" d="M34,24h-1v1h1V24z M44,25h-1v1h1V25z"/>
		<path class="st0" d="M41,26h-6v1h8v-1H41z M21,23h-1v1h1V23z M21,25h-1v1h1V25z M30,23h-1v1h1V23z"/>
		<path class="st0" d="M31,24h-1v1h1V24z M23,23h6v-1h-8v1H23z"/>
		<path class="st0" d="M20,24h-1v1h1V24z M30,25h-1v1h1V25z"/>
		<path class="st0" d="M27,26h-6v1h8v-1H27z"/>
	</g>
</g>
<g>
	<path class="st0" d="M30,15v2h3v1h-3v1h1.5v1h1v-1H34v-3h-3v-1h3v-1h-1.5v-1h-1v1H30V15z M34,20h1v1h-1V20z"/>
	<path class="st0" d="M35,19h1v1h-1V19z"/>
	<path class="st0" d="M36,16v3h1v-5h-1v1V16z M34,12h1v1h-1V12z"/>
	<path class="st0" d="M35,13h1v1h-1V13z M28,18v-4h-1v5h1V18z M29,20h1v1h-1V20z"/>
	<path class="st0" d="M28,19h1v1h-1V19z M29,12h1v1h-1V12z"/>
	<path class="st0" d="M28,13h1v1h-1V13z"/>
</g>
<g>
	<path class="st5" d="M49,33h-3v1h-1v1h-1v1h-1v1h-1v1h-1v1h-2v1h-2v1h-3v1h-4v-1h-3v-1h-2v-1h-2v-1h-1v-1h-1v-1h-1v-1h-1v-1h-1v-1
		h-3v20h34V33z"/>
	<g>
		<path class="st6" d="M46,34v1h-1v1h-1v1h-1v1h-1v1h-1v1h-2v1h-2v1h-3v1h-4v-1h-3v-1h-2v-1h-2v-1h-1v-1h-1v-1h-1v-1h-1v-1h-1v-1h-2
			v18h32V34H46z M36,51h-2v-1h-1v1h-2v-1h-1v1h-2v-5h1v-1h1v-1h4v1h1v1h1V51z"/>
		<path class="st6" d="M35,46h-1v-1h-4v1h-1v4h1v-1h1v1h2v-1h1v1h1V46z M32.5,49h-1v-3h1V49z"/>
	</g>
	<path class="st7" d="M49,33h-3v1h-1v1h-2v1h-2v1h-2v1h-2v15h12V33z M15,53h12V38h-2v-1h-2v-1h-2v-1h-2v-1h-1v-1h-3V53z"/>
	<path d="M46,34v1h-1v1h-2v1h1v1h1v1h-1v1h-1v1h-1v1h-1v1h-1v1h-1v1h-1v7h10V34H46z M46,48h-4v-1h4V48z"/>
	<path d="M40,43v-1h1v-1h1v-1h1v-1h1v-1h-1v-1h-2v1h-2v1h-1v5h1v-1H40z M25,38h-2v-1h-2v1h-1v1h1v1h1v1h1v1h1v1h1v1h1v-5h-1V38z"/>
	<path d="M24,43h-1v-1h-1v-1h-1v-1h-1v-1h-1v-1h1v-1h1v-1h-2v-1h-1v-1h-2v18h10v-7h-1v-1h-1V43z M22,48h-4v-1h4V48z"/>
</g>
<g class="st8">
	<g class="st9">
		<path class="st0" d="M19,42h1v1h-1V42z M20,36h1v1h-1V36z"/>
		<path class="st0" d="M21,37h1v1h-1V37z M26,40v4h1v-4H26z M21,43h-1v1h2v-1H21z"/>
		<path class="st0" d="M24,44h-2v1h4v-1h-1H24z M25,39h-1v1h2v-1H25z"/>
		<path class="st0" d="M23,38h-1v1h2v-1H23z"/>
	</g>
	<g class="st9">
		<path class="st1" d="M19,43h1v1h-1V43z M24,45h-2v1h4v-1h-1H24z"/>
		<path class="st1" d="M27,41v3h1v-3H27z M21,44h-1v1h2v-1H21z"/>
		<path class="st1" d="M26,44h1v1h-1V44z M19,41h-1v2h1v-1V41z"/>
	</g>
	<g class="st9">
		<path class="st0" d="M44,42h1v1h-1V42z M43,36h1v1h-1V36z"/>
		<path class="st0" d="M42,37h1v1h-1V37z"/>
		<path class="st0" d="M42,39v-1h-2v1h1H42z M42,43v1h2v-1h-1H42z"/>
		<path class="st0" d="M40,44h-2v1h4v-1h-1H40z"/>
		<path class="st0" d="M38,42v-2h-1v4h1v-1V42z"/>
		<path class="st0" d="M40,40v-1h-2v1h1H40z"/>
	</g>
	<g class="st9">
		<path class="st1" d="M42,44v1h2v-1h-1H42z M37,42v-1h-1v3h1v-1V42z"/>
		<path class="st1" d="M40,45h-2v1h4v-1h-1H40z"/>
		<path class="st1" d="M37,44h1v1h-1V44z M44,43h1v1h-1V43z"/>
	</g>
</g>
<g>
	<g>
		<path class="st0" d="M14,40h1v1h-1V40z M13,34h1v1h-1V34z"/>
		<path class="st0" d="M14,33h1v1h-1V33z M12,35h1v1h-1V35z M7,38h1v4H7V38z M12,41h2v1h-2V41z"/>
		<path class="st0" d="M8,42h4v1H8V42z M8,37h2v1H8V37z"/>
		<path class="st0" d="M10,36h2v1h-2V36z"/>
	</g>
	<g>
		<path class="st1" d="M14,39h1v1h-1V39z"/>
		<path class="st1" d="M12,40h2v1h-2V40z"/>
		<path class="st1" d="M8,41h4v1H8V41z"/>
	</g>
	<path class="st2" d="M8,38v3h4v-1h2v-1h1v-5h-1v1h-1v1h-1v1h-2v1H8z"/>
	<g>
		<path class="st0" d="M49,40h1v1h-1V40z M50,34h1v1h-1V34z"/>
		<path class="st0" d="M49,33h1v1h-1V33z M51,35h1v1h-1V35z M56,38h1v4h-1V38z M50,41h2v1h-2V41z"/>
		<path class="st0" d="M52,42h4v1h-4V42z M54,37h2v1h-2V37z"/>
		<path class="st0" d="M52,36h2v1h-2V36z"/>
	</g>
	<g>
		<path class="st1" d="M49,39h1v1h-1V39z"/>
		<path class="st1" d="M50,40h2v1h-2V40z"/>
		<path class="st1" d="M52,41h4v1h-4V41z"/>
	</g>
	<path class="st2" d="M54,38v-1h-2v-1h-1v-1h-1v-1h-1v5h1v1h2v1h4v-3H54z"/>
</g>
<g class="st8">
	<g class="st9">
		<path class="st1" d="M50,38h1v1h-1V38z"/>
		<path class="st1" d="M49,39h1v1h-1V39z M51,37h1v1h-1V37z"/>
		<path class="st1" d="M52,36h2v1h-2V36z"/>
		<path class="st1" d="M54,35h2v1h-2V35z"/>
	</g>
	<path class="st10" d="M52,32v1h-2v1h-1v5h1v-1h1v-1h1v-1h2v-1h2v-3H52z"/>
	<g class="st9">
		<path class="st0" d="M49,33h1v1h-1V33z"/>
		<path class="st0" d="M50,32h2v1h-2V32z M50,39h1v1h-1V39z"/>
		<path class="st0" d="M49,40h1v1h-1V40z M51,38h1v1h-1V38z"/>
		<path class="st0" d="M52,37h2v1h-2V37z M52,31h4v1h-4V31z"/>
		<path class="st0" d="M56,32h1v4h-1V32z"/>
		<path class="st0" d="M54,36h2v1h-2V36z"/>
	</g>
	<g class="st9">
		<path class="st1" d="M13,38h1v1h-1V38z"/>
		<path class="st1" d="M14,39h1v1h-1V39z M12,37h1v1h-1V37z"/>
		<path class="st1" d="M10,36h2v1h-2V36z"/>
		<path class="st1" d="M8,35h2v1H8V35z"/>
	</g>
	<path class="st10" d="M8,32v3h2v1h2v1h1v1h1v1h1v-5h-1v-1h-2v-1H8z"/>
	<g class="st9">
		<path class="st0" d="M14,33h1v1h-1V33z"/>
		<path class="st0" d="M12,32h2v1h-2V32z M13,39h1v1h-1V39z"/>
		<path class="st0" d="M14,40h1v1h-1V40z M12,38h1v1h-1V38z"/>
		<path class="st0" d="M10,37h2v1h-2V37z M8,31h4v1H8V31z"/>
		<path class="st0" d="M7,32h1v4H7V32z"/>
		<path class="st0" d="M8,36h2v1H8V36z"/>
	</g>
</g>
<g>
	<path d="M17.1,29.9v-2h-2v-3.8h2v-2h29.8v2h2v3.8h-2v2H17.1z"/>
	<path class="st11" d="M46.8,22.2v2h2v3.5h-2v2.1H17.2v-2h-2v-3.6h2v-2H46.8 M47,22H17v2h-2v4h2v2h30v-2h2v-4h-2V22z"/>
	<path d="M17,24h30v4H17V24z"/>
	<path class="st12" d="M41,24v4h2v-4H41z"/>
	<g>
		<path class="st11" d="M17,22h30v2H17V22z"/>
		<path class="st11" d="M15,24h2v4h-2V24z M47,24h2v4h-2V24z"/>
		<path class="st11" d="M17,28h30v2H17V28z"/>
	</g>
</g>
<g>
	<path d="M51,22h2v2h-2V22z"/>
	<path d="M53,20v-4h-2v2h-2v-4H15v6h34v2h2v-2H53z"/>
	<g>
		<path class="st13" d="M33,18v2h2v-2H33z M45,18v2h2v-2H45z"/>
		<path class="st13" d="M21,18v2h2v-2H21z M45,16h-2v2h2V16z"/>
		<path class="st13" d="M21,16h-2v2h2V16z M33,16h-2v2h2V16z"/>
		<path class="st13" d="M43,14h-2v2h2V14z M19,14h-2v2h2V14z M31,14h-2v2h2V14z"/>
	</g>
</g>
<g>
	<g class="st8">
		<path class="st14" d="M48.7,41v-8H50v-1h2v7h-1v1h-1v1H48.7z"/>
		<path class="st9" d="M49,40v-6h1v-1h1v6h-1v1H49z"/>
	</g>
	<g>
		<path class="st7" d="M50,33v1h1v1h1v7h-2v-1h-1.3v-8H50z"/>
		<path d="M50,34v1h1v6h-1v-1h-1v-6H50z"/>
	</g>
	<g class="st8">
		<path class="st14" d="M14,41v-1h-1v-1h-1v-7h2v1h1.3v8H14z"/>
		<path class="st9" d="M14,40v-1h-1v-6h1v1h1v6H14z"/>
	</g>
	<g>
		<path class="st7" d="M14,33v1h-1v1h-1v7h2v-1h1.3v-8H14z"/>
		<path d="M14,34v1h-1v6h1v-1h1v-6H14z"/>
	</g>
</g>
<g>
	<g>
		<path class="st15" d="M9,31h1v1H8v-1H9z"/>
		<path class="st15" d="M5,34h2v-2h1v2h4v1h-1v8h-1v1H6v-1H5v-8H4v-1H5z"/>
	</g>
	<g>
		<path class="st16" d="M7,35h1v1H7v1H6v-2H7z M8,39v2H7v1H6v-3H8z"/>
		<path class="st16" d="M8,37h1v-1h1v3H8V37z M9,41h1v2H8v-1h1V41z"/>
	</g>
	<g>
		<path class="st2" d="M8,37v2H7v-2H8z M7,42h1v1H7V42z"/>
		<path class="st2" d="M8,36h1v1H8V36z M8,41h1v1H8V41z"/>
		<path class="st2" d="M9,35h1v1H9V35z M9,39h1v2H9V39z"/>
	</g>
	<g>
		<path class="st17" d="M7,37v2H6v-2H7z M6,42h1v1H6V42z"/>
		<path class="st17" d="M7,36h1v1H7V36z M7,41h1v1H7V41z"/>
		<path class="st17" d="M8,35h1v1H8V35z M8,39h1v2H8V39z"/>
	</g>
</g>
<g>
	<g transform="scale(-1, 1) translate(-64, 0)">
		<path class="st18" d="M13,42v-1h-1v-1h-1v-1h-1v-1H9v-1H8v-1H7v-1H6v-1h1v-1h3v-1h1v-1h-1v-1H5v1H4v1H2v2H1v1H0v5h1v1h1v-1h1v-3h1
			v-1h1v1h1v1h1v1h1v1h1v1h1v1h1v1h1v1h2v-2H13z"/>
		<path class="st19" d="M12,42h1v1h-1V42z M10,40h1v1h-1V40z M8,38h1v1H8V38z M6,36h1v1H6V36z"/>
		<path class="st20" d="M4,34h1v1H4V34z"/>
		<g>
			<path class="st21" d="M13,42h1v1h-1V42z"/>
			<path class="st21" d="M12,41h1v1h-1V41z M10,39h1v1h-1V39z M8,37h1v1H8V37z M6,35h1v1H6V35z"/>
			<path class="st21" d="M11,40h1v1h-1V40z M9,38h1v1H9V38z M7,36h1v1H7V36z M5,34h1v1H5V34z"/>
		</g>
		<g>
			<path class="st18" d="M12,43h1v1h-1V43z"/>
			<path class="st18" d="M11,42h1v1h-1V42z M9,40h1v1H9V40z M7,38h1v1H7V38z M5,36h1v1H5V36z"/>
			<path class="st18" d="M10,41h1v1h-1V41z M8,39h1v1H8V39z M6,37h1v1H6V37z M4,35h1v1H4V35z"/>
		</g>
		<path class="st22" d="M13,43h1v1h-1V43z M11,41h1v1h-1V41z M9,39h1v1H9V39z M7,37h1v1H7V37z M5,35h1v1H5V35z"/>
		<g>
			<path class="st11" d="M5,32v1H4v1h2v-1h1v-1H5z"/>
			<path class="st11" d="M3,35H2v2h1v-1h1v-2H3V35z"/>
		</g>
		<g>
			<path class="st23" d="M3,32h1v1H3V32z"/>
			<path class="st23" d="M2,33h1v1H2V33z M4,31h1v1H4V31z"/>
			<path class="st23" d="M1,34h1v1H1V34z"/>
			<path class="st23" d="M0,40h1v-5H0V40z"/>
			<path class="st23" d="M1,40h1v1H1V40z"/>
			<path class="st23" d="M3,37H2v3h1V37z"/>
			<path class="st23" d="M3,36h1v1H3V36z M5,30v1h5v-1H5z"/>
			<path class="st23" d="M10,31h1v1h-1V31z"/>
			<path class="st23" d="M7,32v1h3v-1H7z"/>
			<path class="st23" d="M6,33h1v1H6V33z"/>
		</g>
		<g>
			<path class="st24" d="M3,33h1v1H3V33z"/>
			<path class="st24" d="M4,32h1v1H4V32z M2,34h1v1H2V34z"/>
			<path class="st24" d="M1,40h1v-5H1V40z M5,31v1h5v-1H5z"/>
		</g>
		<path class="st20" d="M2,32h1v1H2V32z"/>
	</g>
</g>
</svg>
