<svg xmlns="http://www.w3.org/2000/svg" viewBox="0 0 64 64"><path d="M44,58H19v1h1v1h24v-1h1v-1H44z" opacity=".25" enable-background="new"/><path d="M47 14v-2h-2v-2h-4V8h-4V6H27v2h-4v2h-4v2h-2v2h-2v41h4v-2h5v2h5v-2h6v2h5v-2h5v2h4V14z" fill="#64438e"/><path d="M45 14v-2h-4v-2h-4V8H27v2h-4v2h-4v2h-2v39h2v-2h5v2h5v-2h6v2h5v-2h5v2h2V14z" fill="#edd3fd"/><path d="M18,49h2v-1h2v1h2v2h5v-2h2v-1h2v1h2v2h5v-2h2v-1h2v1h1V14h-4v-2h-4v-2h-5V9h-5v2h-4v2h-4v2h-1V49z" fill="#fff"/><path d="M23 28v2h4v-2h2v-4h-2v-2h-4v2h-2v4h2zm12-4v4h2v2h4v-2h2v-4h-2v-2h-4v2h-2z" fill="#64438e"/><path d="M21 32v2h2v-2h-2zm20 0v2h2v-2h-2z" fill="#f696c6"/><g fill="#64438e"><path d="M29,32h-2v2h2V32z"/><path d="M29,34v2h6v-2H29z"/><path d="M35 32v2h2v-2h-2zm0-17v-1h-1v-1h-1v-1h-2v1h-1v1h-1v1h-1v4h1v1h1v1h1v1h2v-1h1v-1h1v-1h1v-4z"/></g><g fill="#dea8ff"><path d="M29,17v2h1v1h1v1h1v-4H29z"/><path d="M34,15v-1h-1v-1h-1v4h3v-2H34z"/></g><path d="M32,17v4h1v-1h1v-1h1v-2H32z" fill="#c260ff"/><path d="M31,13v1h-1v1h-1v2h3v-4H31z" fill="#edd3fd"/><path d="M8 38v-1h2v-1h2v-1h1v-1h1v-1h1v8h-1v1h-2v1H8v-1H7v-4z" fill="#64438e"/><path d="M10 38v-1h2v-1h1v-1h1v-1h1v6h-1v1h-2v1H8v-4z" fill="#edd3fd"/><path d="M8,38v3h4v-1h2v-1h1v-5h-1v1h-1v1h-1v1h-2v1H8z" fill="#fff"/><path d="M56 38v-1h-2v-1h-2v-1h-1v-1h-1v-1h-1v8h1v1h2v1h4v-1h1v-4z" fill="#64438e"/><path d="M54 38v-1h-2v-1h-1v-1h-1v-1h-1v6h1v1h2v1h4v-4z" fill="#edd3fd"/><path d="M54,38v-1h-2v-1h-1v-1h-1v-1h-1v5h1v1h2v1h4v-3H54z" fill="#fff"/><path d="M27 41h-2v-2h-2v-2h-2v-2h-2v-2h-1v-2h-4v1h1v1h-.5v8h.5v14h4v-2h5v2h5V41h-2zm19-10v2h-1v2h-2v2h-2v2h-2v2h-4v14h5v-2h5v2h4V41h.5v-8H49v-1h1v-1h-4z" fill="#3c0000"/><path d="M25 43h-2v-2h-2v-2h-2v-2h-2v-2h-1v18h3v-2h5v2h1v-4h2v-2h-2v-4zm-1 4h-2v-1h2v1zm-6-1h3v1h-3v-1zm0-2h1v1h-1v-1zm0-2h1v1h-1v-1zm3 3h-1v-1h1v1zm2 0h-1v-1h1v1zm-2-2h-1v-1h1v1zm-1 7h-2v-1h3v1h-1zm4 0h-2v-1h2v1zm23-15v2h-2v2h-2v2h-2v2h-2v4h-2v2h2v4h1v-2h5v2h3V35h-1zm-1 8h-1v-1h1v1zm0 2h-1v-1h1v1zm0 2h-3v-1h3v1zm-6-1h2v1h-2v-1zm3-2h1v1h-1v-1zm1-2v1h-1v-1h1zm-2 2v1h-1v-1h1zm-1 6h-1v-1h2v1h-1zm3 0h-1v-1h3v1h-2z" fill="#500"/><g fill="#fcb040"><path d="M21 37h-2v2h2v-2zm-3 7h1v1h-1zm1 2h-1v1h3v-1h-2zm1-2h1v1h-1z"/><path d="M22 44h1v1h-1zm0 2v1h2v-1h-2zm1-7h-2v2h2v-2z"/><path d="M25 41h-2v2h2v-2zm-7 1h1v1h-1z"/><path d="M19 35h-2v2h2v-2zm6 8v4h2v-4h-2zm-6 6h-1v1h3v-1h-2zm3 0v1h2v-1h-2z"/><path d="M25 49v4h2v-4h-2zm-5-7h1v1h-1zm-3-9h-2v2h2v-2zm26 4v2h2v-2h-2zm2 7h1v1h-1zm-1 2h-1v1h3v-1h-2zm-1-2h1v1h-1zm-2 0h1v1h-1z"/><path d="M40 46v1h2v-1h-2zm1-7v2h2v-2h-2z"/><path d="M39 41v2h2v-2h-2z"/><path d="M37 43v4h2v-4h-2zm8-1h1v1h-1zm0-7v2h2v-2h-2zm-1 14h-1v1h3v-1h-2z"/><path d="M40 49v1h2v-1h-2zm-3 0v4h2v-4h-2zm6-7h1v1h-1zm4-9v2h2v-2h-2z"/></g><path d="M14 33v1h-1v1h-1v1h-2v7h2v-1h2v-1h1v-8h-1z" fill="#3c0000"/><path d="M11 36v7h1v-7h-1z" fill="#fcb040"/><path d="M14 34v6h1v-6h-1zm-2 7h1v-5h-1v5z" fill="#500"/><path d="M50 33v1h1v1h1v1h2v7h-2v-1h-2v-1h-1v-8h1z" fill="#3c0000"/><path d="M53 36v7h-1v-7h1z" fill="#fcb040"/><path d="M50 34v6h-1v-6h1zm2 7h-1v-5h1v5z" fill="#500"/><path d="M9 35v1H8v1H7v1H6v-1H5v-1H3v1H2v1H1v3h1v1h2v-1H3v-1H2v-1h1v-1h2v1h1v2h1v1h1v1h1v1h1v-9H9z" fill="#abadb0"/><path d="M7 37v5h1v-5H7z" fill="#85888c"/><path d="M9 35v9h1v-9H9z" fill="#353941"/><path d="M8 36v7h1v-7H8z" fill="#606469"/><path d="M15 21v2h19v5h1v2h2v1h3v-1h2v-2h1v-5h6v-2H15z" fill="#0e0c15"/><path d="M51 14v-2h-2V6h-2V4h-2V2h-2V0H21v2h-2v2h-2v2h-2v6h-2v2H7v4h2v2h46v-2h2v-4h-6z"/><g fill="#fff"><path d="M37 16h2v-2h-2v2zm-12-2v2h2v-2h-2zm2-8h-2v2h2V6z"/><path d="M36 7h-1V6h-6v1h-1v1h-1v6h1v2h1v-1h1v1h1v-1h2v1h1v-1h1v1h1v-2h1V8h-1V7zm-1 3h-1v1h-1V9h2v1zm-6-1h2v2h-1v-1h-1V9z"/><path d="M37 6v2h2V6h-2z"/></g><g fill="#fcb040"><path d="M47 14v2h10v-2H47zM7 14v2h10v-2H7z"/><path d="M17 6v8h2V6h-2z"/><path d="M19 4v2h2V4h-2zm26 0h-2v2h2V4z"/><path d="M43 2H21v2h22V2zm4 4h-2v8h2V6z"/></g></svg>