<svg xmlns="http://www.w3.org/2000/svg" viewBox="0 0 64 64"><path d="M21 12h2v-2h-4v2h1 1z"/><path d="M19 14v-2h-2v2h1 1zm6-4h2V8h-4v2h1 1z"/><path d="M29 8h8V6H27v2h1 1zm16 6h2v-2h-2v1 1z"/><path d="M48 14h-1v39h-2v2h4V14h-1zm-11-4h4V8h-4v1 1z"/><path d="M41 12h4v-2h-4v1 1zM17 53V14h-2v41h4v-2h-1-1z"/><path d="M24 51h-5v2h5v-1-1z"/><path d="M27 53h-3v2h5v-2h-1-1zm18-2h-5v2h5v-1-1z"/><path d="M35 51h-6v2h6v-1-1z"/><path d="M38 53h-3v2h5v-2h-1-1z"/><g fill="#fbdfeb"><path d="M18 43v6h2v-1h2v1h2v2h-5v2h-2V14h2v1h-1v26 2z"/><path d="M27 51h-3v2h5v-2h-1-1zm11 0h-3v2h5v-2h-1-1z"/><path d="M35 49h-2v-1h-2v1h-2v2h6v-1-1zM25 11h2v-1h-4v1h1 1zm-4 2h2v-1h-4v1h1 1zm24 31v5h-1v-1h-2v1h-2v2h5v2h2V14h-2v29 1z"/><path d="M37 8H27v1h5v1h5V9 8zm8 4h-4v2h4v-1-1z"/><path d="M41 10h-4v2h4v-1-1z"/></g><path d="M44,14h-3v-2h-4v-2h-5V9h-5v2h-4v2h-4v2h-1v34h2v-1h2v1h2v2h5v-2h2v-1h2v1h2v2h5v-2h2v-1h2v1h1V14H44z" fill="#fff"/><path d="M21 32v2h2v-2h-1-1zm21 0h-1v2h2v-2h-1z" fill="#f696c6"/><path d="M29 32h-2v2h2v-1-1z"/><path d="M33 34h-4v2h6v-2h-1-1z"/><path d="M36,32h-1v2h2v-2H36z"/><path d="M25,58h-6v1h1v1h24v-1h1v-1h-1H25z" opacity=".25" enable-background="new"/><path d="M35.5 20h1v-1h1v-5h-1v-1h-1v-1h-1v-1h-5v1h-1v1h-1v1h-1v5h1v1h1v1h1v1h5v-1h1v-1zm0-2h-1v1h-4v-1h-1v-3h1v-1h4v1h1v3z"/><path d="M28.5,15h1v-1h1v-1h3v-1h-4v1h-1v1h-1v5h1v1h1v1h4v-1h-3v-1h-1v-1h-1V15z" fill="#e51b6d"/><path d="M27 23h-1-1-1-1-1-1v1 1h1 1 1 1 1 1 1 1v-1-1h-1-1zm15 0h-1-1-1-1-1-1-1v1 1h1 1 1 1 1 1 1 1v-1-1h-1z"/><path d="M24 23h2v2h-2zm14 0h2v2h-2z" fill="#51ffa8"/><path d="M14 40h1v1h-1v-1zm-1-6h1v1h-1v-1z"/><path d="M14 33h1v1h-1v-1zm-2 2h1v1h-1v-1zm-5 3h1v4H7v-4zm5 3h2v1h-2v-1z"/><path d="M8 42h4v1H8v-1zm0-5h2v1H8v-1z"/><path d="M10,36h2v1h-2V36z"/><g fill="#fbdfeb"><path d="M14,39h1v1h-1V39z"/><path d="M12,40h2v1h-2V40z"/><path d="M8,41h4v1H8V41z"/></g><path d="M8,38v3h4v-1h2v-1h1v-5h-1v1h-1v1h-1v1h-2v1H8z" fill="#fff"/><path d="M49 40h1v1h-1v-1zm1-6h1v1h-1v-1z"/><path d="M49 33h1v1h-1v-1zm2 2h1v1h-1v-1zm5 3h1v4h-1v-4zm-6 3h2v1h-2v-1z"/><path d="M52 42h4v1h-4v-1zm2-5h2v1h-2v-1z"/><path d="M52,36h2v1h-2V36z"/><g fill="#fbdfeb"><path d="M49,39h1v1h-1V39z"/><path d="M50,40h2v1h-2V40z"/><path d="M52,41h4v1h-4V41z"/></g><path d="M54,38v-1h-2v-1h-1v-1h-1v-1h-1v5h1v1h2v1h4v-3H54z" fill="#fff"/><path d="M46 33v1h-1v1h-1v1h-1v1h-1v1h-1v1h-2v1H25v-1h-2v-1h-1v-1h-1v-1h-1v-1h-1v-1h-1v-1h-3v20h34V33h-3z"/><g fill="#0f0"><path d="M17 33h1v1h-1zm2 2h1v1h-1z"/><path d="M18 34h1v1h-1zm2 2h1v1h-1z"/><path d="M21 37h1v1h-1zm3 3h1v-1h-2v1h1zm22-7h1v1h-1z"/><path d="M45 34h1v1h-1z"/><path d="M44 35h1v1h-1zm-2 2h1v1h-1z"/><path d="M43 36h1v1h-1zm-17 5h1v-1h-2v1h1zm11-1v1h2v-1h-2z"/><path d="M39 39v1h2v-1h-2zm-15 6v2h1v-3h-1v1z"/><path d="M22 38h1v1h-1zm6 5h-3v1h5v-1h-2zm13-5h1v1h-1zm-3 5h-4v1h5v-1h-1zm-6 2h1v1h-1z"/><path d="M31 44h1v1h-1z"/><path d="M32 43h1v1h-1z"/><path d="M31 42h1v1h-1zm2-2h1v1h-1z"/><path d="M32 41h1v1h-1z"/><path d="M31 40h-1v1h2v-1h-1zm-3 0h1v1h-1zm7 0h1v1h-1zm5 5v-1h-1v3h1v-2z"/><path d="M31 46h1v1h-1zm9 1h1v1h-1z"/><path d="M23 47h1v1h-1zm9 0h1v1h-1z"/><path d="M43 48h-2v1h4v-1h-2zm-22 0h-2v1h4v-1h-2zm10 0h1v1h-1z"/><path d="M32 49h1v1h-1z"/><path d="M31 50h1v1h-1zm7 2v1h1v-2h-1v1zm-2 0v1h1v-2h-1v1zm-9 0v1h1v-2h-1v1zm-2 0v1h1v-2h-1v1zm23-1v2h1v-2h-1zm-2 1v1h1v-2h-1v1zm-24-1h-3v2h5v-2h-2zm21 0h-3v2h5v-2h-2zm-12 1h1v1h-1zm-2 0v1h1v-2h-1v1zm5 0v1h1v-2h-1v1z"/><path d="M32 51h1v1h-1zm-15 1v1h1v-2h-1v1zm-2 0v1h1v-2h-1v1z"/></g><path d="M14 33v1h-1v1h-1v1h-2v7h2v-1h2v-1h1.5v-8H14z"/><g fill="#0f0"><path d="M11 37h1v1h-1zm0 2h1v1h-1z"/><path d="M10 38h1v1h-1zm0 2h1v1h-1zm0 2h1v1h-1z"/><path d="M11 41h1v1h-1zm-1-5h1v1h-1z"/></g><path d="M50 33v1h1v1h1v1h2v7h-2v-1h-2v-1h-1.5v-8H50z"/><g fill="#0f0"><path d="M52 37h1v1h-1zm0 2h1v1h-1z"/><path d="M53 38h1v1h-1zm0 2h1v1h-1zm0 2h1v1h-1z"/><path d="M52 41h1v1h-1zm1-5h1v1h-1z"/></g><path d="M30 23h-1v-1h-7v1h-1v1h-1v4h1v1h1v1h7v-1h1v-1h1v-4h-1v-1zm13 1v-1h-1v-1h-7v1h-1v1h-1v4h1v1h1v1h7v-1h1v-1h1v-4h-1z"/><path d="M25 24v1h1v-2h-1v1zm0 2h1v1h-1zm2 0v1h1v-2h-1v1zm0-3h1v1h-1zm-4 0h1v1h-1zm-2 3v1h1v-2h-1v1zm2 0v1h1v-2h-1v1zm0 2h1v1h-1zm6-2v1h1v-2h-1v1zm-2 2h1v1h-1zm-2 0h1v1h-1zm13-4v1h1v-2h-1v1zm0 2h1v1h-1zm2 0v1h1v-2h-1v1zm0-3h1v1h-1zm-4 0h1v1h-1zm-2 3v1h1v-2h-1v1zm2 0v1h1v-2h-1v1zm0 2h1v1h-1zm6-3v2h1v-2h-1zm-2 3h1v1h-1zm-2 0h1v1h-1z" fill="#0f0"/><path d="M15 42v-1h-1v-1h1v-9h-1v-1H2v1H1v9h1v1H1v1H0v2h16v-2h-1z"/><path d="M14 42v-1H2v1H1v1h14v-1h-1z" fill="#646464"/><path d="M2 31v9h12v-9H2z" fill="#323232"/><g fill="#969696"><path d="M2 41h1v1H2zm2 0h1v1H4zm2 0h1v1H6zm2 0h1v1H8z"/><path d="M10 41h1v1h-1zm2 0h1v1h-1zM1 42h1v1H1zm2 0h1v1H3z"/><path d="M5 42h1v1H5zm2 0h1v1H7zm2 0h1v1H9zm2 0h1v1h-1zm2 0h1v1h-1z"/></g><path d="M3 34v4h1v-5H3v1zm2-1v1h1v1H5v1h1v1H5v1h2v-5H5zm3 0v1h1v1H8v1h1v1H8v1h2v-5H8zm3 0v1h1v4h1v-5h-2z" fill="#0f0"/></svg>