<svg xmlns="http://www.w3.org/2000/svg" xmlns:xlink="http://www.w3.org/1999/xlink" viewBox="0 0 64 64"><path d="M44,58H19v1h1v1h24v-1h1v-1H44z" opacity=".25" enable-background="new"/><path d="M47 14v-2h-2v-2h-4V8h-4V6H27v2h-4v2h-4v2h-2v2h-2v41h4v-2h5v2h5v-2h6v2h5v-2h5v2h4V14z" fill="#64438e"/><path d="M45 14v-2h-4v-2h-4V8H27v2h-4v2h-4v2h-2v39h2v-2h5v2h5v-2h6v2h5v-2h5v2h2V14z" fill="#edd3fd"/><path d="M18,49h2v-1h2v1h2v2h5v-2h2v-1h2v1h2v2h5v-2h2v-1h2v1h1V14h-4v-2h-4v-2h-5V9h-5v2h-4v2h-4v2h-1V49z" fill="#fff"/><path d="M23 28v2h4v-2h2v-4h-2v-2h-4v2h-2v4h2zm12-4v4h2v2h4v-2h2v-4h-2v-2h-4v2h-2z" fill="#64438e"/><path d="M21 32v2h2v-2h-2zm20 0v2h2v-2h-2z" fill="#f696c6"/><g fill="#64438e"><path d="M29,32h-2v2h2V32z"/><path d="M29,34v2h6v-2H29z"/><path d="M35 32v2h2v-2h-2zm0-17v-1h-1v-1h-1v-1h-2v1h-1v1h-1v1h-1v4h1v1h1v1h1v1h2v-1h1v-1h1v-1h1v-4z"/></g><g fill="#dea8ff"><path d="M29,17v2h1v1h1v1h1v-4H29z"/><path d="M34,15v-1h-1v-1h-1v4h3v-2H34z"/></g><path d="M32,17v4h1v-1h1v-1h1v-2H32z" fill="#c260ff"/><path d="M31,13v1h-1v1h-1v2h3v-4H31z" fill="#edd3fd"/><path d="M8 38v-1h2v-1h2v-1h1v-1h1v-1h1v8h-1v1h-2v1H8v-1H7v-4z" fill="#64438e"/><path d="M10 38v-1h2v-1h1v-1h1v-1h1v6h-1v1h-2v1H8v-4z" fill="#edd3fd"/><path d="M8,38v3h4v-1h2v-1h1v-5h-1v1h-1v1h-1v1h-2v1H8z" fill="#fff"/><path d="M56 38v-1h-2v-1h-2v-1h-1v-1h-1v-1h-1v8h1v1h2v1h4v-1h1v-4z" fill="#64438e"/><path d="M54 38v-1h-2v-1h-1v-1h-1v-1h-1v6h1v1h2v1h4v-4z" fill="#edd3fd"/><path d="M54,38v-1h-2v-1h-1v-1h-1v-1h-1v5h1v1h2v1h4v-3H54z" fill="#fff"/><path d="M48 33v1h-2v1h-2v1h-2v1h-2v1h-2v1h-2v1h-8v-1h-2v-1h-2v-1h-2v-1h-2v-1h-2v-1h-2v-1h-1v22h4v-2h5v2h5v-2h6v2h5v-2h5v2h4V33z" fill="#0050aa"/><path d="M35 51h5v1h-5zm0-2h5v1h-5zm0-2h5v1h-5zm-11 4h5v1h-5zm0-2h5v1h-5zm0-2h5v1h-5z" fill="#fff"/><path d="M28 41v-1h-2v-1h-2v-1h-2v-1h-2v-1h-2v-1h-2v-1h-1v7h1v13h2v-1h1v-1h5v-6h5v6h1V41zm20-7v1h-2v1h-2v1h-2v1h-2v1h-2v1h-2v1h-5v11h4v-6h5v6h5v1h1v1h2V41h1v-7h-1z" fill="#00beff"/><g fill="#00a0e6"><path d="M29 48h1v1h-1v-1zm0-2h1v1h-1v-1zm0-4h1v1h-1v-1zm0 2h1v1h-1v-1zm0 6h1v1h-1v-1zm-6-2h1v1h-1v-1zm11-1h1v1h-1v-1z"/><path d="M33 48h1v1h-1v-1zm-13-1h1v1h-1v-1z"/><path d="M19 48h1v1h-1v-1zm-3-1h1v1h-1v-1z"/><path d="M17,46h1v1h-1V46z"/><path d="M18,45h1v1h-1V45z"/><path d="M19,44h1v1h-1V44z"/><path d="M20,43h1v1h-1V43z"/><path d="M21,42h1v1h-1V42z"/><path d="M22,41h1v1h-1V41z"/><path d="M23,40h1v1h-1V40z"/><use xlink:href="#B"/><use xlink:href="#B" x="-2"/><use xlink:href="#B" x="-4"/><use xlink:href="#B" x="-6"/><path d="M16,39h1v1h-1V39z"/><path d="M15,38h1v1h-1V38z"/><path d="M16 37h1v1h-1v-1zm0 4h1v1h-1v-1z"/><path d="M17,42h1v1h-1V42z"/><path d="M18 41h1v1h-1v-1zm-2 4h1v1h-1v-1zm0-2h1v1h-1v-1z"/><path d="M17,44h1v1h-1V44z"/><path d="M18,43h1v1h-1V43z"/><path d="M19,42h1v1h-1V42z"/><path d="M20 41h1v1h-1v-1zm5-1h1v1h-1v-1zm2 0h1v1h-1v-1zm10 0h1v1h-1v-1z"/><path d="M38,39h1v1h-1V39z"/><path d="M39,40h1v1h-1V40z"/><path d="M40,39h1v1h-1V39z"/><path d="M41,40h1v1h-1V40z"/><path d="M42,39h1v1h-1V39z"/><path d="M43,40h1v1h-1V40z"/><path d="M44,39h1v1h-1V39z"/><path d="M45,40h1v1h-1V40z"/><path d="M46 39h1v1h-1v-1zm-23-1h1v1h-1v-1zm-2 0h1v1h-1v-1zm-2 0h1v1h-1v-1z"/><use xlink:href="#B" x="-4" y="-2"/><path d="M18 37h1v1h-1v-1zm23 1h1v1h-1v-1z"/><path d="M42,37h1v1h-1V37z"/><path d="M43,38h1v1h-1V38z"/><path d="M44,37h1v1h-1V37z"/><path d="M45,38h1v1h-1V38z"/><path d="M46,37h1v1h-1V37z"/><path d="M45 36h1v1h-1v-1zm2 4h1v1h-1v-1z"/><path d="M48,39h1v1h-1V39z"/><path d="M47,38h1v1h-1V38z"/><path d="M48,37h1v1h-1V37z"/><path d="M47,36h1v1h-1V36z"/><path d="M48 35h1v1h-1v-1zm-2 0h1v1h-1v-1zm-31 1h1v1h-1v-1z"/><path d="M16,35h1v1h-1V35z"/><path d="M15 34h1v1h-1v-1zm2 2h1v1h-1v-1zm2 0h1v1h-1v-1zm-2 12h1v1h-1v-1z"/><path d="M18,47h1v1h-1V47z"/><path d="M19,46h1v1h-1V46z"/><path d="M20,45h1v1h-1V45z"/><path d="M21,46h1v1h-1V46z"/><path d="M22,45h1v1h-1V45z"/><path d="M23,44h1v1h-1V44z"/><use xlink:href="#B" y="4"/><path d="M22 43h1v1h-1v-1zm3 1h1v1h-1v-1z"/><path d="M26,43h1v1h-1V43z"/><path d="M27,42h1v1h-1V42z"/><use xlink:href="#B" x="4" y="2"/><use xlink:href="#B" x="2" y="2"/><path d="M24 41h1v1h-1v-1zm9 1h1v1h-1v-1z"/><path d="M34,41h1v1h-1V41z"/><path d="M35,42h1v1h-1V42z"/><path d="M36,41h1v1h-1V41z"/><path d="M37,42h1v1h-1V42z"/><path d="M38,41h1v1h-1V41z"/><path d="M39,42h1v1h-1V42z"/><path d="M40 41h1v1h-1v-1zm-3 3h1v1h-1v-1z"/><path d="M38 43h1v1h-1v-1zm3 3h1v1h-1v-1z"/><path d="M42 45h1v1h-1v-1zm3 3h1v1h-1v-1z"/><path d="M46,47h1v1h-1V47z"/><path d="M47 48h1v1h-1v-1zm-2-2h1v1h-1v-1z"/><path d="M46 45h1v1h-1v-1zm-3-1h1v1h-1v-1z"/><path d="M44 43h1v1h-1v-1zm-3-1h1v1h-1v-1z"/><path d="M42,41h1v1h-1V41z"/><path d="M43,42h1v1h-1V42z"/><path d="M44,41h1v1h-1V41z"/><path d="M45,42h1v1h-1V42z"/><path d="M46,41h1v1h-1V41z"/><path d="M47 42h1v1h-1v-1zm-2 2h1v1h-1v-1z"/><path d="M46,43h1v1h-1V43z"/><path d="M47 44h1v1h-1v-1zm0 2h1v1h-1v-1zm-4 0h1v1h-1v-1z"/><path d="M44 45h1v1h-1v-1zm-5-1h1v1h-1v-1z"/><path d="M40,43h1v1h-1V43z"/><path d="M41,44h1v1h-1V44z"/><path d="M42 43h1v1h-1v-1zm-20 4h1v1h-1v-1zm4-2h1v1h-1v-1zm-2 0h1v1h-1v-1z"/><path d="M21 48h1v1h-1v-1zm7-5h1v1h-1v-1z"/><path d="M27 44h1v1h-1v-1zm-4 2h1v1h-1v-1zm21 1h1v1h-1v-1z"/><path d="M43,48h1v1h-1V48z"/><path d="M42 47h1v1h-1v-1zm-6-4h1v1h-1v-1zm-2 0h1v1h-1v-1zm6 2h1v1h-1v-1z"/><path d="M41 48h1v1h-1v-1zm-6-4h1v1h-1v-1zm-2 0h1v1h-1v-1zm5 1h1v1h-1v-1z"/><path d="M28 45h1v1h-1v-1zm8 0h1v1h-1v-1zm-2 0h1v1h-1v-1zm6 2h1v1h-1v-1zm-17 3h1v1h-1v-1zm11-1h1v1h-1v-1z"/><path d="M33 50h1v1h-1v-1zm-13-1h1v1h-1v-1z"/><path d="M19 50h1v1h-1v-1zm-3-1h1v1h-1v-1z"/><path d="M17,50h1v1h-1V50z"/><path d="M18 49h1v1h-1v-1zm27 1h1v1h-1v-1z"/><path d="M46,49h1v1h-1V49z"/><path d="M47,50h1v1h-1V50z"/><path d="M46,51h1v1h-1V51z"/><path d="M47 52h1v1h-1v-1zm-5-1h1v1h-1v-1zm-2 0h1v1h-1v-1zm4 0h1v1h-1v-1z"/><path d="M46 53h1v1h-1v-1zm-15-7h1v1h-1v-1zm0 2h1v1h-1v-1zm0-6h1v1h-1v-1zm0 2h1v1h-1v-1zm0 6h1v1h-1v-1z"/><path d="M32 41h1v1h-1v-1zm0 10h1v1h-1v-1zm2 0h1v1h-1v-1zm-18 2h1v1h-1v-1zm6-4h1v1h-1v-1z"/><path d="M21 50h1v1h-1v-1zm23-1h1v1h-1v-1z"/><path d="M43,50h1v1h-1V50z"/><path d="M42,49h1v1h-1V49z"/><path d="M41 50h1v1h-1v-1zm-21 1h1v1h-1v-1zm2 0h1v1h-1v-1zm-6 0h1v1h-1v-1z"/><path d="M17,52h1v1h-1V52z"/><path d="M18 51h1v1h-1v-1zm22-2h1v1h-1v-1zm-7-3h1v1h-1v-1zm12 6h1v1h-1v-1z"/></g><path d="M32 43h1v1h-1zm0 2h1v1h-1zm0 2h1v1h-1zm0 2h1v1h-1zM14 33v1h-1v1h-1v1h-1v7h1v-1h2v-1h1v-8z" fill="#0050aa"/><path d="M14 34v1h-1v1h-1v5h2v-1h1v-6z" fill="#00beff"/><g fill="#00a0e6"><path d="M12,39h1v1h-1V39z"/><path d="M13 40h1v1h-1v-1zm0-4h1v1h-1v-1z"/><path d="M14 35h1v1h-1v-1zm0 2h1v1h-1v-1z"/><path d="M13,38h1v1h-1V38z"/><path d="M12 37h1v1h-1v-1zm2 2h1v1h-1v-1z"/></g><path d="M52 36v-1h-1v-1h-1v-1h-1v8h1v1h2v1h1v-7z" fill="#0050aa"/><path d="M51 36v-1h-1v-1h-1v6h1v1h2v-5z" fill="#00beff"/><g fill="#00a0e6"><path d="M51 40h1v1h-1v-1zm-1-5h1v1h-1v-1zm0 2h1v1h-1v-1z"/><path d="M51 36h1v1h-1v-1zm-2 0h1v1h-1v-1zm0 2h1v1h-1v-1z"/><path d="M50,39h1v1h-1V39z"/><path d="M51 38h1v1h-1v-1zm-2-4h1v1h-1v-1z"/></g><path d="M49 18v-4h-2v-4h-2V8h-2V6h-2V4h-2V2h-4V0H23v2h-4v2h-2v2h-2v2h-2v2h-2v2H9v1H8v3h1v1h3v-1h1v-3h-1v-1h3v-2h4v2h-2v2h-2v4h-2v4h38v-4z" fill="#0050aa"/><path d="M9,13v3h3v-3H9z" fill="#fff"/><path d="M47 16v-2h-2v-4h-2V8h-2V6h-2V4h-4V2H23v2h-4v2h-2v2h4v2h2v2h-2v2h-4v2zm-32 2h34v2H15z" fill="#00a0e6"/><g fill="#00beff"><path d="M31 6h2V4h-2v2zm4 0h2V4h-2v2zm-8 0h2V4h-2v2zm-2 0V4h-2v2h2z"/><path d="M35 4V2h-2v2h2zm-8 0V2h-2v2h2zm4 0V2h-2v2h2zM21 4h-2v2h2V4zm8 4h2V6h-2v2zm4 0h2V6h-2v2zm4 0h2V6h-2v2zM25 8h2V6h-2v2z"/><path d="M23 8V6h-2v2h2zm8 2h2V8h-2v2zm4 0h2V8h-2v2zm4 0h2V8h-2v2z"/><path d="M27 10h2V8h-2v2zm-2 0V8h-2v2h2zm8 2h2v-2h-2v2zm4 0h2v-2h-2v2z"/><path d="M41 12h2v-2h-2v2zm-12 0h2v-2h-2v2zm-2 0v-2h-2v2h2zm8 2h2v-2h-2v2z"/><path d="M39 14h2v-2h-2v2zm4 0h2v-2h-2v2zm-12 0h2v-2h-2v2zm-2 0v-2h-2v2h2z"/><path d="M37 16h2v-2h-2v2zm4 0h2v-2h-2v2zm4 0h2v-2h-2v2zm-12 0h2v-2h-2v2zm-2 0v-2h-2v2h2zm-8-2h2v-2h-2v2z"/><path d="M25 16h2v-2h-2v2zm-2 0v-2h-2v2h2zm-4 0v-2h-2v2h2zm18 4h2v-2h-2v2zm4 0h2v-2h-2v2zm4 0h2v-2h-2v2zm-12 0h2v-2h-2v2zm-2 0v-2h-2v2h2zm-6 0h2v-2h-2v2zm-2 0v-2h-2v2h2zm-4 0v-2h-2v2h2zm0-14h-2v2h2V6z"/></g><path d="M50 54h1v1h-1zm10 0h1v1h-1z"/><path d="M59 43v-2h-1v-2h-1v-1h-1v-1h-2v-1h-1v5h-1v2h-1v11h1v1h1v-1h1v1h1v-1h1v1h1v-1h1v1h1v-1h1V43z"/><path d="M58,43v-2h-1v-2h-1v-1h-2v3h-1v2h-1v11h1v-1h1v1h1v-1h1v1h1v-1h1v1h1V43H58z" fill="#fff"/><path d="M4,44h6V34H4V44z"/><path d="M5,35v8h4v-8H5z" fill="#b4ecff"/><path d="M5,36v7h4v-7H5z" fill="#fff"/><defs ><path id="B" d="M24 39h1v1h-1v-1zm-3 1h1v1h-1v-1z"/></defs></svg>