<svg xmlns="http://www.w3.org/2000/svg" viewBox="0 0 64 64"><style><![CDATA[.Eb{fill:#64438e}.Ec{fill:#edd3fd}.Ed{fill:#c260ff}.Ee{fill:#dea8ff}]]></style><path d="M44,58H19v1h1v1h24v-1h1v-1H44z" opacity=".25" enable-background="new"/><path d="M47 14v-2h-2v-2h-4V8h-4V6H27v2h-4v2h-4v2h-2v2h-2v41h4v-2h5v2h5v-2h6v2h5v-2h5v2h4V14z" class="Eb"/><path d="M45 14v-2h-4v-2h-4V8H27v2h-4v2h-4v2h-2v39h2v-2h5v2h5v-2h6v2h5v-2h5v2h2V14z" class="Ec"/><path d="M18,49h2v-1h2v1h2v2h5v-2h2v-1h2v1h2v2h5v-2h2v-1h2v1h1V14h-4v-2h-4v-2h-5V9h-5v2h-4v2h-4v2h-1V49z" fill="#fff"/><path d="M23 28v2h4v-2h2v-4h-2v-2h-4v2h-2v4h2zm12-4v4h2v2h4v-2h2v-4h-2v-2h-4v2h-2z" class="Eb"/><path d="M21 32v2h2v-2h-2zm20 0v2h2v-2h-2z" fill="#f696c6"/><g class="Eb"><path d="M29,32h-2v2h2V32z"/><path d="M29,34v2h6v-2H29z"/><path d="M35 32v2h2v-2h-2zm0-17v-1h-1v-1h-1v-1h-2v1h-1v1h-1v1h-1v4h1v1h1v1h1v1h2v-1h1v-1h1v-1h1v-4z"/></g><g class="Ee"><path d="M29,17v2h1v1h1v1h1v-4H29z"/><path d="M34,15v-1h-1v-1h-1v4h3v-2H34z"/></g><path d="M32,17v4h1v-1h1v-1h1v-2H32z" class="Ed"/><path d="M31,13v1h-1v1h-1v2h3v-4H31z" class="Ec"/><path d="M8 38v-1h2v-1h2v-1h1v-1h1v-1h1v8h-1v1h-2v1H8v-1H7v-4z" class="Eb"/><path d="M10 38v-1h2v-1h1v-1h1v-1h1v6h-1v1h-2v1H8v-4z" class="Ec"/><path d="M8,38v3h4v-1h2v-1h1v-5h-1v1h-1v1h-1v1h-2v1H8z" fill="#fff"/><path d="M56 38v-1h-2v-1h-2v-1h-1v-1h-1v-1h-1v8h1v1h2v1h4v-1h1v-4z" class="Eb"/><path d="M54 38v-1h-2v-1h-1v-1h-1v-1h-1v6h1v1h2v1h4v-4z" class="Ec"/><path d="M54,38v-1h-2v-1h-1v-1h-1v-1h-1v5h1v1h2v1h4v-3H54z" fill="#fff"/><path d="M13 27v-1h-1v-1h-1v-1h-1v1H9v1H8v1H7v2h1v1h1v1h1v24h1V31h1v-1h1v-1h1v-2z" class="Eb"/><path d="M8 27h5v2H8z" class="Ed"/><path d="M9 26h3v4H9z" class="Ee"/><path d="M10,25v6h1v-6H10z" class="Ec"/><path d="M53 14v-4h-2V8h-2V6h-2V4h-2V2h-4V0H29v2h-4v2h-2v2h-2v2h-2v2h-2v4h-2v4h-2v2h-2v2h42v-2h-2v-2h-2v-4h-2v-2h-2v-2h4v2h2v2z" class="Eb"/><path d="M15 18v2h34v-2H15zm32-2v-2h-4v-2h-2v-2h2V8h4V6h-2V4h-4V2H29v2h-4v2h-2v2h-2v2h-2v4h-2v2h30z" fill="#947db0"/><path d="M31 16h2v2h-2z" class="Ec"/><g class="Ee"><path d="M31,17h1v1h-1V17z"/><path d="M32,16h1v1h-1V16z"/></g><path d="M32,17h1v1h-1V17z" class="Ed"/><path d="M35 8V7h-1V6h-1V5h-2v1h-1v1h-1v1h-1v4h1v1h1v1h1v1h2v-1h1v-1h1v-1h1V8z" class="Eb"/><g class="Ee"><path d="M29,10v2h1v1h1v1h1v-4H29z"/><path d="M34,8V7h-1V6h-1v4h3V8H34z"/></g><path d="M32,10v4h1v-1h1v-1h1v-2H32z" class="Ed"/><path d="M31,6v1h-1v1h-1v2h3V6H31z" class="Ec"/><path d="M17.1,29.9v-2h-2v-3.8h2v-2h29.8v2h2v3.8h-2v2H17.1z"/><path d="M46.8 22.2v2h2v3.5h-2v2.1H17.2v-2h-2v-3.6h2v-2h29.6m.2-.2H17v2h-2v4h2v2h30v-2h2v-4h-2v-2z" fill="#c8c8c8"/><path d="M17,24h30v4H17V24z"/><path d="M41,24v4h2v-4H41z" class="Ed"/><g fill="#c8c8c8"><path d="M17,22h30v2H17V22z"/><path d="M15 24h2v4h-2v-4zm32 0h2v4h-2v-4z"/><path d="M17,28h30v2H17V28z"/></g></svg>