<?xml version="1.0" encoding="utf-8"?>
<!-- Generator: Adobe Illustrator 25.3.1, SVG Export Plug-In . SVG Version: 6.00 Build 0)  -->
<svg version="1.1" id="Layer_1" xmlns="http://www.w3.org/2000/svg" xmlns:xlink="http://www.w3.org/1999/xlink" x="0px" y="0px"
	 viewBox="0 0 64 64" style="enable-background:new 0 0 64 64;" xml:space="preserve">
<style type="text/css">
	.st0{fill:#64438E;}
	.st1{fill:#EDD3FD;}
	.st2{fill:#FFFFFF;}
	.st3{fill:#F696C6;}
	.st4{opacity:0.25;enable-background:new    ;}
	.st5{fill:#5D24BF;}
	.st6{fill:#C260FF;}
	.st7{fill:#DEA8FF;}
	.st8{fill:#002DE4;}
	.st9{fill:#1973FF;}
	.st10{fill:#9DC3FF;}
	.st11{display:none;}
	.st12{display:inline;}
	.st13{display:inline;fill:#FFFFFF;}
	.st14{fill:#B464ED;}
	.st15{fill:#C8C8C8;}
	.st16{fill:#FFC03C;}
	.st17{fill:#FFD781;}
	.st18{fill:#FFEABE;}
	.st19{fill:#715398;}
	.st20{fill:#511F17;}
	.st21{fill:#7A500C;}
	.st22{fill:#955C4B;}
	.st23{fill:#FF89FF;}
</style>
<g>
	<g>
		<path class="st0" d="M21,12h2v-2h-4v2h1H21z"/>
		<path class="st0" d="M19,14v-2h-2v2h1H19z M25,10h2V8h-4v2h1H25z"/>
		<path class="st0" d="M29,8h8V6H27v2h1H29z M45,14h2v-2h-2v1V14z"/>
		<path class="st0" d="M48,14h-1v39h-2v2h4V14H48z M37,10h4V8h-4v1V10z"/>
		<path class="st0" d="M41,12h4v-2h-4v1V12z M17,53V14h-2v41h4v-2h-1H17z"/>
		<path class="st0" d="M24,51h-5v2h5v-1V51z"/>
		<path class="st0" d="M27,53h-3v2h5v-2h-1H27z M45,51h-5v2h5v-1V51z"/>
		<path class="st0" d="M35,51h-6v2h6v-1V51z"/>
		<path class="st0" d="M38,53h-3v2h5v-2h-1H38z"/>
	</g>
	<g>
		<path class="st1" d="M18,43v6h2v-1h2v1h2v2h-5v2h-2V14h2v1h-1v26V43z"/>
		<path class="st1" d="M27,51h-3v2h5v-2h-1H27z M38,51h-3v2h5v-2h-1H38z"/>
		<path class="st1" d="M35,49h-2v-1h-2v1h-2v2h6v-1V49z M25,11h2v-1h-4v1h1H25z M21,13h2v-1h-4v1h1H21z M45,44v5h-1v-1h-2v1h-2v2h5
			v2h2V14h-2v29V44z"/>
		<path class="st1" d="M37,8H27v1h5v1h5V9V8z M45,12h-4v2h4v-1V12z"/>
		<path class="st1" d="M41,10h-4v2h4v-1V10z"/>
	</g>
	<path class="st2" d="M44,14h-3v-2h-4v-2h-5V9h-5v2h-4v2h-4v2h-1v34h2v-1h2v1h2v2h5v-2h2v-1h2v1h2v2h5v-2h2v-1h2v1h1V14H44z"/>
</g>
<path class="st3" d="M21,32v2h2v-2h-1H21z M42,32h-1v2h2v-2H42z"/>
<g>
	<path class="st0" d="M29,32h-2v2h2v-1V32z"/>
	<path class="st0" d="M33,34h-4v2h6v-2h-1H33z"/>
	<path class="st0" d="M36,32h-1v2h2v-2H36z"/>
</g>
<g>
	<path class="st4" d="M25,58h-6v1h1v1h24v-1h1v-1h-1H25z"/>
</g>
<g>
	<path class="st5" d="M28,22h-1v-1h-1h-1h-1h-1v1h-1v1h-1v1v1v1v1h1v1h1v1h1h1h1h1v-1h1v-1h1v-1v-1v-1v-1h-1V22z"/>
	<path class="st5" d="M42,23v-1h-1v-1h-1h-1h-1h-1v1h-1v1h-1v1v1v1v1h1v1h1v1h1h1h1h1v-1h1v-1h1v-1v-1v-1v-1H42z"/>
</g>
<g>
	<g>
		<path class="st0" d="M29,17v-2h-1v4h1v-1V17z"/>
		<path class="st0" d="M29,14h1v1h-1V14z M29,19h1v1h-1V19z"/>
		<path class="st0" d="M30,20h1v1h-1V20z"/>
		<path class="st0" d="M31,21v1h2v-1h-1H31z M30,13h1v1h-1V13z M34,19h1v1h-1V19z M34,14h1v1h-1V14z"/>
		<path class="st0" d="M33,13v-1h-2v1h1H33z M33,20h1v1h-1V20z"/>
		<path class="st0" d="M33,13h1v1h-1V13z M35,15v4h1v-4H35z"/>
	</g>
	<path class="st6" d="M34,17h-2v4h1v-1h1v-1h1v-2H34z"/>
	<g>
		<path class="st7" d="M30,17h-1v2h1v1h1v1h1v-4h-1H30z"/>
		<path class="st7" d="M34,15v-1h-1v-1h-1v4h3v-2H34z"/>
	</g>
	<path class="st1" d="M31,17h1v-4h-1v1h-1v1h-1v2h1H31z"/>
</g>
<g>
	<path class="st8" d="M61,38v-3h-1v-2h-1v-2h-1v-2h-1v-2h-1v-2h-1v-2h-1v-2h-1v-1h-1v-1h-1v1h-1v2h-1v27h1v1h1v-1h1v-3h1v-1h1v-1h3
		v1h1v1h1v3h1v1h1v-1h1V38H61z M14,21v-1h-1v-1h-1v1h-1v1h-1v2H9v2H8v2H7v2H6v2H5v2H4v2H3v3H2v11h1v1h1v-1h1v-3h1v-1h1v-1h3v1h1v1h1
		v3h1v1h1v-1h1V22h-1V21z"/>
	<g>
		<path class="st9" d="M60,38v11h1V38H60z M58,37v-1h-1v-2h-1v-2h-1v-2h-1v-2h-1v-2h-1v9h1v9h1v-1h3v1h1v1h1v-7h-1V37z"/>
		<path class="st9" d="M60,36h-1v2h1v-1V36z"/>
		<path class="st9" d="M58,36h1v-2h-1v1V36z"/>
		<path class="st9" d="M57,34h1v-2h-1v1V34z"/>
		<path class="st9" d="M56,32h1v-2h-1v1V32z"/>
		<path class="st9" d="M55,30h1v-2h-1v1V30z"/>
		<path class="st9" d="M54,28h1v-2h-1v1V28z"/>
		<path class="st9" d="M51,33v-9h1v1h1v1h1v-2h-1v-2h-1v-2h-1v2h-1v2h-1v2h1v8h-1v9h1v-8h1v-1V33z M49,46h1v1h-1V46z"/>
		<path class="st9" d="M50,49h1v-2h-1v1V49z M51,36v8h-1v2h2V35h-1V36z M3,39v10h1V38H3V39z M12,33v-7h-1v2h-1v2H9v2H8v2H7v2H6v2H5
			v7h1v-1h1v-1h3v1h1v-9h1v-1V33z"/>
		<path class="st9" d="M5,36H4v2h1v-1V36z"/>
		<path class="st9" d="M6,35v-1H5v2h1V35z"/>
		<path class="st9" d="M7,33v-1H6v2h1V33z"/>
		<path class="st9" d="M8,31v-1H7v2h1V31z"/>
		<path class="st9" d="M9,29v-1H8v2h1V29z"/>
		<path class="st9" d="M10,27v-1H9v2h1V27z"/>
		<path class="st9" d="M14,23v-1h-1v-2h-1v2h-1v2h-1v2h1v-1h1v-1h1v11h1v8h1v-9h-1v-8h1v-2h-1V23z M14,46h1v1h-1V46z"/>
		<path class="st9" d="M13,48v1h1v-2h-1V48z M12,36v10h2v-2h-1v-9h-1V36z"/>
	</g>
	<g>
		<path class="st10" d="M60,38v7h1v-7H60z M53,36v7h1v-1h3v1h1v-5h-1v-2h-1v-2h-1v-2h-1v-2h-1v-3h-1v8h1V36z"/>
		<path class="st10" d="M60,36h-1v2h1v-1V36z"/>
		<path class="st10" d="M59,34h-1v2h1v-1V34z"/>
		<path class="st10" d="M58,32h-1v2h1v-1V32z"/>
		<path class="st10" d="M57,30h-1v2h1v-1V30z"/>
		<path class="st10" d="M56,28h-1v2h1v-1V28z"/>
		<path class="st10" d="M55,26h-1v2h1v-1V26z"/>
		<path class="st10" d="M54,24h-1v-2h-1v-1h-1v3h1v1h1v1h1v-1V24z M51,37v7h-1v2h1v-1h1V35h-1v1V37z"/>
		<path class="st10" d="M50,25v10h1V24h-1V25z M3,39v6h1v-7H3V39z"/>
		<path class="st10" d="M12,33v-6h-1v3h-1v2H9v2H8v2H7v2H6v5h1v-1h3v1h1v-8h1v-1V33z M4,37v1h1v-2H4V37z"/>
		<path class="st10" d="M5,35v1h1v-2H5V35z"/>
		<path class="st10" d="M6,33v1h1v-2H6V33z"/>
		<path class="st10" d="M7,31v1h1v-2H7V31z"/>
		<path class="st10" d="M8,29v1h1v-2H8V29z"/>
		<path class="st10" d="M9,27v1h1v-2H9V27z"/>
		<path class="st10" d="M13,22v-1h-1v1h-1v2h-1v2h1v-1h1v-1h1v-1V22z M12,36v9h1v1h1v-2h-1v-9h-1V36z"/>
		<path class="st10" d="M13,25v10h1V24h-1V25z"/>
	</g>
	<path class="st2" d="M51,20h1v1h-1V20z M50,48h1v1h-1V48z M60,47v2h1v-2H60z M12,20h1v1h-1V20z M13,48h1v1h-1V48z M3,48v1h1v-2H3
		V48z"/>
</g>
<g class="st11">
	<g class="st12">
		<path class="st0" d="M19,42h1v1h-1V42z M20,36h1v1h-1V36z"/>
		<path class="st0" d="M21,37h1v1h-1V37z M26,40v4h1v-4H26z M21,43h-1v1h2v-1H21z"/>
		<path class="st0" d="M24,44h-2v1h4v-1h-1H24z M25,39h-1v1h2v-1H25z"/>
		<path class="st0" d="M23,38h-1v1h2v-1H23z"/>
	</g>
	<g class="st12">
		<path class="st1" d="M19,43h1v1h-1V43z M24,45h-2v1h4v-1h-1H24z"/>
		<path class="st1" d="M27,41v3h1v-3H27z M21,44h-1v1h2v-1H21z"/>
		<path class="st1" d="M26,44h1v1h-1V44z M19,41h-1v2h1v-1V41z"/>
	</g>
	<g class="st12">
		<path class="st0" d="M44,42h1v1h-1V42z M43,36h1v1h-1V36z"/>
		<path class="st0" d="M42,37h1v1h-1V37z"/>
		<path class="st0" d="M42,39v-1h-2v1h1H42z M42,43v1h2v-1h-1H42z"/>
		<path class="st0" d="M40,44h-2v1h4v-1h-1H40z"/>
		<path class="st0" d="M38,42v-2h-1v4h1v-1V42z"/>
		<path class="st0" d="M40,40v-1h-2v1h1H40z"/>
	</g>
	<g class="st12">
		<path class="st1" d="M42,44v1h2v-1h-1H42z M37,42v-1h-1v3h1v-1V42z"/>
		<path class="st1" d="M40,45h-2v1h4v-1h-1H40z"/>
		<path class="st1" d="M37,44h1v1h-1V44z M44,43h1v1h-1V43z"/>
	</g>
</g>
<g>
	<g>
		<path class="st0" d="M14,40h1v1h-1V40z M13,34h1v1h-1V34z"/>
		<path class="st0" d="M14,33h1v1h-1V33z M12,35h1v1h-1V35z M7,38h1v4H7V38z M12,41h2v1h-2V41z"/>
		<path class="st0" d="M8,42h4v1H8V42z M8,37h2v1H8V37z"/>
		<path class="st0" d="M10,36h2v1h-2V36z"/>
	</g>
	<g>
		<path class="st1" d="M14,39h1v1h-1V39z"/>
		<path class="st1" d="M12,40h2v1h-2V40z"/>
		<path class="st1" d="M8,41h4v1H8V41z"/>
	</g>
	<path class="st2" d="M8,38v3h4v-1h2v-1h1v-5h-1v1h-1v1h-1v1h-2v1H8z"/>
	<g>
		<path class="st0" d="M49,40h1v1h-1V40z M50,34h1v1h-1V34z"/>
		<path class="st0" d="M49,33h1v1h-1V33z M51,35h1v1h-1V35z M56,38h1v4h-1V38z M50,41h2v1h-2V41z"/>
		<path class="st0" d="M52,42h4v1h-4V42z M54,37h2v1h-2V37z"/>
		<path class="st0" d="M52,36h2v1h-2V36z"/>
	</g>
	<g>
		<path class="st1" d="M49,39h1v1h-1V39z"/>
		<path class="st1" d="M50,40h2v1h-2V40z"/>
		<path class="st1" d="M52,41h4v1h-4V41z"/>
	</g>
	<path class="st2" d="M54,38v-1h-2v-1h-1v-1h-1v-1h-1v5h1v1h2v1h4v-3H54z"/>
</g>
<g class="st11">
	<g class="st12">
		<path class="st1" d="M50,38h1v1h-1V38z"/>
		<path class="st1" d="M49,39h1v1h-1V39z M51,37h1v1h-1V37z"/>
		<path class="st1" d="M52,36h2v1h-2V36z"/>
		<path class="st1" d="M54,35h2v1h-2V35z"/>
	</g>
	<path class="st13" d="M52,32v1h-2v1h-1v5h1v-1h1v-1h1v-1h2v-1h2v-3H52z"/>
	<g class="st12">
		<path class="st0" d="M49,33h1v1h-1V33z"/>
		<path class="st0" d="M50,32h2v1h-2V32z M50,39h1v1h-1V39z"/>
		<path class="st0" d="M49,40h1v1h-1V40z M51,38h1v1h-1V38z"/>
		<path class="st0" d="M52,37h2v1h-2V37z M52,31h4v1h-4V31z"/>
		<path class="st0" d="M56,32h1v4h-1V32z"/>
		<path class="st0" d="M54,36h2v1h-2V36z"/>
	</g>
	<g class="st12">
		<path class="st1" d="M13,38h1v1h-1V38z"/>
		<path class="st1" d="M14,39h1v1h-1V39z M12,37h1v1h-1V37z"/>
		<path class="st1" d="M10,36h2v1h-2V36z"/>
		<path class="st1" d="M8,35h2v1H8V35z"/>
	</g>
	<path class="st13" d="M8,32v3h2v1h2v1h1v1h1v1h1v-5h-1v-1h-2v-1H8z"/>
	<g class="st12">
		<path class="st0" d="M14,33h1v1h-1V33z"/>
		<path class="st0" d="M12,32h2v1h-2V32z M13,39h1v1h-1V39z"/>
		<path class="st0" d="M14,40h1v1h-1V40z M12,38h1v1h-1V38z"/>
		<path class="st0" d="M10,37h2v1h-2V37z M8,31h4v1H8V31z"/>
		<path class="st0" d="M7,32h1v4H7V32z"/>
		<path class="st0" d="M8,36h2v1H8V36z"/>
	</g>
</g>
<g>
	<path class="st0" d="M14,20h-1v-2H9v6h2v4h2v2h2V20H14z"/>
	<path class="st14" d="M14,22h-1v-2h-2v4h2v4h2v-6H14z"/>
	<g>
		<path class="st1" d="M13,22h-2v2h2v-1V22z"/>
		<path class="st1" d="M14,24h-1v4h2v-4H14z"/>
	</g>
	<path class="st0" d="M50,20h1v-2h4v6h-2v4h-2v2h-2V20H50z"/>
	<path class="st14" d="M50,22h1v-2h2v4h-2v4h-2v-6H50z"/>
	<g>
		<path class="st1" d="M51,22h2v2h-2v-1V22z"/>
		<path class="st1" d="M50,24h1v4h-2v-4H50z"/>
	</g>
</g>
<g>
	<path d="M17.1,29.9v-2h-2v-3.8h2v-2h29.8v2h2v3.8h-2v2H17.1z"/>
	<path class="st15" d="M46.8,22.2v2h2v3.5h-2v2.1H17.2v-2h-2v-3.6h2v-2H46.8 M47,22H17v2h-2v4h2v2h30v-2h2v-4h-2V22z"/>
	<path d="M17,24h30v4H17V24z"/>
	<path class="st6" d="M41,24v4h2v-4H41z"/>
	<g>
		<path class="st15" d="M17,22h30v2H17V22z"/>
		<path class="st15" d="M15,24h2v4h-2V24z M47,24h2v4h-2V24z"/>
		<path class="st15" d="M17,28h30v2H17V28z"/>
	</g>
</g>
<g>
	<path class="st16" d="M48,16h-1v-2h-2v2h-2v-2h-2v2h-2v-2h-2v-2h-2v-2h-2V8h-2v2h-2v2h-2v2h-2v2h-2v-2h-2v2h-2v-2h-2v2h-2v2h34v-2
		H48z"/>
	<path class="st17" d="M34,13v-1h-1v-1h-2v1h-1v1h-1v2h1v1h1v1h2v-1h1v-1h1v-2H34z"/>
	<path class="st18" d="M33,13v-1h-2v1h-1v2h1v1h2v-1h1v-2H33z"/>
	<path class="st0" d="M32,13h-1v2h2v-2H32z"/>
	<path class="st19" d="M32,13h-1v1h2v-1H32z"/>
</g>
<g>
	<path class="st20" d="M12,34v-1h-1v-1H4v1H3v1H2v7h1v2h1v1h2v1h3v-1h2v-1h1v-2h1v-7H12z"/>
	<path class="st21" d="M10,36h1v1h-1V36z M3,40h1v-3H3V40z M5,39h1v-2H5V39z M7,41h1v-3H7V41z M9,38h1v1H9V38z M11,38v2h1v-2H11z
		 M5,43h1v-3H5V43z M9,42h1v-2H9V42z M7,44h1v-2H7V44z"/>
	<path class="st22" d="M11,34v-1H4v1H3v1h1v1h7v-1h1v-1H11z"/>
	<path class="st2" d="M4,34h7v1H4V34z"/>
	<g>
		<path class="st23" d="M3,27h1v1H3V27z"/>
		<path class="st23" d="M2,28h1v1H2V28z M4,28h1v2H4V28z"/>
		<path class="st23" d="M1,29h1v1H1V29z M5,30h1v2H5V30z"/>
		<path class="st23" d="M6,32h1v2H6V32z"/>
		<path class="st23" d="M7,34h1v1H7V34z"/>
	</g>
</g>
<g>
	<g transform="scale(-1, 1) translate(-62, 0)">
		<path class="st20" d="M10,34v-1H9v-1H2v1H1v1H0v7h1v2h1v1h2v1h3v-1h2v-1h1v-2h1v-7H10z"/>
		<path class="st21" d="M8,36h1v1H8V36z M1,40h1v-3H1V40z M3,39h1v-2H3V39z M5,41h1v-3H5V41z M7,38h1v1H7V38z M9,38v2h1v-2H9z M3,43
			h1v-3H3V43z M7,42h1v-2H7V42z M5,44h1v-2H5V44z"/>
		<path class="st22" d="M9,34v-1H2v1H1v1h1v1h7v-1h1v-1H9z"/>
		<path class="st2" d="M2,34h7v1H2V34z"/>
		<g>
			<path class="st23" d="M1,27h1v1H1V27z"/>
			<path class="st23" d="M0,28h1v1H0V28z M2,28h1v2H2V28z"/>
			<path class="st23" d="M-1,29h1v1h-1V29z M3,30h1v2H3V30z"/>
			<path class="st23" d="M4,32h1v2H4V32z"/>
			<path class="st23" d="M5,34h1v1H5V34z"/>
		</g>
	</g>
</g>
</svg>
