<svg xmlns="http://www.w3.org/2000/svg" viewBox="0 0 64 64"><style><![CDATA[.Eb{fill:#64438e}.Ec{fill:#0448b9}.Ed{fill:#fdfdff}.Ee{fill:#edd3fd}.Ef{fill:#0060ff}.Eg{fill:#ffd200}.Eh{enable-background:new}]]></style><path d="M44,58H19v1h1v1h24v-1h1v-1H44z" opacity=".25" class="Eh"/><path d="M47 14v-2h-2v-2h-4V8h-4V6H27v2h-4v2h-4v2h-2v2h-2v41h4v-2h5v2h5v-2h6v2h5v-2h5v2h4V14z" class="Eb"/><path d="M45 14v-2h-4v-2h-4V8H27v2h-4v2h-4v2h-2v39h2v-2h5v2h5v-2h6v2h5v-2h5v2h2V14z" class="Ee"/><path d="M18,49h2v-1h2v1h2v2h5v-2h2v-1h2v1h2v2h5v-2h2v-1h2v1h1V14h-4v-2h-4v-2h-5V9h-5v2h-4v2h-4v2h-1V49z" fill="#fff"/><path d="M23 28v2h4v-2h2v-4h-2v-2h-4v2h-2v4h2zm12-4v4h2v2h4v-2h2v-4h-2v-2h-4v2h-2z" class="Eb"/><path d="M21 32v2h2v-2h-2zm20 0v2h2v-2h-2z" fill="#f696c6"/><g class="Eb"><path d="M29,32h-2v2h2V32z"/><path d="M29,34v2h6v-2H29z"/><path d="M35 32v2h2v-2h-2zm0-17v-1h-1v-1h-1v-1h-2v1h-1v1h-1v1h-1v4h1v1h1v1h1v1h2v-1h1v-1h1v-1h1v-4z"/></g><g fill="#dea8ff"><path d="M29,17v2h1v1h1v1h1v-4H29z"/><path d="M34,15v-1h-1v-1h-1v4h3v-2H34z"/></g><path d="M32,17v4h1v-1h1v-1h1v-2H32z" fill="#c260ff"/><path d="M31,13v1h-1v1h-1v2h3v-4H31z" class="Ee"/><path d="M8 38v-1h2v-1h2v-1h1v-1h1v-1h1v8h-1v1h-2v1H8v-1H7v-4z" class="Eb"/><path d="M10 38v-1h2v-1h1v-1h1v-1h1v6h-1v1h-2v1H8v-4z" class="Ee"/><path d="M8,38v3h4v-1h2v-1h1v-5h-1v1h-1v1h-1v1h-2v1H8z" fill="#fff"/><path d="M56 38v-1h-2v-1h-2v-1h-1v-1h-1v-1h-1v8h1v1h2v1h4v-1h1v-4z" class="Eb"/><path d="M54 38v-1h-2v-1h-1v-1h-1v-1h-1v6h1v1h2v1h4v-4z" class="Ee"/><path d="M54,38v-1h-2v-1h-1v-1h-1v-1h-1v5h1v1h2v1h4v-3H54z" fill="#fff"/><path d="M47 33v1h-2v1h-2v1h-1v1h-1v1h-1v1h-1v1h-2v1h-2v1h-2v1h-2v-1h-2v-1h-2v-1h-2v-1h-1v-1h-1v-1h-1v-1h-1v-1h-2v-1h-2v-1h-2.5v8h.5v14h34V41h.5v-8H47z" class="Ec"/><path d="M47 34v1h-2v1h-2v1h-1v1h-1v1h-1v1h-1v1h-2v1h-2v1h-2v1h-2v-1h-2v-1h-2v-1h-2v-1h-1v-1h-1v-1h-1v-1h-1v-1h-2v-1h-2v-1h-2.5v6H16v14h32V40h1.5v-6H47z" class="Ef"/><g fill="#fff"><path d="M42 53h1v1h-1zm-6 0h1v1h-1zm-6 0h1v1h-1zm-6 0h1v1h-1zm-6 0h1v1h-1zm-2-2h1v1h-1zm30-1h-1v1h-1v1h1v1h1v-1h1v-1h-1zm-6 0h-1v1h-1v1h1v1h1v-1h1v-1h-1zm-6 0h-1v1h-1v1h1v1h1v-1h1v-1h-1zm-6 0h-1v1h-1v1h1v1h1v-1h1v-1h-1zm-6 0h-1v1h-1v1h1v1h1v-1h1v-1h-1zm25-2h1v1h-1zm-3 0h-1v-1h-1v1h-1v1h1v1h1v-1h1zm-6 0h-1v-1h-1v1h-1v1h1v1h1v-1h1zm-6 0h-1v-1h-1v1h-1v1h1v1h1v-1h1zm-6 0h-1v-1h-1v1h-1v1h1v1h1v-1h1zm-6 0h-1v-1h-1v1h-1v1h1v1h1v-1h1zm26-1v-1h1v-1h-1v-1h-1v1h-1v1h1v1zm-13 0h1v-1h1v-1h-1v-1h-1v1h-1v1h1zm-11 0v-1h1v-1h-1v-1h-1v1h-1v1h1v1zm16-1h1v1h1v-1h1v-1h-1v-1h-1v1h-1zm-12 0h1v1h1v-1h1v-1h-1v-1h-1v1h-1zm-10-1h1v1h-1zm20-1h1v-1h1v-1h-3v1h1v1zm-6-1h1v1h-1zm-11 1v-1h1v-1h-1v-1h-1v1h-1v1h1v1zm28-2h1v1h-1zm-6 1h1v1h1v-1h1v-1h-1v-1h-1v1h-1zm-18 0h1v1h1v-1h1v-1h-1v-1h-1v1h-1zm16-3h1v1h-1z"/><path d="M44 40h1v1h1v-1h1v-1h-1v-1h-1v1h-1zm-4-1h1v1h-1zm-20 1h1v1h1v-1h1v-1h-1v-1h-1v1h-1zm-3 0v-1h-1v-1h-1v1h-.5v1h.5 2zm25-3h1v1h-1zm-24 1h1v-1h1v-1h-1v-1h-1v1h-1v1h1z"/><path d="M43 36h1v1h-1zm5-1v1h-1v1h1v1h1v-1h.5v-1H49v-1zm-33-1h1v1h-1z"/></g><path d="M45 51h1v1h-1zm-6 0h1v1h-1zm-6 0h1v1h-1zm-6 0h1v1h-1zm-6 0h1v1h-1zm21-3h1v1h-1zm-6 0h1v1h-1zm-6 0h1v1h-1zm-6 0h1v1h-1zm-6 0h1v1h-1zm27-3h1v1h-1zm-6 0h1v1h-1zm-6 0h1v1h-1zm-6 0h1v1h-1zm-6 0h1v1h-1zm21-3h1v1h-1zm-6 0h1v1h-1zm-12 0h1v1h-1zm-6 0h1v1h-1zm27-3h1v1h-1zm-24 0h1v1h-1zm-6 0h1v1h-1zm33-3h1v1h-1zm-30 0h1v1h-1z" class="Eg Eh"/><path d="M14 33v1h-1v1h-1v7h2v-1h1v-8h-1z" class="Ec"/><path d="M14 34v1h-1v6h1v-1h1v-6h-1z" class="Ef"/><path d="M14 39h1v1h-1zm-1-3h1v1h-1z" class="Ed"/><path d="M51 35v-1h-1v-1h-1v8h1v1h2v-7h-1z" class="Ec"/><path d="M50 35v-1h-1v6h1v1h1v-6h-1z" class="Ef"/><path d="M50 39h1v1h-1zm-1-3h1v1h-1z" class="Ed"/><path d="M49 24h-1-3v-1h-1v-1H20v1h-1v1h-3-1v1 1 1h1 3v3h1v1h10v-1h1v-3h2v3h1v1h10v-1h1v-3h3 1v-1-1-1z" class="Ec"/><g class="Ef"><path d="M30 25h1v-1h-1v-1H20v1h-1v1h1v1h-1v1h1v1h-1v1h1v1h10v-1h1v-1h-1v-1h1v-1h-1v-1zm14 0h1v-1h-1v-1H34v1h-1v1h1v1h-1v1h1v1h-1v1h1v1h10v-1h1v-1h-1v-1h1v-1h-1v-1z"/><path d="M32 25h-1v1h2v-1h-1zm-14 0h1v1h-1zm27 0h1v1h-1z"/></g><path d="M48 25v-1h-1v3h1v-1h1v-1h-1z" class="Ed"/><path d="M47 25h1v1h-1z" class="Eg"/><path d="M16 26v1h1v-3h-1v1h-1v1h1z" class="Ed"/><path d="M16 25h1v1h-1zm3-1h1v1h-1zm0 2h1v1h-1zm0 2h1v1h-1zm25-4h1v1h-1zm0 2h1v1h-1zm0 2h1v1h-1zm-14-4h1v1h-1zm0 2h1v1h-1zm0 2h1v1h-1zm3-4h1v1h-1zm0 2h1v1h-1zm0 2h1v1h-1z" class="Eg"/><path d="M29 23h-8v1h-1v5h1v1h8v-1h1v-5h-1v-1zm14 1v-1h-8v1h-1v5h1v1h8v-1h1v-5h-1z" fill="#abfbff"/><path d="M25 23v2h-1v2h-1v2h-1v1h2v-1h1v-2h1v-2h1v-2h-2zm14 0v2h-1v2h-1v2h-1v1h2v-1h1v-2h1v-2h1v-2h-2z" fill="#d7ffff"/><path d="M47 14v-2h-2v-2h-4V8h-4V6h-4V5h2V4h1V3h-1V2h-1V1h-1V0h-2v1h-1v1h-1v1h-1v1h1v1h2v1h-4v2h-4v2h-4v2h-2v2h-2v7h2v-3h1v-1h8v1h1v1h2v1h1v1h1v1h2v-1h1v-1h1v-1h2v-1h1v-1h8v1h1v3h2v-7h-2z" fill="#e5ba05"/><path d="M31 5v1h2V5h-2z" class="Ec"/><path d="M34 3V2h-1V1h-2v1h-1v1h-1v1h6V3h-1zm13 12v-1h-1v-1h-1v-1h-1v-1h-3v-1h-1V9h-3V8h-1V7h-8v1h-1v1h-3v1h-1v1h-3v1h-1v1h-1v1h-1v1h-1v3h1v-1h1v-1h8v1h1v1h2v1h1v1h1v1h2v-1h1v-1h1v-1h2v-1h1v-1h8v1h1v1h1v-3h-1z" class="Eg"/><g class="Ed"><path d="M23 14h1v1h-1zm-2 0h1v1h-1z"/><path d="M24 13h1v1h-1zm-2 0h1v1h-1z"/><path d="M25 12h1v1h-1zm-2 0h1v1h-1z"/><path d="M26 11h1v1h-1zm-2 0h1v1h-1z"/><path d="M27 10h1v1h-1zm-2 0h1v1h-1z"/></g></svg>