<?xml version="1.0" encoding="utf-8"?>
<!-- Generator: Adobe Illustrator 25.3.1, SVG Export Plug-In . SVG Version: 6.00 Build 0)  -->
<svg version="1.1" id="Layer_1" xmlns="http://www.w3.org/2000/svg" xmlns:xlink="http://www.w3.org/1999/xlink" x="0px" y="0px"
	 viewBox="0 0 20 22" style="enable-background:new 0 0 20 22;" xml:space="preserve">
<style type="text/css">
	.st0{fill:#FFFFFF;}
	.st1{fill:#FFE600;}
	.st2{fill:#FF9600;}
	.st3{fill:#FFC03C;}
	.st4{fill:#FAAFF3;}
	.st5{fill:#EF1E26;}
</style>
<path d="M19,6V5h-1V4h-3V2h1V1h-1V0h-2v1h-2V0H9v1H7V0H5v1H4v1h1v2H2v1H1v1H0v2h1v1h1v1H1v3h1v1h1v1H2v1H1v2h1v1H1v2h4v1h3v-1h1v-1
	h2v1h1v1h3v-1h4v-2h-1v-1h1v-2h-1v-1h-1v-1h1v-1h1v-3h-1V9h1V8h1V6H19z"/>
<path class="st0" d="M18,7h-1v1h-3V7h-2v1h1v1h5V8h1V7H18z M6,7v1H3V7H1v1h1v1h5V8h1V7H6z"/>
<path class="st1" d="M5,1v1h2V1H5z M9,1v1h2V1H9z M14,1h-1v1h2V1H14z"/>
<path class="st2" d="M11,4H8v2h4V4H11z"/>
<path class="st3" d="M13,2H6v2h8V2H13z"/>
<g>
	<path class="st4" d="M17,5h-4v1h5V5H17z M10,9h2V8h-1V7H9v1H8v1H10z M4,6h3V5H2v1H4z M9,17v2h2v-2H9z"/>
	<path class="st4" d="M16,16v-2H4v2H2v2h2v1H2v1h3v-3h1v3H5v1h3v-4h1v-1h2v1h1v4h3v-1h-1v-3h1v3h3v-1h-2v-1h2v-2H16z"/>
</g>
<path class="st5" d="M17,10H2v3h16v-3H17z M17,12H3v-1h14V12z"/>
</svg>
