<?xml version="1.0" encoding="utf-8"?>
<!-- Generator: Adobe Illustrator 25.3.1, SVG Export Plug-In . SVG Version: 6.00 Build 0)  -->
<svg version="1.1" id="Layer_1" xmlns="http://www.w3.org/2000/svg" xmlns:xlink="http://www.w3.org/1999/xlink" x="0px" y="0px"
	 viewBox="0 0 64 64" style="enable-background:new 0 0 64 64;" xml:space="preserve">
<style type="text/css">
	.st0{fill:#FF2A7A;}
	.st1{fill:#FFC3DF;}
	.st2{fill:#FFFFFF;}
	.st3{fill:#F696C6;}
	.st4{opacity:0.25;enable-background:new    ;}
	.st5{fill:#FFC2DB;}
	.st6{fill:#FFDEEC;}
	.st7{fill:#FF88B8;}
	.st8{fill:#FF3085;}
	.st9{fill:#7D7D7D;}
	.st10{fill:#FF9900;}
	.st11{display:none;}
	.st12{display:inline;}
	.st13{display:inline;fill:#FFFFFF;}
	.st14{fill:#FFDD00;}
	.st15{fill:#00AF00;}
	.st16{fill:#0000FF;}
	.st17{display:inline;fill:#7D7D7D;}
	.st18{fill:#64438E;}
	.st19{fill:#C260FF;}
	.st20{fill:#DEA8FF;}
	.st21{fill:#EDD3FD;}
</style>
<g>
	<g>
		<path class="st0" d="M21,12h2v-2h-4v2h1H21z"/>
		<path class="st0" d="M19,14v-2h-2v2h1H19z M25,10h2V8h-4v2h1H25z"/>
		<path class="st0" d="M29,8h8V6H27v2h1H29z M45,14h2v-2h-2v1V14z"/>
		<path class="st0" d="M48,14h-1v39h-2v2h4V14H48z M37,10h4V8h-4v1V10z"/>
		<path class="st0" d="M41,12h4v-2h-4v1V12z M17,53V14h-2v41h4v-2h-1H17z"/>
		<path class="st0" d="M24,51h-5v2h5v-1V51z"/>
		<path class="st0" d="M27,53h-3v2h5v-2h-1H27z M45,51h-5v2h5v-1V51z"/>
		<path class="st0" d="M35,51h-6v2h6v-1V51z"/>
		<path class="st0" d="M38,53h-3v2h5v-2h-1H38z"/>
	</g>
	<g>
		<path class="st1" d="M18,43v6h2v-1h2v1h2v2h-5v2h-2V14h2v1h-1v26V43z"/>
		<path class="st1" d="M27,51h-3v2h5v-2h-1H27z M38,51h-3v2h5v-2h-1H38z"/>
		<path class="st1" d="M35,49h-2v-1h-2v1h-2v2h6v-1V49z M25,11h2v-1h-4v1h1H25z M21,13h2v-1h-4v1h1H21z M45,44v5h-1v-1h-2v1h-2v2h5
			v2h2V14h-2v29V44z"/>
		<path class="st1" d="M37,8H27v1h5v1h5V9V8z M45,12h-4v2h4v-1V12z"/>
		<path class="st1" d="M41,10h-4v2h4v-1V10z"/>
	</g>
	<path class="st2" d="M44,14h-3v-2h-4v-2h-5V9h-5v2h-4v2h-4v2h-1v34h2v-1h2v1h2v2h5v-2h2v-1h2v1h2v2h5v-2h2v-1h2v1h1V14H44z"/>
</g>
<path class="st3" d="M21,32v2h2v-2h-1H21z M42,32h-1v2h2v-2H42z"/>
<g>
	<path class="st0" d="M29,32h-2v2h2v-1V32z"/>
	<path class="st0" d="M33,34h-4v2h6v-2h-1H33z"/>
	<path class="st0" d="M36,32h-1v2h2v-2H36z"/>
</g>
<g>
	<path class="st4" d="M25,58h-6v1h1v1h24v-1h1v-1h-1H25z"/>
</g>
<g>
	<g>
		<path class="st0" d="M23,22h-1v1h1V22z M28,27h-1v1h1V27z M23,26h-1v1h1V26z"/>
		<path class="st0" d="M22,25h-1v1h1V25z M22,23h-1v1h1V23z"/>
	</g>
	<path class="st0" d="M23,24h-1v1h1V24z"/>
	<path class="st0" d="M27,22h-1v1h1V22z"/>
	<path class="st0" d="M25,22h-1v1h1V22z M27,26h-1v1h1V26z"/>
	<path class="st0" d="M29,26h-1v1h1V26z"/>
	<path class="st0" d="M25,26h-1v1h1V26z"/>
	<path class="st0" d="M29,24h-1v1h1V24z"/>
	<path class="st0" d="M25,24h-1v1h1V24z M27,24h-1v1h1V24z"/>
	<path class="st0" d="M27,28h-1v1h1V28z M25,28h-1v1h1V28z M26,21h-1v1h1V21z M24,21h-1v1h1V21z"/>
	<path class="st0" d="M28,25h-1v1h1V25z M26,25h-1v1h1V25z M24,25h-1v1h1V25z"/>
	<path class="st0" d="M28,23h-1v1h1V23z"/>
	<path class="st0" d="M24,23h-1v1h1V23z M26,23h-1v1h1V23z M26,27h-1v1h1V27z"/>
	<g>
		<path class="st0" d="M24,27h-1v1h1V27z M42,22h-1v1h1V22z M37,27h-1v1h1V27z M42,26h-1v1h1V26z"/>
		<path class="st0" d="M43,25h-1v1h1V25z"/>
	</g>
	<path class="st0" d="M42,24h-1v1h1V24z"/>
	<path class="st0" d="M43,23h-1v1h1V23z M38,22h-1v1h1V22z"/>
	<g>
		<path class="st0" d="M37,25h-1v1h1V25z M41,25h-1v1h1V25z"/>
		<path class="st0" d="M38,26h-1v1h1V26z"/>
	</g>
	<path class="st0" d="M37,23h-1v1h1V23z"/>
	<path class="st0" d="M38,24h-1v1h1V24z M41,23h-1v1h1V23z"/>
	<path class="st0" d="M38,28h-1v1h1V28z"/>
	<path class="st0" d="M39,23h-1v1h1V23z"/>
	<path class="st0" d="M39,21h-1v1h1V21z"/>
	<path class="st0" d="M40,22h-1v1h1V22z"/>
	<path class="st0" d="M41,21h-1v1h1V21z"/>
	<g>
		<path class="st0" d="M40,26h-1v1h1V26z"/>
		<path class="st0" d="M39,25h-1v1h1V25z"/>
	</g>
	<path class="st0" d="M36,26h-1v1h1V26z M36,24h-1v1h1V24z"/>
	<path class="st0" d="M40,24h-1v1h1V24z"/>
	<g>
		<path class="st0" d="M41,27h-1v1h1V27z"/>
		<path class="st0" d="M40,28h-1v1h1V28z"/>
	</g>
	<path class="st0" d="M39,27h-1v1h1V27z"/>
</g>
<g>
	<path class="st5" d="M30,9V8h-1v1h-1v2h1v1h2V9H30z"/>
	<path class="st6" d="M28,7V6h-1v2h2V7H28z"/>
	<path class="st2" d="M26,5h1v1h-1V5z"/>
	<path class="st7" d="M33,13v-2h-1v1h-1v1h-2v1h1v1h4v-2H33z"/>
	<g>
		<path class="st8" d="M27,5V4h-1V3h-1v3h1V5H27z"/>
		<path class="st8" d="M27,5h1v1h-1V5z"/>
		<path class="st8" d="M28,6h1v1h-1V6z"/>
		<path class="st8" d="M29,7h1v1h-1V7z"/>
		<path class="st8" d="M30,8h1v1h-1V8z M28,9h1V8h-2v3h1V9z"/>
		<path class="st8" d="M31,13v-1h-2v-1h-1v3h1v-1H31z"/>
		<path class="st8" d="M31,12h1v-1h1v-1h-1V9h-1V12z"/>
		<path class="st8" d="M34,12v-1h-1v2h1v2h1v-3H34z"/>
		<path class="st8" d="M30,15v-1h-1v2h5v-1H30z M26,6h1v2h-1V6z"/>
	</g>
</g>
<g>
	<path class="st9" d="M15,33v20h34V33h-2v1h-1v1h-1v1h-1v1h-1v1h-1v1h-8v1h-4v-1h-8v-1h-1v-1h-1v-1h-1v-1h-1v-1h-1v-1H15z"/>
	<path d="M47,35h-1v1h-1v1h-1v1h-1v1h-1v1h-8v1h-4v-1h-8v-1h-1v-1h-1v-1h-1v-1h-1v-1h-1v-1h-1v18h32V34h-1V35z"/>
	<g>
		<path class="st10" d="M34.2,41.6h0.6v0.6h-0.6V41.6z"/>
		<path class="st10" d="M32.9,44.7h0.7v-1.3h0.6v-1.2h-0.6v0.6h-0.7v0.6h-0.6v0.7h-0.6v0.6h-0.6v0.6h-0.6v0.6h-0.6v0.6h-0.6v0.6h1.8
			v1.2h-0.6v1.3h-0.6v1.2h0.6v-0.6h0.6v-0.6h0.6v-0.7h0.6v-0.6h0.6v-0.6h0.7v-0.6h0.6v-0.6h0.6v-0.6h-1.9
			C32.9,45.9,32.9,44.7,32.9,44.7z"/>
		<path class="st10" d="M29.3,50.8h0.6v0.6h-0.6V50.8z"/>
	</g>
	<path class="st9" d="M44,41v2h-1v-2h-1v5h1v-2h1v2h1v-5H44z M39,47h-1v5.1h3V47H39z M40,49v2h-1v-3h1V49z M39,41h-1v3h2v1h-2v1h3
		v-3h-2v-1h2v-1H39z M43,47h-1v1h1v4.1h1V48h1v-1H43z M24,47h-1v5.1h1V50h2v-3H24z M25,49h-1v-1h1V49z M24,41h-1v5h1v-4h1v4h1v-5H24
		z M20,41h-1v3h2v1h-2v1h3v-3h-2v-1h2v-1H20z M20,47h-1v5.1h1V50h1v2.1h1V47H20z M21,49h-1v-1h1V49z"/>
</g>
<g class="st11">
	<g class="st12">
		<path class="st0" d="M19,42h1v1h-1V42z M20,36h1v1h-1V36z"/>
		<path class="st0" d="M21,37h1v1h-1V37z M26,40v4h1v-4H26z M21,43h-1v1h2v-1H21z"/>
		<path class="st0" d="M24,44h-2v1h4v-1h-1H24z M25,39h-1v1h2v-1H25z"/>
		<path class="st0" d="M23,38h-1v1h2v-1H23z"/>
	</g>
	<g class="st12">
		<path class="st1" d="M19,43h1v1h-1V43z M24,45h-2v1h4v-1h-1H24z"/>
		<path class="st1" d="M27,41v3h1v-3H27z M21,44h-1v1h2v-1H21z"/>
		<path class="st1" d="M26,44h1v1h-1V44z M19,41h-1v2h1v-1V41z"/>
	</g>
	<g class="st12">
		<path class="st0" d="M44,42h1v1h-1V42z M43,36h1v1h-1V36z"/>
		<path class="st0" d="M42,37h1v1h-1V37z"/>
		<path class="st0" d="M42,39v-1h-2v1h1H42z M42,43v1h2v-1h-1H42z"/>
		<path class="st0" d="M40,44h-2v1h4v-1h-1H40z"/>
		<path class="st0" d="M38,42v-2h-1v4h1v-1V42z"/>
		<path class="st0" d="M40,40v-1h-2v1h1H40z"/>
	</g>
	<g class="st12">
		<path class="st1" d="M42,44v1h2v-1h-1H42z M37,42v-1h-1v3h1v-1V42z"/>
		<path class="st1" d="M40,45h-2v1h4v-1h-1H40z"/>
		<path class="st1" d="M37,44h1v1h-1V44z M44,43h1v1h-1V43z"/>
	</g>
</g>
<g>
	<g>
		<path class="st0" d="M14,40h1v1h-1V40z M13,34h1v1h-1V34z"/>
		<path class="st0" d="M14,33h1v1h-1V33z M12,35h1v1h-1V35z M7,38h1v4H7V38z M12,41h2v1h-2V41z"/>
		<path class="st0" d="M8,42h4v1H8V42z M8,37h2v1H8V37z"/>
		<path class="st0" d="M10,36h2v1h-2V36z"/>
	</g>
	<g>
		<path class="st1" d="M14,39h1v1h-1V39z"/>
		<path class="st1" d="M12,40h2v1h-2V40z"/>
		<path class="st1" d="M8,41h4v1H8V41z"/>
	</g>
	<path class="st2" d="M8,38v3h4v-1h2v-1h1v-5h-1v1h-1v1h-1v1h-2v1H8z"/>
	<g>
		<path class="st0" d="M49,40h1v1h-1V40z M50,34h1v1h-1V34z"/>
		<path class="st0" d="M49,33h1v1h-1V33z M51,35h1v1h-1V35z M56,38h1v4h-1V38z M50,41h2v1h-2V41z"/>
		<path class="st0" d="M52,42h4v1h-4V42z M54,37h2v1h-2V37z"/>
		<path class="st0" d="M52,36h2v1h-2V36z"/>
	</g>
	<g>
		<path class="st1" d="M49,39h1v1h-1V39z"/>
		<path class="st1" d="M50,40h2v1h-2V40z"/>
		<path class="st1" d="M52,41h4v1h-4V41z"/>
	</g>
	<path class="st2" d="M54,38v-1h-2v-1h-1v-1h-1v-1h-1v5h1v1h2v1h4v-3H54z"/>
</g>
<g class="st11">
	<g class="st12">
		<path class="st1" d="M50,38h1v1h-1V38z"/>
		<path class="st1" d="M49,39h1v1h-1V39z M51,37h1v1h-1V37z"/>
		<path class="st1" d="M52,36h2v1h-2V36z"/>
		<path class="st1" d="M54,35h2v1h-2V35z"/>
	</g>
	<path class="st13" d="M52,32v1h-2v1h-1v5h1v-1h1v-1h1v-1h2v-1h2v-3H52z"/>
	<g class="st12">
		<path class="st0" d="M49,33h1v1h-1V33z"/>
		<path class="st0" d="M50,32h2v1h-2V32z M50,39h1v1h-1V39z"/>
		<path class="st0" d="M49,40h1v1h-1V40z M51,38h1v1h-1V38z"/>
		<path class="st0" d="M52,37h2v1h-2V37z M52,31h4v1h-4V31z"/>
		<path class="st0" d="M56,32h1v4h-1V32z"/>
		<path class="st0" d="M54,36h2v1h-2V36z"/>
	</g>
	<g class="st12">
		<path class="st1" d="M13,38h1v1h-1V38z"/>
		<path class="st1" d="M14,39h1v1h-1V39z M12,37h1v1h-1V37z"/>
		<path class="st1" d="M10,36h2v1h-2V36z"/>
		<path class="st1" d="M8,35h2v1H8V35z"/>
	</g>
	<path class="st13" d="M8,32v3h2v1h2v1h1v1h1v1h1v-5h-1v-1h-2v-1H8z"/>
	<g class="st12">
		<path class="st0" d="M14,33h1v1h-1V33z"/>
		<path class="st0" d="M12,32h2v1h-2V32z M13,39h1v1h-1V39z"/>
		<path class="st0" d="M14,40h1v1h-1V40z M12,38h1v1h-1V38z"/>
		<path class="st0" d="M10,37h2v1h-2V37z M8,31h4v1H8V31z"/>
		<path class="st0" d="M7,32h1v4H7V32z"/>
		<path class="st0" d="M8,36h2v1H8V36z"/>
	</g>
</g>
<g>
	<path class="st14" d="M15,14h34v6H15V14z"/>
	<path class="st15" d="M15,14h34v4H15V14z"/>
	<path class="st16" d="M15,14h34v2H15V14z"/>
</g>
<g>
	<g class="st11">
		<path class="st17" d="M49,42h1v-1h1v-1h1v-7h-2v1h-1V42z"/>
		<path class="st12" d="M50,40h1v-6h-1v1h-1v6h1V40z"/>
	</g>
	<g>
		<path class="st9" d="M49,41h1v1h2v-7h-1v-1h-1v-1h-1V41z"/>
		<path d="M50,34h-1v6h1v1h1v-6h-1V34z"/>
	</g>
	<g class="st11">
		<path class="st17" d="M15,34h-1v-1h-2v7h1v1h1v1h1V34z"/>
		<path class="st12" d="M14,41h1v-6h-1v-1h-1v6h1V41z"/>
	</g>
	<g>
		<path class="st9" d="M15,33h-1v1h-1v1h-1v7h2v-1h1V33z"/>
		<path d="M14,35h-1v6h1v-1h1v-6h-1V35z"/>
	</g>
</g>
<g>
	<path class="st9" d="M16,25v-1H1v1H0v7h1v1h7v14h1V33h7v-1h1v-7H16z"/>
	<path d="M15,25H1v7h15v-7H15z"/>
	<g>
		<path class="st10" d="M6.3,26.3H5.4v4.5h2.7v-4.5H6.3z M7.2,28.1v1.8H6.3v-2.7h0.9V28.1z M14.1,27.2H15v-0.9h-2.6v4.4H15v-0.9
			h-1.7v-0.9H15v-0.8h-1.7v-0.9L14.1,27.2z M9.8,26.3H8.9v0.9h0.9v3.5h0.9v-3.5h0.8v-0.9h-0.8H9.8z M3.7,27.2v2.6h0.9v-3.5H3.7V27.2
			z"/>
		<path class="st10" d="M2.9,29.8h0.9v0.9H2.9V29.8z"/>
		<path class="st10" d="M2.9,28.1v-1.8H2v3.5h0.9v-0.9V28.1z"/>
	</g>
</g>
<g>
	<g transform="scale(-1, 1) translate(-50, 0)">
		<path class="st18" d="M-1,27v-1h-1v-1h-1v-1h-1v1h-1v1h-1v1h-1v2h1v1h1v1h1v24h1V31h1v-1h1v-1h1v-2H-1z"/>
		<path class="st19" d="M-6,27h5v2h-5V27z"/>
		<path class="st20" d="M-5,26h3v4h-3V26z"/>
		<path class="st21" d="M-4,25v6h1v-6H-4z"/>
	</g>
</g>
</svg>
