<svg xmlns="http://www.w3.org/2000/svg" viewBox="0 0 64 64"><path d="M44,58H19v1h1v1h24v-1h1v-1H44z" opacity=".25" enable-background="new"/><path d="M47 14v-2h-2v-2h-4V8h-4V6H27v2h-4v2h-4v2h-2v2h-2v41h4v-2h5v2h5v-2h6v2h5v-2h5v2h4V14z" fill="#64438e"/><path d="M45 14v-2h-4v-2h-4V8H27v2h-4v2h-4v2h-2v39h2v-2h5v2h5v-2h6v2h5v-2h5v2h2V14z" fill="#edd3fd"/><path d="M18,49h2v-1h2v1h2v2h5v-2h2v-1h2v1h2v2h5v-2h2v-1h2v1h1V14h-4v-2h-4v-2h-5V9h-5v2h-4v2h-4v2h-1V49z" fill="#fff"/><path d="M23 28v2h4v-2h2v-4h-2v-2h-4v2h-2v4h2zm12-4v4h2v2h4v-2h2v-4h-2v-2h-4v2h-2z" fill="#64438e"/><path d="M21 32v2h2v-2h-2zm20 0v2h2v-2h-2z" fill="#f696c6"/><g fill="#64438e"><path d="M29,32h-2v2h2V32z"/><path d="M29,34v2h6v-2H29z"/><path d="M35 32v2h2v-2h-2zm0-17v-1h-1v-1h-1v-1h-2v1h-1v1h-1v1h-1v4h1v1h1v1h1v1h2v-1h1v-1h1v-1h1v-4z"/></g><g fill="#dea8ff"><path d="M29,17v2h1v1h1v1h1v-4H29z"/><path d="M34,15v-1h-1v-1h-1v4h3v-2H34z"/></g><path d="M32,17v4h1v-1h1v-1h1v-2H32z" fill="#c260ff"/><path d="M31,13v1h-1v1h-1v2h3v-4H31z" fill="#edd3fd"/><path d="M8 38v-1h2v-1h2v-1h1v-1h1v-1h1v8h-1v1h-2v1H8v-1H7v-4z" fill="#64438e"/><path d="M10 38v-1h2v-1h1v-1h1v-1h1v6h-1v1h-2v1H8v-4z" fill="#edd3fd"/><path d="M8,38v3h4v-1h2v-1h1v-5h-1v1h-1v1h-1v1h-2v1H8z" fill="#fff"/><path d="M56 38v-1h-2v-1h-2v-1h-1v-1h-1v-1h-1v8h1v1h2v1h4v-1h1v-4z" fill="#64438e"/><path d="M54 38v-1h-2v-1h-1v-1h-1v-1h-1v6h1v1h2v1h4v-4z" fill="#edd3fd"/><path d="M54,38v-1h-2v-1h-1v-1h-1v-1h-1v5h1v1h2v1h4v-3H54z" fill="#fff"/><path d="M47 7V5h-2V4h-2V2H21v2h-2v1h-2v2h-2v9h1v1h1v1h1v1h1v1h1v1h3v1h18v-1h3v-1h1v-1h1v-1h1v-1h1v-1h1V7z"/><path d="M16 16h1v1h1v1h1v1h1v1h3v1h18v-1h3v-1h1v-1h1v-1h1v-1h1v-2H16zm31-8V7h-1V6h-1V5h-1-1V4h-1V3H22v1h-1v1h-2v1h-1v1h-1v1h-1v5h32V8z" fill="#51774e"/><g fill="#66553b"><path d="M17 7h2v1h-2V7zm16 3V8h-2V6h-2v1h1v1h-2V7h-1V6h-1V4h-2v1h1v2h-1v2h3v1h2V9h1v1h3z"/><path d="M25 12h1v-1h-2v2h1v-1zm-7-1v1h1v-2h-1V9h-1V8h-1v2h1v1h1zm25-2h2V8h1V7h-1V5h-1v2h-1v2zm-1-2h-1V6h-1v2h-2V7h1V5h1V3h-2v2h-2v1h-2v1h3v3h1V9h3V8h1V7zm0 4h4v1h-4v-1z"/><path d="M47 8v2h-1v1h2V8h-1zm-5 1h1v1h-1V9zm-3 3v1h1v-3h-2v2h1zm-4-2h1v2h-1v-2zM19 5h2v1h-2V5zm23-1h1v1h-1V4zm-7-1h1v2h-1V3zm1 12h-2v-1h-1v1h-2v2h3v-1h1v1h2v-1h3v-2h-4v1zm9-1h2v1h-2v-1zm-7 5h1v2h1v-3h-2v1zm7-2h1v1h-1v-1z"/><path d="M46 16h1v1h-1v-1zm-28-2v1h1v1h2v-2h-3zm-2 1h1v1h-1v-1zm3 3h3v1h-3v-1z"/><path d="M21 16h1v1h-1v-1zm5 1h-2v4h1v-2h1v-2z"/><path d="M27 14h-1v1h-2v-1h-2v1h1v1h3v1h1v-3zm-1 6h2v1h-2v-1zm2-3h1v2h-1v-2zm19-2h1v1h-1v-1z"/></g><path d="M28 7h2v1h-2V7zm-4 1h-1V7h-1V6h-1v1h-2v1h2v1h-1v1h3v3h1v-2h2v1h1V9h-3V8zm-6 3h-1v2h2v-1h-1v-1zm22-5h3V5h-1V3h-2v2h-1v2h-1v1h2V6zm6 6h2v1h-2v-1zm-6 0h2V9h1V7h-1v1h-1v1h-3v1h2v2zm-5-2h-5v1h-1v2h3v-1h3v-2zm10-2h2v1h-2V8zM33 7h1V5h1V3h-5v1h-1v1h4v2zM23 5h1V4h2v1h1V3h-4v2zm11 9h2v1h-2v-1zm1 4h-1v-1h-5v2h3v2h5v-1h-2v-2zm-11-4h2v1h-2v-1zm-1 1h-1v-1h-1v2h1v3h2v-2h2v-1h-3v-1zm18 0h-1v1h-3v3h1v-1h2v3h1v-4h3v-1h-1v-1h2v-1h-4v1zm-24 0h2v1h-2v-1zm30-1h1v1h-1v-1z" fill="#cab983"/><path d="M15 41v14h4v-2h5v2h5v-2h6v2h5v-2h5v2h4V41z"/><g fill="#51774e"><path d="M45 44H34v4h-1v1h-1v2h3v2h5v-2h5v2h3v-5h-2v-1h-1zm-26 0v3h-1v1h-2v5h3v-2h5v2h5v-2h2v-7z"/><path d="M16 44h2v3h-2zm16 0h1v4h-1zm14 0h2v3h-2z"/></g><g fill="#cab983"><path d="M32 47h1v1h-1zm-6 4v-3h-3v-1h-1v-1h-1v-1h-1v1h-1v1h1v1h-1v1h3v2h1v-1h2v1zm-9-1h-1v3h2v-2h-1zm12 0h-1v2h-2v1h3v-2h2v-2h-2zm5-3h1v1h-1zm11 4h2v2h-2zm-18-5h2v1h-2zm20 0h1v1h-1z"/><path d="M33 49h-1v2h2v-3h-1zm11-2h2v1h-2zm-6-1h-1v1h2v-2h3v-1h-4zm3 1h-1v1h-3v1h2v2h2v-3h1v-2h-1z"/></g><g fill="#66553b"><path d="M17 48h-1v2h1v1h1v-2h-1zm13-3h-2v1h1v1h-2v-1h-1v-1h-2v1h-1v2h3v1h2v-1h1v1h2v-2h-1zm-14 1h2v1h-2zm7 4h2v1h-2zm21-3h1v-1h-1v-1h1v-1h-2v2h-1v2h2zm-3 3h4v1h-4zm0-4h-1v-1h-1v2h-2v-1h1v-2h-3v1h-1v1h2v3h1v-1h3v-1h1zm-22-2h1v1h-1z"/><path d="M41 48h1v1h-1zm-3 3v1h1v-3h-2v2zm-4-2h1v2h-1zm12-1v1h-1v1h2v-1h1v-1zm-11 4h2v1h-2zm-4-9v-1h-6v1h6zm8 0v-1h-5v1h5zm-15 0v-1h-8v1h8zm24 0v-1h-8v1h8z"/></g><path d="M32,42h1v1h-1V42z" fill="#cab983"/><path d="M12,34v-1h-1v-1h-1v-1H6v1h1v1h3v1h1v1h1v3h1v-4H12z"/><path d="M8,32h1v1H8V32z" fill="#757575"/><path d="M10 36v-2H9v-1H7v1H6v2H5v3h1v2h1v1h2v-1h1v-2h1v-3z" fill="#33691e"/><path d="M9 36v-2H7v2H6v3h1v2h2v-2h1v-3z" fill="#689f38"/><path d="M10 37v-1H9v-2H8v2H6v1h2v1H6v1h2v1h1v-1h1v-1H9v-1h1z" fill="#558b2f"/></svg>