<?xml version="1.0" encoding="utf-8"?>
<!-- Generator: Adobe Illustrator 25.3.1, SVG Export Plug-In . SVG Version: 6.00 Build 0)  -->
<svg version="1.1" id="Layer_1" xmlns="http://www.w3.org/2000/svg" xmlns:xlink="http://www.w3.org/1999/xlink" x="0px" y="0px"
	 viewBox="0 0 64 64" style="enable-background:new 0 0 64 64;" xml:space="preserve">
<style type="text/css">
	.st0{fill:#282473;}
	.st1{fill:#489FF8;}
	.st2{fill:#FFFFFF;}
	.st3{fill:#F696C6;}
	.st4{opacity:0.25;enable-background:new    ;}
	.st5{fill:#FFC03C;}
	.st6{fill:#FFEABE;}
	.st7{fill:#64438E;}
	.st8{display:none;}
	.st9{display:inline;}
	.st10{display:inline;fill:#FFFFFF;}
	.st11{fill:#42433D;}
	.st12{opacity:0.9;}
	.st13{fill:url(#SVGID_1_);}
	.st14{fill:#3A2B77;}
	.st15{fill:#B135FF;}
	.st16{fill:#47289B;}
	.st17{fill:#CB5BFF;}
	.st18{fill:#6F16E2;}
	.st19{fill:#F37AFF;}
	.st20{fill:#5D24BF;}
	.st21{fill:#8000FF;}
	.st22{fill:#FFA3FF;}
	.st23{fill:#FFC9FF;}
	.st24{fill:#511F17;}
	.st25{fill:#7A500C;}
	.st26{fill:#955C4B;}
	.st27{fill:#FF89FF;}
</style>
<g>
	<g>
		<path class="st0" d="M21,12h2v-2h-4v2h1H21z"/>
		<path class="st0" d="M19,14v-2h-2v2h1H19z M25,10h2V8h-4v2h1H25z"/>
		<path class="st0" d="M29,8h8V6H27v2h1H29z M45,14h2v-2h-2v1V14z"/>
		<path class="st0" d="M48,14h-1v39h-2v2h4V14H48z M37,10h4V8h-4v1V10z"/>
		<path class="st0" d="M41,12h4v-2h-4v1V12z M17,53V14h-2v41h4v-2h-1H17z"/>
		<path class="st0" d="M24,51h-5v2h5v-1V51z"/>
		<path class="st0" d="M27,53h-3v2h5v-2h-1H27z M45,51h-5v2h5v-1V51z"/>
		<path class="st0" d="M35,51h-6v2h6v-1V51z"/>
		<path class="st0" d="M38,53h-3v2h5v-2h-1H38z"/>
	</g>
	<g>
		<path class="st1" d="M18,43v6h2v-1h2v1h2v2h-5v2h-2V14h2v1h-1v26V43z"/>
		<path class="st1" d="M27,51h-3v2h5v-2h-1H27z M38,51h-3v2h5v-2h-1H38z"/>
		<path class="st1" d="M35,49h-2v-1h-2v1h-2v2h6v-1V49z M25,11h2v-1h-4v1h1H25z M21,13h2v-1h-4v1h1H21z M45,44v5h-1v-1h-2v1h-2v2h5
			v2h2V14h-2v29V44z"/>
		<path class="st1" d="M37,8H27v1h5v1h5V9V8z M45,12h-4v2h4v-1V12z"/>
		<path class="st1" d="M41,10h-4v2h4v-1V10z"/>
	</g>
	<path class="st2" d="M44,14h-3v-2h-4v-2h-5V9h-5v2h-4v2h-4v2h-1v34h2v-1h2v1h2v2h5v-2h2v-1h2v1h2v2h5v-2h2v-1h2v1h1V14H44z"/>
</g>
<path class="st3" d="M21,32v2h2v-2h-1H21z M42,32h-1v2h2v-2H42z"/>
<g>
	<path class="st0" d="M29,32h-2v2h2v-1V32z"/>
	<path class="st0" d="M33,34h-4v2h6v-2h-1H33z"/>
	<path class="st0" d="M36,32h-1v2h2v-2H36z"/>
</g>
<g>
	<path class="st4" d="M25,58h-6v1h1v1h24v-1h1v-1h-1H25z"/>
</g>
<g>
	<g>
		<path class="st0" d="M40,23v2h1v-2H40z"/>
		<path class="st0" d="M39,24v-1h-2v2h1v1h2v-1h-1V24z M26,24v1h1v-2h-1V24z"/>
		<path class="st0" d="M25,24v-1h-2v2h1v1h2v-1h-1V24z"/>
	</g>
	<g>
		<path class="st0" d="M35,23h-1v1h1V23z M35,25h-1v1h1V25z M44,23h-1v1h1V23z"/>
		<path class="st0" d="M45,24h-1v1h1V24z M37,23h6v-1h-8v1H37z"/>
		<path class="st0" d="M34,24h-1v1h1V24z M44,25h-1v1h1V25z"/>
		<path class="st0" d="M41,26h-6v1h8v-1H41z M21,23h-1v1h1V23z M21,25h-1v1h1V25z M30,23h-1v1h1V23z"/>
		<path class="st0" d="M31,24h-1v1h1V24z M23,23h6v-1h-8v1H23z"/>
		<path class="st0" d="M20,24h-1v1h1V24z M30,25h-1v1h1V25z"/>
		<path class="st0" d="M27,26h-6v1h8v-1H27z"/>
	</g>
</g>
<g>
	<g>
		<path class="st0" d="M37,15h-1v4h1V15z M34,20h1v1h-1V20z"/>
		<path class="st0" d="M35,19h1v1h-1V19z M29,20h1v1h-1V20z"/>
		<path class="st0" d="M34,22v-1h-4v1H34z"/>
	</g>
	<g>
		<path class="st1" d="M30.5,15v1h1v3h1v-3h1v-1H30.5z M30,12v1h4v-1H30z"/>
		<path class="st1" d="M34,13h1v1h-1V13z M27,19h1v-4h-1V19z M29,13h1v1h-1V13z"/>
		<path class="st1" d="M28,14h1v1h-1V14z"/>
	</g>
</g>
<g>
	<g>
		<path class="st5" d="M34,43v-1h-1v-1h-2v1h-1v1h-2v1h2v1h1v1h2v-1h1v-1h2v-1h-1H34z M19,38h1v1h-1V38z"/>
		<path class="st5" d="M18,37h1v1h-1V37z"/>
		<path class="st5" d="M17,36h1v1h-1V36z"/>
		<path class="st5" d="M16,35h1v1h-1V35z"/>
		<path class="st5" d="M15,34h1v1h-1V34z M20,39h1v1h-1V39z"/>
		<path class="st5" d="M22,40h-1v1h2v-1H22z"/>
		<path class="st5" d="M24,41h-1v1h2v-1H24z M44,38h1v1h-1V38z"/>
		<path class="st5" d="M45,37h1v1h-1V37z"/>
		<path class="st5" d="M46,36h1v1h-1V36z"/>
		<path class="st5" d="M47,35h1v1h-1V35z"/>
		<path class="st5" d="M48,34h1v1h-1V34z M43,39h1v1h-1V39z"/>
		<path class="st5" d="M41,40v1h2v-1h-1H41z"/>
		<path class="st5" d="M39,41v1h2v-1h-1H39z"/>
		<path class="st5" d="M37,42h-1v1h3v-1h-1H37z M27,42h-2v1h3v-1H27z"/>
	</g>
	<path class="st6" d="M33,43v-1h-2v1h-1v1h1v1h2v-1h1v-1H33z"/>
	<path class="st7" d="M32,43h-1v1h2v-1H32z"/>
</g>
<g class="st8">
	<g class="st9">
		<path class="st0" d="M19,42h1v1h-1V42z M20,36h1v1h-1V36z"/>
		<path class="st0" d="M21,37h1v1h-1V37z M26,40v4h1v-4H26z M21,43h-1v1h2v-1H21z"/>
		<path class="st0" d="M24,44h-2v1h4v-1h-1H24z M25,39h-1v1h2v-1H25z"/>
		<path class="st0" d="M23,38h-1v1h2v-1H23z"/>
	</g>
	<g class="st9">
		<path class="st1" d="M19,43h1v1h-1V43z M24,45h-2v1h4v-1h-1H24z"/>
		<path class="st1" d="M27,41v3h1v-3H27z M21,44h-1v1h2v-1H21z"/>
		<path class="st1" d="M26,44h1v1h-1V44z M19,41h-1v2h1v-1V41z"/>
	</g>
	<g class="st9">
		<path class="st0" d="M44,42h1v1h-1V42z M43,36h1v1h-1V36z"/>
		<path class="st0" d="M42,37h1v1h-1V37z"/>
		<path class="st0" d="M42,39v-1h-2v1h1H42z M42,43v1h2v-1h-1H42z"/>
		<path class="st0" d="M40,44h-2v1h4v-1h-1H40z"/>
		<path class="st0" d="M38,42v-2h-1v4h1v-1V42z"/>
		<path class="st0" d="M40,40v-1h-2v1h1H40z"/>
	</g>
	<g class="st9">
		<path class="st1" d="M42,44v1h2v-1h-1H42z M37,42v-1h-1v3h1v-1V42z"/>
		<path class="st1" d="M40,45h-2v1h4v-1h-1H40z"/>
		<path class="st1" d="M37,44h1v1h-1V44z M44,43h1v1h-1V43z"/>
	</g>
</g>
<g>
	<g>
		<path class="st0" d="M14,40h1v1h-1V40z M13,34h1v1h-1V34z"/>
		<path class="st0" d="M14,33h1v1h-1V33z M12,35h1v1h-1V35z M7,38h1v4H7V38z M12,41h2v1h-2V41z"/>
		<path class="st0" d="M8,42h4v1H8V42z M8,37h2v1H8V37z"/>
		<path class="st0" d="M10,36h2v1h-2V36z"/>
	</g>
	<g>
		<path class="st1" d="M14,39h1v1h-1V39z"/>
		<path class="st1" d="M12,40h2v1h-2V40z"/>
		<path class="st1" d="M8,41h4v1H8V41z"/>
	</g>
	<path class="st2" d="M8,38v3h4v-1h2v-1h1v-5h-1v1h-1v1h-1v1h-2v1H8z"/>
	<g>
		<path class="st0" d="M49,40h1v1h-1V40z M50,34h1v1h-1V34z"/>
		<path class="st0" d="M49,33h1v1h-1V33z M51,35h1v1h-1V35z M56,38h1v4h-1V38z M50,41h2v1h-2V41z"/>
		<path class="st0" d="M52,42h4v1h-4V42z M54,37h2v1h-2V37z"/>
		<path class="st0" d="M52,36h2v1h-2V36z"/>
	</g>
	<g>
		<path class="st1" d="M49,39h1v1h-1V39z"/>
		<path class="st1" d="M50,40h2v1h-2V40z"/>
		<path class="st1" d="M52,41h4v1h-4V41z"/>
	</g>
	<path class="st2" d="M54,38v-1h-2v-1h-1v-1h-1v-1h-1v5h1v1h2v1h4v-3H54z"/>
</g>
<g class="st8">
	<g class="st9">
		<path class="st1" d="M50,38h1v1h-1V38z"/>
		<path class="st1" d="M49,39h1v1h-1V39z M51,37h1v1h-1V37z"/>
		<path class="st1" d="M52,36h2v1h-2V36z"/>
		<path class="st1" d="M54,35h2v1h-2V35z"/>
	</g>
	<path class="st10" d="M52,32v1h-2v1h-1v5h1v-1h1v-1h1v-1h2v-1h2v-3H52z"/>
	<g class="st9">
		<path class="st0" d="M49,33h1v1h-1V33z"/>
		<path class="st0" d="M50,32h2v1h-2V32z M50,39h1v1h-1V39z"/>
		<path class="st0" d="M49,40h1v1h-1V40z M51,38h1v1h-1V38z"/>
		<path class="st0" d="M52,37h2v1h-2V37z M52,31h4v1h-4V31z"/>
		<path class="st0" d="M56,32h1v4h-1V32z"/>
		<path class="st0" d="M54,36h2v1h-2V36z"/>
	</g>
	<g class="st9">
		<path class="st1" d="M13,38h1v1h-1V38z"/>
		<path class="st1" d="M14,39h1v1h-1V39z M12,37h1v1h-1V37z"/>
		<path class="st1" d="M10,36h2v1h-2V36z"/>
		<path class="st1" d="M8,35h2v1H8V35z"/>
	</g>
	<path class="st10" d="M8,32v3h2v1h2v1h1v1h1v1h1v-5h-1v-1h-2v-1H8z"/>
	<g class="st9">
		<path class="st0" d="M14,33h1v1h-1V33z"/>
		<path class="st0" d="M12,32h2v1h-2V32z M13,39h1v1h-1V39z"/>
		<path class="st0" d="M14,40h1v1h-1V40z M12,38h1v1h-1V38z"/>
		<path class="st0" d="M10,37h2v1h-2V37z M8,31h4v1H8V31z"/>
		<path class="st0" d="M7,32h1v4H7V32z"/>
		<path class="st0" d="M8,36h2v1H8V36z"/>
	</g>
</g>
<g>
	<path d="M29,37v1h1v1h1v1h2v-1h1v-1h1v-1H29z"/>
</g>
<g>
	<g>
		<path class="st11" d="M20,28h1v1h-1V28z M20,21h1v1h-1V21z"/>
		<path class="st11" d="M21,29h1v1h-1V29z M29,28h1v1h-1V28z"/>
		<path class="st11" d="M21,20h1v1h-1V20z M28,29h1v1h-1V29z"/>
		<path class="st11" d="M19,22v2h-4v2h4v2h1v-6H19z M22,30h6v1h-6V30z M36,30h6v1h-6V30z M29,21h1v1h-1V21z"/>
		<path class="st11" d="M28,20h1v1h-1V20z"/>
		<path class="st11" d="M22,19h6v1h-6V19z M36,19h6v1h-6V19z M34,28h1v1h-1V28z"/>
		<path class="st11" d="M35,29h1v1h-1V29z M42,29h1v1h-1V29z M45,24v-2h-1v6h1v-2h4v-2H45z"/>
		<path class="st11" d="M43,28h1v1h-1V28z M35,20h1v1h-1V20z"/>
		<path class="st11" d="M43,21h1v1h-1V21z M34,21h1v1h-1V21z"/>
		<path class="st11" d="M33,22v2h-2v-2h-1v6h1v-2h2v2h1v-6H33z M42,20h1v1h-1V20z"/>
	</g>
	<g class="st12">
		
			<linearGradient id="SVGID_1_" gradientUnits="userSpaceOnUse" x1="17" y1="53" x2="17" y2="63" gradientTransform="matrix(1 0 0 -1 15 83)">
			<stop  offset="0" style="stop-color:#EE34B8"/>
			<stop  offset="8.500000e-02" style="stop-color:#EF3DBB"/>
			<stop  offset="0.225" style="stop-color:#F155C4"/>
			<stop  offset="0.4" style="stop-color:#F47DD2"/>
			<stop  offset="0.606" style="stop-color:#F9B4E5"/>
			<stop  offset="0.834" style="stop-color:#FFFAFD"/>
			<stop  offset="0.85" style="stop-color:#FFFFFF"/>
		</linearGradient>
		<path class="st13" d="M29,21h-1v-1h-6v1h-1v1h-1v6h1v1h1v1h6v-1h1v-1h1v-6h-1V21z M43,21h-1v-1h-6v1h-1v1h-1v6h1v1h1v1h6v-1h1v-1
			h1v-6h-1V21z"/>
	</g>
</g>
<g>
	<path class="st14" d="M53,14v-4h-2V8h-2V6h-2V4h-2V2h-4V0H29v2h-4v2h-2v2h-2v2h-2v2h-2v4h-2v4h-2v2h-2v2h42v-2h-2v-2h-2v-4h-2v-2
		h-2v-2h4v2h2v2H53z"/>
	<g>
		<path class="st15" d="M15,18v2h34v-2H15z M47,16v-2h-4v-2h-2v-2h2V8h4V6h-2V4h-4V2H29v2h-4v2h-2v2h-2v2h-2v4h-2v2H47z"/>
		<path class="st15" d="M31,15.9h3V18h-3V15.9z"/>
	</g>
	<path class="st16" d="M36,9V8h-1V7h-1V5h-1V4h-1v1h-1v2h-1v1h-1v1h-1v1h1v1h1v1h1v2h1v1h1v-1h1v-2h1v-1h1v-1h1V9H36z"/>
	<path class="st17" d="M31,11h3v1h-3V11z"/>
	<path class="st18" d="M33,8h2v1h-2V8z"/>
	<g>
		<path class="st14" d="M33,10h1v1h-1V10z M33,5h1v2h-1V5z"/>
		<path class="st14" d="M34,7h1v1h-1V7z M36,9h1v1h-1V9z"/>
		<path class="st14" d="M35,8h1v1h-1V8z M35,10h1v1h-1V10z M29,8h1v1h-1V8z M29,10h1v1h-1V10z M31,14h1v-2h-1V14z"/>
		<path class="st14" d="M30,11h1v1h-1V11z"/>
	</g>
	<path class="st19" d="M32,9h3v1h-3V9z"/>
	<path class="st20" d="M33,7h1v2h-1V7z"/>
	<g>
		<path class="st21" d="M31,10h2v1h-2V10z M33,7h1v1h-1V7z"/>
		<path class="st21" d="M32,11h1v3h-1V11z"/>
	</g>
	<g>
		<path class="st15" d="M32,9h1v2h-1V9z"/>
		<path class="st15" d="M33,11h1v1h-1V11z"/>
		<path class="st15" d="M34,9h1v2h-1V9z"/>
	</g>
	<path class="st22" d="M31,7v1h-1v2h3V7H31z"/>
	<path class="st23" d="M31,8h1v2h-1V8z"/>
	<path class="st17" d="M30,9.5h1V11h-1V9.5z M34,9v1h2V9H34z"/>
	<path class="st2" d="M32,5h1v5h-1V5z"/>
	<path class="st23" d="M29,9h4v1h-4V9z"/>
	<path class="st2" d="M31,9h1v1h-1V9z"/>
	<path class="st19" d="M31,16h1v1h-1V16z"/>
	<path class="st23" d="M31,17h1v1h-1V17z"/>
	<path class="st2" d="M32,16h1v1h-1V16z"/>
	<path class="st20" d="M32,17h1v1h-1V17z"/>
	<path class="st21" d="M33,16h1v1h-1V16z"/>
	<path class="st15" d="M33,17h1v1h-1V17z"/>
</g>
<g>
	<path class="st24" d="M12,34v-1h-1v-1H4v1H3v1H2v7h1v2h1v1h2v1h3v-1h2v-1h1v-2h1v-7H12z"/>
	<path class="st25" d="M10,36h1v1h-1V36z M3,40h1v-3H3V40z M5,39h1v-2H5V39z M7,41h1v-3H7V41z M9,38h1v1H9V38z M11,38v2h1v-2H11z
		 M5,43h1v-3H5V43z M9,42h1v-2H9V42z M7,44h1v-2H7V44z"/>
	<path class="st26" d="M11,34v-1H4v1H3v1h1v1h7v-1h1v-1H11z"/>
	<path class="st2" d="M4,34h7v1H4V34z"/>
	<g>
		<path class="st27" d="M3,27h1v1H3V27z"/>
		<path class="st27" d="M2,28h1v1H2V28z M4,28h1v2H4V28z"/>
		<path class="st27" d="M1,29h1v1H1V29z M5,30h1v2H5V30z"/>
		<path class="st27" d="M6,32h1v2H6V32z"/>
		<path class="st27" d="M7,34h1v1H7V34z"/>
	</g>
</g>
<g>
	<g transform="scale(-1, 1) translate(-62, 0)">
		<path class="st24" d="M10,34v-1H9v-1H2v1H1v1H0v7h1v2h1v1h2v1h3v-1h2v-1h1v-2h1v-7H10z"/>
		<path class="st25" d="M8,36h1v1H8V36z M1,40h1v-3H1V40z M3,39h1v-2H3V39z M5,41h1v-3H5V41z M7,38h1v1H7V38z M9,38v2h1v-2H9z M3,43
			h1v-3H3V43z M7,42h1v-2H7V42z M5,44h1v-2H5V44z"/>
		<path class="st26" d="M9,34v-1H2v1H1v1h1v1h7v-1h1v-1H9z"/>
		<path class="st2" d="M2,34h7v1H2V34z"/>
		<g>
			<path class="st27" d="M1,27h1v1H1V27z"/>
			<path class="st27" d="M0,28h1v1H0V28z M2,28h1v2H2V28z"/>
			<path class="st27" d="M-1,29h1v1h-1V29z M3,30h1v2H3V30z"/>
			<path class="st27" d="M4,32h1v2H4V32z"/>
			<path class="st27" d="M5,34h1v1H5V34z"/>
		</g>
	</g>
</g>
</svg>
