<svg xmlns="http://www.w3.org/2000/svg" viewBox="0 0 42 22"><path d="M4 18v2h34v-2H4zm32-2v-2h-4v-2h-2v-2h2V8h4V6h-2V4h-4V2H18v2h-4v2h-2v2h-2v2H8v4H6v2h30z"/><path d="M20 16h1v1h-1v-1z" fill="#ffc88a"/><g fill="#ffaa4a"><path d="M20 17h1v1h-1v-1zM21 16h1v1h-1v-1z"/></g><path d="M21 17h1v1h-1v-1z" fill="#ff8700"/><g fill="#191919"><path d="M38 20H4v-2H2v2H0v2h42v-2h-2v-2h-2v2zM8 14v-4H6v4h2zM10 10V8H8v2h2zm26-6h-2v2h2V4zM34 2h-4v2h4V2zM18 0v2h12V0H18zM14 2v2h4V2h-4zM12 4v2h-2v2h2V6h2V4h-2zm28 6V8h-2V6h-2v2h-4v2h-2v2h2v2h4v-2h-2v-2h4v2h2v2h2v-4h-2zM20 18v-2H6v-2H4v4h16zm16-2H22v2h16v-4h-2v2z"/></g><g fill="#ffaa4a"><path d="M18 10v2h1v1h1v1h1v-4h-3zM23 8V7h-1V6h-1v4h3V8h-1z"/></g><path d="M21 10v4h1v-1h1v-1h1v-2h-3z" fill="#ff8700"/><path d="M20 6v1h-1v1h-1v2h3V6h-1z" fill="#ffc88a"/><g fill="#191919"><path d="M20 14v1h2v-1h-2zM22 13h1v1h-1v-1zM23 12h1v1h-1v-1zm-5 0h1v1h-1v-1zM19 13h1v1h-1v-1zm-1-5h-1v4h1V8zm6 0v4h1V8h-1zm-2-2h1v1h-1V6zM18 7h1v1h-1V7zM19 6h1v1h-1V6zm4 1h1v1h-1V7zM22 6V5h-2v1h2z"/></g></svg>