<svg xmlns="http://www.w3.org/2000/svg" viewBox="0 0 60 31"><path d="M59 19v-3h-1v-2h-1v-2h-1v-2h-1V8h-1V6h-1V4h-1V2h-1V1h-1V0h-1v1h-1v2h-1v27h1v1h1v-1h1v-3h1v-1h1v-1h3v1h1v1h1v3h1v1h1v-1h1V19zM12 2V1h-1V0h-1v1H9v1H8v2H7v2H6v2H5v2H4v2H3v2H2v2H1v3H0v11h1v1h1v-1h1v-3h1v-1h1v-1h3v1h1v1h1v3h1v1h1v-1h1V3h-1z" fill="#002de4"/><g fill="#1973ff"><path d="M58 19v11h1V19zm-2-1v-1h-1v-2h-1v-2h-1v-2h-1V9h-1V7h-1v9h1v9h1v-1h3v1h1v1h1v-7h-1zM58 17h-1v2h1v-1z"/><path d="M56 17h1v-2h-1v1zM55 15h1v-2h-1v1zM54 13h1v-2h-1v1zM53 11h1V9h-1v1zM52 9h1V7h-1v1zM49 14V5h1v1h1v1h1V5h-1V3h-1V1h-1v2h-1v2h-1v2h1v8h-1v9h1v-8h1v-1zm-2 13h1v1h-1z"/><path d="M48 30h1v-2h-1v1zm1-13v8h-1v2h2V16h-1zM1 20v10h1V19H1zm9-6V7H9v2H8v2H7v2H6v2H5v2H4v2H3v7h1v-1h1v-1h3v1h1v-9h1v-1zM3 17H2v2h1v-1z"/><path d="M4 16v-1H3v2h1zM5 14v-1H4v2h1zM6 12v-1H5v2h1zM7 10V9H6v2h1zM8 8V7H7v2h1zM12 4V3h-1V1h-1v2H9v2H8v2h1V6h1V5h1v11h1v8h1v-9h-1V7h1V5h-1zm0 23h1v1h-1z"/><path d="M11 29v1h1v-2h-1zm-1-12v10h2v-2h-1v-9h-1z"/></g><g fill="#9dc3ff"><path d="M58 19v7h1v-7zm-7-2v7h1v-1h3v1h1v-5h-1v-2h-1v-2h-1v-2h-1v-2h-1V8h-1v8h1zM58 17h-1v2h1v-1zM57 15h-1v2h1v-1zM56 13h-1v2h1v-1zM55 11h-1v2h1v-1zM54 9h-1v2h1v-1zM53 7h-1v2h1V8zM52 5h-1V3h-1V2h-1v3h1v1h1v1h1V6zm-3 13v7h-1v2h1v-1h1V16h-1v1zM48 6v10h1V5h-1zM1 20v6h1v-7H1zM10 14V8H9v3H8v2H7v2H6v2H5v2H4v5h1v-1h3v1h1v-8h1v-1zm-8 4v1h1v-2H2zM3 16v1h1v-2H3zM4 14v1h1v-2H4zM5 12v1h1v-2H5zM6 10v1h1V9H6zM7 8v1h1V7H7zM11 3V2h-1v1H9v2H8v2h1V6h1V5h1V4zm-1 14v9h1v1h1v-2h-1v-9h-1zM11 6v10h1V5h-1z"/></g><path d="M49 1h1v1h-1zm-1 28h1v1h-1zm10-1v2h1v-2zM10 1h1v1h-1zm1 28h1v1h-1zM1 29v1h1v-2H1z" fill="#fff"/></svg>