<svg version="1.1" id="Layer_2_1_" xmlns="http://www.w3.org/2000/svg" x="0" y="0" viewBox="0 0 64 64" style="enable-background:new 0 0 64 64" xml:space="preserve"><style>.st1{fill:#00a5ff}.st2{fill:#0000b9}</style><path style="fill:none" d="M0 0h64v64H0z"/><g id="Sergey_Link_Eyes"><path class="st1" d="M39 24v2h-1v-2h1v-1h-2v1h-1v3h1v1h2v-1h1v-3zM27 25v1h-1v-2h1v-1h-2v1h-1v3h1v1h2v-1h1v-3h-1z"/><g><path class="st2" d="M35 23h1v1h-1zM35 26v-2h-1v4h1v-1zM35 28h1v1h-1zM40 23h1v1h-1zM41 24v4h1v-4zM38 23h2v-1h-4v1h1zM38 29h-2v1h4v-1h-1zM40 28h1v1h-1zM23 23h1v1h-1zM23 26v-2h-1v4h1v-1zM23 28h1v1h-1zM28 23h1v1h-1zM29 25v3h1v-4h-1zM26 23h2v-1h-4v1h1zM26 29h-2v1h4v-1h-1zM28 28h1v1h-1z"/></g></g></svg>