<svg xmlns="http://www.w3.org/2000/svg" viewBox="0 0 34 45"><path d="M33 8h-1V6h-2V4h-4V2h-4V0H12v2H8v2H4v2H2v2H0v37h2V19h1v-1h2v-1h2v-1h2v-1h2v-1h1v-1h1v-1h1v1h1v1h2v1h2v1h2v1h2v1h2v1h2v1h2v1h2v1h1v23h2V8z" fill="#9300d7"/><g fill="#ac27ff"><path d="M12 10h-1V8h-1V7H9V5H8v1H4v2H2v10h1v-1h2v-1h2v-1h2v-1h3v-2h1v-1h-1z"/><path d="M31 8h-1V6h-4V4h-4V2H12v2H9v1h1v2h1v1h1v2h1v1h1v1h1v1h2v1h2v1h2v1h2v1h2v1h2v1h2v1h2v1h1V8z"/></g><g fill="#c260ff"><path d="M11 5h-1v2h1V6zM8 5h1v1H8zM11 4h1v1h-1zM9 4h1v1H9zm5 0V3h-1v2h1zm1 1h1V3h-1v1zm3 0h1v1h-1zM17 5h1V3h-1v1zm2 0h2V4h-1V3h-1v1zM22 6h1V5h-2v1zm3-1h1v1h-1zM25 5V4h-2v1h1zm-4-2h1v1h-1zm-8 4h1v1h-1zm-2 0h1v1h-1zM12 7h1V5h-1v1zM8 8h1V7H7v1zM7 7V6H5v1h1zM4 7h1v1H4zm11 0h1v1h-1zM15 6V5h-1v2h1zm3 2h1V7h-2v1zM16 7h1V5h-1v1zm4 0h1V6h-2v1zM21 7v1h2V7h-1zM23 6v1h2V6h-1zM26 8h1V7h-2v1zm3-1h1v1h-1zM29 7V6h-2v1h1zM13 8h-1v2h1V9zM9 8h1v1H9zM7 9v1h2V9H8zM7 9V8H5v1h1zM5 10V9H3v1h1zm10-2h-1v2h1V9zm1 0h1v1h-1zM18 9h-1v1h2V9zM19 8v1h2V8h-1zM22 10h1V9h-2v1zM24 9h1V8h-2v1zM25 9v1h2V9h-1zM27 8v1h2V8h-1zm-16 3h1v1h-1zM10 11h1v-1H9v1zM7 11v1h2v-1H8zM7 11v-1H5v1h1zM5 12v-1H3v1h1zm8-2h1v1h-1zm3 0h-1v1h2v-1zM14 11h1v1h-1zm4 0h-1v1h2v-1zM20 10h-1v1h2v-1zM22 11h-1v1h2v-1zM23 10v1h2v-1h-1zM25 11v1h2v-1h-1zM27 10v1h2v-1h-1zM29 11v1h2v-1h-1zm1-2h-1v1h2V9zM31 8h1v1h-1zm0 2h1v1h-1zM2 8h1v1H2zm0 2h1v1H2zm29 2h1v1h-1zm0 2h1v1h-1zM29 13v1h2v-1h-1zM27 12v1h2v-1h-1zM25 13v1h2v-1h-1zM24 12h-1v1h2v-1zM22 13h-1v1h2v-1zm7 2v1h2v-1h-1zM26 15h-1v1h2v-1zm5 1h1v1h-1zm0 2h1v1h-1zm0 2h1v1h-1zM29 19v1h2v-1h-1zm0-2v1h2v-1h-1zM27 16v1h2v-1h-1zm0-2v1h2v-1h-1zm-3 0h-1v1h2v-1zm-4-2h-1v1h2v-1zm8 6h-1v1h2v-1zM26 17h-1v1h2v-1zM24 16h-1v1h2v-1zM22 15h-1v1h2v-1zM20 14h-1v1h2v-1zM18 13h-1v1h2v-1zM16 12h-1v1h2v-1zm-5 1h1v1h-1zM9 12v1h2v-1h-1zM7 13v1h2v-1H8zm-2 1v-1H3v1h1zM5 12v1h2v-1H6zm0 2v1h2v-1H6zm-3 0h1v1H2zM3 15v1h2v-1H4zM2 16h1v1H2zm0-4h1v1H2zM12 2h1v1h-1zm2 0h1v1h-1zm2 0h1v1h-1zm2 0h1v1h-1zm2 0h1v1h-1z"/></g></svg>