<svg xmlns="http://www.w3.org/2000/svg" viewBox="0 0 34 45"><g fill="#ffa207"><path d="M33 8h-1V6h-2V4h-4V2h-4V0H12v2H8v2H4v2H2v2H0v37h2V19h1v-1h2v-1h2v-1h2v-1h2v-1h1v-1h1v-1h1v1h1v1h2v1h2v1h2v1h2v1h2v1h2v1h2v1h2v1h1v23h2V8h-1z"/><path d="M12 10h-1V8h-1V7H9V5H8v1H4v2H2v10h1v-1h2v-1h2v-1h2v-1h3v-2h1v-1h-1v-1z"/><path d="M31 8h-1V6h-4V4h-4V2H12v2H9v1h1v2h1v1h1v2h1v1h1v1h1v1h2v1h2v1h2v1h2v1h2v1h2v1h2v1h2v1h1V8h-1z"/></g><g fill="#ffc03c"><path d="M11 5h-1v2h1V5zM8 5h1v1H8V5zM11 4h1v1h-1V4zM9 4h1v1H9V4zm5 0V3h-1v2h1V4zm1 1h1V3h-1v2zm3 0h1v1h-1V5zM17 5h1V3h-1v2zm2 0h2V4h-1V3h-1v2zM22 6h1V5h-2v1h1zm3-1h1v1h-1V5zM25 5V4h-2v1h2zm-4-2h1v1h-1V3zm-8 4h1v1h-1V7zm-2 0h1v1h-1V7zM12 7h1V5h-1v2zM8 8h1V7H7v1h1zM7 7V6H5v1h2zM4 7h1v1H4V7zm11 0h1v1h-1V7zM15 6V5h-1v2h1V6zm3 2h1V7h-2v1h1zM16 7h1V5h-1v2zm4 0h1V6h-2v1h1zM21 7v1h2V7h-2zM23 6v1h2V6h-2zM26 8h1V7h-2v1h1zm3-1h1v1h-1V7zM29 7V6h-2v1h2zM13 8h-1v2h1V8zM9 8h1v1H9V8zM7 9v1h2V9H7zM7 9V8H5v1h2zM5 10V9H3v1h2zm10-2h-1v2h1V8zm1 0h1v1h-1V8zM18 9h-1v1h2V9h-1zM19 8v1h2V8h-2zM22 10h1V9h-2v1h1zM24 9h1V8h-2v1h1zM25 9v1h2V9h-2zM27 8v1h2V8h-2zm-16 3h1v1h-1v-1zM10 11h1v-1H9v1h1zM7 11v1h2v-1H7zM7 11v-1H5v1h2zM5 12v-1H3v1h2zm8-2h1v1h-1v-1zm3 0h-1v1h2v-1h-1zM14 11h1v1h-1v-1zm4 0h-1v1h2v-1h-1zM20 10h-1v1h2v-1h-1zM22 11h-1v1h2v-1h-1zM23 10v1h2v-1h-2zM25 11v1h2v-1h-2zM27 10v1h2v-1h-2zM29 11v1h2v-1h-2zm1-2h-1v1h2V9h-1zM31 8h1v1h-1V8zm0 2h1v1h-1v-1zM2 8h1v1H2V8zm0 2h1v1H2v-1zm29 2h1v1h-1v-1zm0 2h1v1h-1v-1zM29 13v1h2v-1h-2zM27 12v1h2v-1h-2zM25 13v1h2v-1h-2zM24 12h-1v1h2v-1h-1zM22 13h-1v1h2v-1h-1zm7 2v1h2v-1h-2zM26 15h-1v1h2v-1h-1zm5 1h1v1h-1v-1zm0 2h1v1h-1v-1zm0 2h1v1h-1v-1zM29 19v1h2v-1h-2zm0-2v1h2v-1h-2zM27 16v1h2v-1h-2zm0-2v1h2v-1h-2zm-3 0h-1v1h2v-1h-1zm-4-2h-1v1h2v-1h-1zm8 6h-1v1h2v-1h-1zM26 17h-1v1h2v-1h-1zM24 16h-1v1h2v-1h-1zM22 15h-1v1h2v-1h-1zM20 14h-1v1h2v-1h-1zM18 13h-1v1h2v-1h-1zM16 12h-1v1h2v-1h-1zm-5 1h1v1h-1v-1zM9 12v1h2v-1H9zM7 13v1h2v-1H7zm-2 1v-1H3v1h2zM5 12v1h2v-1H5zm0 2v1h2v-1H5zm-3 0h1v1H2v-1zM3 15v1h2v-1H3zM2 16h1v1H2v-1zm0-4h1v1H2v-1zM12 2h1v1h-1V2zm2 0h1v1h-1V2zm2 0h1v1h-1V2zm2 0h1v1h-1V2zm2 0h1v1h-1V2z"/></g></svg>