<svg version="1.1" id="Layer_1" xmlns="http://www.w3.org/2000/svg" x="0" y="0" viewBox="0 0 42 22" style="enable-background:new 0 0 42 22" xml:space="preserve"><style>.st2{fill:#ff0096}.st3{fill:#0000be}.st4{fill:#ffbe00}.st5{fill:#fff}</style><path d="M41 3V2h-1V1h-1V0h-4v1h-2v1h-2v1h-2v1h-2v1h-2v2h-2v1h-1v1h-2V8h-1V7h-2V5h-2V4h-2V3h-2V2H9V1H7V0H3v1H2v1H1v1H0v7h1V9h2V8h1v14h4v-2h5v2h5v-2h6v2h5v-2h5v2h4V8h1v1h2v1h1V3h-1z" style="fill:#0064b4"/><path d="M39 1h-1v6h1v1h1V2h-1V1zM3 2H2v6h1V7h1V1H3v1zm38 2h1v1h-1V4zm0 2h1v1h-1V6zm0 2h1v1h-1V8zM0 4h1v1H0V4zm0 2h1v1H0V6zm0 2h1v1H0V8zm36 7v-2h-1v-2h-1v-1h-5v1h-2v2h-1v2h-1v1h-1v1h-2v1h2v2h5v-2h5v2h3v-4h-1v-1zm-18 2v-1h-1v-1h-1v-2h-1v-2h-2v-1H8v1H7v2H6v3H5v4h3v-2h5v2h5v-2h2v-1h-2z" style="fill:#0af"/><path class="st2" d="M14 5h-1v1h2V5h-1zM15 6v1h2V6h-2zm13-1h-1v1h2V5h-1zM25 6v1h2V6h-2z"/><path class="st3" d="M14 4h-1v1h2V4h-1zM15 5v1h2V5h-2zm13-1h-1v1h2V4h-1zM25 5v1h2V5h-2z"/><path class="st4" d="M5 8V7H4v3h1V8zm-1 5h1v1H4v-1z"/><path class="st4" d="M20 10v1h2v-1h-2zm-7-4V4h-2V3H9V2H7V1H4v2h1v4h1v3H5v1H4v1h1v1h1v-2h1v-1h1V7H7V4h1v3h1v2h2V7h-1V5h1v2h1v2h1v1h1V7h1V6h-2zM19 9V8h-2v1h1v1h2V9h-1zM16 7h1v1h-1V7zm21-6h-2v1h-2v1h-2v1h-2v2h-2v1h1v3h1V9h1V7h1V5h1v2h-1v2h2V7h1V4h1v3h-1v3h1v1h1v2h1v-1h1v-1h-1v-1h-1V7h1V3h1V1h-1z"/><path class="st4" d="M37 9v1h1V7h-1v2zm0 4h1v1h-1v-1zm-16-1h-1v-1h-3v-1h-1v3h1v-1h2v1h-2v2h1v-1h6v1h1v-2h-2v-1h2v1h1v-3h-1v1h-3v1h-1zm4-5h1v1h-1V7zM23 8v1h-1v1h2V9h1V8h-2z"/><path class="st5" d="M17 10h1v1h-1v-1zm3 6v1h2v-1h-2zM19 15v-1h-1v2h2v-1h-1zm-2-7h-1V7h-1v3h2V8zm7 2h1v1h-1v-1zM26 7v1h-1v2h2V7h-1zm-3 8h-1v1h2v-2h-1v1z"/><path d="M7 10h1v1H7v-1zM6 12v1h1v-2H6v1zM5 5V3H4v4h1V5zM6 9V7H5v3h1V9zM4 10h1v1H4v-1zm0 2h1v1H4v-1zM5 14H4v2h2v-3H5v1zm12-5h1v1h-1V9zM8 5V4H7v3h1V5zM12 9V7h-1v2H9V7H8v3h5V9h-1zm5 4h-1v2h1v-2zM17 15h1v1h-1v-1zm-1-4v-1h-1V7h-1v3h-1v1h2v2h1v-2zm-5-7h2V3h-2v1zM10 3h1V2H9v1h1zM8 2h1V1H7v1h1zm11 6h1v1h-1V8zM18 7h-1v1h2V7h-1zm4 9v1h2v-1h-2zm-3 0h-1v1h2v-1h-1zM6 1h1V0H4v1h2zm5 4h-1v2h1V5zm8 8v-1h-2v1h2zm0-2h1v-1h-2v1h1zM20 11v1h2v-1h-2zM37 0h-2v1h3V0h-1zm-3 10h1v1h-1v-1zM36 11h-1v2h1v-2zm0-3v2h1V7h-1v1zM37 10h1v1h-1v-1zm0 2h1v1h-1v-1zM36 14v2h2v-2h-1v-1h-1v1zm-4-8V5h-1v2h1V6zm-4 3V7h-1v3h-1v3h1v-2h2v-1h-1V9zm-4 0h1v1h-1V9zm13-5v3h1V3h-1v1zm-2 2V4h-1v3h1V6zM34 8V7h-1v2h-2V7h-1v2h-1v1h5V8zm-9 6v1h1v-2h-1v1zM24 15h1v1h-1v-1zm0-3h-1v1h2v-1h-1zm7-8V3h-2v1h2zM31 2v1h2V2h-2zM33 1v1h2V1h-2zM23 11h1v-1h-2v1h1zm-1-3h1v1h-1V8zM25 8V7h-2v1h2zm-3 2V9h-2v1h2zm0 6v-1h1v-1h-4v1h1v1h2zm-2 1v1h2v-1h-2z"/></svg>