<svg xmlns="http://www.w3.org/2000/svg" viewBox="0 0 64 64"><path d="M0 0h64v64H0z" fill="none"/><g fill="#dcdcdc"><path d="M30 38v-2h-2v4h-2v2h2v2h2v2h2v-8zM26 34h2v2h-2zm-2 4h2v2h-2zM24 34h2v-2h-2v-2h-2v8h2v-2z"/></g><g fill="#f5f5f5"><path d="M40 30v2h-2v2h2v4h2v-8zM36 34h2v2h-2zm2 4h2v2h-2zM36 38v-2h-2v2h-2v8h2v-2h2v-2h2v-2h-2z"/></g><g fill="#339cf0"><path d="M36 20h2v2h-2zm-2-2v-2h-4v2h2zM34 18h2v2h-2zm4 4h2v2h-2zM40 24h2v2h-2zM42 26v12h2V26zM26 42h2v2h-2zM28 44h2v2h-2zm-4-4h2v2h-2zM22 38h2v2h-2zM22 34v-8h-2v12h2v-2zm8 12v2h4v-2h-2zm6-4h2v2h-2zM34 44h2v2h-2zm4-4h2v2h-2zM40 38h2v2h-2zM24 22h2v2h-2zM22 24h2v2h-2zm4-4h2v2h-2zM28 18h2v2h-2zm-2 22h2v-4h-2v-2h-2v4h2zm14-2v-4h-2v2h-2v4h2v-2z"/></g><g fill="#b9b9b9"><path d="M40 28h2v2h-2zM38 30h2v2h-2zM36 32h2v2h-2zm-10 0h2v2h-2zM28 34h2v2h-2zM30 36v2h4v-2h-2zm-6-6h2v2h-2zM22 28h2v2h-2zm12 6h2v2h-2z"/></g><path d="M40 26v-2h-2v-2h-2v-2h-2v-2h-4v2h-2v2h-2v2h-2v2h-2v2h2v2h2v2h2v2h2v2h4v-2h2v-2h2v-2h2v-2h2v-2h-2zm-12 4v-2h-2v-2h2v-2h2v-2h2v2h-2v2h-2v2h2v2h2v2h-2v-2h-2z" fill="#fff"/><path d="M26 26h2v2h-2zm4 4h2v2h-2zM30 22h2v2h-2zm-2 6h2v2h-2zM28 24h2v2h-2z"/></svg>