<svg xmlns="http://www.w3.org/2000/svg" viewBox="0 0 34 11"><path d="M6 9h1v1H6V9zM5 8h1v1H5V8zM5 6V2H4v2H2v1h2v3h1V6zM5 1h1v1H5V1zM0 3v1h2V3H0zm9 7H7v1h4v-1H9zM11 9v1h2V9h-2zM13 8h1v1h-1V8zM14 7h1v1h-1V7zm0-6h1v1h-1V1zM8 1h6V0H6v1h2zm19 8h1v1h-1V9zM28 8h1v1h-1V8zm0-7h1v1h-1V1zM30 4V2h-1v6h1V5h2V4h-2zM32 3v1h2V3h-2zm-7 7h-2v1h4v-1h-2zM22 9h-1v1h2V9h-1zM20 8h1v1h-1V8zM19 7h1v1h-1V7zM19 5V2h-1v2h-2V2h-1v5h1V5h2v2h1V5zM19 1h1v1h-1V1zM22 1h6V0h-8v1h2z"/><path d="M14 1H6v1H5v6h1v1h1v1h4V9h2V8h1V7h1V2h-1V1zm14 1V1h-8v1h-1v5h1v1h1v1h2v1h4V9h1V8h1V2h-1z" opacity=".75" fill="#a000dc"/><g fill="#d778f5"><path d="M11 1h1v1h-1V1zM8 1h1v1H8V1zM10 2h1v1h-1V2zM7 2h1v1H7V2zM9 3h1v1H9V3zM6 3h1v1H6V3zM8 4h1v1H8V4zM7 5h1v1H7V5zM6 6h1v1H6V6zM5 4h1v1H5V4zm17-3h1v1h-1V1zm3 0h1v1h-1V1zM21 2h1v1h-1V2zm3 0h1v1h-1V2zM20 3h1v1h-1V3zm3 0h1v1h-1V3zM22 4h1v1h-1V4zM21 5h1v1h-1V5zM20 6h1v1h-1V6zm-1-2h1v1h-1V4z"/></g></svg>