<svg version="1.1" id="Layer_1" xmlns="http://www.w3.org/2000/svg" x="0" y="0" viewBox="0 0 64 64" style="enable-background:new 0 0 64 64" xml:space="preserve"><style>.st3{fill:#5abdce}.st5{fill:#c22b2a}.st6{fill:#7d0019}</style><path style="fill:none" d="M0 0h64v64H0z"/><path d="M14 22v7h1v-8h-1v1zm35-1v8h1v-8h-1zm-10 6h-2v2h4v-2h-2zm-14 0h-2v2h4v-2h-2z" style="fill:#c0642e"/><path d="M27 37h-3v3h5v-3h-2zm11 0h-3v3h5v-3h-2zm1-6h-2v2h3v-2h-1zm-13 2h1v-2h-3v2h2z" style="fill:#8e9397"/><path class="st3" d="M34 31h-1v2h-2v-2h-2v6h2v-2h2v2h2v-6h-1zM33 31v-2h-2v2h2z"/><path d="M33 37v-2h-2v2h-2v4h6v-4h-2zm15-15v1h-1v1h-2v1h-2v1h-2v3h-8v2h2v2h2v-2h3v2h9V22h-1zM31 31v2h2v-2h-2zM31 29h-8v-3h-2v-1h-2v-1h-2v-1h-1v-1h-1v11h9v-2h3v2h2v-2h2v-2zm-2 6H15v8h4v-2h5v-4h5v-2zm18 0H35v2h5v4h5v2h4v-8h-2z"/><path d="M27 40h-3v3h5v-3h-2zm11 0h-3v3h5v-3h-2zm10-7H35v2h14v-2h-1zm-21 0H15v2h14v-2h-2z" style="fill:#ffc500"/><g><path class="st5" d="M14 38v1h-1v3h2v-6h-1v2z"/><path class="st5" d="M14 30h-1v4h-1v4h-1v1h-1v3h2v-3h1v-3h1v-1h1v-6h-1v1zm5 11v1h2v-1h-2zm3 0v1h2v-1h-2zm18 0v1h2v-1h-2zm3 0v1h2v-1h-2zm-14 0v1h2v-1h-2zm4 0v1h2v-1h-2zm17-3v-2h-1v6h2v-3h-1v-1z"/><path class="st5" d="M53 39v-1h-1v-4h-1v-4h-1v-1h-1v6h1v1h1v3h1v3h2v-3h-1z"/><g><path class="st6" d="M14 35h1v1h-1v-1zM13 37v2h1v-3h-1v1zm9 5v-1h-1v1h-2v1h5v-1h-2zm21 0v-1h-1v1h-2v1h5v-1h-2zm-10 0v-1h-2v1h-2v1h6v-1h-2zM12 40v2h-2v-3h1v-1H9v5h6v-1h-2v-3h-1v1zM12 37v-3h1v-4h-1v3h-1v5h1v-1zm37-2h1v1h-1v-1zM51 37v-1h-1v3h1v-2zm2-1v-3h-1v-3h-1v4h1v4h1v-2zM54 38h-1v1h1v3h-2v-3h-1v3h-2v1h6v-5h-1z"/></g></g></svg>