<svg xmlns="http://www.w3.org/2000/svg" viewBox="0 0 64 64"><path d="M0 0h64v64H0z" fill="none"/><g fill="#00a0f5"><path d="M50.5 37.5h-1v1h3v-1h-2zm3 0h1v1h-1v-1zM47.5 38.5h-39v1h41v-1h-2zM7.5 37.5h-2v1h3v-1h-1zm-4 0h1v1h-1v-1z"/></g><g fill="#fff"><path d="M55.5 26.5h2v-1h-10v2h7v-1h1z"/><path d="M58.5 26.5h-1v1h-3v1h-49v6h1v1h1v1h1v1h41v-1h1v-1h1v-1h1v-1h1v-1h1v-1h1v-1h1v-1h1v-1h1v-1h1v-1h-1zm-45 6h8v1h-8v-1zm33 1h-8v-1h9v1h-1zm-39-6h6v-2h-7v1h-1v1h2z"/></g><g fill="#e1dad7"><path d="M19.5 32.5h-6v1h8v-1h-2zm26 0h-7v1h9v-1h-2zm11-5h1v-1h-3v1h2zm0-3h-9v1h10v-1h-1zm-48 1h5v-1h-7v1h2zM5.5 25.5h1v1h-1v-1z"/><path d="M5.5 32.5v-4h49v-1h-49v-1h-1v8h1v-2zM5.5 34.5h1v1h-1v-1zm54-9h-2v1h2v1h1v-2h-1zM58.5 27.5h1v1h-1v-1zM57.5 28.5h1v1h-1v-1zM56.5 29.5h1v1h-1v-1zM55.5 30.5h1v1h-1v-1zM54.5 31.5h1v1h-1v-1zM53.5 32.5h1v1h-1v-1zM52.5 33.5h1v1h-1v-1zM51.5 34.5h1v1h-1v-1zM50.5 35.5h1v1h-1v-1zM49.5 36.5h1v1h-1v-1zM47.5 37.5h-39v1h41v-1h-2zm-41-2h1v1h-1v-1z"/><path d="M7.5 36.5h1v1h-1v-1zm17-4h-1v-1h-1v4h1v-2h1v2h1v-4h-1v1zM28.5 32.5h-1v-1h-1v4h1v-2h1v2h1v-4h-1v1zm-5-2h1v1h-1v-1zM27.5 30.5h1v1h-1v-1zm5 1v3h1v-4h-1v1zm3-1h-1v5h3v-1h-2v-1h2v-1h-2v-1h2v-1h-2zm-4 2v-2h-1v4h1v-2zM31.5 34.5h1v1h-1v-1z"/></g></svg>