<svg xmlns="http://www.w3.org/2000/svg" viewBox="0 0 54 27"><g fill="#fff"><path d="M16 17h2v1h-2v-1zM23 20h-1v1h-4v-1h-1v-1h-1v-1h-1v2h1v2h2v1h4v-1h2v-3h-1v1zm13-3h2v1h-2v-1zM38 18v1h-1v1h-1v1h-4v-1h-1v-1h-1v3h2v1h4v-1h2v-2h1v-2h-1z"/></g><path d="M24 19h1v3h-1v-3zm10-3v1h-2v1h-2v1h1v1h1v1h4v-1h1v-1h1v-1h-2v-1h2v1h1v2h-1v2h1v-1h1v-5h-6zM15 20h1v2h-1v-2zm21 2h2v1h-2v-1zM32 23h4v1h-4v-1zM30 22h2v1h-2v-1zm-8 0h2v1h-2v-1zM18 23h4v1h-4v-1z"/><path d="M16 22h2v1h-2v-1zm13-3h1v3h-1v-3zm-14-1h1v-1h2v1h-2v1h1v1h1v1h4v-1h1v-1h1v-1h-2v-1h-2v-1h-6v4h1v-2z"/><path d="M42 13v-2h-6v1h-3v1h-2v1h-1v1h-1v1h-1v1h-1v10h1v-1h1v-1h1v-1h1v1h1v1h4v-1h3v-1h3v-2h2v-9h-2zM32 24v-1h-2v-1h-1v-3h1v-1h2v-1h2v-1h6v5h-1v1h-1v1h-2v1h-4z" fill="#ffcb00"/><path d="M26 17v-1h-1v-1h-1v-1h-1v-1h-2v-1h-3v-1h-6v2h-2v9h2v2h3v1h3v1h4v-1h1v-1h1v1h1v1h1v1h1V17h-1zm-4 6v1h-4v-1h-2v-1h-1v-2h-1v-4h6v1h2v1h2v1h1v3h-1v1h-2z" fill="#ffb300"/><path d="M26 4v1h-1v1h-1v2h3V4h-1z" fill="#46cdff"/><path d="M27 8v4h1v-1h1v-1h1V8h-3z" fill="#0093ff"/><g fill="#00afff"><path d="M24 8v2h1v1h1v1h1V8h-3zM29 6V5h-1V4h-1v4h3V6h-1z"/></g><g fill="#fff"><path d="M4 2v2h4v2H4v2h4v2H4v2h4v2H6v2h4V2H4zm40 0v14h4v-2h-2v-2h4v-2h-4V8h4V6h-4V4h4V2h-6zm-8 2h2v6h-2V4zM16 4h2v6h-2V4zm8 1h1v1h-1V5zM23 6h1v4h-1V6zM24 10h1v1h-1v-1zM25 11h1v1h-1v-1zM26 12h2v1h-2v-1zm-1-8h1v1h-1V4zm4 6h1v1h-1v-1zm0-5h1v1h-1V5zM30 6h1v4h-1V6zm-4-3h2v1h-2V3zM28 11h1v1h-1v-1zm0-7h1v1h-1V4z"/></g><path d="M6 16h4v2H6v-2zM4 16h2v-2h2v-2H4v4zM10 0H0v2h2v10h2v-2h4V8H4V6h4V4H4V2h6V0zm34 16h4v2h-4v-2zM46 12v2h2v2h2v-4h-4zM44 0v2h6v2h-4v2h4v2h-4v2h4v2h2V2h2V0H44zM42 2v2h-2V2h-6V0H20v2h-6v2h-2V2h-2v11h2v-2h6v1h3v1h2v1h1v1h1v1h1v1h2v-1h1v-1h1v-1h1v-1h2v-1h3v-1h6v2h2V2h-2zm-13 9v1h-1v1h-2v-1h-1v-1h-1v-1h-1V6h1V5h1V4h1V3h2v1h1v1h1v1h1v4h-1v1h-1zm-13-1V4h2v6h-2zm20 0V4h2v6h-2z"/></svg>