<svg xmlns="http://www.w3.org/2000/svg" viewBox="0 0 40 19"><path d="M34 1v1h-1v1h-1v1h-1v1h-1v1h-1v1h-2v1h-2v1h-3v1h-4V9h-3V8h-2V7h-2V6h-1V5H9V4H8V3H7V2H6V1H4v17h32V1h-2z"/><g fill="#1e1e1e"><path d="M6 1h1v1H6V1zm2 2h1v1H8V3zM7 2h1v1H7V2zm3 3h1v1h-1V5zM9 4h1v1H9V4zm4 3h2v1h-2V7zM11 6h2v1h-2V6zm22-5h1v1h-1V1zm-2 2h1v1h-1V3zM32 2h1v1h-1V2zm-3 3h1v1h-1V5zM30 4h1v1h-1V4zm-5 3h2v1h-2V7zM27 6h2v1h-2V6zm-9 3h4v1h-4V9z"/><path d="M15 8h3v1h-3V8zm7 0h3v1h-3V8zM3 19h34V0h-3v1h2v17H4V1h2V0H3v19z"/></g><g fill="#fff"><path d="M8 13H7v-2H6v5h1v-2h1v2h1v-5H8v2zm3-2h1v1h-1v-1zM12 14h-1v-2h-1v4h1v-1h1v1h1v-4h-1v2zm5-3v5h1v-2h1v-1h-1v-1h1v-1h-2zm-2 0h-1v5h2v-1h-1v-4zm6 0v5h1v-4h1v-1h-2zm10 0v1h1v4h1v-4h1v-1h-3zm-7 2h2v1h-2v-1zm5-1h1v1h-1v-1zm-5-1h2v1h-2v-1zm0 4h2v1h-2v-1zm5-1h1v2h-1v-2zM28 11h-1v5h1v-2h1v-1h-1v-2z"/></g><path d="M3 2H2v1H1v6h1V8h1V2z"/><g fill="#1e1e1e"><path d="M1 3H0v7h2V9H1V3zM1 2h1v1H1V2zm2 6H2v1h1V8zM3 1H2v1h1V1z"/></g><path d="M37 8h1v1h1V3h-1V2h-1v6z"/><g fill="#1e1e1e"><path d="M39 3v6h-1v1h2V3h-1zM38 2h1v1h-1V2zm-1 7h1V8h-1v1zM37 2h1V1h-1v1z"/></g></svg>