<svg xmlns="http://www.w3.org/2000/svg" viewBox="0 0 34 12"><path d="M13 2h-1V1H6v1H5v1H4v6h1v1h1v1h6v-1h1V9h1V3h-1V2zm16 0h-1V1h-6v1h-1v1h-1v6h1v1h1v1h6v-1h1V9h1V3h-1V2z"/><g fill="red"><path d="M21 1h1v1h-1V1zM20 3h-1v2h-4V3h-1V2h-1v1h1v6h1V7h4v2h1V3h1V2h-1v1zm2-3h6v1h-6V0zM22 11h6v1h-6v-1zm6-10h1v1h-1V1zM29 2h1v1h-1V2zm0 7h1v1h-1V9zM28 10h1v1h-1v-1zm-6 1v-1h-1V9h-1v1h1v1h1zm9-6V3h-1v6h1V7h3V5h-3zM6 0h6v1H6V0zM12 1h1v1h-1V1zM6 11h6v1H6v-1zM5 1h1v1H5V1zM4 2h1v1H4V2zm0 7h1v1H4V9zM13 10h-1v1h1v-1h1V9h-1v1zm-8 0h1v1H5v-1zM3 5H0v2h3v2h1V3H3v2z"/></g><path d="M8 2v1H7v1H6v2h3V2H8z" fill="#7d7d7d"/><path d="M9 6v4h1V9h1V8h1V6H9z" fill="#282828"/><g fill="#464646"><path d="M6 6v2h1v1h1v1h1V6H6zM11 4V3h-1V2H9v4h3V4h-1z"/></g><g fill="#646464"><path d="M26.5 4.6h1v1h-1v-1zm0 2h1v1h-1v-1zM24.5 5.6v-1h2v-1h-1v-1h-1v1h-2v1h1v3h-1v1h2v1h1v-1h1v-1h-2v-1h2v-1h-2z"/></g></svg>