<svg xmlns="http://www.w3.org/2000/svg" viewBox="0 0 44 24"><path d="M4 20h1v3h14V11h-4v-1h-2V9h-1V8h-1V7h-1V6H9V5H8V4H7V3H6V2H4v18zm18-7h1v1h-1v-1zM21 14h1v1h-1v-1zm1-3h1v1h-1v-1zM21 12h1v1h-1v-1zm0-2h1v1h-1v-1zm19-8h-2v1h-1v1h-1v1h-1v1h-1v1h-1v1h-1v1h-1v1h-2v1h-4v12h14v-3h1V2zM22 15h1v1h-1v-1zM21 16h1v1h-1v-1zM22 17h1v1h-1v-1zM21 18h1v1h-1v-1zM22 19h1v1h-1v-1zM21 20h1v1h-1v-1zM22 21h1v1h-1v-1zM21 22h1v1h-1v-1zM22 23h1v1h-1v-1z"/><g fill="#f0f"><path d="M5 23h14v1H5v-1zm20 0h14v1H25v-1zM7 2h1v1H7V2zm2 2h1v1H9V4zM8 3h1v1H8V3zm2 2h1v1h-1V5zM11 6h1v1h-1V6zm2 2h2v1h-2V8zm23-6h1v1h-1V2zM35 3h1v1h-1V3zM34 4h1v1h-1V4zm-2 2h1v1h-1V6zM33 5h1v1h-1V5zm-4 3h2v1h-2V8zM12 7h1v1h-1V7zm19 0h1v1h-1V7zm-2 3V9H15v1h5v14h1V10h2v14h1V10h5z"/></g><g fill="#0ff"><path d="M8 4h1v1H8V4zM7 3h1v1H7V3zm3 3h1v1h-1V6zM9 5h1v1H9V5zm26-1h1v1h-1V4zM36 3h1v1h-1V3zm-3 3h1v1h-1V6zM34 5h1v1h-1V5zm-10 5v14h1V11h4v-1h-5zM6 2h1v1H6V2zm6 6h1v1h-1V8zM11 7h1v1h-1V7zm2 2h2v1h-2V9zm24-7h1v1h-1V2zm-6 6h1v1h-1V8zM32 7h1v1h-1V7zm-3 2h2v1h-2V9zm-7 5h1v1h-1v-1zM21 13h1v1h-1v-1zM22 12h1v1h-1v-1zM21 11h1v1h-1v-1zM22 10h1v1h-1v-1zm-7 0v1h4v13h1V10h-5zm6 5h1v1h-1v-1zM22 16h1v1h-1v-1zM21 17h1v1h-1v-1zM22 18h1v1h-1v-1zM21 19h1v1h-1v-1zM22 20h1v1h-1v-1zM21 21h1v1h-1v-1zm0 2h1v1h-1v-1zM22 22h1v1h-1v-1z"/></g><path d="M1 5h1v7H1V5z" fill="#f0f"/><path d="M0 5h1v7H0V5z" fill="#0ff"/><path d="M3 3v1H2v7h1v5h1V3H3z"/><path d="M42 5h1v7h-1V5z" fill="#f0f"/><path d="M43 5h1v7h-1V5z" fill="#0ff"/><path d="M41 4V3h-1v13h1v-5h1V4h-1z"/></svg>