<svg xmlns="http://www.w3.org/2000/svg" viewBox="0 0 28 12"><g fill="#7d00ff"><path d="M21 4h2v1h-2V4zM23 5h1v2h-1V5zM21 7h2v1h-2V7zM20 5h1v2h-1V5z"/></g><path d="M21 5h2v2h-2V5z" fill="#0ff"/><path d="M24 4V3h-4v1h-1v4h1v1h4V8h1V4h-1zm0 3h-1v1h-2V7h-1V5h1V4h2v1h1v2z" fill="#f0f"/><g fill="#ff0"><path d="M24 3h1v1h-1V3zM25 4h1v4h-1V4zm-6 4h1v1h-1V8zM18 4h1v4h-1V4zm2 5h4v1h-4V9zM24 8h1v1h-1V8zm-4-6h4v1h-4V2zM19 3h1v1h-1V3z"/></g><path d="M26 3V2h-1V1h-6v1h-1v1h-1v6h1v1h1v1h6v-1h1V9h1V3h-1zm0 5h-1v1h-1v1h-4V9h-1V8h-1V4h1V3h1V2h4v1h1v1h1v4z" fill="#0f0"/><path d="M19 0h6v1h-6V0zM25 1h1v1h-1V1zM27 3V2h-1v1h1v6h1V3h-1zm-8 8h6v1h-6v-1zM18 1h1v1h-1V1zM17 2h1v1h-1V2zm0 7h1v1h-1V9zM26 10h-1v1h1v-1h1V9h-1v1zm-8 0h1v1h-1v-1zm-2-7h1v6h-1V3z"/><g fill="#7d00ff"><path d="M5 4h2v1H5V4zM7 5h1v2H7V5zM5 7h2v1H5V7zM4 5h1v2H4V5z"/></g><path d="M5 5h2v2H5V5z" fill="#0ff"/><path d="M8 4V3H4v1H3v4h1v1h4V8h1V4H8zm0 3H7v1H5V7H4V5h1V4h2v1h1v2z" fill="#f0f"/><g fill="#ff0"><path d="M8 3h1v1H8V3zM9 4h1v4H9V4zM3 8h1v1H3V8zM2 4h1v4H2V4zm2 5h4v1H4V9zM8 8h1v1H8V8zM4 2h4v1H4V2zM3 3h1v1H3V3z"/></g><path d="M10 3V2H9V1H3v1H2v1H1v6h1v1h1v1h6v-1h1V9h1V3h-1zm0 5H9v1H8v1H4V9H3V8H2V4h1V3h1V2h4v1h1v1h1v4z" fill="#0f0"/><path d="M3 0h6v1H3V0zM9 1h1v1H9V1zM11 3V2h-1v1h1v6h1V3h-1zm-8 8h6v1H3v-1zM2 1h1v1H2V1zM1 2h1v1H1V2zm0 7h1v1H1V9zM10 10H9v1h1v-1h1V9h-1v1zm-8 0h1v1H2v-1zM0 3h1v6H0V3z"/></svg>