<svg xmlns="http://www.w3.org/2000/svg" viewBox="0 0 9 33"><g fill="#ffa3ff"><path d="M2 4h1v1H2V4zM3 3h1v1H3V3z"/></g><g fill="#cb5bff"><path d="M3 7h1v1H3V7zM2 6h1v1H2V6zm4-1v1h2V5H6z"/></g><path d="M6 4h1v1H6V4z" fill="#6f16e2"/><g fill="#3a2b77"><path d="M5 6h1v1H5zm0-5h1v2H5zM6 3h1v1H6V3zm2 2h1v1H8V5zM7 4h1v1H7V4zm0 2h1v1H7V6zM1 4h1v1H1V4zm0 2h1v1H1V6zm2 4h1V8H3v2zM2 7h1v1H2V7z"/></g><g fill="#47289b"><path d="M4 0h1v1H4V0zM4 1H3v2h1V1zM2 3h1v1H2zm2 7h1v23H4zM5 10h1V8H5v2zM6 7v1h1V7H6zM0 5h1v1H0V5z"/></g><path d="M5 5h1v1H5z" fill="#f37aff"/><g fill="#ffc9ff"><path d="M3 4h1v1H3V4zM4 5h1v1H4zM1 5h2v1H1z"/></g><g fill="#fff"><path d="M3 5h1v1H3V5zM4 1h1v4H4z"/></g><path d="M5 4h1v1H5z" fill="#5d24bf"/><g fill="#8000ff"><path d="M3 6h1v1H3V6zm2-3h1v1H5V3zM4 7h1v3H4z"/></g><g fill="#b135ff"><path d="M4 6h1v1H4V6zM5 7h1v1H5V7zM6 6h1v1H6z"/></g></svg>