<svg xmlns="http://www.w3.org/2000/svg" viewBox="0 0 50 20"><g fill="#de9a53"><path d="M22 2h2v2h-2V2zm4 0h2v2h-2V2zm4 0h2v2h-2V2zM28 4h2v2h-2V4zm4 0h2v2h-2V4zm4 0h2v2h-2V4zM18 2h2v2h-2V2zM22 6h2v2h-2V6zm4 0h2v2h-2V6zm4 0h2v2h-2V6zM18 6h2v2h-2V6zm4 4h2v2h-2v-2zm4 0h2v2h-2v-2zm4 0h2v2h-2v-2zm-12 0h2v2h-2v-2zm4 4h2v2h-2v-2zm4 0h2v2h-2v-2zm4 0h2v2h-2v-2zm4-8h2v2h-2V6zm0 4h2v2h-2v-2zm0 4h2v2h-2v-2zm-16 0h2v2h-2v-2zm-4-8h2v2h-2V6zM14 10h2v2h-2v-2zm0 4h2v2h-2v-2zm2-10h2v2h-2V4zm4 0h2v2h-2V4zm4 0h2v2h-2V4zM12 4h2v2h-2V4zm16 4h2v2h-2V8zm4 0h2v2h-2V8zM36 8h2v2h-2V8zM16 8h2v2h-2V8zm4 0h2v2h-2V8zm4 0h2v2h-2V8zM12 8h2v2h-2V8zm16 4h2v2h-2v-2zm4 0h2v2h-2v-2zm4 0h2v2h-2v-2zm-20 0h2v2h-2v-2zm4 0h2v2h-2v-2zm4 0h2v2h-2v-2zm-12 0h2v2h-2v-2zm16 4h2v2h-2v-2zm4 0h2v2h-2v-2zm4 0h2v2h-2v-2zM38 14h2v2h-2v-2zM40 16h2v2h-2v-2zm-24 0h2v2h-2v-2zm4 0h2v2h-2v-2zm4 0h2v2h-2v-2zm-12 0h2v2h-2v-2zM10 14h2v2h-2v-2zM8 16h2v2H8v-2z"/></g><g fill="#a97955"><path d="M24 12h-2v2h2v-2zm-10 2h2v-2h-2v2zm6-2h-2v2h2v-2zm14 0v2h2v-2h-2zm-2 0h-2v2h2v-2zm-4 0h-2v2h2v-2zm-12-2V8h-2v2h2zm4 0V8h-2v2h2zm10-2v2h2V8h-2zm-6 2V8h-2v2h2zm2 0h2V8h-2v2zM24 8h2V6h-2v2zm-2 0V6h-2v2h2zm-4 0V6h-2v2h2zm14-2v2h2V6h-2zM28 8h2V6h-2v2zm-8-2V4h-2v2h2zM22 6h2V4h-2v2zm8 0h2V4h-2v2zm-4 0h2V4h-2v2zm8 2v2h2V8h-2zm-20 6h-2v2h2v-2zm8 0h-2v2h2v-2zm-4 0h-2v2h2v-2zm20 0h-2v2h2v-2zM30 14h-2v2h2v-2zm4 0h-2v2h2v-2zm-12-4h-2v2h2v-2zm-4 2v-2h-2v2h2zm8-2h-2v2h2v-2zm4 0h-2v2h2v-2zm2 0v2h2v-2h-2zm-6 4h-2v2h2v-2zM0 18v2h50v-2h-6v-2h-2v2h-2v-2h-2v2h-2v-2h-2v2h-2v-2h-2v2h-2v-2h-2v2h-2v-2h-2v2h-2v-2h-2v2h-2v-2h-2v2h-2v-2h-2v2H8v-2H6v2H0z"/><path d="M38 6h-2v2h2v2h-2v2h2v2h2v2h2v-4h-2V4h-2v2z"/><path d="M16 0v2h-4v2h2v2h2V4h2V2h2v2h2V2h2v2h2V2h2v2h2V2h2v2h2v2h2V4h2V2h-4V0H16z"/><path d="M10 16v-2h2v-2h2v-2h-2V8h2V6h-2V4h-2v8H8v4h2z"/></g></svg>