<svg xmlns="http://www.w3.org/2000/svg" viewBox="0 0 13 22"><g fill="#205fec"><path d="M10 2h1v1h-1V2zM9 3h1v1H9V3zM6 3h1v1H6V3zM5 2h1v1H5V2zM4 3h1v1H4V3zM3 4h1v1H3V4zM2 5h1v1H2V5z"/></g><g fill="#88bdf3"><path d="M11 3h1v1h-1V3zM8 4h1v1H8V4zM7 3h1v1H7V3zM1 4h1v1H1V4z"/></g><g fill="#fff"><path d="M1 1v3h1v1h1V4h1V3h1V2h1v1h2v1h1V3h1V2h1v1h1V1H1z"/><path d="M10 4H9v1H8V4H6V3H5v1H4v1H3v1H2V5H1v2h11V4h-1V3h-1v1z"/></g><path d="M1 1H0v6h1V1zM12 1V0H1v1h11zM12 1v6h1V1h-1zM12 8V7H1v1h5v14h1V8h5z"/></svg>