<svg xmlns="http://www.w3.org/2000/svg" viewBox="0 0 19 15"><g fill="#0e0c15"><path d="M4 2V1H2v1h2zM1 2h1v1H1V2zM1 3H0v3h1V3zM2 7h1V6H1v3h1V7zM2 9h1v1H2V9zM3 10h1v1H3v-1zM4 11h1v1H4v-1zM5 12v1h2v-1H5zm5-1v-1H8v1h2zM8 10V9H6v1h2zM5 8h1v1H5V8zM5 8V7H3v1h2zm2 5v1h4v-1H7zM10 11v1h1v1h1v-1h1v-1h-3zM8 1V0H4v1h4zM10 2V1H8v1h2zM10 2h1v1h-1V2zm2 2h1v1h-1V4zM13 7h1V5h-1v2zM14 9h2V8h-1V7h-1v2zM18 10V9h-2v1h2zM18 10v2h-2v2h-2v1h3v-2h2v-3h-1z"/><path d="M15 11h1v1h-1v-1zM14 10h1v1h-1v-1zm-3-7h1v1h-1V3zm3 9h-1v2h1v-2z"/></g><g fill="#fff"><path d="M8 3h1V2H6v1h1v1h1V3zM4 7h1V6h1V5h1V4H5v1H4v2zm6 4H8v-1H6V9H5V8H3V7H2v2h1v1h1v1h1v1h2v1h4v-1h-1v-1zM2 5h1V4h1V3H1v3h1V5zm8 1h1V5h1V4H9v1h1v1z"/><path d="M13 7V6h-1v2h-1v3h1V9h1V8h1V7h-1zM9 7h1V6H9V5H8v1H7v3h1v1h1V7z"/></g><g fill="#f27322"><path d="M6 3V2h2V1H4v1H2v1h2v1H3v1H2v1h1v1h1V5h1V4h2V3H6z"/><path d="M11 4V3h-1V2H9v1H8v1H7v1H6v1H5v2h1v1h1V6h1V5h1V4h2z"/><path d="M9 5h1v1H9V5zM12 6h1V5h-2v1h-1v1H9v3h1v1h1V8h1V6zm4 4V9h-2V8h-1v1h-1v2h1v1h1v2h2v-2h-1v-1h-1v-1h1v1h1v1h2v-2h-2z"/></g></svg>