<svg xmlns="http://www.w3.org/2000/svg" viewBox="0 0 17 25"><g fill="#ffb9ff"><path d="M1 8h1v1H1V8zM15 5h-1V4h-2V3h-2V2H9V1H8v1H7v1H5v1H3v1H2v3h1v1h1V8h1v1h1V8h1v1h1V8h1v1h1V8h1v1h1V8h1v1h1V8h1V5zM8 7V6H7V5h1V4h1v1h1v1H9v1H8z"/><path d="M8 5h1v1H8V5zm7 3h1v1h-1V8z"/></g><g fill="#ff64ff"><path d="M7 1h1v1H7V1zM5 4V3H3v1h2zM2 4h1v1H2V4zM2 5H1v3h1V5zM0 8h1v1H0V8zM1 9h1v1H1V9zM2 8h1v1H2V8zm2 0h1v1H4V8zm2 0h1v1H6V8zM8 24h1V10h1V9H9V8H8v1H7v1h1v14zM10 8h1v1h-1V8zm2 0h1v1h-1V8zm2 0h1v1h-1V8zM3 9h1v1H3V9zM5 9h1v1H5V9zm6 0h1v1h-1V9zm2 0h1v1h-1V9zm2 0h1v1h-1V9zM7 3V2H5v1h2zm1-3h1v1H8V0zM9 1h1v1H9V1zM12 3V2h-2v1h2zM14 4V3h-2v1h2zM14 4h1v1h-1V4zM15 8h1V5h-1v3zM16 8h1v1h-1V8zM7 24h1v1H7v-1zM6 23h1v1H6v-1zM8 6h1v1H8V6zM7 5h1v1H7V5zm2 0h1v1H9V5zM8 4h1v1H8V4z"/></g></svg>